<svg width="20.000000" height="20.000000" viewBox="0 0 20 20" fill="none" xmlns="http://www.w3.org/2000/svg" xmlns:xlink="http://www.w3.org/1999/xlink">
	<desc>
			Created with Pixso.
	</desc>
	<defs>
		<clipPath id="clip2492_17832">
			<rect id="Plus" width="20.000000" height="20.000000" fill="white" fill-opacity="0"/>
		</clipPath>
	</defs>
	<g clip-path="url(#clip2492_17832)">
		<path id="plus" d="M10 0.83C10.46 0.83 10.83 1.2 10.83 1.66L10.83 9.16L18.33 9.16C18.79 9.16 19.16 9.54 19.16 10C19.16 10.46 18.79 10.83 18.33 10.83L10.83 10.83L10.83 18.33C10.83 18.79 10.46 19.16 10 19.16C9.54 19.16 9.16 18.79 9.16 18.33L9.16 10.83L1.66 10.83C1.2 10.83 0.83 10.46 0.83 10C0.83 9.54 1.2 9.16 1.66 9.16L9.16 9.16L9.16 1.66C9.16 1.2 9.54 0.83 10 0.83Z" fill="#FF3F3A" fill-opacity="1.000000" fill-rule="evenodd"/>
	</g>
</svg>
