<svg viewBox="0 0 11.3335 14.334" xmlns="http://www.w3.org/2000/svg" xmlns:xlink="http://www.w3.org/1999/xlink" width="11.333496" height="14.333984" fill="none" customFrame="#000000">
	<g id="Files">
		<path id="Vector" d="M4.16619 0C3.98938 0 3.81981 0.0702379 3.69479 0.195262L0.19479 3.69526C0.0697665 3.82029 -0.000471354 3.98985 -0.000471791 4.16667L-0.000488281 11.6667C-0.000492016 13.1394 1.19342 14.3333 2.66618 14.3333L8.6662 14.3333C10.139 14.3333 11.3329 13.1394 11.3329 11.6667L11.3329 2.66667C11.3329 1.19391 10.139 0 8.6662 0L4.16619 0ZM1.33285 11.6667L1.33286 5.33333L4.66617 5.33333C5.03436 5.33333 5.33284 5.03486 5.33284 4.66667L5.33284 1.33333L8.6662 1.33333C9.40258 1.33333 9.99953 1.93029 9.99953 2.66667L9.99953 11.6667C9.99953 12.403 9.40258 13 8.6662 13L2.66618 13C1.9298 13 1.33284 12.403 1.33285 11.6667ZM3.99951 4L3.99951 1.77616L1.77567 4L3.99951 4ZM2.99951 8.16667C2.99951 7.79848 3.29799 7.5 3.66618 7.5L7.66618 7.5C8.03437 7.5 8.33285 7.79848 8.33285 8.16667C8.33285 8.53486 8.03437 8.83333 7.66618 8.83333L3.66618 8.83333C3.29799 8.83333 2.99951 8.53486 2.99951 8.16667ZM2.99951 10.6667C2.99951 10.2985 3.29799 10 3.66618 10L5.66618 10C6.03437 10 6.33285 10.2985 6.33285 10.6667C6.33285 11.0349 6.03437 11.3333 5.66618 11.3333L3.66618 11.3333C3.29799 11.3333 2.99951 11.0349 2.99951 10.6667Z" fill="rgb(65.6094,68.8538,80.75)" fill-rule="evenodd" />
	</g>
</svg>
