<svg viewBox="0 0 16 16" xmlns="http://www.w3.org/2000/svg" xmlns:xlink="http://www.w3.org/1999/xlink" width="16.000000" height="16.000000" fill="none">
	<rect id="mic" width="16.000000" height="16.000000" x="0.000000" y="0.000000" />
	<path id="Vector" d="M8 0.400391C5.8645 0.400391 4.13333 2.13156 4.13333 4.26706L4.13333 7.46706C4.13333 9.60256 5.8645 11.3337 8 11.3337C10.1355 11.3337 11.8667 9.60256 11.8667 7.46706L11.8667 4.26706C11.8667 2.13156 10.1355 0.400391 8 0.400391ZM5.46667 4.26706C5.46667 2.86794 6.60088 1.73372 8 1.73372C9.39912 1.73372 10.5333 2.86794 10.5333 4.26706L10.5333 7.46706C10.5333 8.86618 9.39912 10.0004 8 10.0004C6.60088 10.0004 5.46667 8.86618 5.46667 7.46706L5.46667 4.26706ZM2.66667 5.73372C3.03486 5.73372 3.33333 6.0322 3.33333 6.40039L3.33333 7.46706C3.33333 10.0444 5.42267 12.1337 8 12.1337C10.5773 12.1337 12.6667 10.0444 12.6667 7.46706L12.6667 6.40039C12.6667 6.0322 12.9651 5.73372 13.3333 5.73372C13.7015 5.73372 14 6.0322 14 6.40039L14 7.46706C14 10.5554 11.6666 13.0988 8.66667 13.4304L8.66667 14.2671L10.1333 14.2671C10.5015 14.2671 10.8 14.5655 10.8 14.9337C10.8 15.3019 10.5015 15.6004 10.1333 15.6004L5.86667 15.6004C5.49848 15.6004 5.2 15.3019 5.2 14.9337C5.2 14.5655 5.49848 14.2671 5.86667 14.2671L7.33333 14.2671L7.33333 13.4304C4.33337 13.0988 2 10.5554 2 7.46706L2 6.40039C2 6.0322 2.29848 5.73372 2.66667 5.73372Z" fill="rgb(65.6094,68.8538,80.75)" fill-rule="evenodd" />
</svg>
