<svg width="12.000000" height="15.199219" viewBox="0 0 12 15.1992" fill="none" xmlns="http://www.w3.org/2000/svg" xmlns:xlink="http://www.w3.org/1999/xlink">
	<desc>
			Created with Pixso.
	</desc>
	<defs/>
	<path id="Vector" d="M2.13 3.86C2.13 1.73 3.86 0 6 0C8.13 0 9.86 1.73 9.86 3.86L9.86 7.06C9.86 9.2 8.13 10.93 6 10.93C3.86 10.93 2.13 9.2 2.13 7.06L2.13 3.86ZM6 1.33C4.6 1.33 3.46 2.46 3.46 3.86L3.46 7.06C3.46 8.46 4.6 9.59 6 9.59C7.39 9.59 8.53 8.46 8.53 7.06L8.53 3.86C8.53 2.46 7.39 1.33 6 1.33ZM0.66 5.33C1.03 5.33 1.33 5.63 1.33 6L1.33 7.06C1.33 9.64 3.42 11.73 6 11.73C8.57 11.73 10.66 9.64 10.66 7.06L10.66 6C10.66 5.63 10.96 5.33 11.33 5.33C11.7 5.33 12 5.63 12 6L12 7.06C12 10.15 9.66 12.69 6.66 13.02L6.66 13.86L8.13 13.86C8.5 13.86 8.79 14.16 8.79 14.53C8.79 14.9 8.5 15.19 8.13 15.19L3.86 15.19C3.49 15.19 3.2 14.9 3.2 14.53C3.2 14.16 3.49 13.86 3.86 13.86L5.33 13.86L5.33 13.02C2.33 12.69 0 10.15 0 7.06L0 6C0 5.63 0.29 5.33 0.66 5.33Z" fill="#424551" fill-opacity="1.000000" fill-rule="evenodd"/>
</svg>
