<svg width="11.333496" height="14.333984" viewBox="0 0 11.3335 14.334" fill="none" xmlns="http://www.w3.org/2000/svg" xmlns:xlink="http://www.w3.org/1999/xlink">
	<desc>
			Created with Pixso.
	</desc>
	<defs/>
	<path id="Vector" d="M4.16 0C3.98 0 3.82 0.07 3.69 0.19L0.19 3.69C0.07 3.82 0 3.99 0 4.16L0 11.66C0 13.13 1.19 14.33 2.66 14.33L8.66 14.33C10.13 14.33 11.33 13.13 11.33 11.66L11.33 2.66C11.33 1.19 10.13 0 8.66 0L4.16 0ZM1.33 11.66L1.33 5.33L4.66 5.33C5.03 5.33 5.33 5.03 5.33 4.66L5.33 1.33L8.66 1.33C9.4 1.33 10 1.92 10 2.66L10 11.66C10 12.4 9.4 13 8.66 13L2.66 13C1.93 13 1.33 12.4 1.33 11.66ZM4 4L4 1.77L1.77 4L4 4ZM3 8.16C3 7.79 3.29 7.5 3.66 7.5L7.66 7.5C8.03 7.5 8.33 7.79 8.33 8.16C8.33 8.53 8.03 8.83 7.66 8.83L3.66 8.83C3.29 8.83 3 8.53 3 8.16ZM3 10.66C3 10.29 3.29 10 3.66 10L5.66 10C6.03 10 6.33 10.29 6.33 10.66C6.33 11.03 6.03 11.33 5.66 11.33L3.66 11.33C3.29 11.33 3 11.03 3 10.66Z" fill="#424551" fill-opacity="1.000000" fill-rule="evenodd"/>
</svg>
