<svg viewBox="0 0 16 16" xmlns="http://www.w3.org/2000/svg" xmlns:xlink="http://www.w3.org/1999/xlink" width="16.000000" height="16.000000" fill="none">
	<rect id="Play" width="16.000000" height="16.000000" x="0.000000" y="0.000000" />
	<path id="Vector" d="M7.99984 0.666016C3.94975 0.666016 0.666504 3.94926 0.666504 7.99935C0.666504 12.0494 3.94975 15.3327 7.99984 15.3327C12.0499 15.3327 15.3332 12.0494 15.3332 7.99935C15.3332 3.94926 12.0499 0.666016 7.99984 0.666016ZM1.99984 7.99935C1.99984 4.68564 4.68613 1.99935 7.99984 1.99935C11.3135 1.99935 13.9998 4.68564 13.9998 7.99935C13.9998 11.3131 11.3135 13.9993 7.99984 13.9993C4.68613 13.9993 1.99984 11.3131 1.99984 7.99935ZM10.7117 6.94002C11.4099 7.47368 11.4099 8.52507 10.7117 9.05873L7.65841 11.3924C6.78101 12.0629 5.51541 11.4373 5.51541 10.333L5.51541 5.66575C5.51541 4.56144 6.78101 3.93581 7.65841 4.6064L10.7117 6.94002ZM9.90204 7.99938L6.84875 5.66575L6.84875 10.333L9.90204 7.99938Z" fill="rgb(65.6094,68.8538,80.75)" fill-rule="evenodd" />
</svg>
