<svg width="1920.000000" height="1080.000000" viewBox="0 0 1920 1080" fill="none" xmlns="http://www.w3.org/2000/svg" xmlns:xlink="http://www.w3.org/1999/xlink">
	<desc>
			Created with Pixso.
	</desc>
	<defs>
		<clipPath id="clip2234_8803">
			<rect id="circles" width="284.000000" height="284.000000" transform="translate(-112.000000 896.000000)" fill="white" fill-opacity="0"/>
		</clipPath>
		<clipPath id="clip2234_8808">
			<rect id="dots" width="187.000000" height="137.000000" transform="translate(1763.000000 749.000000)" fill="white" fill-opacity="0"/>
		</clipPath>
		<clipPath id="clip2234_8802">
			<rect id="shapes" width="1920.000000" height="1080.000000" fill="white" fill-opacity="0"/>
		</clipPath>
	</defs>
	<g clip-path="url(#clip2234_8802)">
		<g opacity="0.200000">
			<g clip-path="url(#clip2234_8803)">
				<path id="Vector" d="M30.09 896C-48.46 896 -112 959.54 -112 1038.1C-112 1116.46 -48.46 1180.19 30.09 1180.19C108.45 1180.19 172.19 1116.65 172.19 1038.1C172 959.54 108.45 896 30.09 896ZM30.09 1171.03C-43.39 1171.03 -102.84 1111.57 -102.84 1038.1C-102.84 964.61 -43.39 905.16 30.09 905.16C103.58 905.16 163.03 964.61 163.03 1038.1C163.03 1111.39 103.38 1171.03 30.09 1171.03Z" fill="#FFFFFF" fill-opacity="1.000000" fill-rule="nonzero"/>
				<path id="Vector" d="M30.09 926.6C-31.31 926.6 -81.21 976.5 -81.21 1037.9C-81.21 1099.3 -31.31 1149.19 30.09 1149.19C91.49 1149.19 141.39 1099.5 141.39 1038.1C141.39 976.5 91.49 926.6 30.09 926.6ZM30.09 1132.24C-21.95 1132.24 -64.25 1089.94 -64.25 1037.9C-64.25 985.85 -21.95 943.56 30.09 943.56C82.14 943.56 124.44 985.85 124.44 1037.9C124.44 1089.94 82.14 1132.24 30.09 1132.24Z" fill="#FFFFFF" fill-opacity="1.000000" fill-rule="nonzero"/>
				<path id="Vector" d="M30.09 975.52C-4.41 975.52 -32.48 1003.6 -32.48 1038.1C-32.48 1072.6 -4.6 1100.67 30.09 1100.67C64.59 1100.67 92.66 1072.6 92.66 1038.1C92.47 1003.6 64.59 975.52 30.09 975.52ZM30.09 1071.62C11.58 1071.62 -3.43 1056.61 -3.43 1038.1C-3.43 1019.58 11.58 1004.57 30.09 1004.57C48.61 1004.57 63.62 1019.58 63.62 1038.1C63.62 1056.61 48.61 1071.62 30.09 1071.62Z" fill="#FFFFFF" fill-opacity="1.000000" fill-rule="nonzero"/>
			</g>
		</g>
		<g opacity="0.800000">
			<g clip-path="url(#clip2234_8808)">
				<path id="Vector" d="M1768.34 789.26C1768.34 790.78 1767.19 791.92 1765.67 791.92C1764.14 791.92 1763 790.78 1763 789.26C1763 787.74 1764.14 786.6 1765.67 786.6C1767.19 786.6 1768.34 787.87 1768.34 789.26Z" fill="#FFFFFF" fill-opacity="1.000000" fill-rule="nonzero"/>
				<path id="Vector" d="M1791.08 789.26C1791.08 790.78 1789.93 791.92 1788.41 791.92C1786.88 791.92 1785.74 790.78 1785.74 789.26C1785.74 787.74 1786.88 786.6 1788.41 786.6C1789.81 786.6 1791.08 787.87 1791.08 789.26Z" fill="#FFFFFF" fill-opacity="1.000000" fill-rule="nonzero"/>
				<path id="Vector" d="M1813.69 789.26C1813.69 790.78 1812.54 791.92 1811.02 791.92C1809.5 791.92 1808.35 790.78 1808.35 789.26C1808.35 787.74 1809.5 786.6 1811.02 786.6C1812.54 786.6 1813.69 787.87 1813.69 789.26Z" fill="#FFFFFF" fill-opacity="1.000000" fill-rule="nonzero"/>
				<path id="Vector" d="M1836.43 789.26C1836.43 790.78 1835.28 791.92 1833.76 791.92C1832.24 791.92 1831.09 790.78 1831.09 789.26C1831.09 787.74 1832.24 786.6 1833.76 786.6C1835.28 786.6 1836.43 787.87 1836.43 789.26Z" fill="#FFFFFF" fill-opacity="1.000000" fill-rule="nonzero"/>
				<path id="Vector" d="M1859.17 789.26C1859.17 790.78 1858.02 791.92 1856.5 791.92C1854.98 791.92 1853.83 790.78 1853.83 789.26C1853.83 787.74 1854.98 786.6 1856.5 786.6C1857.9 786.6 1859.17 787.87 1859.17 789.26Z" fill="#FFFFFF" fill-opacity="1.000000" fill-rule="nonzero"/>
				<path id="Vector" d="M1881.91 789.26C1881.91 790.78 1880.76 791.92 1879.24 791.92C1877.72 791.92 1876.57 790.78 1876.57 789.26C1876.57 787.74 1877.72 786.6 1879.24 786.6C1880.76 786.6 1881.91 787.87 1881.91 789.26Z" fill="#FFFFFF" fill-opacity="1.000000" fill-rule="nonzero"/>
				<path id="Vector" d="M1904.52 789.26C1904.52 790.78 1903.38 791.92 1901.85 791.92C1900.33 791.92 1899.18 790.78 1899.18 789.26C1899.18 787.74 1900.33 786.6 1901.85 786.6C1903.38 786.6 1904.52 787.87 1904.52 789.26Z" fill="#FFFFFF" fill-opacity="1.000000" fill-rule="nonzero"/>
				<path id="Vector" d="M1927.26 789.26C1927.26 790.78 1926.12 791.92 1924.59 791.92C1923.07 791.92 1921.92 790.78 1921.92 789.26C1921.92 787.74 1923.07 786.6 1924.59 786.6C1926.12 786.6 1927.26 787.87 1927.26 789.26Z" fill="#FFFFFF" fill-opacity="1.000000" fill-rule="nonzero"/>
				<path id="Vector" d="M1950 789.26C1950 790.78 1948.86 791.92 1947.33 791.92C1945.81 791.92 1944.66 790.78 1944.66 789.26C1944.66 787.74 1945.81 786.6 1947.33 786.6C1948.73 786.6 1950 787.87 1950 789.26Z" fill="#FFFFFF" fill-opacity="1.000000" fill-rule="nonzero"/>
				<path id="Vector" d="M1768.34 808.13C1768.34 809.65 1767.19 810.79 1765.67 810.79C1764.14 810.79 1763 809.65 1763 808.13C1763 806.61 1764.14 805.47 1765.67 805.47C1767.19 805.47 1768.34 806.61 1768.34 808.13Z" fill="#FFFFFF" fill-opacity="1.000000" fill-rule="nonzero"/>
				<path id="Vector" d="M1791.08 808.13C1791.08 809.65 1789.93 810.79 1788.41 810.79C1786.88 810.79 1785.74 809.65 1785.74 808.13C1785.74 806.61 1786.88 805.47 1788.41 805.47C1789.81 805.47 1791.08 806.61 1791.08 808.13Z" fill="#FFFFFF" fill-opacity="1.000000" fill-rule="nonzero"/>
				<path id="Vector" d="M1813.69 808.13C1813.69 809.65 1812.54 810.79 1811.02 810.79C1809.5 810.79 1808.35 809.65 1808.35 808.13C1808.35 806.61 1809.5 805.47 1811.02 805.47C1812.54 805.47 1813.69 806.61 1813.69 808.13Z" fill="#FFFFFF" fill-opacity="1.000000" fill-rule="nonzero"/>
				<path id="Vector" d="M1836.43 808.13C1836.43 809.65 1835.28 810.79 1833.76 810.79C1832.24 810.79 1831.09 809.65 1831.09 808.13C1831.09 806.61 1832.24 805.47 1833.76 805.47C1835.28 805.47 1836.43 806.61 1836.43 808.13Z" fill="#FFFFFF" fill-opacity="1.000000" fill-rule="nonzero"/>
				<path id="Vector" d="M1859.17 808.13C1859.17 809.65 1858.02 810.79 1856.5 810.79C1854.98 810.79 1853.83 809.65 1853.83 808.13C1853.83 806.61 1854.98 805.47 1856.5 805.47C1857.9 805.47 1859.17 806.61 1859.17 808.13Z" fill="#FFFFFF" fill-opacity="1.000000" fill-rule="nonzero"/>
				<path id="Vector" d="M1881.91 808.13C1881.91 809.65 1880.76 810.79 1879.24 810.79C1877.72 810.79 1876.57 809.65 1876.57 808.13C1876.57 806.61 1877.72 805.47 1879.24 805.47C1880.76 805.47 1881.91 806.61 1881.91 808.13Z" fill="#FFFFFF" fill-opacity="1.000000" fill-rule="nonzero"/>
				<path id="Vector" d="M1904.52 808.13C1904.52 809.65 1903.38 810.79 1901.85 810.79C1900.33 810.79 1899.18 809.65 1899.18 808.13C1899.18 806.61 1900.33 805.47 1901.85 805.47C1903.38 805.47 1904.52 806.61 1904.52 808.13Z" fill="#FFFFFF" fill-opacity="1.000000" fill-rule="nonzero"/>
				<path id="Vector" d="M1927.26 808.13C1927.26 809.65 1926.12 810.79 1924.59 810.79C1923.07 810.79 1921.92 809.65 1921.92 808.13C1921.92 806.61 1923.07 805.47 1924.59 805.47C1926.12 805.47 1927.26 806.61 1927.26 808.13Z" fill="#FFFFFF" fill-opacity="1.000000" fill-rule="nonzero"/>
				<path id="Vector" d="M1950 808.13C1950 809.65 1948.86 810.79 1947.33 810.79C1945.81 810.79 1944.66 809.65 1944.66 808.13C1944.66 806.61 1945.81 805.47 1947.33 805.47C1948.73 805.47 1950 806.61 1950 808.13Z" fill="#FFFFFF" fill-opacity="1.000000" fill-rule="nonzero"/>
				<path id="Vector" d="M1768.34 751.65C1768.34 753.17 1767.19 754.31 1765.67 754.31C1764.14 754.31 1763 753.17 1763 751.65C1763 750.14 1764.14 749 1765.67 749C1767.19 749 1768.34 750.14 1768.34 751.65Z" fill="#FFFFFF" fill-opacity="1.000000" fill-rule="nonzero"/>
				<path id="Vector" d="M1791.08 751.65C1791.08 753.17 1789.93 754.31 1788.41 754.31C1786.88 754.31 1785.74 753.17 1785.74 751.65C1785.74 750.14 1786.88 749 1788.41 749C1789.81 749 1791.08 750.14 1791.08 751.65Z" fill="#FFFFFF" fill-opacity="1.000000" fill-rule="nonzero"/>
				<path id="Vector" d="M1813.69 751.65C1813.69 753.17 1812.54 754.31 1811.02 754.31C1809.5 754.31 1808.35 753.17 1808.35 751.65C1808.35 750.14 1809.62 749 1811.02 749C1812.54 749 1813.69 750.14 1813.69 751.65Z" fill="#FFFFFF" fill-opacity="1.000000" fill-rule="nonzero"/>
				<path id="Vector" d="M1836.43 751.65C1836.43 753.17 1835.28 754.31 1833.76 754.31C1832.24 754.31 1831.09 753.17 1831.09 751.65C1831.09 750.14 1832.36 749 1833.76 749C1835.16 749 1836.43 750.14 1836.43 751.65Z" fill="#FFFFFF" fill-opacity="1.000000" fill-rule="nonzero"/>
				<path id="Vector" d="M1859.17 751.65C1859.17 753.17 1858.02 754.31 1856.5 754.31C1854.98 754.31 1853.83 753.17 1853.83 751.65C1853.83 750.14 1854.98 749 1856.5 749C1857.9 749 1859.17 750.14 1859.17 751.65Z" fill="#FFFFFF" fill-opacity="1.000000" fill-rule="nonzero"/>
				<path id="Vector" d="M1881.91 751.65C1881.91 753.17 1880.76 754.31 1879.24 754.31C1877.72 754.31 1876.57 753.17 1876.57 751.65C1876.57 750.14 1877.72 749 1879.24 749C1880.76 749 1881.91 750.14 1881.91 751.65Z" fill="#FFFFFF" fill-opacity="1.000000" fill-rule="nonzero"/>
				<path id="Vector" d="M1904.52 751.65C1904.52 753.17 1903.38 754.31 1901.85 754.31C1900.33 754.31 1899.18 753.17 1899.18 751.65C1899.18 750.14 1900.33 749 1901.85 749C1903.38 749 1904.52 750.14 1904.52 751.65Z" fill="#FFFFFF" fill-opacity="1.000000" fill-rule="nonzero"/>
				<path id="Vector" d="M1927.26 751.65C1927.26 753.17 1926.12 754.31 1924.59 754.31C1923.07 754.31 1921.92 753.17 1921.92 751.65C1921.92 750.14 1923.07 749 1924.59 749C1926.12 749 1927.26 750.14 1927.26 751.65Z" fill="#FFFFFF" fill-opacity="1.000000" fill-rule="nonzero"/>
				<path id="Vector" d="M1950 751.65C1950 753.17 1948.86 754.31 1947.33 754.31C1945.81 754.31 1944.66 753.17 1944.66 751.65C1944.66 750.14 1945.81 749 1947.33 749C1948.73 749 1950 750.14 1950 751.65Z" fill="#FFFFFF" fill-opacity="1.000000" fill-rule="nonzero"/>
				<path id="Vector" d="M1768.34 770.52C1768.34 772.04 1767.19 773.18 1765.67 773.18C1764.14 773.18 1763 771.91 1763 770.52C1763 769 1764.14 767.86 1765.67 767.86C1767.19 767.86 1768.34 769 1768.34 770.52Z" fill="#FFFFFF" fill-opacity="1.000000" fill-rule="nonzero"/>
				<path id="Vector" d="M1791.08 770.52C1791.08 772.04 1789.93 773.18 1788.41 773.18C1786.88 773.18 1785.74 772.04 1785.74 770.52C1785.74 769 1786.88 767.86 1788.41 767.86C1789.81 767.86 1791.08 769 1791.08 770.52Z" fill="#FFFFFF" fill-opacity="1.000000" fill-rule="nonzero"/>
				<path id="Vector" d="M1813.69 770.52C1813.69 772.04 1812.54 773.18 1811.02 773.18C1809.5 773.18 1808.35 772.04 1808.35 770.52C1808.35 769 1809.5 767.86 1811.02 767.86C1812.54 767.86 1813.69 769 1813.69 770.52Z" fill="#FFFFFF" fill-opacity="1.000000" fill-rule="nonzero"/>
				<path id="Vector" d="M1836.43 770.52C1836.43 772.04 1835.28 773.18 1833.76 773.18C1832.24 773.18 1831.09 772.04 1831.09 770.52C1831.09 769 1832.24 767.86 1833.76 767.86C1835.28 767.86 1836.43 769 1836.43 770.52Z" fill="#FFFFFF" fill-opacity="1.000000" fill-rule="nonzero"/>
				<path id="Vector" d="M1859.17 770.52C1859.17 772.04 1858.02 773.18 1856.5 773.18C1854.98 773.18 1853.83 772.04 1853.83 770.52C1853.83 769 1854.98 767.86 1856.5 767.86C1857.9 767.86 1859.17 769 1859.17 770.52Z" fill="#FFFFFF" fill-opacity="1.000000" fill-rule="nonzero"/>
				<path id="Vector" d="M1881.91 770.52C1881.91 772.04 1880.76 773.18 1879.24 773.18C1877.72 773.18 1876.57 772.04 1876.57 770.52C1876.57 769 1877.72 767.86 1879.24 767.86C1880.76 767.86 1881.91 769 1881.91 770.52Z" fill="#FFFFFF" fill-opacity="1.000000" fill-rule="nonzero"/>
				<path id="Vector" d="M1904.52 770.52C1904.52 772.04 1903.38 773.18 1901.85 773.18C1900.33 773.18 1899.18 772.04 1899.18 770.52C1899.18 769 1900.33 767.86 1901.85 767.86C1903.38 767.86 1904.52 769 1904.52 770.52Z" fill="#FFFFFF" fill-opacity="1.000000" fill-rule="nonzero"/>
				<path id="Vector" d="M1927.26 770.52C1927.26 772.04 1926.12 773.18 1924.59 773.18C1923.07 773.18 1921.92 772.04 1921.92 770.52C1921.92 769 1923.07 767.86 1924.59 767.86C1926.12 767.86 1927.26 769 1927.26 770.52Z" fill="#FFFFFF" fill-opacity="1.000000" fill-rule="nonzero"/>
				<path id="Vector" d="M1950 770.52C1950 772.04 1948.86 773.18 1947.33 773.18C1945.81 773.18 1944.66 772.04 1944.66 770.52C1944.66 769 1945.81 767.86 1947.33 767.86C1948.73 767.86 1950 769 1950 770.52Z" fill="#FFFFFF" fill-opacity="1.000000" fill-rule="nonzero"/>
				<path id="Vector" d="M1768.34 826.87C1768.34 828.39 1767.19 829.52 1765.67 829.52C1764.14 829.52 1763 828.39 1763 826.87C1763 825.35 1764.14 824.21 1765.67 824.21C1767.19 824.21 1768.34 825.47 1768.34 826.87Z" fill="#FFFFFF" fill-opacity="1.000000" fill-rule="nonzero"/>
				<path id="Vector" d="M1791.08 826.87C1791.08 828.39 1789.93 829.52 1788.41 829.52C1786.88 829.52 1785.74 828.39 1785.74 826.87C1785.74 825.35 1786.88 824.21 1788.41 824.21C1789.81 824.21 1791.08 825.47 1791.08 826.87Z" fill="#FFFFFF" fill-opacity="1.000000" fill-rule="nonzero"/>
				<path id="Vector" d="M1813.69 826.87C1813.69 828.39 1812.54 829.52 1811.02 829.52C1809.5 829.52 1808.35 828.39 1808.35 826.87C1808.35 825.35 1809.5 824.21 1811.02 824.21C1812.54 824.21 1813.69 825.47 1813.69 826.87Z" fill="#FFFFFF" fill-opacity="1.000000" fill-rule="nonzero"/>
				<path id="Vector" d="M1836.43 826.87C1836.43 828.39 1835.28 829.52 1833.76 829.52C1832.24 829.52 1831.09 828.39 1831.09 826.87C1831.09 825.35 1832.24 824.21 1833.76 824.21C1835.28 824.21 1836.43 825.47 1836.43 826.87Z" fill="#FFFFFF" fill-opacity="1.000000" fill-rule="nonzero"/>
				<path id="Vector" d="M1859.17 826.87C1859.17 828.39 1858.02 829.52 1856.5 829.52C1854.98 829.52 1853.83 828.39 1853.83 826.87C1853.83 825.35 1854.98 824.21 1856.5 824.21C1857.9 824.21 1859.17 825.47 1859.17 826.87Z" fill="#FFFFFF" fill-opacity="1.000000" fill-rule="nonzero"/>
				<path id="Vector" d="M1881.91 826.87C1881.91 828.39 1880.76 829.52 1879.24 829.52C1877.72 829.52 1876.57 828.39 1876.57 826.87C1876.57 825.35 1877.72 824.21 1879.24 824.21C1880.76 824.21 1881.91 825.47 1881.91 826.87Z" fill="#FFFFFF" fill-opacity="1.000000" fill-rule="nonzero"/>
				<path id="Vector" d="M1904.52 826.87C1904.52 828.39 1903.38 829.52 1901.85 829.52C1900.33 829.52 1899.18 828.39 1899.18 826.87C1899.18 825.35 1900.33 824.21 1901.85 824.21C1903.38 824.21 1904.52 825.47 1904.52 826.87Z" fill="#FFFFFF" fill-opacity="1.000000" fill-rule="nonzero"/>
				<path id="Vector" d="M1927.26 826.87C1927.26 828.39 1926.12 829.52 1924.59 829.52C1923.07 829.52 1921.92 828.39 1921.92 826.87C1921.92 825.35 1923.07 824.21 1924.59 824.21C1926.12 824.21 1927.26 825.47 1927.26 826.87Z" fill="#FFFFFF" fill-opacity="1.000000" fill-rule="nonzero"/>
				<path id="Vector" d="M1950 826.87C1950 828.39 1948.86 829.52 1947.33 829.52C1945.81 829.52 1944.66 828.39 1944.66 826.87C1944.66 825.35 1945.81 824.21 1947.33 824.21C1948.73 824.21 1950 825.47 1950 826.87Z" fill="#FFFFFF" fill-opacity="1.000000" fill-rule="nonzero"/>
				<path id="Vector" d="M1768.34 845.73C1768.34 847.25 1767.19 848.39 1765.67 848.39C1764.14 848.39 1763 847.25 1763 845.73C1763 844.21 1764.14 843.07 1765.67 843.07C1767.19 843.07 1768.34 844.21 1768.34 845.73Z" fill="#FFFFFF" fill-opacity="1.000000" fill-rule="nonzero"/>
				<path id="Vector" d="M1791.08 845.73C1791.08 847.25 1789.93 848.39 1788.41 848.39C1786.88 848.39 1785.74 847.25 1785.74 845.73C1785.74 844.21 1786.88 843.07 1788.41 843.07C1789.81 843.07 1791.08 844.21 1791.08 845.73Z" fill="#FFFFFF" fill-opacity="1.000000" fill-rule="nonzero"/>
				<path id="Vector" d="M1813.69 845.73C1813.69 847.25 1812.54 848.39 1811.02 848.39C1809.5 848.39 1808.35 847.25 1808.35 845.73C1808.35 844.21 1809.5 843.07 1811.02 843.07C1812.54 843.07 1813.69 844.21 1813.69 845.73Z" fill="#FFFFFF" fill-opacity="1.000000" fill-rule="nonzero"/>
				<path id="Vector" d="M1836.43 845.73C1836.43 847.2 1835.23 848.39 1833.76 848.39C1832.29 848.39 1831.09 847.2 1831.09 845.73C1831.09 844.26 1832.29 843.07 1833.76 843.07C1835.23 843.07 1836.43 844.26 1836.43 845.73Z" fill="#FFFFFF" fill-opacity="1.000000" fill-rule="evenodd"/>
				<path id="Vector" d="M1859.17 845.73C1859.17 847.25 1858.02 848.39 1856.5 848.39C1854.98 848.39 1853.83 847.25 1853.83 845.73C1853.83 844.21 1854.98 843.07 1856.5 843.07C1857.9 843.07 1859.17 844.21 1859.17 845.73Z" fill="#FFFFFF" fill-opacity="1.000000" fill-rule="nonzero"/>
				<path id="Vector" d="M1881.91 845.73C1881.91 847.25 1880.76 848.39 1879.24 848.39C1877.72 848.39 1876.57 847.25 1876.57 845.73C1876.57 844.21 1877.72 843.07 1879.24 843.07C1880.76 843.07 1881.91 844.21 1881.91 845.73Z" fill="#FFFFFF" fill-opacity="1.000000" fill-rule="nonzero"/>
				<path id="Vector" d="M1904.52 845.73C1904.52 847.25 1903.38 848.39 1901.85 848.39C1900.33 848.39 1899.18 847.25 1899.18 845.73C1899.18 844.21 1900.33 843.07 1901.85 843.07C1903.38 843.07 1904.52 844.21 1904.52 845.73Z" fill="#FFFFFF" fill-opacity="1.000000" fill-rule="nonzero"/>
				<path id="Vector" d="M1927.26 845.73C1927.26 847.2 1926.07 848.39 1924.59 848.39C1923.12 848.39 1921.92 847.2 1921.92 845.73C1921.92 844.26 1923.12 843.07 1924.59 843.07C1926.07 843.07 1927.26 844.26 1927.26 845.73Z" fill="#FFFFFF" fill-opacity="1.000000" fill-rule="evenodd"/>
				<path id="Vector" d="M1950 845.73C1950 847.25 1948.86 848.39 1947.33 848.39C1945.81 848.39 1944.66 847.25 1944.66 845.73C1944.66 844.21 1945.81 843.07 1947.33 843.07C1948.73 843.07 1950 844.21 1950 845.73Z" fill="#FFFFFF" fill-opacity="1.000000" fill-rule="nonzero"/>
				<path id="Vector" d="M1768.34 864.6C1768.34 866.12 1767.19 867.26 1765.67 867.26C1764.14 867.26 1763 866.12 1763 864.6C1763 863.08 1764.14 861.94 1765.67 861.94C1767.19 861.94 1768.34 863.08 1768.34 864.6Z" fill="#FFFFFF" fill-opacity="1.000000" fill-rule="nonzero"/>
				<path id="Vector" d="M1791.08 864.6C1791.08 866.12 1789.93 867.26 1788.41 867.26C1786.88 867.26 1785.74 866.12 1785.74 864.6C1785.74 863.08 1786.88 861.94 1788.41 861.94C1789.81 861.94 1791.08 863.08 1791.08 864.6Z" fill="#FFFFFF" fill-opacity="1.000000" fill-rule="nonzero"/>
				<path id="Vector" d="M1813.69 864.6C1813.69 866.12 1812.54 867.26 1811.02 867.26C1809.5 867.26 1808.35 866.12 1808.35 864.6C1808.35 863.08 1809.5 861.94 1811.02 861.94C1812.54 861.94 1813.69 863.08 1813.69 864.6Z" fill="#FFFFFF" fill-opacity="1.000000" fill-rule="nonzero"/>
				<path id="Vector" d="M1836.43 864.6C1836.43 866.12 1835.28 867.26 1833.76 867.26C1832.24 867.26 1831.09 866.12 1831.09 864.6C1831.09 863.08 1832.24 861.94 1833.76 861.94C1835.28 861.94 1836.43 863.08 1836.43 864.6Z" fill="#FFFFFF" fill-opacity="1.000000" fill-rule="nonzero"/>
				<path id="Vector" d="M1859.17 864.6C1859.17 866.12 1858.02 867.26 1856.5 867.26C1854.98 867.26 1853.83 866.12 1853.83 864.6C1853.83 863.08 1854.98 861.94 1856.5 861.94C1857.9 861.94 1859.17 863.08 1859.17 864.6Z" fill="#FFFFFF" fill-opacity="1.000000" fill-rule="nonzero"/>
				<path id="Vector" d="M1881.91 864.6C1881.91 866.12 1880.76 867.26 1879.24 867.26C1877.72 867.26 1876.57 866.12 1876.57 864.6C1876.57 863.08 1877.72 861.94 1879.24 861.94C1880.76 861.94 1881.91 863.08 1881.91 864.6Z" fill="#FFFFFF" fill-opacity="1.000000" fill-rule="nonzero"/>
				<path id="Vector" d="M1904.52 864.6C1904.52 866.12 1903.38 867.26 1901.85 867.26C1900.33 867.26 1899.18 866.12 1899.18 864.6C1899.18 863.08 1900.33 861.94 1901.85 861.94C1903.38 861.94 1904.52 863.08 1904.52 864.6Z" fill="#FFFFFF" fill-opacity="1.000000" fill-rule="nonzero"/>
				<path id="Vector" d="M1927.26 864.6C1927.26 866.12 1926.12 867.26 1924.59 867.26C1923.07 867.26 1921.92 866.12 1921.92 864.6C1921.92 863.08 1923.07 861.94 1924.59 861.94C1926.12 861.94 1927.26 863.08 1927.26 864.6Z" fill="#FFFFFF" fill-opacity="1.000000" fill-rule="nonzero"/>
				<path id="Vector" d="M1950 864.6C1950 866.12 1948.86 867.26 1947.33 867.26C1945.81 867.26 1944.66 866.12 1944.66 864.6C1944.66 863.08 1945.81 861.94 1947.33 861.94C1948.73 861.94 1950 863.08 1950 864.6Z" fill="#FFFFFF" fill-opacity="1.000000" fill-rule="nonzero"/>
				<path id="Vector" d="M1768.34 883.34C1768.34 884.86 1767.19 886 1765.67 886C1764.14 886 1763 884.86 1763 883.34C1763 881.82 1764.14 880.68 1765.67 880.68C1767.19 880.68 1768.34 881.94 1768.34 883.34Z" fill="#FFFFFF" fill-opacity="1.000000" fill-rule="nonzero"/>
				<path id="Vector" d="M1791.08 883.34C1791.08 884.86 1789.93 886 1788.41 886C1786.88 886 1785.74 884.86 1785.74 883.34C1785.74 881.82 1786.88 880.68 1788.41 880.68C1789.81 880.68 1791.08 881.94 1791.08 883.34Z" fill="#FFFFFF" fill-opacity="1.000000" fill-rule="nonzero"/>
				<path id="Vector" d="M1813.69 883.34C1813.69 884.86 1812.54 886 1811.02 886C1809.5 886 1808.35 884.86 1808.35 883.34C1808.35 881.82 1809.5 880.68 1811.02 880.68C1812.54 880.68 1813.69 881.94 1813.69 883.34Z" fill="#FFFFFF" fill-opacity="1.000000" fill-rule="nonzero"/>
				<path id="Vector" d="M1836.43 883.34C1836.43 884.86 1835.28 886 1833.76 886C1832.24 886 1831.09 884.86 1831.09 883.34C1831.09 881.82 1832.24 880.68 1833.76 880.68C1835.28 880.68 1836.43 881.94 1836.43 883.34Z" fill="#FFFFFF" fill-opacity="1.000000" fill-rule="nonzero"/>
				<path id="Vector" d="M1859.17 883.34C1859.17 884.86 1858.02 886 1856.5 886C1854.98 886 1853.83 884.86 1853.83 883.34C1853.83 881.82 1854.98 880.68 1856.5 880.68C1857.9 880.68 1859.17 881.94 1859.17 883.34Z" fill="#FFFFFF" fill-opacity="1.000000" fill-rule="nonzero"/>
				<path id="Vector" d="M1881.91 883.34C1881.91 884.86 1880.76 886 1879.24 886C1877.72 886 1876.57 884.86 1876.57 883.34C1876.57 881.82 1877.72 880.68 1879.24 880.68C1880.76 880.68 1881.91 881.94 1881.91 883.34Z" fill="#FFFFFF" fill-opacity="1.000000" fill-rule="nonzero"/>
				<path id="Vector" d="M1904.52 883.34C1904.52 884.86 1903.38 886 1901.85 886C1900.33 886 1899.18 884.86 1899.18 883.34C1899.18 881.82 1900.33 880.68 1901.85 880.68C1903.38 880.68 1904.52 881.94 1904.52 883.34Z" fill="#FFFFFF" fill-opacity="1.000000" fill-rule="nonzero"/>
				<path id="Vector" d="M1927.26 883.34C1927.26 884.86 1926.12 886 1924.59 886C1923.07 886 1921.92 884.86 1921.92 883.34C1921.92 881.82 1923.07 880.68 1924.59 880.68C1926.12 880.68 1927.26 881.94 1927.26 883.34Z" fill="#FFFFFF" fill-opacity="1.000000" fill-rule="nonzero"/>
				<path id="Vector" d="M1950 883.34C1950 884.86 1948.86 886 1947.33 886C1945.81 886 1944.66 884.86 1944.66 883.34C1944.66 881.82 1945.81 880.68 1947.33 880.68C1948.73 880.68 1950 881.94 1950 883.34Z" fill="#FFFFFF" fill-opacity="1.000000" fill-rule="nonzero"/>
			</g>
		</g>
		<g opacity="0.300000">
			<path id="Vector" d="M1761.81 75.22L1771.47 84.87L1745.78 110.56L1720.1 84.87L1729.68 75.29L1745.71 91.31L1761.81 75.22Z" fill="#FFFFFF" fill-opacity="1.000000" fill-rule="nonzero"/>
			<path id="Vector" d="M1761.81 40.53L1771.39 50.12L1745.71 75.8L1720.1 50.19L1729.76 40.53L1745.78 56.56L1761.81 40.53Z" fill="#FFFFFF" fill-opacity="1.000000" fill-rule="nonzero"/>
			<path id="Vector" d="M1761.73 5.78L1771.39 15.44L1745.78 41.05L1720.1 15.36L1729.68 5.78L1745.71 21.8L1761.73 5.78Z" fill="#FFFFFF" fill-opacity="1.000000" fill-rule="nonzero"/>
			<path id="Vector" d="M1761.81 -28.98L1771.46 -19.32L1745.78 6.36L1720.1 -19.32L1729.76 -28.98L1745.78 -12.96L1761.81 -28.98Z" fill="#FFFFFF" fill-opacity="1.000000" fill-rule="nonzero"/>
		</g>
		<g opacity="0.300000">
			<path id="Vector" d="M794 808.55C780.07 822.48 757.37 822.48 743.44 808.55C729.51 794.62 729.51 771.93 743.44 758L794 808.55Z" fill="#FFFFFF" fill-opacity="1.000000" fill-rule="nonzero"/>
		</g>
		<g opacity="0.300000">
			<path id="Vector" d="M848.48 529.89C859.2 529.89 867.93 521.16 867.93 510.45C867.93 499.74 859.2 491.01 848.48 491.01L848.48 529.89Z" fill="#FFFFFF" fill-opacity="1.000000" fill-rule="nonzero"/>
			<path id="Vector" d="M818.14 529.89C828.86 529.89 837.59 521.16 837.59 510.45C837.59 499.74 828.86 491.01 818.14 491.01L818.14 529.89Z" fill="#FFFFFF" fill-opacity="1.000000" fill-rule="nonzero"/>
			<path id="Vector" d="M787.79 529.89C798.51 529.89 807.24 521.16 807.24 510.45C807.24 499.74 798.51 491.01 787.79 491.01L787.79 529.89Z" fill="#FFFFFF" fill-opacity="1.000000" fill-rule="nonzero"/>
		</g>
		<g opacity="0.300000">
			<path id="Vector" d="M146.3 144.92L146.3 133L178 133L178 164.69L166.16 164.69L166.16 144.92L146.3 144.92Z" fill="#FFFFFF" fill-opacity="1.000000" fill-rule="nonzero"/>
			<path id="Vector" d="M124.89 166.32L124.89 154.49L156.59 154.49L156.59 186.1L144.67 186.1L144.67 166.32L124.89 166.32Z" fill="#FFFFFF" fill-opacity="1.000000" fill-rule="nonzero"/>
			<path id="Vector" d="M103.49 187.81L103.49 175.89L135.1 175.89L135.1 207.59L123.27 207.59L123.27 187.81L103.49 187.81Z" fill="#FFFFFF" fill-opacity="1.000000" fill-rule="nonzero"/>
			<path id="Vector" d="M82 209.22L82 197.3L113.69 197.3L113.69 229L101.77 229L101.77 209.22L82 209.22Z" fill="#FFFFFF" fill-opacity="1.000000" fill-rule="nonzero"/>
		</g>
	</g>
</svg>
