<svg viewBox="0 0 40 40" xmlns="http://www.w3.org/2000/svg" xmlns:xlink="http://www.w3.org/1999/xlink" width="40.000000" height="40.000000" fill="none" customFrame="#000000">
	<defs>
		<clipPath id="clipPath_0">
			<rect width="24.000000" height="24.000000" x="8.000000" y="8.000000" fill="rgb(255,255,255)" />
		</clipPath>
	</defs>
	<rect id="Frame 18" width="40.000000" height="40.000000" x="0.000000" y="0.000000" />
	<circle id="Ellipse 1" cx="20" cy="20" r="20" fill="rgb(241,203,0)" />
	<g id="24 / file / clipboard-plus" customFrame="url(#clipPath_0)">
		<rect id="24 / file / clipboard-plus" width="24.000000" height="24.000000" x="8.000000" y="8.000000" fill="rgb(255,255,255)" fill-opacity="0" />
		<path id="icon" d="M20 9C18.8391 9 17.7482 9.36297 16.9959 10L16 10C14.8954 10 14 10.8954 14 12L13 12C11.8954 12 11 12.8954 11 14L11 29C11 30.1046 11.8954 31 13 31L27 31C28.1046 31 29 30.1046 29 29L29 14C29 12.8954 28.1046 12 27 12L26 12C26 10.8954 25.1046 10 24 10L23.0041 10C22.2518 9.36297 21.1609 9 20 9ZM17.8576 12L18.1566 11.6554C18.4852 11.2767 19.1894 11 20 11C20.8106 11 21.5148 11.2767 21.8434 11.6554L22.1424 12L24 12L24 13L16 13L16 12L17.8576 12ZM13 14L14.2676 14C14.6134 14.5978 15.2597 15 16 15L24 15C24.7403 15 25.3866 14.5978 25.7324 14L27 14L27 29L13 29L13 14ZM19 18L19 21L16 21L16 23L19 23L19 26L21 26L21 23L24 23L24 21L21 21L21 18L19 18Z" fill="rgb(255,255,255)" fill-rule="evenodd" />
	</g>
</svg>
