<svg viewBox="0 0 40 40" xmlns="http://www.w3.org/2000/svg" xmlns:xlink="http://www.w3.org/1999/xlink" width="40.000000" height="40.000000" fill="none" customFrame="#000000">
	<defs>
		<clipPath id="clipPath_1">
			<rect width="24.000000" height="24.000000" x="8.000000" y="8.000000" fill="rgb(255,255,255)" />
		</clipPath>
	</defs>
	<rect id="Frame 17" width="40.000000" height="40.000000" x="0.000000" y="0.000000" />
	<circle id="Ellipse 1" cx="20" cy="20" r="20" fill="rgb(240,138,17)" />
	<g id="Shipment" customFrame="url(#clipPath_1)">
		<rect id="Shipment" width="24.000000" height="24.000000" x="8.000000" y="8.000000" fill="rgb(255,255,255)" fill-opacity="0" />
		<g id="Group 1">
			<path id="Vector 5" d="M6.5 11.5C6.5 13.1569 7.84315 14.5 9.5 14.5L14.5 14.5C16.1569 14.5 17.5 13.1569 17.5 11.5L17.5 6.5C17.5 4.84315 16.1569 3.5 14.5 3.5L9.5 3.5C7.84315 3.5 6.5 4.84315 6.5 6.5L6.5 11.5ZM3 15L3 2C3 0.89543 2.10457 0 1 0L0 0M6 18L16.5 18M12 11L12 7M13.5 8.5L12 7L10.5 8.5" stroke="rgb(255,255,255)" stroke-linecap="round" stroke-linejoin="round" stroke-width="1.800000" transform="matrix(0.965926,-0.258819,0.258819,0.965926,8.58057,11.6224)" />
			<circle id="Ellipse 15" cx="3" cy="3" r="3" stroke="rgb(255,255,255)" stroke-width="1.800000" transform="matrix(0.965926,-0.258819,0.258819,0.965926,12.4629,26.1113)" />
		</g>
	</g>
</svg>
