<svg viewBox="0 0 40 40" xmlns="http://www.w3.org/2000/svg" xmlns:xlink="http://www.w3.org/1999/xlink" width="40.000000" height="40.000000" fill="none" customFrame="#000000">
	<defs>
		<clipPath id="clipPath_2">
			<rect width="24.000000" height="24.000000" x="8.000000" y="8.000000" fill="rgb(255,255,255)" />
		</clipPath>
	</defs>
	<rect id="Frame 16" width="40.000000" height="40.000000" x="0.000000" y="0.000000" />
	<circle id="Ellipse 1" cx="20" cy="20" r="20" fill="rgb(163.292,93.1767,10.0003)" />
	<g id="Home" customFrame="url(#clipPath_2)">
		<rect id="Home" width="24.000000" height="24.000000" x="8.000000" y="8.000000" fill="rgb(255,255,255)" fill-opacity="0" />
		<path id="Rectangle" d="M29 26.75C29 27.4478 29 27.7967 28.9139 28.0806C28.72 28.7198 28.2198 29.22 27.5806 29.4139C27.2967 29.5 26.9478 29.5 26.25 29.5C25.5522 29.5 25.2033 29.5 24.9194 29.4139C24.2802 29.22 23.78 28.7198 23.5861 28.0806C23.5 27.7967 23.5 27.4478 23.5 26.75L23.5 24.5C23.5 22.567 21.933 21 20 21C18.067 21 16.5 22.567 16.5 24.5L16.5 26.75C16.5 27.4478 16.5 27.7967 16.4139 28.0806C16.22 28.7198 15.7198 29.22 15.0806 29.4139C14.7967 29.5 14.4478 29.5 13.75 29.5C13.0522 29.5 12.7033 29.5 12.4194 29.4139C11.7802 29.22 11.28 28.7198 11.0861 28.0806C11 27.7967 11 27.4478 11 26.75L11 20.1301C11 18.9814 11 18.4071 11.1481 17.8781C11.2792 17.4096 11.4947 16.9689 11.7841 16.5777C12.1107 16.1361 12.564 15.7835 13.4708 15.0783L16.0708 13.0561C17.4761 11.963 18.1787 11.4165 18.9546 11.2065C19.6392 11.0211 20.3608 11.0211 21.0454 11.2065C21.8213 11.4165 22.5239 11.963 23.9292 13.0561L26.5292 15.0783C27.436 15.7835 27.8893 16.1361 28.2159 16.5777C28.5053 16.9689 28.7208 17.4096 28.8519 17.8781C29 18.4071 29 18.9814 29 20.1301L29 26.75Z" stroke="rgb(255,255,255)" stroke-width="1.800000" />
	</g>
</svg>
