<svg width="435.000000" height="481.003906" viewBox="0 0 435 481.004" fill="none" xmlns="http://www.w3.org/2000/svg" xmlns:xlink="http://www.w3.org/1999/xlink">
	<desc>
			Created with Pixso.
	</desc>
	<defs/>
	<rect id="illustration" width="435.000000" height="481.000000" transform="translate(0.000000 0.001953)" fill="#FFFFFF" fill-opacity="0"/>
	<path id="Vector (Stroke)" d="M49.43 468.67L315.04 468.67L315.04 469.9L49.43 469.9L49.43 468.67Z" fill="#3FB1B5" fill-opacity="1.000000" fill-rule="evenodd"/>
	<path id="Vector (Stroke)" d="M296.44 481L4.08 481L4.08 480.04L296.44 480.04L296.44 481Z" fill="#66B0F0" fill-opacity="1.000000" fill-rule="evenodd"/>
	<path id="Vector" d="M295.15 4.92L295.15 52.77C295.15 62.14 287.5 69.75 278.09 69.75L224.81 69.75C234.22 69.75 241.87 62.16 241.87 52.77L241.87 4.92L295.15 4.92Z" fill="#FFFFFF" fill-opacity="1.000000" fill-rule="nonzero"/>
	<path id="Vector (Stroke)" d="M241.29 4.34L295.73 4.34L295.73 52.77C295.73 62.46 287.82 70.33 278.09 70.33L224.81 70.33L224.81 69.17C233.9 69.17 241.29 61.84 241.29 52.77L241.29 4.34ZM231.12 69.17L278.09 69.17C287.18 69.17 294.57 61.82 294.57 52.77L294.57 5.5L242.45 5.5L242.45 52.77C242.45 60.26 237.74 66.65 231.12 69.17Z" fill="#66B0F0" fill-opacity="1.000000" fill-rule="evenodd"/>
	<path id="Vector" d="M270.54 0.29L266.24 0.29L266.24 10.49L270.54 10.49L270.54 0.29Z" fill="#FFCF2D" fill-opacity="1.000000" fill-rule="nonzero"/>
	<path id="Vector" d="M279.65 23.11C279.04 23.11 278.44 22.87 277.95 22.43L276.16 20.86C275.61 20.38 274.86 20.38 274.31 20.86L272.61 22.37C271.61 23.25 270.22 23.25 269.19 22.37L267.64 21C267.08 20.51 266.34 20.51 265.78 21L264.34 22.27C263.34 23.15 261.94 23.15 260.92 22.27L259.74 21.23C259.18 20.75 258.44 20.75 257.88 21.23L256.6 22.37C255.6 23.25 254.21 23.25 253.18 22.37L252 21.32C251.44 20.84 250.7 20.84 250.14 21.32C249.91 21.53 249.54 21.51 249.33 21.28C249.12 21.05 249.14 20.68 249.37 20.47C250.37 19.59 251.77 19.59 252.79 20.47L253.97 21.51C254.53 22 255.28 22 255.83 21.51L257.11 20.38C258.11 19.5 259.5 19.5 260.53 20.38L261.71 21.42C262.27 21.9 263.01 21.9 263.57 21.42L265.01 20.14C266.01 19.26 267.4 19.26 268.43 20.14L269.98 21.51C270.54 22 271.29 22 271.84 21.51L273.54 20C274.54 19.13 275.93 19.13 276.95 20L278.74 21.58C279.3 22.07 280.04 22.07 280.6 21.58L282.46 19.94C283.46 19.06 284.85 19.06 285.88 19.94C286.11 20.14 286.13 20.51 285.92 20.75C285.71 20.98 285.34 21 285.11 20.79C284.55 20.31 283.81 20.31 283.25 20.79L281.39 22.43C280.84 22.87 280.25 23.11 279.65 23.11Z" fill="#66B0F0" fill-opacity="1.000000" fill-rule="nonzero"/>
	<path id="Vector" d="M279.65 32.62C279.04 32.62 278.44 32.38 277.95 31.94L276.16 30.37C275.61 29.89 274.86 29.89 274.31 30.37L272.61 31.88C271.61 32.75 270.22 32.75 269.19 31.88L267.64 30.51C267.08 30.02 266.34 30.02 265.78 30.51L264.34 31.78C263.34 32.66 261.94 32.66 260.92 31.78L259.74 30.74C259.18 30.25 258.44 30.25 257.88 30.74L256.6 31.88C255.6 32.75 254.21 32.75 253.18 31.88L252 30.83C251.44 30.35 250.7 30.35 250.14 30.83C249.91 31.04 249.54 31.02 249.33 30.79C249.12 30.56 249.14 30.19 249.37 29.98C250.37 29.1 251.77 29.1 252.79 29.98L253.97 31.02C254.53 31.5 255.28 31.5 255.83 31.02L257.11 29.89C258.11 29.01 259.5 29.01 260.53 29.89L261.71 30.93C262.27 31.41 263.01 31.41 263.57 30.93L265.01 29.65C266.01 28.77 267.4 28.77 268.43 29.65L269.98 31.02C270.54 31.5 271.29 31.5 271.84 31.02L273.54 29.51C274.54 28.64 275.93 28.64 276.95 29.51L278.74 31.09C279.3 31.58 280.04 31.58 280.6 31.09L282.46 29.45C283.46 28.57 284.85 28.57 285.88 29.45C286.11 29.65 286.13 30.02 285.92 30.25C285.71 30.49 285.34 30.51 285.11 30.3C284.55 29.82 283.81 29.82 283.25 30.3L281.39 31.94C280.84 32.41 280.25 32.62 279.65 32.62Z" fill="#66B0F0" fill-opacity="1.000000" fill-rule="nonzero"/>
	<path id="Vector" d="M279.65 42.12C279.04 42.12 278.44 41.89 277.95 41.45L276.16 39.88C275.61 39.39 274.86 39.39 274.31 39.88L272.61 41.38C271.61 42.26 270.22 42.26 269.19 41.38L267.64 40.02C267.08 39.53 266.34 39.53 265.78 40.02L264.34 41.29C263.34 42.17 261.94 42.17 260.92 41.29L259.74 40.25C259.18 39.76 258.44 39.76 257.88 40.25L256.6 41.38C255.6 42.26 254.21 42.26 253.18 41.38L252 40.34C251.44 39.86 250.7 39.86 250.14 40.34C249.91 40.55 249.54 40.53 249.33 40.3C249.12 40.06 249.14 39.69 249.37 39.49C250.37 38.61 251.77 38.61 252.79 39.49L253.97 40.53C254.53 41.01 255.28 41.01 255.83 40.53L257.11 39.39C258.11 38.51 259.5 38.51 260.53 39.39L261.71 40.43C262.27 40.92 263.01 40.92 263.57 40.43L265.01 39.16C266.01 38.28 267.4 38.28 268.43 39.16L269.98 40.53C270.54 41.01 271.29 41.01 271.84 40.53L273.54 39.02C274.54 38.14 275.93 38.14 276.95 39.02L278.74 40.6C279.3 41.08 280.04 41.08 280.6 40.6L282.46 38.95C283.46 38.07 284.85 38.07 285.88 38.95C286.11 39.16 286.13 39.53 285.92 39.76C285.71 40 285.34 40.02 285.11 39.81C284.55 39.32 283.81 39.32 283.25 39.81L281.39 41.45C280.84 41.91 280.25 42.12 279.65 42.12Z" fill="#66B0F0" fill-opacity="1.000000" fill-rule="nonzero"/>
	<path id="Vector" d="M279.65 51.66C279.04 51.66 278.44 51.42 277.95 50.99L276.16 49.41C275.61 48.93 274.86 48.93 274.31 49.41L272.61 50.92C271.61 51.8 270.22 51.8 269.19 50.92L267.64 49.55C267.08 49.07 266.34 49.07 265.78 49.55L264.34 50.82C263.34 51.7 261.94 51.7 260.92 50.82L259.74 49.78C259.18 49.3 258.44 49.3 257.88 49.78L256.6 50.92C255.6 51.8 254.21 51.8 253.18 50.92L252 49.87C251.44 49.39 250.7 49.39 250.14 49.87C249.91 50.08 249.54 50.06 249.33 49.83C249.12 49.6 249.14 49.23 249.37 49.02C250.37 48.14 251.77 48.14 252.79 49.02L253.97 50.06C254.53 50.55 255.28 50.55 255.83 50.06L257.11 48.93C258.11 48.05 259.5 48.05 260.53 48.93L261.71 49.97C262.27 50.45 263.01 50.45 263.57 49.97L265.01 48.69C266.01 47.82 267.4 47.82 268.43 48.69L269.98 50.06C270.54 50.55 271.29 50.55 271.84 50.06L273.54 48.56C274.54 47.68 275.93 47.68 276.95 48.56L278.74 50.13C279.3 50.62 280.04 50.62 280.6 50.13L282.46 48.49C283.46 47.61 284.85 47.61 285.88 48.49C286.11 48.69 286.13 49.07 285.92 49.3C285.71 49.53 285.34 49.55 285.11 49.34C284.55 48.86 283.81 48.86 283.25 49.34L281.39 50.99C280.84 51.42 280.25 51.66 279.65 51.66Z" fill="#66B0F0" fill-opacity="1.000000" fill-rule="nonzero"/>
	<path id="Vector" d="M350.01 4.92L312.74 4.92L312.74 42.03L350.01 42.03L350.01 4.92Z" fill="#FFCF2D" fill-opacity="1.000000" fill-rule="nonzero"/>
	<path id="Vector" d="M320.93 3.33L318.23 0L308.39 7.94L311.09 11.27L320.93 3.33Z" fill="#FE5244" fill-opacity="1.000000" fill-rule="nonzero"/>
	<path id="Vector" d="M351.94 11.25L354.64 7.92L344.79 0L342.09 3.33L351.94 11.25Z" fill="#FE5244" fill-opacity="1.000000" fill-rule="nonzero"/>
	<path id="Vector" d="M342.13 13.71L319.52 13.71L319.52 15.1L342.13 15.1L342.13 13.71Z" fill="#FFFFFF" fill-opacity="1.000000" fill-rule="nonzero"/>
	<path id="Vector" d="M342.13 19.7L319.52 19.7L319.52 21.09L342.13 21.09L342.13 19.7Z" fill="#FFFFFF" fill-opacity="1.000000" fill-rule="nonzero"/>
	<path id="Vector" d="M342.13 25.72L319.52 25.72L319.52 27.11L342.13 27.11L342.13 25.72Z" fill="#FFFFFF" fill-opacity="1.000000" fill-rule="nonzero"/>
	<path id="Vector" d="M342.13 31.71L319.52 31.71L319.52 33.1L342.13 33.1L342.13 31.71Z" fill="#FFFFFF" fill-opacity="1.000000" fill-rule="nonzero"/>
	<path id="Vector" d="M378.45 404.18C377.91 404.02 377.61 403.94 377.61 403.94L371.08 425.24L346.49 418.82C346.29 418.64 346.19 418.54 346.19 418.54C346.19 418.54 246.61 340.82 241.37 303.52C236.16 266.23 277.87 230.84 277.87 230.84C277.87 230.84 366.83 398.27 377.83 403.74C378.05 403.86 378.27 404 378.45 404.18Z" fill="#E57281" fill-opacity="1.000000" fill-rule="nonzero"/>
	<path id="Vector" d="M298.93 270C295.81 286.61 284.86 320.25 273.54 352.79C256.76 334.79 243.21 316.63 241.37 303.5C238.06 279.87 253.62 256.97 265.45 243.41C269.78 239.95 274.45 236.76 279.51 233.92C282.6 239.71 289.78 253.11 298.93 270Z" fill="#9A3B82" fill-opacity="1.000000" fill-rule="nonzero"/>
	<path id="Vector" d="M434.35 418.52L397.77 441.89L387.16 440.3L377.39 446.47L380.55 452.91L364.47 463.2C343.15 443.88 346.17 418.76 346.17 418.76L371.06 425.26L377.59 403.96C377.59 403.96 399.95 410.46 416.45 409.91C432.99 409.35 434.35 418.52 434.35 418.52Z" fill="#FFFFFF" fill-opacity="1.000000" fill-rule="nonzero"/>
	<path id="Vector (Stroke)" d="M377.19 403.22L377.76 403.39L377.59 403.96C377.76 403.39 377.76 403.39 377.76 403.39L377.78 403.39L377.82 403.4C377.87 403.42 377.93 403.43 378.01 403.46C378.18 403.51 378.42 403.57 378.75 403.66C379.39 403.84 380.32 404.09 381.49 404.39C383.84 404.99 387.14 405.78 390.95 406.56C398.59 408.11 408.25 409.59 416.43 409.31C424.81 409.03 429.46 411.21 432.01 413.57C433.28 414.74 434.01 415.94 434.42 416.85C434.63 417.31 434.76 417.69 434.83 417.97C434.87 418.1 434.9 418.22 434.91 418.29C434.92 418.34 434.93 418.37 434.93 418.39C434.93 418.4 434.94 418.41 434.94 418.42L434.94 418.43L434.94 418.43L434.94 418.43C434.94 418.43 434.94 418.43 434.35 418.52L434.94 418.43L435 418.81L397.9 442.52L387.29 440.93L378.17 446.68L381.32 453.13L364.41 463.95L364.06 463.64C353.3 453.88 348.67 442.65 346.74 433.86C345.78 429.47 345.48 425.68 345.43 423C345.41 421.65 345.44 420.58 345.48 419.84C345.5 419.47 345.53 419.19 345.54 418.99C345.55 418.89 345.56 418.82 345.57 418.77C345.57 418.74 345.57 418.72 345.57 418.71L345.57 418.69L345.57 418.69L345.57 418.69C345.57 418.69 345.57 418.69 346.17 418.76L345.57 418.69L345.66 418.01L370.66 424.54L377.19 403.22ZM346.7 419.52C346.7 419.63 346.69 419.76 346.68 419.91C346.64 420.62 346.61 421.66 346.63 422.97C346.68 425.6 346.97 429.3 347.91 433.61C349.78 442.12 354.23 452.96 364.53 462.45L379.78 452.7L376.62 446.25L387.03 439.68L397.64 441.27L433.67 418.25C433.6 418.02 433.5 417.71 433.33 417.34C432.97 416.55 432.33 415.49 431.19 414.44C428.93 412.35 424.62 410.23 416.47 410.5C408.15 410.78 398.38 409.28 390.71 407.73C386.87 406.94 383.56 406.15 381.19 405.54C380.01 405.24 379.07 404.99 378.43 404.81C378.26 404.77 378.12 404.73 377.99 404.69L371.47 425.99L346.7 419.52Z" fill="#FE5244" fill-opacity="1.000000" fill-rule="evenodd"/>
	<path id="Vector (Stroke)" d="M393.29 406.02C393.24 405.58 393.17 404.95 393.07 404.21C392.86 402.7 392.55 400.69 392.11 398.7C391.67 396.73 391.11 394.75 390.39 393.3C390.03 392.59 389.61 391.95 389.11 391.53C388.59 391.09 387.94 390.86 387.23 391.05L387.23 391.05L387.23 391.05C386.51 391.24 386.05 391.78 385.77 392.42C385.5 393.06 385.39 393.86 385.38 394.71C385.35 396.43 385.75 398.55 386.4 400.57C387.04 402.58 387.96 404.53 389.02 405.89C389.55 406.57 390.14 407.13 390.79 407.46C391.46 407.8 392.19 407.89 392.92 407.59C394.16 407.09 395.32 405.93 396.35 404.59C397.4 403.22 398.37 401.59 399.19 400.03C400.01 398.47 400.69 396.96 401.17 395.85C401.41 395.29 401.6 394.83 401.73 394.51C401.79 394.35 401.84 394.22 401.87 394.14C401.89 394.1 401.9 394.06 401.91 394.04L401.92 394.01L401.93 394L401.93 394C401.93 394 401.93 394 401.37 393.79C400.8 393.58 400.8 393.58 400.8 393.58L400.8 393.58L400.8 393.58L400.8 393.59L400.79 393.61C400.78 393.63 400.77 393.67 400.76 393.71C400.72 393.79 400.68 393.91 400.61 394.07C400.49 394.38 400.3 394.83 400.07 395.38C399.6 396.47 398.93 397.95 398.12 399.48C397.32 401.01 396.39 402.57 395.4 403.86C394.69 404.79 393.98 405.53 393.29 406.02ZM392.15 406.57C391.89 406.6 391.63 406.55 391.34 406.4C390.91 406.18 390.44 405.76 389.97 405.16C389.02 403.95 388.16 402.14 387.54 400.2C386.92 398.27 386.55 396.27 386.57 394.73C386.58 393.95 386.69 393.33 386.88 392.89C387.06 392.46 387.29 392.27 387.54 392.2C387.78 392.14 388.03 392.19 388.33 392.44C388.65 392.71 388.99 393.18 389.31 393.83C389.97 395.14 390.51 397.01 390.94 398.96C391.37 400.9 391.68 402.87 391.88 404.37C391.98 405.11 392.06 405.74 392.11 406.18C392.12 406.33 392.14 406.47 392.15 406.57Z" fill="#FE5244" fill-opacity="1.000000" fill-rule="evenodd"/>
	<path id="Vector (Stroke)" d="M433.14 415.84L398.33 437.48L386.78 435.63L374.66 442.85L349.98 442.47L349.99 441.27L374.33 441.65L386.54 434.38L398.08 436.23L432.51 414.83L433.14 415.84Z" fill="#FE5244" fill-opacity="1.000000" fill-rule="evenodd"/>
	<path id="Vector (Stroke)" d="M384.84 416.33L387.12 405.76L388.29 406.01L386.01 416.58L384.84 416.33Z" fill="#FE5244" fill-opacity="1.000000" fill-rule="evenodd"/>
	<path id="Vector (Stroke)" d="M389.79 417.52L392.07 406.95L393.24 407.2L390.96 417.77L389.79 417.52Z" fill="#FE5244" fill-opacity="1.000000" fill-rule="evenodd"/>
	<path id="Vector (Stroke)" d="M394.97 418.37L397.24 407.81L398.42 408.06L396.14 418.62L394.97 418.37Z" fill="#FE5244" fill-opacity="1.000000" fill-rule="evenodd"/>
	<path id="Vector" d="M269.42 222.7C269.42 222.7 284.06 229.5 284.06 254.45C284.06 278.56 228.17 426.2 228.17 426.2L210.97 440.72L193.51 421.68C202.04 413.6 177.55 267.6 269.42 222.7Z" fill="#E57281" fill-opacity="1.000000" fill-rule="nonzero"/>
	<path id="Vector" d="M267.86 469.01L224.39 469.04L216.32 462L204.76 461.94L203.92 469.06L186.88 469.08C177.61 440.36 193.59 421.66 193.59 421.66L210.93 440.68L228.25 426.18C228.25 426.18 243.27 443.72 257.46 452.12C271.68 460.53 267.86 469.01 267.86 469.01Z" fill="#FFFFFF" fill-opacity="1.000000" fill-rule="nonzero"/>
	<path id="Vector (Stroke)" d="M193.58 420.76L210.99 439.85L228.32 425.34L228.71 425.79L228.25 426.18C228.71 425.79 228.71 425.79 228.71 425.79L228.72 425.8L228.75 425.84C228.78 425.87 228.82 425.92 228.87 425.99C228.99 426.11 229.15 426.31 229.37 426.55C229.81 427.05 230.45 427.76 231.26 428.65C232.89 430.42 235.2 432.86 237.95 435.57C243.47 441 250.73 447.44 257.76 451.6C264.97 455.87 267.7 460.21 268.57 463.57C269.01 465.24 268.98 466.64 268.83 467.63C268.76 468.13 268.66 468.52 268.57 468.8C268.53 468.93 268.49 469.04 268.46 469.12C268.45 469.14 268.45 469.16 268.44 469.17C268.44 469.18 268.43 469.2 268.43 469.21C268.42 469.22 268.42 469.23 268.42 469.23L268.41 469.24L268.41 469.25C268.41 469.25 268.41 469.25 267.86 469L268.41 469.25L268.25 469.6L224.17 469.64L216.1 462.6L205.29 462.54L204.45 469.66L186.44 469.68L186.31 469.27C181.63 454.76 183.32 442.77 186.19 434.41C187.63 430.23 189.35 426.95 190.73 424.72C191.41 423.6 192.01 422.75 192.44 422.17C192.65 421.88 192.82 421.66 192.94 421.51C193 421.43 193.05 421.37 193.08 421.34C193.1 421.32 193.11 421.3 193.12 421.29L193.13 421.28L193.13 421.28L193.13 421.27C193.13 421.27 193.13 421.27 193.59 421.66L193.13 421.27L193.58 420.76ZM193.62 422.58C193.56 422.67 193.48 422.77 193.4 422.87C193 423.43 192.42 424.26 191.75 425.34C190.41 427.51 188.73 430.71 187.33 434.79C184.55 442.88 182.89 454.45 187.32 468.49L203.39 468.47L204.22 461.34L216.55 461.41L224.62 468.45L267.44 468.41C267.5 468.19 267.58 467.87 267.64 467.46C267.77 466.6 267.8 465.36 267.41 463.86C266.64 460.88 264.16 456.78 257.15 452.63C249.99 448.39 242.65 441.87 237.11 436.42C234.34 433.7 232.01 431.23 230.38 429.45C229.56 428.56 228.91 427.84 228.47 427.34C228.36 427.22 228.27 427.11 228.18 427.01L210.87 441.5L193.62 422.58Z" fill="#FE5244" fill-opacity="1.000000" fill-rule="evenodd"/>
	<path id="Vector (Stroke)" d="M248.27 420.05C249.16 419.93 250.01 420.15 250.76 420.79C251.5 421.43 251.83 422.23 251.83 423.1C251.83 423.95 251.51 424.82 251.03 425.68C250.06 427.38 248.32 429.2 246.48 430.84C244.63 432.49 242.63 434.01 241.1 435.11C240.39 435.62 239.78 436.04 239.33 436.34C239.53 436.36 239.77 436.37 240.06 436.37C240.78 436.35 241.68 436.26 242.72 436.11C244.79 435.8 247.32 435.25 249.78 434.66C252.24 434.06 254.61 433.42 256.38 432.93C257.26 432.68 257.98 432.47 258.49 432.32C258.74 432.25 258.94 432.19 259.07 432.15C259.14 432.13 259.19 432.12 259.23 432.11L259.28 432.09C259.28 432.09 259.28 432.09 259.45 432.66C259.63 433.23 259.63 433.23 259.63 433.23L259.57 433.25C259.55 433.26 259.53 433.26 259.5 433.27C259.47 433.28 259.45 433.29 259.42 433.3C259.28 433.34 259.08 433.39 258.82 433.47C258.32 433.62 257.58 433.83 256.7 434.08C254.93 434.57 252.54 435.21 250.06 435.82C247.59 436.42 245.02 436.97 242.9 437.29C241.84 437.45 240.87 437.55 240.08 437.56C239.32 437.57 238.59 437.51 238.11 437.24C237.45 436.88 237.33 436.1 237.35 435.44C237.38 434.73 237.58 433.86 237.9 432.91C238.53 431.01 239.68 428.68 241.06 426.54C242.44 424.41 244.08 422.41 245.72 421.21C246.54 420.6 247.4 420.17 248.27 420.05ZM238.55 435.42C239 435.12 239.64 434.68 240.4 434.14C241.91 433.05 243.87 431.57 245.68 429.95C247.5 428.33 249.12 426.62 249.98 425.09C250.42 424.33 250.63 423.66 250.63 423.1C250.64 422.57 250.45 422.1 249.97 421.69C249.5 421.29 248.99 421.16 248.43 421.24C247.84 421.32 247.16 421.63 246.43 422.17C244.96 423.25 243.41 425.1 242.07 427.18C240.73 429.26 239.63 431.5 239.03 433.29C238.74 434.15 238.58 434.88 238.55 435.42Z" fill="#FE5244" fill-opacity="1.000000" fill-rule="evenodd"/>
	<path id="Vector (Stroke)" d="M184.26 444.19L184.9 443.18L205.15 455.9L219.36 455.9L228.33 463.39L268.2 463.39L268.2 464.59L227.89 464.59L218.92 457.09L204.8 457.09L184.26 444.19Z" fill="#FE5244" fill-opacity="1.000000" fill-rule="evenodd"/>
	<path id="Vector (Stroke)" d="M226.27 439.48L233.94 431.84L234.79 432.68L227.12 440.32L226.27 439.48Z" fill="#FE5244" fill-opacity="1.000000" fill-rule="evenodd"/>
	<path id="Vector (Stroke)" d="M229.78 443.16L237.45 435.52L238.3 436.36L230.63 444L229.78 443.16Z" fill="#FE5244" fill-opacity="1.000000" fill-rule="evenodd"/>
	<path id="Vector (Stroke)" d="M233.66 446.66L241.33 439.02L242.18 439.87L234.51 447.51L233.66 446.66Z" fill="#FE5244" fill-opacity="1.000000" fill-rule="evenodd"/>
	<path id="Vector" d="M269.42 222.7C234.88 239.57 216.78 270.76 207.21 303.52L102.4 303.52C75.57 303.52 55.57 278.88 61.22 252.76L68.92 217.19L251.16 217.19C257.91 217.19 264.19 219.22 269.42 222.7Z" fill="#FE5244" fill-opacity="1.000000" fill-rule="nonzero"/>
	<path id="Vector" d="M191.59 256.8L229.33 256.72L223.73 265.85L191.59 256.8Z" fill="#E57281" fill-opacity="1.000000" fill-rule="nonzero"/>
	<path id="Vector (Stroke)" d="M108.67 216.61C109 216.68 109.2 216.99 109.14 217.31L107.68 224.28C104.24 240.71 116.82 256.14 133.68 256.14L229 256.14C239.06 242.27 252.18 230.36 269.35 221.97C269.65 221.82 270.01 221.94 270.16 222.24C270.3 222.54 270.18 222.89 269.88 223.04C252.8 231.39 239.77 243.25 229.79 257.09L229.61 257.33L133.68 257.33C116.06 257.33 102.91 241.21 106.5 224.03L107.96 217.07C108.03 216.75 108.35 216.54 108.67 216.61Z" fill="#FFFFFF" fill-opacity="1.000000" fill-rule="evenodd"/>
	<path id="Vector (Stroke)" d="M191.02 256.61C191.11 256.29 191.44 256.11 191.76 256.2L224.25 265.49L223.85 266.15C216.87 277.85 211.73 290.64 207.93 303.67C207.84 303.99 207.5 304.17 207.19 304.07C206.87 303.98 206.69 303.65 206.78 303.34C210.53 290.48 215.58 277.83 222.43 266.21L191.43 257.35C191.11 257.26 190.93 256.93 191.02 256.61Z" fill="#FFFFFF" fill-opacity="1.000000" fill-rule="evenodd"/>
	<path id="Vector" d="M44.42 121.65L63.62 196.64L27.8 196.64C6.95 196.64 -6.48 174.58 3.19 156.18L30.7 103.81C38.49 88.99 53.89 79.7 70.69 79.7L77.19 79.7C55.13 79.68 38.97 100.37 44.42 121.65Z" fill="#3FB1B5" fill-opacity="1.000000" fill-rule="nonzero"/>
	<path id="Vector" d="M265.49 102.19C276.77 102.19 286.16 100.7 288.44 98.61L253.42 174.2C247.09 187.89 233.32 196.64 218.2 196.64C213.77 196.64 209.41 195.89 205.3 194.43C201.18 192.98 197.31 190.85 193.85 188.07L171.78 170.33C171.78 170.33 169.58 183.2 153.9 186.48L153.9 217.15L68.9 217.15L44.42 121.63C38.97 100.35 55.13 79.64 77.19 79.64L136.7 79.64C141.95 79.64 147.12 80.29 152.12 81.57C165.78 85.03 178.05 93.02 186.72 104.48L215.8 142.92L241.93 97.44C241.93 97.48 241.91 97.54 241.91 97.58C241.93 100.23 252.5 102.19 265.49 102.19Z" fill="#3FB1B5" fill-opacity="1.000000" fill-rule="nonzero"/>
	<path id="Vector (Stroke)" d="M44.08 121.07C44.4 120.99 44.73 121.18 44.81 121.51L63.6 197.1C63.68 197.42 63.49 197.74 63.17 197.82C62.85 197.9 62.52 197.7 62.44 197.38L43.64 121.79C43.56 121.47 43.76 121.15 44.08 121.07Z" fill="#FFFFFF" fill-opacity="1.000000" fill-rule="evenodd"/>
	<path id="Vector (Stroke)" d="M154.86 153.2C155.1 152.98 155.48 152.99 155.71 153.23L172.41 170.93C172.64 171.17 172.63 171.55 172.38 171.78C172.14 172 171.76 171.99 171.54 171.75L154.84 154.05C154.61 153.81 154.62 153.43 154.86 153.2Z" fill="#FFFFFF" fill-opacity="1.000000" fill-rule="evenodd"/>
	<path id="Vector" d="M288.96 97.5L288.44 98.61C286.16 100.72 276.77 102.2 265.49 102.2C252.5 102.2 241.93 100.23 241.93 97.62C241.93 97.58 241.93 97.52 241.95 97.48C242.31 94.93 252.74 92.75 265.51 92.75C278.25 92.75 288.6 94.93 288.96 97.5Z" fill="#FE5244" fill-opacity="1.000000" fill-rule="nonzero"/>
	<path id="Vector" d="M299.42 59.31C299.42 60.44 299.14 61.56 298.63 62.53C298.1 63.5 297.35 64.36 296.41 65.02L295.95 65.33L292.37 84.33C291.79 87.41 289.96 90.14 287.3 91.83L282.4 94.93L278.53 97.4L276.73 101.68C273.39 102.02 269.58 102.22 265.5 102.22C261.39 102.22 257.51 102.02 254.14 101.66L254.14 72.2C254.14 70.92 254.42 69.67 254.96 68.52L261.47 54.55C261.47 54.55 268.58 56.3 265.3 65C262.33 72.89 269.12 70.86 272.94 69.45C276.35 68.18 291.27 60.62 297.11 57.86C298.19 57.34 299.42 58.13 299.42 59.31Z" fill="#E57281" fill-opacity="1.000000" fill-rule="nonzero"/>
	<path id="Vector (Stroke)" d="M293.28 76.62C293.56 76.67 293.73 76.93 293.68 77.2C293.08 80.42 291.16 83.25 288.39 85.01L279.62 90.58C279.38 90.73 279.07 90.66 278.93 90.43C278.78 90.2 278.85 89.89 279.08 89.74L287.85 84.17C290.39 82.56 292.15 79.97 292.7 77.02C292.75 76.75 293.01 76.57 293.28 76.62Z" fill="#9A3B82" fill-opacity="1.000000" fill-rule="evenodd"/>
	<path id="Vector (Stroke)" d="M294.72 68.57C294.99 68.62 295.17 68.88 295.12 69.15C294.52 72.37 292.6 75.19 289.82 76.95L281.06 82.52C280.82 82.67 280.51 82.6 280.37 82.37C280.22 82.14 280.29 81.83 280.52 81.68L289.29 76.12C289.29 76.12 289.29 76.12 289.29 76.11C291.83 74.5 293.59 71.91 294.14 68.96C294.19 68.69 294.45 68.52 294.72 68.57Z" fill="#9A3B82" fill-opacity="1.000000" fill-rule="evenodd"/>
	<path id="Vector (Stroke)" d="M295.73 65.29C295.88 65.52 295.81 65.83 295.58 65.97L281.47 74.88C281.24 75.03 280.93 74.96 280.78 74.73C280.64 74.5 280.7 74.19 280.94 74.04L295.04 65.13C295.27 64.99 295.58 65.05 295.73 65.29Z" fill="#9A3B82" fill-opacity="1.000000" fill-rule="evenodd"/>
	<path id="Vector" d="M283.16 94.44L282.39 94.93L278.51 97.4L276.71 101.68C273.38 102.02 269.56 102.22 265.49 102.22C261.37 102.22 257.49 102.02 254.12 101.66L254.12 93.38C257.49 92.99 261.37 92.77 265.49 92.77C272.54 92.75 278.85 93.4 283.16 94.44Z" fill="#9A3B82" fill-opacity="1.000000" fill-rule="nonzero"/>
	<path id="Vector" d="M150.26 81.11C147.37 84.99 136.58 94.12 100.26 94.12C53.54 94.12 83.44 79.72 83.44 79.72L103.26 46.75L124.51 59.75L124.51 70.19C124.51 75.46 128.81 79.72 134.08 79.72L135.46 79.72C140.41 79.7 145.53 79.91 150.26 81.11Z" fill="#E57281" fill-opacity="1.000000" fill-rule="nonzero"/>
	<path id="Vector" d="M124.49 59.73L124.49 62.39L83.42 79.7L103.24 46.74L124.49 59.73Z" fill="#9A3B82" fill-opacity="1.000000" fill-rule="nonzero"/>
	<path id="Vector" d="M125.61 61.02L130.12 61.02C134.28 61.02 137.66 57.66 137.66 53.52L137.66 28.47L110.71 28.47L110.71 46.18C110.71 54.37 117.38 61.02 125.61 61.02Z" fill="#E57281" fill-opacity="1.000000" fill-rule="nonzero"/>
	<path id="Vector (Stroke)" d="M133.45 49.83L133.45 49.83L133.45 49.83L133.45 49.83C133.45 49.83 133.45 49.83 133.45 49.83C133.45 49.83 133.45 49.83 133.45 49.83L133.45 49.83ZM133.45 49.83C133.45 49.83 133.45 49.83 133.45 49.83C133.45 49.83 133.45 49.83 133.46 49.83C133.46 49.84 133.47 49.86 133.49 49.88C133.52 49.92 133.57 49.99 133.63 50.07C133.77 50.24 133.97 50.46 134.27 50.68C134.84 51.12 135.75 51.57 137.08 51.57C137.35 51.57 137.58 51.79 137.58 52.07C137.58 52.34 137.35 52.56 137.08 52.56C135.5 52.56 134.38 52.02 133.66 51.47C133.3 51.19 133.03 50.91 132.86 50.7C132.77 50.6 132.71 50.51 132.66 50.44C132.64 50.41 132.62 50.38 132.61 50.36C132.6 50.35 132.6 50.35 132.6 50.34L132.59 50.33L132.59 50.33L132.59 50.33L132.59 50.33C132.59 50.33 132.59 50.33 133.02 50.08L133.45 49.83Z" fill="#73325A" fill-opacity="1.000000" fill-rule="evenodd"/>
	<path id="Vector" d="M134.46 44.05C134.99 44.05 135.42 43.22 135.42 42.2C135.42 41.18 134.99 40.35 134.46 40.35C133.93 40.35 133.5 41.18 133.5 42.2C133.5 43.22 133.93 44.05 134.46 44.05Z" fill="#73325A" fill-opacity="1.000000" fill-rule="nonzero"/>
	<path id="HAIR" d="M115.84 31.08C115.84 31.08 138.08 44.45 145.31 32.81C151.66 22.61 123.51 17.35 113.68 17.32C103 17.28 88.83 21.99 89.07 37.65C89.27 50.54 89.81 69.39 82.14 66.11C54.85 54.45 30.6 66.63 30.52 89.82C30.44 113.02 57.47 115.18 58.15 109.2C58.85 103.23 41.37 104.6 43.73 120.1C46.06 135.59 56.49 154.97 80.3 154.97C109.07 154.99 127.39 117.27 109.59 113.43C95.95 110.49 123.49 136.71 131.66 109.46C140.45 80.11 108.69 70.51 107.91 52.78C107.13 35.06 115.84 31.08 115.84 31.08Z" fill="#FFCF2D" fill-opacity="1.000000" fill-rule="nonzero"/>
	<path id="HAIR (Stroke)" d="M97.01 21.18C101.96 17.98 108.28 16.8 113.69 16.82C118.65 16.84 128.2 18.17 135.73 20.78C139.48 22.08 142.8 23.73 144.78 25.74C145.78 26.75 146.47 27.89 146.67 29.14C146.87 30.4 146.58 31.72 145.73 33.07C143.83 36.14 140.93 37.55 137.71 37.94C134.52 38.34 130.98 37.74 127.72 36.79C124.45 35.83 121.42 34.51 119.21 33.43C118.1 32.89 117.2 32.41 116.57 32.07C116.26 31.89 116.01 31.75 115.84 31.66C115.84 31.66 115.83 31.65 115.83 31.65C115.8 31.67 115.77 31.69 115.73 31.71C115.51 31.84 115.19 32.06 114.81 32.36C114.04 32.99 113.01 34 112 35.55C109.99 38.66 108.02 43.99 108.41 52.76C108.6 57.04 110.66 60.87 113.58 64.69C115.05 66.6 116.71 68.49 118.46 70.43C118.76 70.77 119.06 71.1 119.36 71.43C120.82 73.06 122.31 74.72 123.76 76.44C127.24 80.6 130.46 85.17 132.24 90.56C134.03 95.96 134.37 102.17 132.14 109.6C130.07 116.5 126.74 120.13 123.04 121.62C121.08 122.41 119.06 122.59 117.11 122.38C117.19 126.42 115.64 131.24 112.84 135.9C106.82 145.91 94.91 155.48 80.3 155.47C68.24 155.47 59.55 150.55 53.58 143.67C47.63 136.8 44.41 127.99 43.23 120.17C42.66 116.41 43.23 113.42 44.45 111.13C44.25 111.06 44.06 110.99 43.87 110.92C36.88 108.16 29.98 101.66 30.02 89.82C30.06 78.03 36.26 69.01 45.91 64.45C55.55 59.89 68.59 59.78 82.34 65.65L82.34 65.65C83.22 66.03 83.92 66.07 84.5 65.88C85.08 65.7 85.6 65.27 86.08 64.58C87.03 63.17 87.67 60.82 88.06 57.88C88.81 52.35 88.69 45.05 88.59 38.82C88.59 38.43 88.58 38.04 88.57 37.65C88.45 29.64 92.03 24.4 97.01 21.18ZM45.41 111.46C44.25 113.54 43.66 116.36 44.22 120.02L44.22 120.02C45.38 127.7 48.54 136.33 54.34 143.02C60.13 149.7 68.55 154.47 80.3 154.47L80.3 154.47C94.46 154.48 106.09 145.19 111.98 135.39C114.77 130.75 116.23 126.05 116.11 122.23C114.75 121.98 113.44 121.55 112.24 121.01C110.65 120.3 109.23 119.39 108.1 118.45C106.98 117.51 106.12 116.52 105.68 115.62C105.47 115.17 105.33 114.71 105.36 114.28C105.39 113.82 105.6 113.41 106 113.13C106.37 112.86 106.88 112.73 107.48 112.71C108.08 112.68 108.82 112.76 109.7 112.95C112.02 113.45 113.78 114.51 115.01 116.01C116.21 117.47 116.86 119.31 117.05 121.37C118.91 121.6 120.83 121.44 122.66 120.7C126 119.35 129.17 116.03 131.18 109.31C133.35 102.07 133.02 96.07 131.3 90.87C129.57 85.65 126.45 81.21 122.99 77.08C121.56 75.37 120.08 73.72 118.62 72.1C118.31 71.76 118.01 71.43 117.71 71.1C115.97 69.15 114.28 67.23 112.79 65.29C109.82 61.41 107.61 57.39 107.41 52.8C107.02 43.86 109.02 38.33 111.16 35.01C112.24 33.36 113.34 32.27 114.18 31.59C114.6 31.25 114.96 31.01 115.21 30.86C115.34 30.78 115.44 30.73 115.51 30.69C115.55 30.67 115.58 30.66 115.6 30.65C115.61 30.64 115.62 30.64 115.62 30.63L115.63 30.63L115.63 30.63C115.63 30.63 115.63 30.63 115.84 31.08L115.63 30.63L115.87 30.52L116.1 30.66L116.09 30.66C116.1 30.66 116.1 30.66 116.1 30.66L116.1 30.66L116.1 30.66L116.11 30.66C116.12 30.67 116.14 30.68 116.16 30.69C116.2 30.71 116.26 30.75 116.34 30.8C116.51 30.89 116.75 31.03 117.05 31.2C117.67 31.54 118.56 32.01 119.65 32.54C121.83 33.6 124.81 34.9 128 35.83C131.2 36.77 134.59 37.33 137.59 36.96C140.58 36.59 143.17 35.3 144.88 32.55L144.88 32.55C145.63 31.35 145.84 30.28 145.68 29.3C145.52 28.31 144.97 27.35 144.07 26.44C142.26 24.59 139.12 23.01 135.4 21.72C127.98 19.15 118.54 17.83 113.68 17.81L45.41 111.46ZM116.03 121.2C115.83 119.4 115.23 117.85 114.23 116.64C113.17 115.34 111.61 114.38 109.48 113.92C108.66 113.74 108.01 113.68 107.52 113.7C107.03 113.72 106.74 113.83 106.58 113.94C106.44 114.04 106.37 114.16 106.36 114.34C106.35 114.54 106.41 114.82 106.58 115.18C106.94 115.91 107.68 116.8 108.75 117.68C109.8 118.57 111.14 119.43 112.65 120.11C113.72 120.58 114.86 120.97 116.03 121.2ZM45.41 111.46C48.37 112.4 51.27 112.69 53.59 112.45C54.94 112.31 56.13 111.98 57.02 111.46C57.9 110.95 58.54 110.21 58.65 109.25C58.75 108.38 58.52 107.61 58.02 107.01C57.54 106.4 56.83 105.98 56.01 105.73C54.38 105.22 52.21 105.34 50.14 106.13C48.2 106.88 46.31 108.22 44.97 110.26C44.72 110.18 44.48 110.09 44.23 109.99C37.56 107.36 30.98 101.18 31.02 89.82C31.06 78.42 37.03 69.75 46.34 65.35C55.67 60.93 68.4 60.78 81.94 66.57C82.98 67.01 83.94 67.1 84.8 66.83C85.66 66.56 86.35 65.95 86.9 65.14C88 63.53 88.65 60.98 89.05 58.01C89.81 52.41 89.69 45.03 89.59 38.83C89.58 38.42 89.58 38.03 89.57 37.64C89.46 29.99 92.84 25.05 97.55 22.01C102.29 18.95 108.4 17.79 113.68 17.81L45.41 111.46ZM45.95 110.59C47.16 108.86 48.81 107.71 50.5 107.06C52.41 106.33 54.34 106.25 55.71 106.68C56.4 106.89 56.92 107.22 57.24 107.63C57.56 108.02 57.73 108.52 57.65 109.14L57.65 109.14C57.59 109.68 57.23 110.19 56.51 110.6C55.79 111.03 54.75 111.33 53.48 111.46C51.38 111.68 48.71 111.43 45.95 110.59Z" fill="#FFFFFF" fill-opacity="1.000000" fill-rule="evenodd"/>
	<path id="Vector (Stroke)" d="M130.19 42.32L114.28 42.32L114.28 41.13L130.19 41.13L130.19 42.32Z" fill="#3FB1B5" fill-opacity="1.000000" fill-rule="evenodd"/>
	<path id="Vector (Stroke)" d="M135.08 37.15C133.05 37.15 131.16 39.32 131.16 42.32C131.16 45.32 133.05 47.49 135.08 47.49C137.11 47.49 139 45.32 139 42.32C139 39.32 137.11 37.15 135.08 37.15ZM129.97 42.32C129.97 38.95 132.13 35.95 135.08 35.95C138.03 35.95 140.19 38.95 140.19 42.32C140.19 45.69 138.03 48.68 135.08 48.68C132.13 48.68 129.97 45.69 129.97 42.32Z" fill="#3FB1B5" fill-opacity="1.000000" fill-rule="evenodd"/>
	<path id="Vector (Stroke)" d="M110.43 13.91C108.22 13.91 106.45 15.69 106.45 17.87L106.45 34.62L105.25 34.62L105.25 17.87C105.25 15.04 107.56 12.72 110.43 12.72L115.42 12.72C118.27 12.72 120.6 15.01 120.6 17.87L119.4 17.87C119.4 15.68 117.61 13.91 115.42 13.91L110.43 13.91Z" fill="#66B0F0" fill-opacity="1.000000" fill-rule="evenodd"/>
	<path id="Vector" d="M110.67 53.06L101.06 53.06C98.6 53.06 96.6 51.07 96.6 48.63L96.6 39.06C96.6 36.61 98.6 34.62 101.06 34.62L110.67 34.62C113.13 34.62 115.12 36.61 115.12 39.06L115.12 48.63C115.1 51.07 113.13 53.06 110.67 53.06Z" fill="#FFFFFF" fill-opacity="1.000000" fill-rule="nonzero"/>
	<path id="Vector (Stroke)" d="M101.06 35.22C98.93 35.22 97.2 36.94 97.2 39.06L97.2 48.63C97.2 50.74 98.93 52.46 101.06 52.46L110.67 52.46C112.79 52.46 114.51 50.75 114.52 48.62L114.52 39.06C114.52 36.94 112.79 35.22 110.67 35.22L101.06 35.22ZM96.01 39.06C96.01 36.28 98.27 34.02 101.06 34.02L110.67 34.02C113.46 34.02 115.72 36.28 115.72 39.06L115.72 48.63L115.72 48.63C115.7 51.4 113.46 53.66 110.67 53.66L101.06 53.66C98.27 53.66 96.01 51.4 96.01 48.63L96.01 39.06Z" fill="#66B0F0" fill-opacity="1.000000" fill-rule="evenodd"/>
	<path id="Vector" d="M108.17 49.9L103.48 49.9C101.46 49.9 99.8 48.27 99.8 46.24L99.8 41.56C99.8 39.55 101.44 37.9 103.48 37.9L108.17 37.9C110.19 37.9 111.85 39.53 111.85 41.56L111.85 46.24C111.85 48.27 110.21 49.9 108.17 49.9Z" fill="#FFFFFF" fill-opacity="1.000000" fill-rule="nonzero"/>
	<path id="Vector (Stroke)" d="M103.48 38.5C101.77 38.5 100.4 39.88 100.4 41.57L100.4 46.24C100.4 47.94 101.79 49.3 103.48 49.3L108.17 49.3C109.88 49.3 111.25 47.94 111.25 46.24L111.25 41.57C111.25 39.87 109.86 38.5 108.17 38.5L103.48 38.5ZM99.2 41.57C99.2 39.23 101.11 37.31 103.48 37.31L108.17 37.31C110.52 37.31 112.45 39.2 112.45 41.57L112.45 46.24C112.45 48.6 110.54 50.5 108.17 50.5L103.48 50.5C101.13 50.5 99.2 48.6 99.2 46.24L99.2 41.57Z" fill="#66B0F0" fill-opacity="1.000000" fill-rule="evenodd"/>
	<path id="Vector (Stroke)" d="M101.2 49.08L109.55 38.02L110.51 38.74L102.16 49.8L101.2 49.08Z" fill="#66B0F0" fill-opacity="1.000000" fill-rule="evenodd"/>
	<path id="Vector (Stroke)" d="M99.56 47.19L106.79 37.64L107.75 38.36L100.52 47.91L99.56 47.19Z" fill="#66B0F0" fill-opacity="1.000000" fill-rule="evenodd"/>
	<path id="Vector (Stroke)" d="M103.94 49.54L111.17 39.99L112.12 40.71L104.89 50.26L103.94 49.54Z" fill="#66B0F0" fill-opacity="1.000000" fill-rule="evenodd"/>
	<path id="Vector (Stroke)" d="M106.83 49.54L111.37 43.55L112.33 44.27L107.79 50.26L106.83 49.54Z" fill="#66B0F0" fill-opacity="1.000000" fill-rule="evenodd"/>
	<path id="Vector (Stroke)" d="M99.34 43.59L103.86 37.64L104.81 38.36L100.3 44.31L99.34 43.59Z" fill="#66B0F0" fill-opacity="1.000000" fill-rule="evenodd"/>
	<path id="Vector (Stroke)" d="M98.14 325.8L98.14 314.84L99.34 314.84L99.34 325.8C99.34 331.42 94.76 335.99 89.11 335.99L64.42 335.99L64.42 334.79L89.11 334.79C94.1 334.79 98.14 330.76 98.14 325.8Z" fill="#66B0F0" fill-opacity="1.000000" fill-rule="evenodd"/>
	<path id="Vector (Stroke)" d="M107.35 415.51L107.35 314.96L108.55 314.96L108.55 415.51L107.35 415.51Z" fill="#66B0F0" fill-opacity="1.000000" fill-rule="evenodd"/>
	<path id="Vector (Stroke)" d="M102.9 416.11C81.22 416.11 63.84 430.39 63.84 447.76L62.64 447.76C62.64 429.52 80.79 414.92 102.9 414.92L112.85 414.92C134.95 414.92 153.1 429.52 153.1 447.76L151.9 447.76C151.9 430.39 134.53 416.11 112.85 416.11L102.9 416.11Z" fill="#66B0F0" fill-opacity="1.000000" fill-rule="evenodd"/>
	<path id="Vector" d="M204.02 316.49L58.99 316.49C51.72 316.49 45.84 310.62 45.84 303.4L207.45 303.4L204.02 316.49Z" fill="#FFCF2D" fill-opacity="1.000000" fill-rule="nonzero"/>
	<path id="Vector" d="M62.37 469.08C68.28 469.08 73.07 464.31 73.07 458.42C73.07 452.53 68.28 447.76 62.37 447.76C56.45 447.76 51.66 452.53 51.66 458.42C51.66 464.31 56.45 469.08 62.37 469.08Z" fill="#FFCF2D" fill-opacity="1.000000" fill-rule="nonzero"/>
	<path id="Vector" d="M56.91 338.11L78.41 338.11C80.16 338.11 81.58 336.7 81.58 334.95L81.58 334.71C81.58 332.96 80.16 331.55 78.41 331.55L56.91 331.55C55.15 331.55 53.73 332.96 53.73 334.71L53.73 334.95C53.73 336.7 55.15 338.11 56.91 338.11Z" fill="#FFCF2D" fill-opacity="1.000000" fill-rule="nonzero"/>
	<path id="Vector (Stroke)" d="M12.04 211.28C9.38 203.85 14.91 196.04 22.83 196.04L98.48 196.04C105.85 196.04 112.41 200.66 114.89 207.56L114.89 207.56L149.59 304.4L45.42 304.4L12.04 211.28ZM13.17 210.88C10.79 204.23 15.74 197.24 22.83 197.24L98.48 197.24C105.34 197.24 111.45 201.53 113.76 207.96L147.89 303.2L46.27 303.2L13.17 210.88C13.17 210.88 13.17 210.88 13.17 210.88Z" fill="#FFCF2D" fill-opacity="1.000000" fill-rule="evenodd"/>
	<path id="Vector (Stroke)" d="M15.24 199.61L91.83 199.61C98.96 199.61 105.3 204.06 107.7 210.74L107.7 210.75L141.24 304.4L50.94 304.4L50.94 303.2L139.54 303.2L106.57 211.15C104.34 204.94 98.45 200.8 91.83 200.8L15.24 200.8L15.24 199.61Z" fill="#FFCF2D" fill-opacity="1.000000" fill-rule="evenodd"/>
	<path id="Vector" d="M152.32 469.08C158.23 469.08 163.03 464.31 163.03 458.42C163.03 452.53 158.23 447.76 152.32 447.76C146.41 447.76 141.61 452.53 141.61 458.42C141.61 464.31 146.41 469.08 152.32 469.08Z" fill="#FFCF2D" fill-opacity="1.000000" fill-rule="nonzero"/>
</svg>
