<svg width="495.000000" height="554.000000" viewBox="0 0 495 554" fill="none" xmlns="http://www.w3.org/2000/svg" xmlns:xlink="http://www.w3.org/1999/xlink">
	<desc>
			Created with Pixso.
	</desc>
	<defs/>
	<rect id="illustration" width="495.000000" height="554.000000" transform="matrix(-1 0 0 1 495 0)" fill="#FFFFFF" fill-opacity="0"/>
	<path id="Vector" d="M157.95 429.04L161.2 437.91L176.19 478.81C181.81 482.79 188.91 485.35 196.87 485.35C197.81 485.35 198.95 485.12 199.91 485.07C208.23 484.49 216.22 480.83 221.74 476.18L217.27 426.84L216.95 423.27C192.79 432.65 164.61 431.08 157.95 429.04Z" fill="#E57281" fill-opacity="1.000000" fill-rule="nonzero"/>
	<path id="Vector" d="M157.95 429.04L164.31 446.35C183.69 448.99 212.09 433.1 217.25 426.84L216.93 423.27C192.79 432.65 164.61 431.08 157.95 429.04Z" fill="#9A3B82" fill-opacity="1.000000" fill-rule="nonzero"/>
	<path id="Vector" d="M175.88 478.75L180.47 526.91C181.29 539.61 191 549.33 202.51 549.33C203.03 549.33 203.55 549.31 204.09 549.27C216.29 548.34 225.49 536.82 224.62 523.54L221.84 480.99L221.55 476.43C219.1 478.73 216.24 480.72 213.07 482.26C209.1 484.18 204.66 485.43 199.92 485.79C198.96 485.87 198.02 485.91 197.08 485.91C194.36 485.91 191.69 485.6 189.16 485.02C189.08 485.01 188.99 484.99 188.91 484.97C184.17 483.85 179.83 481.79 176.22 479C176.09 478.93 175.97 478.85 175.88 478.75Z" fill="#FFFFFF" fill-opacity="1.000000" fill-rule="nonzero"/>
	<path id="Vector" d="M202.51 549.81C203.05 549.81 203.57 549.79 204.13 549.75C216.58 548.81 225.98 537.03 225.1 523.51L222.32 480.95L221.97 475.37L221.22 476.06C218.77 478.37 215.95 480.31 212.86 481.81C208.79 483.77 204.43 484.95 199.89 485.31C198.93 485.39 198 485.43 197.08 485.43C194.44 485.43 191.81 485.14 189.27 484.56C189.23 484.56 189.2 484.54 189.14 484.52C189.1 484.52 189.06 484.51 189.02 484.51C184.4 483.43 180.08 481.39 176.51 478.62L176.45 478.58C176.34 478.5 176.26 478.46 176.2 478.41L175.26 477.46L179.99 526.95C180.39 533.18 182.92 538.96 187.14 543.21C191.35 547.46 196.8 549.81 202.51 549.81ZM221.13 477.46L221.36 481.02L224.14 523.58C224.99 536.59 215.97 547.9 204.05 548.79C203.51 548.83 203.01 548.84 202.51 548.84C197.06 548.84 191.84 546.61 187.81 542.53C183.77 538.44 181.33 532.88 180.94 526.87L176.45 479.77C180.02 482.41 184.28 484.37 188.79 485.43C188.83 485.43 188.87 485.45 188.93 485.47C188.97 485.47 189 485.49 189.04 485.49C191.67 486.08 194.36 486.39 197.08 486.39C198.04 486.39 198.98 486.35 199.96 486.28C204.63 485.91 209.12 484.72 213.28 482.7C216.14 481.29 218.79 479.54 221.13 477.46Z" fill="#FFCF2D" fill-opacity="1.000000" fill-rule="nonzero"/>
	<path id="Vector" d="M202.17 539.65C202.63 539.65 203.07 539.63 203.53 539.59C214.09 538.78 222.09 528.8 221.34 517.31L218.79 478.97L217.83 479.02L220.38 517.37C221.09 528.32 213.49 537.84 203.45 538.61C203.01 538.65 202.59 538.67 202.17 538.67C192.65 538.67 184.67 530.55 184 520.16L180.75 481.62L179.79 481.7L183.04 520.24C183.38 525.53 185.53 530.43 189.1 534.03C192.67 537.67 197.31 539.65 202.17 539.65Z" fill="#FFCF2D" fill-opacity="1.000000" fill-rule="nonzero"/>
	<path id="Vector" d="M188.95 484.54C191.48 485.06 194.34 485.16 197.06 485.16C198 485.16 198.95 485.12 199.9 485.06C204.64 484.74 209.1 483.58 213.05 481.81L214.32 475.58C215.12 472.92 213.11 470.25 210.33 470.35L191.9 470.88C189.56 470.94 187.78 472.98 187.99 475.31L188.95 484.54Z" fill="#FFCF2D" fill-opacity="1.000000" fill-rule="nonzero"/>
	<path id="Vector" d="M189.14 484.35L191.46 513.62C191.86 519.29 197.24 523.49 202.3 522.56L202.71 522.53C209.92 521.2 215.45 513.65 214.51 505.58L213.05 481.79C209.08 483.56 204.64 484.72 199.91 485.05C198.95 485.12 198.01 485.14 197.06 485.14C194.34 485.16 191.67 484.87 189.14 484.35Z" fill="#FFCF2D" fill-opacity="1.000000" fill-rule="nonzero"/>
	<path id="Vector" d="M191.96 516.54C192 516.54 192.04 516.54 192.08 516.52L213.09 511.71C214.47 511.41 215.03 510.23 214.97 509.23C214.91 508.21 214.24 507.1 212.82 506.92L192.73 504.56C191.67 504.42 191.23 503.61 191.17 502.96C191.12 502.31 191.4 501.42 192.4 501.11L211.65 494.99C213.2 494.49 214.14 493.13 214.07 491.49C213.97 489.86 212.88 488.61 211.28 488.28L196.12 485.64C196.83 485.64 197.56 485.62 198.31 485.6C205.09 485.39 210.11 484.41 213.28 482.66C213.51 482.53 213.59 482.24 213.47 482.01C213.34 481.77 213.05 481.7 212.82 481.81C205.58 485.82 189.35 484.45 189.18 484.43C188.93 484.41 188.7 484.59 188.66 484.85C188.62 485.1 188.79 485.35 189.06 485.39L211.11 489.22C212.51 489.51 213.07 490.65 213.11 491.55C213.16 492.43 212.72 493.65 211.36 494.09L192.11 500.21C190.67 500.67 190.12 501.98 190.23 503.06C190.33 504.15 191.12 505.35 192.63 505.52L212.72 507.88C213.64 508 213.99 508.71 214.03 509.29C214.05 509.87 213.78 510.6 212.9 510.79L191.88 515.6C191.63 515.66 191.46 515.91 191.52 516.18C191.54 516.39 191.75 516.54 191.96 516.54Z" fill="#FFFFFF" fill-opacity="1.000000" fill-rule="nonzero"/>
	<path id="Vector" d="M118.31 320.81L157.95 429.04C164.61 431.08 196.03 433.77 226.69 419.51L202.57 307.63C200.33 290.7 185.93 278.04 168.87 278.04L151.14 278.04C128.86 278.02 112.59 299.18 118.31 320.81Z" fill="#FE5244" fill-opacity="1.000000" fill-rule="nonzero"/>
	<path id="Vector" d="M170.6 419.65C173.52 419.65 176.7 419.55 180.1 419.32C191.44 418.55 208.44 416.01 225.02 408.3C225.31 408.16 225.45 407.81 225.31 407.53C225.18 407.24 224.83 407.1 224.55 407.24C193.97 421.46 159.93 418.88 153.52 416.93C153.21 416.84 152.89 417.01 152.81 417.32C152.72 417.63 152.89 417.95 153.2 418.03C155.59 418.78 161.89 419.65 170.6 419.65Z" fill="#FFFFFF" fill-opacity="1.000000" fill-rule="nonzero"/>
	<path id="Vector" d="M105.09 431.17L109.08 438.27L134.62 483.08C144.46 486.99 156.07 488.43 166.47 486.24L167.78 485.87C172.92 484.79 178.18 481.91 181.9 478.68L163.27 428.75C163.27 428.75 163.25 428.75 163.23 428.75C156.8 430.88 134.7 436.89 105.09 431.17Z" fill="#E57281" fill-opacity="1.000000" fill-rule="nonzero"/>
	<path id="Vector" d="M105.09 431.17L113.51 446.04C145.94 451.24 164.33 431.67 164.33 431.67L163.25 428.77C156.8 430.88 134.7 436.89 105.09 431.17Z" fill="#9A3B82" fill-opacity="1.000000" fill-rule="nonzero"/>
	<path id="Vector" d="M50.43 337.97L94.66 429.1C132.11 438.48 156.86 430.88 163.25 428.77L116.96 304.65C113.8 297.12 108.54 290.91 102.03 286.58C95.53 282.25 87.78 279.81 79.64 279.81C48.82 279.81 35.54 310.9 50.43 337.97Z" fill="#FE5244" fill-opacity="1.000000" fill-rule="nonzero"/>
	<path id="Vector" d="M125.43 424.44C129.02 424.44 132.55 424.28 136.06 424C144.42 423.3 152.43 421.75 159.22 419.49C159.53 419.4 159.68 419.07 159.59 418.76C159.49 418.45 159.16 418.3 158.86 418.4C152.16 420.61 144.23 422.15 135.96 422.84C121.2 424.07 105.68 422.69 89.83 418.7C89.52 418.63 89.21 418.82 89.14 419.13C89.06 419.44 89.25 419.74 89.56 419.82C101.77 422.9 113.8 424.44 125.43 424.44Z" fill="#FFFFFF" fill-opacity="1.000000" fill-rule="nonzero"/>
	<path id="Vector" d="M185.53 488.28L117.51 304.42L116.43 304.82L184.45 488.68L185.53 488.28Z" fill="#FFFFFF" fill-opacity="1.000000" fill-rule="evenodd"/>
	<path id="Vector" d="M135 483.22L136.5 487.16L153.46 531.67C158.32 546.92 174.29 555.99 188.31 552.5L189.08 552.25C198.93 549.81 205.18 537.92 201.32 527.41L181.94 479.93L181.54 478.95C179.1 481.14 176.26 482.95 173.1 484.26C171.41 484.95 169.62 485.51 167.76 485.91L166.46 486.28C160.95 487.43 155.27 487.64 149.66 486.99C144.64 486.37 139.68 485.1 135 483.22Z" fill="#FFFFFF" fill-opacity="1.000000" fill-rule="nonzero"/>
	<path id="Vector" d="M182.12 553.73C184.25 553.73 186.36 553.48 188.43 552.96L188.47 552.96L189.22 552.71C193.94 551.54 198.08 548.15 200.58 543.44C203.26 538.38 203.69 532.47 201.77 527.26L182.38 479.75L181.73 478.14L181.23 478.6C178.8 480.79 175.99 482.56 172.92 483.81C171.23 484.51 169.47 485.05 167.67 485.45L167.65 485.45L166.36 485.82C160.99 486.93 155.38 487.18 149.74 486.51C144.73 485.89 139.84 484.64 135.2 482.77L134.18 482.37L136.06 487.34L153.02 531.82C155.38 539.25 160.43 545.52 167.22 549.52C171.93 552.31 177.07 553.73 182.12 553.73ZM188.18 552.04C181.46 553.69 174.19 552.52 167.68 548.69C161.1 544.83 156.21 538.71 153.91 531.51L153.91 531.49L136.94 486.99L135.83 484.06C140.24 485.74 144.87 486.89 149.61 487.47C155.36 488.14 161.06 487.89 166.55 486.76L166.59 486.76L167.88 486.39C169.74 485.99 171.54 485.43 173.27 484.72C176.22 483.49 178.95 481.83 181.35 479.77L181.5 480.14L200.88 527.62C202.71 532.59 202.28 538.19 199.73 543.02C197.35 547.5 193.44 550.71 188.97 551.81L188.93 551.81L188.18 552.04Z" fill="#FFCF2D" fill-opacity="1.000000" fill-rule="nonzero"/>
	<path id="Vector" d="M179.35 543.25C181.14 543.25 182.92 543.04 184.67 542.59L184.71 542.57L185.32 542.36C189.31 541.36 192.8 538.52 194.9 534.55C197.14 530.3 197.51 525.34 195.91 520.93L179.49 480.93C179.39 480.68 179.1 480.56 178.85 480.66C178.6 480.76 178.49 481.04 178.58 481.29L195.01 521.27C196.53 525.41 196.18 530.09 194.05 534.11C192.08 537.84 188.81 540.52 185.07 541.46L185.03 541.48L184.42 541.69C178.81 543.07 172.75 542.09 167.32 538.9C161.81 535.67 157.72 530.57 155.82 524.55L155.82 524.53L140.95 485.12C140.86 484.87 140.59 484.76 140.34 484.83C140.09 484.93 139.97 485.2 140.05 485.45L154.92 524.83C156.92 531.07 161.14 536.34 166.84 539.71C170.81 542.03 175.11 543.25 179.35 543.25Z" fill="#FFCF2D" fill-opacity="1.000000" fill-rule="nonzero"/>
	<path id="Vector" d="M146.19 481.02L149.68 486.95C155.27 487.6 160.95 487.39 166.48 486.24L167.78 485.87C169.64 485.49 171.43 484.93 173.12 484.22L171.73 474.6C171.41 472.29 169.18 470.73 166.9 471.21L148.86 475C146.13 475.56 144.77 478.64 146.19 481.02Z" fill="#FFCF2D" fill-opacity="1.000000" fill-rule="nonzero"/>
	<path id="Vector" d="M149.68 486.95L149.78 487.1L158.8 511C161.27 518.76 169.37 523.35 176.51 521.58L176.9 521.45C181.9 520.2 185.09 514.15 183.11 508.83L173.15 484.58L173.1 484.22C171.41 484.91 169.62 485.47 167.76 485.87L166.46 486.24C160.95 487.41 155.27 487.6 149.68 486.95Z" fill="#FFCF2D" fill-opacity="1.000000" fill-rule="nonzero"/>
	<path id="Vector" d="M162.67 515.83C162.79 515.83 162.91 515.83 163.02 515.81L183.75 513.56C184.01 513.54 184.21 513.29 184.17 513.02C184.13 512.75 183.9 512.56 183.63 512.6L162.91 514.85C161.77 514.96 161.14 514.21 160.93 513.52C160.72 512.85 160.83 511.87 161.83 511.33L177.97 502.69C179.35 501.96 179.66 500.53 179.37 499.46C179.08 498.38 178.08 497.3 176.51 497.38L156.13 498.3C154.9 498.36 154.23 497.51 154.02 496.76C153.81 496.01 153.96 494.93 155.06 494.36L173.35 484.58C173.58 484.47 173.67 484.18 173.56 483.95C173.44 483.72 173.15 483.62 172.92 483.74C172.9 483.76 170.54 484.85 166.53 485.72C162.83 486.53 156.94 487.3 149.82 486.41C149.55 486.37 149.32 486.57 149.28 486.84C149.24 487.1 149.43 487.34 149.7 487.37C156.98 488.28 163 487.49 166.78 486.66C167.22 486.57 167.63 486.47 168.03 486.37L154.63 493.53C153.14 494.32 152.81 495.88 153.12 497.05C153.44 498.23 154.52 499.38 156.21 499.28L176.59 498.36C177.68 498.32 178.3 499.07 178.47 499.73C178.64 500.38 178.51 501.34 177.55 501.86L161.41 510.5C160.01 511.25 159.7 512.71 160.05 513.81C160.33 514.85 161.27 515.83 162.67 515.83Z" fill="#FFFFFF" fill-opacity="1.000000" fill-rule="nonzero"/>
	<path id="Vector" d="M90.83 141.87C90.83 220.23 154.18 283.75 232.34 283.75C310.49 283.75 373.85 220.23 373.85 141.87C373.85 63.52 310.49 0 232.34 0C154.18 0 90.83 63.52 90.83 141.87Z" fill="#D0F0E4" fill-opacity="1.000000" fill-rule="evenodd"/>
	<path id="Vector" d="M279.95 284.41C294.65 279.48 308.46 272.29 321 263.05C333.39 253.91 344.27 242.98 353.37 230.53C362.56 217.93 369.7 204.08 374.59 189.32C379.66 174.06 382.21 158.11 382.21 141.87L380.87 141.87C380.87 157.96 378.34 173.77 373.31 188.9C368.45 203.52 361.39 217.26 352.28 229.75C343.28 242.08 332.49 252.93 320.19 261.97C307.75 271.13 294.07 278.25 279.51 283.14L279.95 284.41Z" fill="#FFCF2D" fill-opacity="1.000000" fill-rule="nonzero"/>
	<path id="Vector" d="M232.34 234.48C234.24 234.48 236.14 234.42 238.02 234.31C238.55 234.27 238.96 233.83 238.92 233.29C238.88 232.75 238.44 232.34 237.9 232.38C236.06 232.5 234.18 232.55 232.34 232.55L232.2 232.55C231.66 232.55 231.24 232.98 231.24 233.52C231.24 234.06 231.66 234.48 232.2 234.48L232.34 234.48ZM225.49 234.23C225.98 234.23 226.41 233.84 226.44 233.34C226.48 232.8 226.08 232.34 225.56 232.3C223.68 232.17 221.76 231.96 219.9 231.71C219.38 231.63 218.88 232 218.83 232.54C218.75 233.06 219.11 233.56 219.65 233.61C221.57 233.88 223.51 234.08 225.45 234.23C225.45 234.23 225.47 234.23 225.49 234.23ZM244.64 233.65C244.68 233.65 244.71 233.65 244.77 233.65C246.69 233.4 248.61 233.07 250.51 232.69C251.03 232.59 251.37 232.07 251.26 231.55C251.14 231.03 250.64 230.69 250.13 230.8C248.26 231.17 246.38 231.5 244.5 231.75C243.98 231.82 243.6 232.3 243.68 232.82C243.75 233.31 244.18 233.65 244.64 233.65ZM213.15 232.46C213.59 232.46 213.99 232.15 214.09 231.69C214.2 231.17 213.87 230.65 213.36 230.55C211.51 230.15 209.65 229.69 207.83 229.19C207.31 229.05 206.79 229.34 206.64 229.86C206.51 230.38 206.79 230.9 207.31 231.05C209.17 231.57 211.07 232.05 212.95 232.46C213.01 232.46 213.09 232.46 213.15 232.46ZM256.86 231.15C256.94 231.15 257.03 231.13 257.11 231.11C258.97 230.59 260.83 230.02 262.66 229.38C263.16 229.21 263.42 228.65 263.25 228.15C263.08 227.65 262.52 227.38 262.02 227.55C260.24 228.17 258.42 228.75 256.59 229.27C256.07 229.4 255.79 229.94 255.92 230.46C256.06 230.86 256.44 231.15 256.86 231.15ZM201.15 229.02C201.54 229.02 201.92 228.77 202.05 228.38C202.23 227.88 201.98 227.32 201.48 227.15C199.69 226.49 197.93 225.78 196.2 225.03C195.72 224.82 195.15 225.05 194.93 225.53C194.72 226.01 194.95 226.59 195.43 226.8C197.2 227.57 199.02 228.3 200.83 228.96C200.94 229 201.06 229.02 201.15 229.02ZM268.62 226.98C268.76 226.98 268.87 226.96 269.01 226.9C270.77 226.13 272.56 225.28 274.29 224.42C274.77 224.17 274.94 223.59 274.71 223.13C274.46 222.65 273.88 222.47 273.42 222.7C271.73 223.57 270.01 224.4 268.26 225.15C267.78 225.36 267.55 225.92 267.76 226.42C267.9 226.76 268.26 226.98 268.62 226.98ZM189.77 223.95C190.12 223.95 190.44 223.76 190.62 223.43C190.87 222.97 190.69 222.38 190.21 222.13C188.54 221.24 186.87 220.3 185.26 219.3C184.8 219.03 184.23 219.16 183.94 219.62C183.67 220.09 183.8 220.66 184.26 220.95C185.91 221.95 187.6 222.93 189.31 223.84C189.47 223.92 189.62 223.95 189.77 223.95ZM279.72 221.22C279.89 221.22 280.06 221.18 280.22 221.09C281.87 220.09 283.52 219.01 285.09 217.89C285.53 217.59 285.63 216.99 285.32 216.55C285.01 216.1 284.42 216.01 283.98 216.32C282.42 217.39 280.81 218.45 279.2 219.43C278.74 219.7 278.6 220.3 278.87 220.76C279.08 221.05 279.39 221.22 279.72 221.22ZM179.16 217.39C179.47 217.39 179.75 217.26 179.95 216.99C180.25 216.57 180.16 215.95 179.72 215.64C178.18 214.55 176.66 213.37 175.19 212.18C174.78 211.85 174.17 211.91 173.84 212.31C173.52 212.72 173.58 213.33 173.98 213.66C175.48 214.89 177.03 216.09 178.6 217.2C178.78 217.34 178.97 217.39 179.16 217.39ZM289.91 214.01C290.12 214.01 290.33 213.93 290.5 213.8C292 212.58 293.48 211.29 294.9 209.97C295.28 209.6 295.32 209.01 294.95 208.6C294.59 208.22 293.99 208.18 293.59 208.54C292.19 209.83 290.75 211.08 289.27 212.27C288.87 212.6 288.79 213.22 289.14 213.62C289.35 213.89 289.64 214.01 289.91 214.01ZM169.55 209.43C169.79 209.43 170.06 209.33 170.24 209.12C170.6 208.74 170.58 208.12 170.2 207.75C168.82 206.44 167.47 205.08 166.19 203.69C165.82 203.31 165.23 203.29 164.82 203.66C164.44 204.02 164.42 204.62 164.79 205.02C166.11 206.44 167.49 207.83 168.89 209.16C169.07 209.35 169.32 209.43 169.55 209.43ZM299.04 205.48C299.29 205.48 299.56 205.39 299.73 205.18C301.06 203.77 302.34 202.29 303.57 200.79C303.92 200.38 303.86 199.77 303.44 199.44C303.03 199.1 302.42 199.15 302.09 199.58C300.88 201.04 299.62 202.48 298.33 203.87C297.97 204.25 297.99 204.87 298.37 205.23C298.56 205.41 298.81 205.48 299.04 205.48ZM161.08 200.25C161.29 200.25 161.5 200.17 161.68 200.04C162.1 199.71 162.16 199.1 161.83 198.69C160.64 197.21 159.49 195.67 158.39 194.13C158.09 193.69 157.49 193.59 157.05 193.9C156.61 194.21 156.52 194.81 156.82 195.25C157.94 196.83 159.12 198.4 160.33 199.9C160.53 200.11 160.79 200.25 161.08 200.25ZM306.93 195.81C307.24 195.81 307.52 195.67 307.72 195.4C308.83 193.82 309.92 192.19 310.94 190.53C311.23 190.09 311.07 189.5 310.63 189.21C310.19 188.92 309.6 189.07 309.31 189.52C308.31 191.13 307.26 192.73 306.16 194.27C305.85 194.71 305.95 195.31 306.39 195.61C306.54 195.75 306.74 195.81 306.93 195.81ZM153.94 189.98C154.12 189.98 154.29 189.94 154.44 189.84C154.9 189.57 155.04 188.98 154.77 188.51C153.79 186.88 152.85 185.2 151.99 183.53C151.74 183.05 151.16 182.88 150.7 183.13C150.22 183.38 150.05 183.95 150.3 184.42C151.18 186.13 152.14 187.86 153.14 189.52C153.29 189.82 153.62 189.98 153.94 189.98ZM313.43 185.15C313.78 185.15 314.1 184.95 314.28 184.63C315.18 182.92 316.03 181.14 316.79 179.37C317 178.89 316.79 178.32 316.31 178.1C315.83 177.89 315.26 178.1 315.05 178.59C314.28 180.32 313.45 182.05 312.57 183.72C312.32 184.18 312.51 184.78 312.97 185.01C313.13 185.11 313.28 185.15 313.43 185.15ZM148.26 178.84C148.4 178.84 148.51 178.82 148.65 178.76C149.13 178.55 149.36 177.99 149.15 177.49C148.4 175.74 147.71 173.95 147.07 172.16C146.9 171.66 146.34 171.39 145.85 171.58C145.35 171.76 145.08 172.31 145.27 172.81C145.92 174.64 146.63 176.47 147.4 178.26C147.53 178.62 147.88 178.84 148.26 178.84ZM318.42 173.7C318.83 173.7 319.19 173.45 319.33 173.06C319.98 171.24 320.57 169.37 321.11 167.5C321.26 166.98 320.96 166.46 320.46 166.31C319.94 166.16 319.42 166.46 319.27 166.96C318.75 168.79 318.16 170.62 317.52 172.41C317.35 172.91 317.6 173.47 318.1 173.64C318.21 173.68 318.31 173.7 318.42 173.7ZM144.16 167.02C144.23 167.02 144.33 167 144.41 166.98C144.92 166.85 145.21 166.31 145.08 165.81C144.58 163.98 144.14 162.12 143.75 160.25C143.64 159.73 143.14 159.4 142.62 159.5C142.1 159.61 141.78 160.11 141.87 160.63C142.26 162.54 142.72 164.44 143.24 166.31C143.35 166.75 143.73 167.02 144.16 167.02ZM321.8 161.67C322.24 161.67 322.65 161.36 322.74 160.9C323.14 159.02 323.47 157.08 323.76 155.15C323.84 154.63 323.47 154.13 322.95 154.05C322.43 153.98 321.94 154.34 321.86 154.86C321.59 156.75 321.26 158.63 320.88 160.48C320.76 161 321.11 161.52 321.63 161.61C321.69 161.67 321.74 161.67 321.8 161.67ZM141.7 154.77C141.74 154.77 141.78 154.77 141.83 154.77C142.35 154.69 142.74 154.21 142.66 153.69C142.41 151.8 142.24 149.9 142.1 147.99C142.06 147.45 141.62 147.07 141.09 147.09C140.55 147.13 140.16 147.59 140.18 148.11C140.32 150.05 140.51 152 140.76 153.92C140.82 154.42 141.22 154.77 141.7 154.77ZM323.51 149.28C324.01 149.28 324.43 148.9 324.47 148.38C324.6 146.45 324.68 144.49 324.7 142.55C324.7 142.01 324.28 141.59 323.74 141.59C323.2 141.59 322.78 142.01 322.78 142.55C322.76 144.45 322.68 146.38 322.57 148.26C322.53 148.8 322.93 149.24 323.45 149.28C323.47 149.28 323.49 149.28 323.51 149.28ZM140.93 142.3C141.45 142.3 141.89 141.87 141.89 141.34C141.91 139.43 141.97 137.51 142.1 135.62C142.14 135.08 141.74 134.64 141.22 134.6C140.7 134.56 140.24 134.97 140.2 135.49C140.07 137.41 139.99 139.37 139.99 141.32C139.97 141.85 140.39 142.28 140.93 142.3ZM323.55 136.78C323.57 136.78 323.59 136.78 323.6 136.78C324.14 136.74 324.53 136.28 324.51 135.76C324.37 133.81 324.2 131.87 323.95 129.95C323.87 129.43 323.39 129.04 322.88 129.12C322.36 129.19 321.97 129.68 322.05 130.2C322.3 132.08 322.47 133.99 322.61 135.89C322.63 136.39 323.05 136.78 323.55 136.78ZM141.85 129.81C142.33 129.81 142.74 129.46 142.79 128.98C143.06 127.1 143.39 125.21 143.77 123.35C143.89 122.83 143.54 122.31 143.02 122.21C142.51 122.1 141.99 122.44 141.89 122.96C141.51 124.85 141.16 126.79 140.89 128.71C140.82 129.23 141.18 129.73 141.7 129.81C141.76 129.81 141.8 129.81 141.85 129.81ZM321.88 124.39C321.94 124.39 322.01 124.39 322.07 124.37C322.59 124.25 322.93 123.75 322.82 123.23C322.43 121.33 321.97 119.42 321.47 117.55C321.34 117.04 320.8 116.75 320.3 116.88C319.79 117.02 319.5 117.55 319.63 118.06C320.13 119.88 320.57 121.75 320.96 123.62C321.03 124.08 321.44 124.39 321.88 124.39ZM144.44 117.59C144.87 117.59 145.25 117.32 145.37 116.9C145.88 115.07 146.48 113.25 147.11 111.46C147.28 110.96 147.03 110.4 146.54 110.22C146.04 110.05 145.48 110.3 145.31 110.8C144.66 112.63 144.06 114.5 143.52 116.36C143.37 116.88 143.68 117.4 144.17 117.55C144.27 117.57 144.37 117.59 144.44 117.59ZM318.56 112.34C318.67 112.34 318.77 112.32 318.88 112.28C319.38 112.11 319.65 111.55 319.48 111.05C318.83 109.22 318.12 107.4 317.37 105.61C317.16 105.13 316.6 104.89 316.1 105.11C315.6 105.32 315.39 105.88 315.6 106.38C316.35 108.13 317.04 109.92 317.68 111.71C317.79 112.09 318.16 112.34 318.56 112.34ZM148.69 105.84C149.05 105.84 149.41 105.63 149.57 105.26C150.34 103.53 151.16 101.8 152.02 100.12C152.27 99.64 152.08 99.07 151.62 98.83C151.16 98.58 150.57 98.78 150.34 99.24C149.45 100.95 148.61 102.72 147.82 104.49C147.61 104.97 147.82 105.55 148.32 105.76C148.42 105.82 148.55 105.84 148.69 105.84ZM313.61 100.85C313.76 100.85 313.91 100.82 314.05 100.74C314.53 100.49 314.7 99.91 314.45 99.45C313.57 97.74 312.61 96 311.61 94.35C311.34 93.89 310.75 93.75 310.29 94.02C309.83 94.29 309.69 94.89 309.96 95.35C310.94 96.99 311.86 98.66 312.74 100.35C312.92 100.66 313.26 100.85 313.61 100.85ZM154.48 94.79C154.81 94.79 155.11 94.64 155.31 94.33C156.3 92.72 157.36 91.12 158.45 89.56C158.76 89.12 158.66 88.52 158.22 88.21C157.78 87.91 157.19 88 156.88 88.44C155.77 90.02 154.69 91.66 153.67 93.31C153.41 93.77 153.54 94.35 153.98 94.64C154.14 94.74 154.31 94.79 154.48 94.79ZM307.14 90.16C307.33 90.16 307.52 90.1 307.7 89.98C308.14 89.67 308.23 89.08 307.93 88.64C306.81 87.06 305.64 85.48 304.43 83.96C304.11 83.54 303.49 83.48 303.09 83.81C302.67 84.13 302.61 84.75 302.94 85.15C304.13 86.64 305.28 88.17 306.37 89.71C306.54 90 306.83 90.16 307.14 90.16ZM161.73 84.61C162 84.61 162.29 84.5 162.48 84.27C163.69 82.81 164.94 81.36 166.24 79.98C166.61 79.59 166.59 78.98 166.21 78.61C165.82 78.25 165.21 78.27 164.84 78.65C163.52 80.08 162.23 81.54 161 83.04C160.66 83.44 160.74 84.06 161.14 84.38C161.31 84.56 161.52 84.61 161.73 84.61ZM299.27 80.44C299.5 80.44 299.73 80.36 299.92 80.19C300.31 79.83 300.33 79.23 299.98 78.82C298.66 77.4 297.29 76.01 295.89 74.69C295.51 74.32 294.9 74.34 294.53 74.73C294.17 75.11 294.19 75.73 294.57 76.09C295.95 77.4 297.29 78.77 298.58 80.15C298.75 80.33 299.02 80.44 299.27 80.44ZM170.31 75.53C170.54 75.53 170.77 75.46 170.97 75.28C172.35 74 173.81 72.74 175.26 71.53C175.67 71.2 175.74 70.59 175.4 70.18C175.07 69.78 174.46 69.7 174.06 70.05C172.56 71.28 171.08 72.57 169.66 73.88C169.28 74.25 169.24 74.84 169.6 75.25C169.79 75.42 170.04 75.53 170.31 75.53ZM290.18 71.88C290.44 71.88 290.73 71.76 290.92 71.53C291.25 71.13 291.19 70.51 290.79 70.18C289.29 68.95 287.74 67.76 286.16 66.63C285.74 66.32 285.13 66.41 284.82 66.84C284.51 67.26 284.61 67.88 285.03 68.18C286.57 69.28 288.08 70.45 289.56 71.67C289.75 71.8 289.96 71.88 290.18 71.88ZM180.02 67.68C180.22 67.68 180.41 67.63 180.58 67.51C182.13 66.41 183.75 65.37 185.36 64.37C185.82 64.1 185.95 63.51 185.68 63.05C185.42 62.58 184.82 62.45 184.36 62.72C182.71 63.72 181.08 64.8 179.49 65.91C179.04 66.22 178.95 66.82 179.26 67.26C179.43 67.53 179.72 67.68 180.02 67.68ZM280.02 64.64C280.35 64.64 280.66 64.49 280.85 64.18C281.12 63.72 280.98 63.14 280.52 62.85C278.87 61.83 277.18 60.87 275.48 59.97C275.01 59.72 274.42 59.89 274.17 60.37C273.92 60.83 274.09 61.43 274.57 61.68C276.24 62.57 277.91 63.51 279.53 64.51C279.68 64.58 279.85 64.64 280.02 64.64ZM190.71 61.22C190.87 61.22 191 61.18 191.15 61.1C192.84 60.24 194.57 59.41 196.32 58.66C196.8 58.45 197.03 57.89 196.81 57.39C196.6 56.91 196.05 56.68 195.55 56.89C193.78 57.66 192 58.51 190.27 59.39C189.79 59.64 189.62 60.22 189.85 60.68C190.02 61.03 190.37 61.22 190.71 61.22ZM268.97 58.85C269.33 58.85 269.7 58.64 269.85 58.27C270.06 57.79 269.85 57.22 269.35 57C267.59 56.24 265.76 55.5 263.96 54.83C263.46 54.66 262.91 54.91 262.73 55.41C262.56 55.91 262.81 56.47 263.31 56.64C265.07 57.29 266.86 58 268.59 58.76C268.72 58.83 268.84 58.85 268.97 58.85ZM202.19 56.29C202.28 56.29 202.4 56.27 202.5 56.24C204.28 55.6 206.1 55.04 207.93 54.52C208.44 54.39 208.73 53.85 208.6 53.33C208.46 52.81 207.93 52.52 207.41 52.66C205.55 53.18 203.68 53.77 201.86 54.41C201.36 54.58 201.09 55.14 201.27 55.64C201.42 56.04 201.79 56.29 202.19 56.29ZM257.25 54.64C257.67 54.64 258.05 54.37 258.17 53.95C258.32 53.43 258.01 52.91 257.49 52.75C255.63 52.23 253.73 51.75 251.85 51.35C251.33 51.23 250.82 51.56 250.72 52.08C250.61 52.6 250.93 53.12 251.45 53.21C253.29 53.62 255.15 54.08 256.98 54.6C257.07 54.62 257.15 54.64 257.25 54.64ZM214.22 53C214.28 53 214.35 53 214.41 52.98C216.27 52.62 218.15 52.29 220.04 52.04C220.55 51.96 220.94 51.48 220.86 50.96C220.78 50.44 220.3 50.08 219.79 50.14C217.87 50.41 215.95 50.73 214.05 51.1C213.53 51.19 213.18 51.71 213.3 52.23C213.38 52.68 213.76 53 214.22 53ZM245.04 52.08C245.52 52.08 245.92 51.73 245.98 51.25C246.06 50.73 245.69 50.23 245.16 50.17C243.24 49.91 241.3 49.69 239.38 49.56C238.84 49.52 238.38 49.92 238.34 50.44C238.3 50.98 238.71 51.44 239.23 51.48C241.11 51.62 243.03 51.83 244.89 52.1C244.94 52.06 245 52.08 245.04 52.08ZM226.58 51.37C226.6 51.37 226.62 51.37 226.64 51.37C228.52 51.25 230.44 51.19 232.34 51.19L232.6 51.19C233.14 51.19 233.56 50.77 233.56 50.23C233.56 49.69 233.14 49.27 232.6 49.27L232.34 49.27C230.4 49.27 228.44 49.33 226.52 49.44C225.98 49.48 225.58 49.92 225.62 50.46C225.66 50.98 226.08 51.37 226.58 51.37Z" fill="#FFFFFF" fill-opacity="1.000000" fill-rule="nonzero"/>
	<path id="Vector" d="M232.34 66.95C233.12 66.95 233.78 66.3 233.78 65.51L233.78 50.25C233.78 49.46 233.12 48.81 232.34 48.81C231.55 48.81 230.9 49.46 230.9 50.25L230.9 65.51C230.9 66.3 231.55 66.95 232.34 66.95Z" fill="#FFFFFF" fill-opacity="1.000000" fill-rule="nonzero"/>
	<path id="Vector" d="M232.34 234.96C233.12 234.96 233.78 234.3 233.78 233.52L233.78 218.24C233.78 217.45 233.12 216.8 232.34 216.8C231.55 216.8 230.9 217.45 230.9 218.24L230.9 233.52C230.9 234.3 231.55 234.96 232.34 234.96Z" fill="#FFFFFF" fill-opacity="1.000000" fill-rule="nonzero"/>
	<path id="Vector" d="M286.2 89.33C286.57 89.33 286.93 89.19 287.22 88.91L297.99 78.09C298.54 77.53 298.54 76.61 297.99 76.05C297.43 75.5 296.51 75.5 295.95 76.05L285.19 86.87C284.63 87.42 284.63 88.35 285.19 88.91C285.47 89.19 285.84 89.33 286.2 89.33Z" fill="#FFFFFF" fill-opacity="1.000000" fill-rule="nonzero"/>
	<path id="Vector" d="M167.72 208.12C168.09 208.12 168.45 207.99 168.74 207.7L179.51 196.9C180.06 196.35 180.06 195.42 179.51 194.86C178.95 194.31 178.03 194.31 177.47 194.86L166.71 205.66C166.15 206.21 166.15 207.14 166.71 207.7C166.99 207.99 167.36 208.12 167.72 208.12Z" fill="#FFFFFF" fill-opacity="1.000000" fill-rule="nonzero"/>
	<path id="Vector" d="M308.5 143.32L323.74 143.32C324.53 143.32 325.18 142.66 325.18 141.87C325.18 141.09 324.53 140.43 323.74 140.43L308.5 140.43C307.72 140.43 307.06 141.09 307.06 141.87C307.06 142.66 307.72 143.32 308.5 143.32Z" fill="#FFFFFF" fill-opacity="1.000000" fill-rule="nonzero"/>
	<path id="Vector" d="M140.95 143.32L156.17 143.32C156.96 143.32 157.61 142.66 157.61 141.87C157.61 141.09 156.96 140.43 156.17 140.43L140.95 140.43C140.17 140.43 139.51 141.09 139.51 141.87C139.51 142.66 140.17 143.32 140.95 143.32Z" fill="#FFFFFF" fill-opacity="1.000000" fill-rule="nonzero"/>
	<path id="Vector" d="M296.97 208.12C297.33 208.12 297.7 207.99 297.99 207.7C298.54 207.14 298.54 206.21 297.99 205.66L287.22 194.86C286.66 194.31 285.74 194.31 285.19 194.86C284.63 195.42 284.63 196.35 285.19 196.9L295.95 207.7C296.24 207.99 296.6 208.12 296.97 208.12Z" fill="#FFFFFF" fill-opacity="1.000000" fill-rule="nonzero"/>
	<path id="Vector" d="M178.49 89.33C178.85 89.33 179.22 89.19 179.51 88.91C180.06 88.35 180.06 87.42 179.51 86.87L168.74 76.05C168.18 75.5 167.26 75.5 166.71 76.05C166.15 76.61 166.15 77.53 166.71 78.09L177.47 88.91C177.76 89.19 178.12 89.33 178.49 89.33Z" fill="#FFFFFF" fill-opacity="1.000000" fill-rule="nonzero"/>
	<path id="Vector" d="M232.34 239.29C245.44 239.29 258.17 236.71 270.16 231.63C281.73 226.72 292.11 219.7 301.04 210.76C309.96 201.81 316.97 191.4 321.86 179.8C326.93 167.79 329.5 155.03 329.5 141.87C329.5 114.88 319.06 90.1 300.27 72.99L292.54 81.54C300.54 88.83 306.43 96.83 311 107.57C315.58 118.36 318 130.21 318 141.85C318 153.46 315.74 164.69 311.27 175.27C306.95 185.49 300.77 194.69 292.9 202.58C285.03 210.47 275.88 216.66 265.67 220.97C255.12 225.45 243.91 227.72 232.34 227.72C220.76 227.72 209.56 225.45 199 220.97C188.81 216.64 179.64 210.45 171.77 202.58C163.9 194.69 157.72 185.51 153.41 175.27C148.94 164.69 146.67 153.46 146.67 141.85C146.67 130.31 149.01 119.09 153.64 108.49C158.09 98.29 164.46 89.1 172.56 81.19C180.64 73.3 190 67.09 200.4 62.74C211.13 58.25 220.73 56.37 232.3 56.37L232.3 44.83C219.19 44.83 208.1 47.02 195.97 52.08C184.23 56.99 173.65 63.99 164.52 72.92C155.35 81.88 148.13 92.29 143.08 103.85C137.82 115.92 135.14 128.69 135.14 141.84C135.14 154.98 137.71 167.73 142.78 179.76C147.67 191.36 154.67 201.77 163.6 210.72C172.52 219.66 182.9 226.68 194.47 231.59C206.51 236.71 219.23 239.29 232.34 239.29Z" fill="#D0F0E4" fill-opacity="1.000000" fill-rule="nonzero"/>
	<path id="Vector" d="M232.34 240.73C245.64 240.73 258.55 238.11 270.72 232.96C282.44 227.98 293 220.86 302.05 211.77C311.11 202.69 318.21 192.13 323.18 180.35C328.33 168.16 330.94 155.23 330.94 141.87C330.94 128.23 328.35 115.21 323.26 103.16C318.14 91.08 310.73 80.57 301.25 71.93C300.96 71.68 300.6 71.55 300.21 71.57C299.83 71.59 299.46 71.76 299.21 72.05L291.48 80.59C290.94 81.19 290.98 82.09 291.58 82.63C299.75 90.08 305.34 97.97 309.67 108.17C314.18 118.77 316.56 130.43 316.56 141.89C316.56 153.3 314.34 164.35 309.94 174.76C305.68 184.82 299.62 193.84 291.88 201.6C284.13 209.37 275.13 215.45 265.11 219.68C254.73 224.09 243.72 226.32 232.34 226.32C220.96 226.32 209.94 224.09 199.56 219.68C189.54 215.43 180.52 209.33 172.79 201.6C165.06 193.84 158.97 184.8 154.73 174.76C150.34 164.35 148.11 153.3 148.11 141.89C148.11 130.56 150.41 119.52 154.96 109.11C159.34 99.06 165.61 90.04 173.58 82.27C181.54 74.49 190.75 68.38 200.98 64.1C211.48 59.72 220.84 57.85 232.32 57.85C233.1 57.85 233.76 57.2 233.76 56.41L233.76 44.86C233.76 44.08 233.1 43.42 232.32 43.42C219.02 43.42 207.64 45.69 195.43 50.79C183.52 55.77 172.79 62.87 163.52 71.93C154.21 81.04 146.88 91.6 141.78 103.34C136.42 115.61 133.72 128.58 133.72 141.89C133.72 155.23 136.33 168.18 141.47 180.37C146.44 192.13 153.54 202.71 162.6 211.79C171.66 220.87 182.19 227.99 193.94 232.98C206.1 238.1 219.02 240.73 232.34 240.73ZM300.37 75.03C309.04 83.21 315.85 93.04 320.61 104.28C325.56 115.96 328.06 128.6 328.06 141.85C328.06 154.82 325.52 167.39 320.53 179.22C315.72 190.65 308.81 200.9 300.02 209.72C291.23 218.53 280.98 225.45 269.6 230.28C257.78 235.29 245.25 237.83 232.34 237.83C219.42 237.83 206.87 235.27 195.03 230.25C183.63 225.42 173.4 218.49 164.61 209.68C155.82 200.86 148.92 190.59 144.1 179.18C139.11 167.33 136.58 154.77 136.58 141.82C136.58 128.91 139.21 116.32 144.41 104.41C149.38 93.02 156.48 82.77 165.53 73.94C174.54 65.14 184.96 58.24 196.53 53.41C207.93 48.65 218.58 46.44 230.86 46.27L230.86 54.93C219.63 55.08 210.27 57.04 199.85 61.39C189.29 65.8 179.77 72.11 171.56 80.13C163.33 88.17 156.86 97.5 152.33 107.9C147.63 118.67 145.25 130.1 145.25 141.84C145.25 153.63 147.55 165.06 152.1 175.81C156.48 186.2 162.77 195.55 170.77 203.58C178.78 211.58 188.08 217.87 198.47 222.28C209.19 226.84 220.59 229.15 232.36 229.15C244.12 229.15 255.52 226.84 266.25 222.28C276.59 217.91 285.92 211.62 293.94 203.58C301.92 195.57 308.21 186.22 312.61 175.81C317.16 165.06 319.46 153.63 319.46 141.84C319.46 130 317 117.94 312.34 106.99C308.02 96.83 302.51 88.91 294.59 81.44L300.37 75.03Z" fill="#FFFFFF" fill-opacity="1.000000" fill-rule="nonzero"/>
	<path id="Vector" d="M219.92 155.65C220.09 155.65 220.27 155.57 220.4 155.44L280.72 93.41C280.96 93.14 280.96 92.72 280.7 92.47C280.43 92.22 280 92.22 279.76 92.49L219.44 154.52C219.19 154.78 219.19 155.21 219.46 155.46C219.57 155.59 219.75 155.65 219.92 155.65Z" fill="#FE5244" fill-opacity="1.000000" fill-rule="nonzero"/>
	<path id="Vector" d="M226.91 142.51C226.91 145.16 229.04 147.3 231.68 147.3C234.32 147.3 236.46 145.16 236.46 142.51C236.46 139.86 234.32 137.72 231.68 137.72C229.04 137.72 226.91 139.86 226.91 142.51Z" fill="#D0F0E4" fill-opacity="1.000000" fill-rule="evenodd"/>
	<path id="Vector" d="M231.68 148.74C235.12 148.74 237.9 145.95 237.9 142.51C237.9 139.06 235.12 136.27 231.68 136.27C228.25 136.27 225.47 139.06 225.47 142.51C225.47 145.95 228.25 148.74 231.68 148.74ZM231.68 139.16C233.53 139.16 235.02 140.66 235.02 142.51C235.02 144.35 233.53 145.86 231.68 145.86C229.84 145.86 228.35 144.35 228.35 142.51C228.35 140.66 229.84 139.16 231.68 139.16Z" fill="#FFFFFF" fill-opacity="1.000000" fill-rule="nonzero"/>
	<path id="Vector" d="M192.73 46.29C192.94 46.29 193.17 46.23 193.36 46.13C194.07 45.79 194.36 44.92 194.01 44.19L191.1 38.32C190.69 37.46 190.69 36.46 191.08 35.59C191.46 34.72 192.21 34.07 193.11 33.78L199.14 31.95C200.06 31.66 201.04 31.8 201.84 32.32C202.65 32.82 203.19 33.66 203.32 34.61L204.18 40.76C204.3 41.55 205.03 42.11 205.82 42C206.6 41.88 207.16 41.15 207.04 40.36L206.18 34.18C205.91 32.4 204.89 30.84 203.38 29.88C201.86 28.91 200.02 28.66 198.31 29.2L192.29 31.03C190.58 31.55 189.18 32.78 188.45 34.42C187.72 36.05 187.74 37.94 188.51 39.55L188.52 39.57L191.44 45.46C191.69 46 192.19 46.29 192.73 46.29Z" fill="#FFFFFF" fill-opacity="1.000000" fill-rule="nonzero"/>
	<path id="Vector" d="M22.85 553.22L24.03 553.22L24.03 305.88L353 305.88L353 553.22L354.18 553.22L354.18 304.73L22.85 304.73L22.85 553.22Z" fill="#66B0F0" fill-opacity="1.000000" fill-rule="nonzero"/>
	<path id="Vector" d="M19.32 313.6L358.61 313.6C366.28 313.6 372.5 309.19 372.5 303.76L372.5 266.3C372.5 260.88 366.28 256.47 358.61 256.47L19.32 256.47C11.66 256.47 5.44 260.88 5.44 266.3L5.44 303.76C5.44 309.19 11.66 313.6 19.32 313.6Z" fill="#FFFFFF" fill-opacity="1.000000" fill-rule="nonzero"/>
	<path id="Vector" d="M19.32 314.17L358.61 314.17C366.71 314.17 373.31 309.5 373.31 303.76L373.31 266.3C373.31 260.57 366.71 255.89 358.61 255.89L19.32 255.89C11.23 255.89 4.62 260.57 4.62 266.3L4.62 303.76C4.62 309.5 11.23 314.17 19.32 314.17ZM358.61 257.05C365.81 257.05 371.68 261.2 371.68 266.3L371.68 303.76C371.68 308.86 365.81 313.02 358.61 313.02L19.32 313.02C12.12 313.02 6.25 308.86 6.25 303.76L6.25 266.3C6.25 261.2 12.12 257.05 19.32 257.05L358.61 257.05Z" fill="#66B0F0" fill-opacity="1.000000" fill-rule="nonzero"/>
	<path id="Vector" d="M18.5 306.89L359.43 306.89C367.09 306.89 373.31 302.48 373.31 297.05L373.31 259.55C373.31 254.12 367.09 249.71 359.43 249.71L18.5 249.71C10.84 249.71 4.62 254.12 4.62 259.55L4.62 297.05C4.62 302.48 10.84 306.89 18.5 306.89Z" fill="#66B0F0" fill-opacity="1.000000" fill-rule="nonzero"/>
	<path id="Vector" d="M170.6 255.8L84.73 255.8L84.73 295.34L170.6 295.34L170.6 255.8Z" fill="#FFFFFF" fill-opacity="1.000000" fill-rule="evenodd"/>
	<path id="Vector" d="M26.88 260.07L115.45 260.07L115.37 249.72L168.72 249.72L184.25 204.12L200.86 234.81L153.94 274.94L176.38 305.42L231.8 269.8C241.84 263.24 247.88 252.06 247.88 240.06C247.88 234.06 246.36 228.13 243.45 222.88L217.58 175.97C206.72 156.29 186.07 144.09 163.65 144.09L80.58 144.09C66.76 144.09 53.81 150.82 45.84 162.13L5.56 218.35C-6.97 235.77 5.47 260.07 26.88 260.07Z" fill="#FFFFFF" fill-opacity="1.000000" fill-rule="nonzero"/>
	<path id="Vector" d="M176.24 306.19L232.13 270.28C242.35 263.59 248.48 252.29 248.48 240.06C248.48 233.94 246.92 227.9 243.97 222.59L218.1 175.68C207.14 155.82 186.28 143.51 163.67 143.51L80.6 143.51C66.61 143.51 53.46 150.34 45.38 161.81L5.1 218.01C2.07 222.22 0.31 227.13 0.04 232.17C-0.23 236.9 0.79 241.67 2.99 245.98C5.18 250.29 8.46 253.91 12.45 256.47C16.71 259.2 21.7 260.64 26.9 260.64L116.02 260.64L115.95 250.29L169.12 250.29L169.26 249.91L184.36 205.56L200.14 234.69L153.16 274.86L176.24 306.19ZM163.65 144.66C185.86 144.66 206.33 156.77 217.08 176.26L242.95 223.16C245.81 228.3 247.31 234.15 247.31 240.06C247.31 251.91 241.39 262.84 231.49 269.32L176.53 304.65L154.73 275.04L201.59 234.94L184.13 202.69L168.32 249.14L114.8 249.14L114.87 259.49L26.88 259.49C21.89 259.49 17.12 258.1 13.05 255.51C9.23 253.06 6.08 249.58 3.99 245.46C1.9 241.35 0.92 236.79 1.17 232.25C1.44 227.43 3.13 222.74 6.02 218.7L46.31 162.48C54.15 151.32 66.97 144.66 80.58 144.66L163.65 144.66Z" fill="#FE5244" fill-opacity="1.000000" fill-rule="nonzero"/>
	<path id="Vector" d="M158.18 294.91C164.75 303.76 172.83 308.84 176.26 306.28C179.7 303.72 177.16 294.49 170.62 285.64C164.06 276.79 156.75 272.09 153.31 274.65C149.88 277.21 151.64 286.08 158.18 294.91Z" fill="#FE5244" fill-opacity="1.000000" fill-rule="nonzero"/>
	<path id="Vector" d="M129.9 182.1L157.63 143.59L104.32 143.59L129.9 182.1ZM155.36 144.74L129.94 180.07L106.47 144.74L155.36 144.74Z" fill="#FE5244" fill-opacity="1.000000" fill-rule="nonzero"/>
	<path id="Vector" d="M129.63 195.11C131.47 195.11 132.99 193.59 132.99 191.75C132.99 189.9 131.47 188.38 129.63 188.38C127.79 188.38 126.27 189.9 126.27 191.75C126.27 193.59 127.79 195.11 129.63 195.11ZM129.63 189.53C130.84 189.53 131.84 190.53 131.84 191.75C131.84 192.96 130.84 193.96 129.63 193.96C128.42 193.96 127.42 192.96 127.42 191.75C127.42 190.53 128.42 189.53 129.63 189.53Z" fill="#FE5244" fill-opacity="1.000000" fill-rule="nonzero"/>
	<path id="Vector" d="M129.63 212.81C131.47 212.81 132.99 211.29 132.99 209.45C132.99 207.6 131.47 206.08 129.63 206.08C127.79 206.08 126.27 207.6 126.27 209.45C126.27 211.29 127.79 212.81 129.63 212.81ZM129.63 207.23C130.84 207.23 131.84 208.23 131.84 209.45C131.84 210.66 130.84 211.66 129.63 211.66C128.42 211.66 127.42 210.66 127.42 209.45C127.42 208.23 128.42 207.23 129.63 207.23Z" fill="#FE5244" fill-opacity="1.000000" fill-rule="nonzero"/>
	<path id="Vector" d="M114.12 260.74L115.28 260.74L115.28 220.91L62.41 220.91L74.51 202.08L73.56 201.46L60.29 222.07L114.12 222.07L114.12 260.74Z" fill="#FE5244" fill-opacity="1.000000" fill-rule="nonzero"/>
	<path id="Vector" d="M61.35 220.91L47.36 220.91L47.36 222.07L61.35 222.07L61.35 220.91Z" fill="#FE5244" fill-opacity="1.000000" fill-rule="evenodd"/>
	<path id="Vector" d="M106.95 240.79C106.95 251.81 110.42 260.74 114.7 260.74C118.98 260.74 122.45 251.81 122.45 240.79C122.45 229.77 118.98 220.84 114.7 220.84C110.42 220.84 106.95 229.77 106.95 240.79Z" fill="#FE5244" fill-opacity="1.000000" fill-rule="evenodd"/>
	<path id="Vector" d="M107.02 260.61L107.02 259.45C103.13 259.45 99.85 250.91 99.85 240.79C99.85 230.67 103.13 222.13 107.02 222.13L107.02 220.97C102.36 220.97 98.69 229.67 98.69 240.79C98.69 251.91 102.36 260.61 107.02 260.61Z" fill="#FE5244" fill-opacity="1.000000" fill-rule="nonzero"/>
	<path id="Vector" d="M182.58 302.15C186.32 299.35 183.88 289.95 177.05 280.69C173.75 276.25 170.37 272.82 167.26 270.78C163.94 268.61 161.2 268.19 159.32 269.59L160.01 270.51C163.06 268.24 169.7 272.71 176.13 281.38C182.36 289.81 184.99 298.89 181.88 301.22L182.58 302.15Z" fill="#FE5244" fill-opacity="1.000000" fill-rule="nonzero"/>
	<path id="Vector" d="M156.3 128.21C156.17 109.24 143.6 104.05 122.95 105.7C100.69 107.49 109.81 138.2 97.45 139.22C92.27 139.64 86.36 133.75 78.49 128.91C72 124.52 64.19 121.96 55.77 121.96C33.29 121.96 15.06 140.24 15.06 162.77C15.06 173.14 19.88 183.16 26.23 190.36C26.23 190.36 50.24 156.55 59.55 153.38C77.85 147.14 83.67 163.27 96.37 165.77C98.04 166.1 99.83 166.19 101.78 165.96C119.86 163.88 116.41 134 116.41 134C121.09 132.08 122.11 127.21 122.28 124.27C122.18 122.85 122.24 121.9 122.24 121.9C122.24 121.9 122.36 122.86 122.28 124.27C122.66 129.81 126.04 143.07 144.87 138.31L144.87 144.76C144.87 183.8 144.23 191.38 152.12 201.19C153.29 202.65 161.12 214.45 147.09 220.82C129.02 229.01 141.78 250.58 141.78 250.58L180.02 250.58C180.02 250.58 202.73 246.54 204.7 225.88C207.52 196.34 170.58 188.43 165.77 187.53C175.13 186.09 184.28 176.83 184.28 165.62C184.28 155.67 176.67 147.26 168.84 144.49C168.82 144.49 168.82 144.49 168.8 144.47C168.57 144.39 168.34 144.32 168.11 144.24C161.98 142.12 157.47 137.47 156.48 131.83L156.3 128.21Z" fill="#FFCF2D" fill-opacity="1.000000" fill-rule="nonzero"/>
	<path id="Vector" d="M122.18 128.42C122.45 128.42 122.66 128.19 122.66 127.94L122.51 118.11C122.51 117.84 122.3 117.63 122.03 117.63C121.76 117.63 121.55 117.86 121.55 118.11L121.7 127.94C121.72 128.21 121.93 128.42 122.18 128.42Z" fill="#E57281" fill-opacity="1.000000" fill-rule="nonzero"/>
	<path id="Vector" d="M144.02 139.62C144.1 139.62 144.18 139.6 144.25 139.57C148.9 137.12 149.88 134.62 149.93 134.52C150.03 134.27 149.89 134 149.64 133.91C149.39 133.81 149.13 133.95 149.03 134.18C149.01 134.22 148.07 136.47 143.81 138.72C143.58 138.84 143.49 139.14 143.6 139.37C143.68 139.53 143.85 139.62 144.02 139.62Z" fill="#E57281" fill-opacity="1.000000" fill-rule="nonzero"/>
	<path id="Vector" d="M73.8 117.13C73.8 120.32 76.38 122.9 79.56 122.9C82.74 122.9 85.32 120.32 85.32 117.13C85.32 113.94 82.74 111.36 79.56 111.36C76.38 111.36 73.8 113.94 73.8 117.13Z" fill="#FFCF2D" fill-opacity="1.000000" fill-rule="evenodd"/>
	<path id="Vector" d="M142.7 209.54C142.7 212.1 144.77 214.18 147.32 214.18C149.88 214.18 151.95 212.1 151.95 209.54C151.95 206.98 149.88 204.91 147.32 204.91C144.77 204.91 142.7 206.98 142.7 209.54Z" fill="#FFCF2D" fill-opacity="1.000000" fill-rule="evenodd"/>
	<path id="Vector" d="M118.19 279.33L118.21 282.83C118.21 283.14 118.29 283.45 118.4 283.72L126.81 302.49C128.06 305.21 130.76 306.94 133.74 306.94L151.72 306.94C156.21 306.94 160.56 305.42 164.1 302.65L164.73 302.15L175.44 293.7C174.25 291.12 172.62 288.37 170.6 285.66C166.76 280.46 162.37 276.58 158.72 274.75L132.91 274.75C130.86 279.35 137.54 283.04 137.54 283.04L125.87 283.04L121.65 278.44C120.55 277.25 118.58 277.77 118.19 279.33Z" fill="#E57281" fill-opacity="1.000000" fill-rule="nonzero"/>
	<path id="Vector" d="M131.76 301.7L146.9 301.7C147.17 301.7 147.38 301.49 147.38 301.22C147.38 300.95 147.17 300.74 146.9 300.74L131.76 300.74C128.98 300.74 126.43 299.11 125.27 296.59C125.16 296.34 124.87 296.24 124.64 296.35C124.39 296.47 124.29 296.76 124.41 296.99C125.71 299.86 128.61 301.7 131.76 301.7Z" fill="#9A3B82" fill-opacity="1.000000" fill-rule="nonzero"/>
	<path id="Vector" d="M129.11 295.76L144.25 295.76C144.52 295.76 144.73 295.55 144.73 295.28C144.73 295.01 144.52 294.8 144.25 294.8L129.11 294.8C126.33 294.8 123.78 293.16 122.63 290.64C122.51 290.39 122.22 290.29 121.99 290.41C121.74 290.52 121.65 290.81 121.76 291.04C123.07 293.91 125.96 295.76 129.11 295.76Z" fill="#9A3B82" fill-opacity="1.000000" fill-rule="nonzero"/>
	<path id="Vector" d="M126.25 289.14L141.39 289.14C141.66 289.14 141.87 288.93 141.87 288.66C141.87 288.39 141.66 288.18 141.39 288.18L126.25 288.18C123.47 288.18 120.92 286.54 119.77 284.02C119.65 283.77 119.36 283.68 119.13 283.79C118.88 283.91 118.79 284.19 118.9 284.43C120.21 287.29 123.11 289.14 126.25 289.14Z" fill="#9A3B82" fill-opacity="1.000000" fill-rule="nonzero"/>
	<path id="Vector" d="M158.38 294.53C160.08 297.32 162.6 300.22 164.73 302.15L164.75 302.13L175.46 293.68C174.27 291.1 172.64 288.35 170.62 285.64C166.78 280.44 162.39 276.56 158.74 274.73L153.2 274.73C152.7 279.1 153.43 286.45 158.38 294.53Z" fill="#9A3B82" fill-opacity="1.000000" fill-rule="nonzero"/>
	<path id="Vector" d="M139.97 235.17C139.97 235.17 130.65 210.22 127.04 210.72C123.45 211.2 135.08 233.32 135.08 233.32L139.97 235.17Z" fill="#FE5244" fill-opacity="1.000000" fill-rule="nonzero"/>
	<path id="Vector" d="M106.95 240.79C106.95 251.47 110.21 260.16 114.3 260.7C114.43 260.72 114.57 260.72 114.7 260.72L152.7 260.72C153.85 260.72 154.77 259.8 154.77 258.64L154.77 246.48C154.77 243.04 152.66 239.96 149.45 238.75L133.54 232.71C132.11 232.17 130.57 231.88 129.03 231.88L107.77 231.88C107.25 234.57 106.95 237.6 106.95 240.79Z" fill="#E57281" fill-opacity="1.000000" fill-rule="nonzero"/>
	<path id="Vector" d="M154.1 252.31C154.37 252.31 154.58 252.1 154.58 251.83C154.58 249.06 152.85 246.54 150.26 245.56L138.25 241C138 240.91 137.73 241.04 137.63 241.29C137.54 241.54 137.67 241.81 137.92 241.91L149.93 246.47C152.14 247.31 153.64 249.47 153.64 251.85C153.62 252.1 153.83 252.31 154.1 252.31Z" fill="#9A3B82" fill-opacity="1.000000" fill-rule="nonzero"/>
	<path id="Vector" d="M154.1 259.59C154.37 259.59 154.58 259.37 154.58 259.1C154.58 256.34 152.85 253.81 150.26 252.83L138.25 248.27C138 248.18 137.73 248.31 137.63 248.56C137.54 248.81 137.67 249.08 137.92 249.18L149.93 253.74C152.14 254.58 153.64 256.74 153.64 259.12C153.62 259.37 153.83 259.59 154.1 259.59Z" fill="#9A3B82" fill-opacity="1.000000" fill-rule="nonzero"/>
	<path id="Vector" d="M150.74 260.55C150.93 260.55 151.12 260.43 151.18 260.24C151.28 259.99 151.14 259.72 150.89 259.63L138.88 255.07C138.63 254.97 138.36 255.1 138.27 255.35C138.17 255.6 138.3 255.87 138.55 255.97L150.57 260.53C150.62 260.53 150.68 260.55 150.74 260.55Z" fill="#9A3B82" fill-opacity="1.000000" fill-rule="nonzero"/>
	<path id="Vector" d="M106.95 240.79C106.95 251.47 110.21 260.16 114.3 260.7C114.43 260.72 114.57 260.72 114.7 260.72C118.98 260.72 122.45 251.79 122.45 240.77C122.45 237.83 122.01 234.48 121.55 231.86L107.87 231.86C107.39 234.5 106.95 237.85 106.95 240.79Z" fill="#9A3B82" fill-opacity="1.000000" fill-rule="nonzero"/>
	<path id="HEAD 1" d="M110.13 138.29C110.13 139.41 110.52 140.47 111.15 141.3C111.8 142.14 112.7 142.76 113.8 143.05L116.45 143.74L116.45 146.7C116.45 153.86 122.22 159.65 129.36 159.65L131.91 159.65C139.03 159.65 144.79 153.88 144.83 146.76L144.83 138.29C126 143.07 122.63 129.79 122.24 124.25C122.09 127.06 121.15 131.6 117 133.7L116.27 133.5C113.16 132.73 110.13 135.08 110.13 138.29Z" fill="#E57281" fill-opacity="1.000000" fill-rule="nonzero"/>
	<path id="Vector" d="M119.96 142.72C120.07 142.72 120.19 142.68 120.27 142.6C122.36 140.82 126.04 141.16 126.08 141.16C126.35 141.18 126.58 140.99 126.6 140.74C126.62 140.47 126.42 140.24 126.18 140.22C126 140.2 122.03 139.84 119.63 141.89C119.44 142.07 119.4 142.37 119.57 142.57C119.69 142.66 119.82 142.72 119.96 142.72Z" fill="#9A3B82" fill-opacity="1.000000" fill-rule="nonzero"/>
	<path id="Vector" d="M132.01 153.52C132.28 153.52 132.49 153.3 132.49 153.03C132.53 147.34 133.74 142.84 135.42 142.09C138.4 140.78 141.09 142.18 141.11 142.2C141.34 142.34 141.62 142.24 141.76 142.01C141.89 141.78 141.8 141.49 141.57 141.35C141.43 141.28 138.44 139.7 135.04 141.2C132.91 142.14 131.57 146.67 131.53 153.03C131.53 153.3 131.74 153.52 132.01 153.52Z" fill="#9A3B82" fill-opacity="1.000000" fill-rule="nonzero"/>
	<path id="Vector" d="M136.9 146.2C136.9 147 137.24 147.65 137.65 147.65C138.06 147.65 138.4 147 138.4 146.2C138.4 145.41 138.06 144.76 137.65 144.76C137.24 144.76 136.9 145.41 136.9 146.2Z" fill="#9A3B82" fill-opacity="1.000000" fill-rule="evenodd"/>
	<path id="Vector" d="M122.97 146.2C122.97 147 123.31 147.65 123.72 147.65C124.13 147.65 124.47 147 124.47 146.2C124.47 145.41 124.13 144.76 123.72 144.76C123.31 144.76 122.97 145.41 122.97 146.2Z" fill="#9A3B82" fill-opacity="1.000000" fill-rule="evenodd"/>
	<path id="Vector" d="M115.72 140.64C115.99 140.64 116.2 140.43 116.2 140.16C116.2 138.28 114.85 136.62 113.01 136.24C112.76 136.18 112.49 136.35 112.44 136.6C112.38 136.87 112.55 137.12 112.8 137.18C114.2 137.47 115.22 138.74 115.22 140.18C115.24 140.43 115.45 140.64 115.72 140.64Z" fill="#9A3B82" fill-opacity="1.000000" fill-rule="nonzero"/>
	<path id="Vector" d="M321.3 435.99C319.02 441.38 319.69 452.46 331.19 452.31C345.44 452.12 345.08 413.6 345.08 413.6C345.08 413.6 330.51 414.27 321.3 435.99Z" fill="#3FB1B5" fill-opacity="1.000000" fill-rule="nonzero"/>
	<path id="Vector" d="M454.1 422.97C457.67 430.55 452.87 436.65 448.84 434.55C441.8 430.88 438.77 421.43 438.77 421.43C438.77 421.43 450.89 416.19 454.1 422.97Z" fill="#3FB1B5" fill-opacity="1.000000" fill-rule="nonzero"/>
	<path id="Vector" d="M321.49 436C329.13 420.66 337.75 413.37 351.55 413.37C374.79 413.37 389.7 438.3 392.54 470.55C392.88 466.55 397.01 462.45 397.32 458.29C401.46 403.07 371.27 381.29 348.63 381.29C330.09 381.27 325.47 407.98 321.49 436Z" fill="#FFFFFF" fill-opacity="1.000000" fill-rule="nonzero"/>
	<path id="Vector" d="M391.96 470.61L393.11 470.61C393.27 468.76 394.3 466.87 395.4 464.85C396.55 462.76 397.74 460.56 397.89 458.33C400.42 424.53 390.06 405.65 380.93 395.76C372.08 386.2 360.3 380.7 348.63 380.7L348.61 380.7C339.97 380.7 333.58 386.32 329.07 397.9C325.08 408.13 322.95 421.72 320.94 435.9L320.44 439.42L322.03 436.24C325.98 428.3 329.98 422.95 334.58 419.37C339.32 415.71 344.87 413.93 351.57 413.93C362.43 413.93 372 419.54 379.24 430.16C386.13 440.34 390.52 454.31 391.96 470.61ZM348.61 381.87L348.63 381.87C359.99 381.87 371.45 387.22 380.08 396.55C389.06 406.27 399.25 424.83 396.74 458.24C396.59 460.22 395.47 462.29 394.38 464.3C393.82 465.32 393.25 466.37 392.81 467.43C391.1 452.25 386.74 439.21 380.18 429.55C372.71 418.58 362.83 412.79 351.57 412.79C344.6 412.79 338.82 414.66 333.87 418.47C329.73 421.66 326.1 426.24 322.55 432.72C324.41 419.83 326.5 407.65 330.15 398.34C332.24 392.97 334.66 389.03 337.54 386.32C340.68 383.33 344.31 381.87 348.61 381.87Z" fill="#3FB1B5" fill-opacity="1.000000" fill-rule="nonzero"/>
	<path id="Vector" d="M397.87 471.36C400.39 437.96 389.85 418.99 380.56 408.96C371.75 399.44 359.95 393.74 348.99 393.74C337.23 393.74 329.77 400.57 324.05 416.56L325.12 416.94C330.67 401.5 337.81 394.9 348.99 394.9C359.63 394.9 371.12 400.46 379.72 409.75C388.85 419.62 399.2 438.3 396.72 471.28L397.87 471.36Z" fill="#3FB1B5" fill-opacity="1.000000" fill-rule="nonzero"/>
	<path id="Vector" d="M484.25 357.99C490.45 364.15 501.65 389.39 487.78 394.4C473.9 399.42 457.65 349.99 457.65 349.99C457.65 349.99 469.41 343.24 484.25 357.99Z" fill="#FFCF2D" fill-opacity="1.000000" fill-rule="nonzero"/>
	<path id="Vector" d="M485.74 395.34C486.49 395.34 487.24 395.2 487.97 394.95C491.52 393.67 493.75 391.07 494.61 387.2C496.78 377.33 489.29 362.23 484.65 357.61C480.35 353.34 473.52 348.16 465.4 347.91C460.51 347.76 457.5 349.45 457.36 349.53L456.96 349.76L457.11 350.2C457.15 350.3 460.3 359.82 464.92 369.96C471.18 383.66 477.01 391.91 482.29 394.49C483.46 395.03 484.63 395.34 485.74 395.34ZM464.77 349.03C464.98 349.03 465.21 349.03 465.44 349.05C473.16 349.34 479.7 354.3 483.84 358.42C488.43 362.98 495.51 377.81 493.5 386.95C492.73 390.41 490.75 392.74 487.59 393.88C486.07 394.43 484.5 394.28 482.79 393.45C471.49 387.93 459.86 354.7 458.36 350.32C459.26 349.87 461.55 349.03 464.77 349.03Z" fill="#FFCF2D" fill-opacity="1.000000" fill-rule="nonzero"/>
	<path id="Vector" d="M369.85 472.68L374.8 499.6C377.3 513.11 389.04 522.92 402.75 522.92C416.45 522.92 428.19 513.11 430.69 499.6L435.64 472.68C435.64 471.34 435.33 470.05 434.79 468.89C430.82 472.9 417.91 475.82 402.61 475.82C387.53 475.82 374.79 472.97 370.6 469.09C370.12 470.18 369.85 471.42 369.85 472.68Z" fill="#D0F0E4" fill-opacity="1.000000" fill-rule="nonzero"/>
	<path id="Vector" d="M373.1 466.3C373.1 470.11 386.32 473.19 402.63 473.19C418.94 473.19 432.16 470.11 432.16 466.3C432.16 465.99 432.09 465.7 431.92 465.41C430.03 462.03 417.64 459.43 402.63 459.43C387.16 459.43 374.48 462.2 373.21 465.72C373.14 465.91 373.1 466.1 373.1 466.3Z" fill="#66B0F0" fill-opacity="1.000000" fill-rule="nonzero"/>
	<path id="Vector" d="M392.04 426.14C392.04 442.08 394.23 457.12 398.12 470.36L409.33 470.36C409.37 403.46 433.7 349.26 463.69 349.26C471.49 349.26 478.89 352.92 485.59 359.5C465.86 336.35 457.67 330 446.4 330C419.5 330 392.04 373.04 392.04 426.14Z" fill="#FFFFFF" fill-opacity="1.000000" fill-rule="nonzero"/>
	<path id="Vector" d="M397.7 470.93L409.9 470.93L409.9 470.36C409.94 403.9 434.06 349.84 463.69 349.84C471.16 349.84 478.39 353.22 485.19 359.9L486.03 359.11C465.92 335.52 457.78 329.4 446.4 329.4C433.03 329.4 419.27 339.77 408.64 357.84C403.34 366.84 399.16 377.18 396.2 388.55C393.06 400.61 391.48 413.25 391.48 426.12C391.48 441.57 393.59 456.93 397.58 470.49L397.7 470.93ZM408.75 469.78L398.54 469.78C394.67 456.41 392.61 441.34 392.61 426.14C392.61 413.37 394.19 400.82 397.32 388.85C400.25 377.6 404.4 367.36 409.64 358.43C414.68 349.85 420.65 342.79 426.91 338C433.35 333.08 439.92 330.56 446.4 330.56C456.44 330.56 463.96 335.62 480.43 354.38C475.06 350.59 469.45 348.66 463.69 348.66C456.21 348.66 448.96 351.91 442.16 358.34C435.64 364.5 429.79 373.29 424.76 384.47C414.51 407.29 408.83 437.55 408.75 469.78Z" fill="#FFCF2D" fill-opacity="1.000000" fill-rule="nonzero"/>
	<path id="Vector" d="M402.19 470.4L403.34 470.28C402.02 456.72 401.71 443.52 402.42 431.05C403.09 419.35 404.68 408.23 407.14 398.01C411.71 379.02 419.15 363.4 428.69 352.86C436.81 343.87 445.96 339.12 455.14 339.12C462.24 339.12 466.29 341.2 472.68 345.85L473.35 344.91C466.75 340.1 462.54 337.94 455.12 337.94C445.6 337.94 436.18 342.83 427.83 352.05C418.16 362.75 410.61 378.54 406.01 397.72C403.53 408.02 401.94 419.2 401.25 430.97C400.54 443.52 400.85 456.77 402.19 470.4Z" fill="#FFCF2D" fill-opacity="1.000000" fill-rule="nonzero"/>
	<path id="Vector" d="M402.69 470.34C402.69 470.34 401.04 407.52 435.18 407.31C444.22 407.25 452.68 421.62 452.68 421.62C452.68 421.62 412.71 411.15 410.73 470.34L402.69 470.34Z" fill="#FFFFFF" fill-opacity="1.000000" fill-rule="nonzero"/>
	<path id="Vector" d="M402.13 470.92L411.29 470.92L411.31 470.36C412 449.4 417.52 434.92 427.69 427.3C433.62 422.85 440.05 421.7 444.39 421.51C449.13 421.29 452.49 422.16 452.53 422.16L453.87 422.51L453.16 421.29C453.06 421.14 450.97 417.6 447.73 414.02C443.33 409.15 439.11 406.69 435.22 406.69C435.2 406.69 435.18 406.69 435.16 406.69C428.25 406.73 422.26 409.33 417.37 414.39C413.63 418.25 410.5 423.62 408.06 430.32C406.12 435.65 404.63 441.84 403.59 448.73C401.84 460.43 402.07 470.22 402.07 470.32L402.13 470.92ZM410.17 469.76L403.26 469.76C403.25 467.53 403.28 458.93 404.78 448.9C406.37 438.25 410 423.74 418.23 415.21C422.9 410.38 428.6 407.92 435.2 407.88C435.22 407.88 435.24 407.88 435.25 407.88C442.37 407.88 449.3 417.45 451.49 420.77C450.05 420.52 447.54 420.22 444.41 420.35C439.9 420.54 433.2 421.74 427.04 426.35C416.64 434.13 410.96 448.73 410.17 469.76Z" fill="#3FB1B5" fill-opacity="1.000000" fill-rule="nonzero"/>
	<path id="Vector" d="M406.3 470.55L407.45 470.51C407.35 466.66 407.37 456.56 409.85 445.73C412.36 434.76 416.56 426.37 422.34 420.81C428.37 415 436.1 412.37 445.31 412.98L445.39 411.83C435.83 411.19 427.81 413.94 421.55 419.99C415.62 425.72 411.31 434.28 408.73 445.48C406.22 456.44 406.2 466.66 406.3 470.55Z" fill="#3FB1B5" fill-opacity="1.000000" fill-rule="nonzero"/>
	<path id="Vector" d="M449.67 358.86C449.67 360.61 451.08 362.03 452.83 362.03C454.58 362.03 456 360.61 456 358.86C456 357.11 454.58 355.68 452.83 355.68C451.08 355.68 449.67 357.11 449.67 358.86Z" fill="#FFFFFF" fill-opacity="1.000000" fill-rule="evenodd"/>
	<path id="Vector" d="M452.83 362.61C454.91 362.61 456.57 360.94 456.57 358.86C456.57 356.78 454.91 355.11 452.83 355.11C450.76 355.11 449.09 356.78 449.09 358.86C449.09 360.94 450.76 362.61 452.83 362.61ZM452.83 356.26C454.25 356.26 455.42 357.44 455.42 358.86C455.42 360.28 454.25 361.46 452.83 361.46C451.41 361.46 450.24 360.28 450.24 358.86C450.24 357.44 451.41 356.26 452.83 356.26Z" fill="#FFCF2D" fill-opacity="1.000000" fill-rule="nonzero"/>
	<path id="Vector" d="M373.58 448.19C373.58 450.75 375.65 452.83 378.2 452.83C380.76 452.83 382.83 450.75 382.83 448.19C382.83 445.63 380.76 443.55 378.2 443.55C375.65 443.55 373.58 445.63 373.58 448.19Z" fill="#FFFFFF" fill-opacity="1.000000" fill-rule="evenodd"/>
	<path id="Vector" d="M378.2 453.41C381.06 453.41 383.4 451.06 383.4 448.19C383.4 445.33 381.06 442.98 378.2 442.98C375.34 442.98 373 445.33 373 448.19C373 451.06 375.34 453.41 378.2 453.41ZM378.2 444.13C380.43 444.13 382.25 445.96 382.25 448.19C382.25 450.42 380.43 452.25 378.2 452.25C375.98 452.25 374.15 450.42 374.15 448.19C374.15 445.96 375.98 444.13 378.2 444.13Z" fill="#FFCF2D" fill-opacity="1.000000" fill-rule="nonzero"/>
	<path id="Vector" d="M377.15 354.63C377.15 359.46 381.06 363.38 385.88 363.38C390.7 363.38 394.61 359.46 394.61 354.63C394.61 349.79 390.7 345.87 385.88 345.87C381.06 345.87 377.15 349.79 377.15 354.63Z" fill="#D0F0E4" fill-opacity="1.000000" fill-rule="evenodd"/>
	<path id="Vector" d="M363.5 553.53L371.24 514.92C371.54 513.38 372.73 512.65 373.75 512.47C374.77 512.3 376.13 512.59 376.93 513.94C379.53 518.27 383.36 521.81 388.03 524.17C392.4 526.4 397.45 527.6 402.59 527.62C407.75 527.64 412.8 526.48 417.22 524.29C421.92 521.94 425.79 518.42 428.42 514.11L428.61 513.78C429.42 512.45 430.8 512.18 431.8 512.36C432.8 512.53 433.99 513.28 434.29 514.8L442.05 553.53L443.18 553.3L435.43 514.57C435.08 512.82 433.78 511.55 432.01 511.22C430.25 510.92 428.58 511.67 427.64 513.19L427.44 513.53C424.93 517.65 421.21 521.02 416.72 523.27C412.48 525.38 407.58 526.5 402.61 526.48C397.64 526.46 392.79 525.31 388.56 523.15C384.09 520.86 380.43 517.48 377.93 513.34C377.01 511.8 375.34 511.03 373.56 511.34C371.79 511.65 370.47 512.94 370.12 514.71L362.39 553.32L363.5 553.53Z" fill="#66B0F0" fill-opacity="1.000000" fill-rule="nonzero"/>
	<path id="Vector" d="M403.34 527.06L402.19 527.06L402.19 553.59L403.34 553.59L403.34 527.06Z" fill="#66B0F0" fill-opacity="1.000000" fill-rule="evenodd"/>
	<path id="Vector" d="M460.16 552.84L202.94 552.84L202.94 554L460.16 554L460.16 552.84Z" fill="#66B0F0" fill-opacity="1.000000" fill-rule="evenodd"/>
	<path id="Vector" d="M246.69 291.53L334.57 291.53C336.93 291.53 339.04 290.1 339.91 287.92L363.96 228.38C365.1 225.54 363.01 222.42 359.96 222.42L272.08 222.42C269.72 222.42 267.61 223.85 266.73 226.04L242.69 285.57C241.53 288.42 243.62 291.53 246.69 291.53Z" fill="#FFFFFF" fill-opacity="1.000000" fill-rule="nonzero"/>
	<path id="Vector (Stroke)" d="M363.46 228.18C363.46 228.18 363.46 228.18 363.46 228.18L339.42 287.72C338.62 289.7 336.71 291 334.57 291L246.69 291C244 291 242.17 288.27 243.18 285.77L267.23 226.24L267.23 226.24C268.03 224.26 269.94 222.96 272.08 222.96L359.96 222.96C362.63 222.96 364.47 225.68 363.46 228.18ZM364.46 228.58C365.74 225.39 363.4 221.88 359.96 221.88L272.08 221.88C269.5 221.88 267.19 223.45 266.24 225.84L242.19 285.37C240.88 288.57 243.24 292.07 246.69 292.07L334.57 292.07C337.15 292.07 339.45 290.51 340.41 288.12L364.46 228.58Z" fill="#FE5244" fill-opacity="1.000000" fill-rule="evenodd"/>
	<path id="Vector" d="M250.77 291.97L334.6 291.97C336.84 291.97 338.86 290.6 339.7 288.53L362.64 231.73C363.73 229.01 361.74 226.06 358.81 226.06L274.98 226.06C272.74 226.06 270.72 227.42 269.88 229.5L246.94 286.29C245.85 289.01 247.85 291.97 250.77 291.97Z" fill="#FE5244" fill-opacity="1.000000" fill-rule="nonzero"/>
	<path id="Vector" d="M302.24 266.14C304.71 266.14 307.03 265.17 308.79 263.42C310.22 261.98 311 260.09 311 258.08C311 256.06 310.22 254.16 308.79 252.74C307.62 251.58 306.07 250.93 304.42 250.93C302.78 250.93 301.22 251.58 300.06 252.74C298.08 254.73 298.08 257.95 300.06 259.94C301.71 261.59 304.37 261.59 306.01 259.94C306.3 259.66 306.3 259.21 306.01 258.92C305.73 258.63 305.28 258.63 305 258.92C303.9 260.01 302.15 260.01 301.06 258.92C299.63 257.49 299.63 255.18 301.06 253.75C301.96 252.85 303.15 252.35 304.42 252.35C305.69 252.35 306.89 252.85 307.78 253.75C308.95 254.91 309.57 256.43 309.57 258.08C309.57 259.71 308.93 261.25 307.78 262.41C306.3 263.9 304.35 264.71 302.26 264.71C300.17 264.71 298.2 263.9 296.74 262.41C296.45 262.13 296 262.13 295.72 262.41C295.43 262.7 295.43 263.15 295.72 263.43C297.45 265.17 299.77 266.14 302.24 266.14Z" fill="#FFFFFF" fill-opacity="1.000000" fill-rule="nonzero"/>
	<path id="Vector" d="M215.24 297.84L334.46 297.84C335.84 297.84 336.95 296.73 336.95 295.35L336.95 294.15C336.95 292.77 335.84 291.66 334.46 291.66L215.24 291.66C213.87 291.66 212.76 292.77 212.76 294.15L212.76 295.35C212.78 296.73 213.88 297.84 215.24 297.84Z" fill="#FFFFFF" fill-opacity="1.000000" fill-rule="nonzero"/>
	<path id="Vector (Stroke)" d="M334.46 292.2C335.54 292.2 336.41 293.07 336.41 294.15L336.41 295.35C336.41 296.43 335.54 297.3 334.46 297.3L215.24 297.3C214.19 297.3 213.31 296.44 213.29 295.35L213.29 294.15C213.29 293.07 214.16 292.2 215.24 292.2L334.46 292.2ZM337.48 294.15C337.48 292.48 336.13 291.12 334.46 291.12L215.24 291.12C213.57 291.12 212.22 292.48 212.22 294.15L212.22 295.35L212.22 295.36C212.24 297.02 213.58 298.38 215.24 298.38L334.46 298.38C336.13 298.38 337.48 297.03 337.48 295.35L337.48 294.15Z" fill="#FE5244" fill-opacity="1.000000" fill-rule="evenodd"/>
</svg>
