<svg width="84.000000" height="48.000000" viewBox="0 0 84 48" fill="none" xmlns="http://www.w3.org/2000/svg" xmlns:xlink="http://www.w3.org/1999/xlink">
	<desc>
			Created with Pixso.
	</desc>
	<defs/>
	<circle id="shape" cx="60.000000" cy="24.000000" r="24.000000" fill="#FF3F3A" fill-opacity="1.000000"/>
	<path id="Line (Stroke)" d="M62.79 18.79C63.18 18.4 63.81 18.4 64.2 18.79L68.7 23.29C69.09 23.68 69.09 24.31 68.7 24.7L64.2 29.2C63.81 29.59 63.18 29.59 62.79 29.2C62.4 28.81 62.4 28.18 62.79 27.79L65.58 25L52 25C51.44 25 51 24.55 51 24C51 23.44 51.44 23 52 23L65.58 23L62.79 20.2C62.4 19.81 62.4 19.18 62.79 18.79Z" fill="#FFFFFF" fill-opacity="1.000000" fill-rule="evenodd"/>
	<path id="Line (Stroke)" d="M9.2 29.2C8.81 29.59 8.18 29.59 7.79 29.2L3.29 24.7C2.9 24.31 2.9 23.68 3.29 23.29L7.79 18.79C8.18 18.4 8.81 18.4 9.2 18.79C9.59 19.18 9.59 19.81 9.2 20.2L6.41 23L20 23C20.55 23 21 23.44 21 24C21 24.55 20.55 25 20 25L6.41 25L9.2 27.79C9.59 28.18 9.59 28.81 9.2 29.2Z" fill="#424551" fill-opacity="1.000000" fill-rule="evenodd"/>
</svg>
