<svg viewBox="0 0 20 20" xmlns="http://www.w3.org/2000/svg" xmlns:xlink="http://www.w3.org/1999/xlink" width="20.000000" height="20.000000" opacity="0.600000024" fill="none">
	<rect id="Instagram" width="20.000000" height="20.000000" x="0.000000" y="0.000000" />
	<path id="Vector" d="M17.9295 4.54413C18.1346 5.07168 18.2778 5.6805 18.3169 6.56606C18.3559 7.45493 18.3592 7.73816 18.3592 10.001C18.3592 12.2638 18.3494 12.547 18.3104 13.4359C18.2713 14.3215 18.128 14.9271 17.923 15.4578C17.4899 16.5778 16.6044 17.4633 15.4843 17.8964C14.9569 18.1015 14.348 18.2447 13.4625 18.2838C12.5736 18.323 12.2904 18.3326 10.0276 18.3326C7.76476 18.3326 7.4814 18.323 6.59266 18.2838C5.70697 18.2447 5.10146 18.1015 4.57073 17.8964C4.01724 17.6881 3.51258 17.3592 3.09581 16.9359C2.67255 16.5191 2.34379 16.0178 2.13216 15.4578C1.92702 14.9303 1.78368 14.3215 1.74464 13.4359C1.70559 12.547 1.6958 12.2638 1.6958 10.001C1.6958 7.73816 1.70559 7.45493 1.74795 6.56275C1.78699 5.67719 1.9302 5.07168 2.13534 4.54095C2.34379 3.98746 2.67255 3.4828 3.09581 3.06603C3.51258 2.63946 4.01393 2.31388 4.57404 2.10225C5.10146 1.89723 5.71028 1.7539 6.59584 1.71485C7.48471 1.67581 7.76794 1.66602 10.0308 1.66602C12.2936 1.66602 12.5768 1.67581 13.469 1.71816C14.3545 1.7572 14.9602 1.90041 15.4908 2.10555C16.0443 2.31388 16.5489 2.64277 16.9657 3.06603C17.3923 3.4828 17.7178 3.98415 17.9295 4.54413ZM16.5295 14.9173C16.6434 14.6243 16.7801 14.1847 16.816 13.3708C16.855 12.4917 16.8648 12.2312 16.8648 10.0075C16.8648 7.7837 16.855 7.52005 16.816 6.64097C16.7801 5.83019 16.6434 5.38747 16.5295 5.09444C16.3959 4.733 16.1843 4.40741 15.9075 4.13715C15.6406 3.8604 15.3117 3.64877 14.9504 3.51536C14.6573 3.40141 14.2178 3.26469 13.4039 3.22882C12.528 3.18978 12.2643 3.17998 10.0372 3.17998C7.8136 3.17998 7.54983 3.18978 6.67075 3.22882C5.8601 3.26469 5.41725 3.40141 5.12423 3.51536C4.76278 3.64877 4.43719 3.8604 4.16706 4.13715C3.88701 4.40423 3.67538 4.733 3.54184 5.09444C3.42788 5.38747 3.29116 5.82701 3.25542 6.64097C3.21625 7.51674 3.20659 7.7837 3.20659 10.0075C3.20659 12.2312 3.21625 12.495 3.25542 13.3741C3.29116 14.1847 3.42788 14.6276 3.54184 14.9206C3.67538 15.2819 3.88701 15.6075 4.16375 15.8778C4.43071 16.1545 4.7596 16.3661 5.12092 16.4997C5.41394 16.6136 5.85348 16.7504 6.66744 16.7861C7.54334 16.8253 7.81029 16.8349 10.0341 16.8349C12.2578 16.8349 12.5215 16.8253 13.4005 16.7861C14.2113 16.7504 14.654 16.6136 14.9471 16.4997C15.6731 16.2196 16.2494 15.6434 16.5295 14.9173ZM14.4815 6.54979C15.0336 6.54979 15.4811 6.10223 15.4811 5.55027C15.4811 4.99817 15.0336 4.55074 14.4815 4.55074C13.9295 4.55074 13.482 4.99817 13.482 5.55027C13.482 6.10223 13.9295 6.54979 14.4815 6.54979ZM10.0307 5.71954C7.66708 5.71954 5.74931 7.63719 5.74931 10.001C5.74931 12.3648 7.66708 14.2824 10.0307 14.2824C12.3945 14.2824 14.3122 12.3648 14.3122 10.001C14.3122 7.63719 12.3945 5.71954 10.0307 5.71954ZM10.0307 12.7782C8.49732 12.7782 7.25349 11.5345 7.25349 10.001C7.25349 8.46743 8.49732 7.22372 10.0307 7.22372C11.5643 7.22372 12.808 8.46743 12.808 10.001C12.808 11.5345 11.5643 12.7782 10.0307 12.7782Z" fill="rgb(255,255,255)" fill-rule="evenodd" />
</svg>
