<svg viewBox="0 0 20 20" xmlns="http://www.w3.org/2000/svg" xmlns:xlink="http://www.w3.org/1999/xlink" width="20.000000" height="20.000000" fill="none">
	<rect id="Linked-In" width="20.000000" height="20.000000" x="0.000000" y="0.000000" />
	<path id="Vector" d="M1.6665 3.6674C1.6665 2.56254 2.56303 1.66602 3.66789 1.66602C4.77206 1.66602 5.66859 2.56254 5.66928 3.6674C5.66928 4.77227 4.77275 5.68754 3.66789 5.68754C2.56303 5.68754 1.6665 4.77227 1.6665 3.6674ZM18.3332 18.332L18.329 18.3327L14.8811 18.3327L14.8811 12.9153C14.8811 11.6244 14.8547 9.9688 13.0846 9.9688C11.288 9.9688 11.013 11.3716 11.013 12.8223L11.013 18.332L7.56163 18.332L7.56163 7.2049L10.8762 7.2049L10.8762 8.72227L10.9248 8.72227C11.3853 7.84796 12.513 6.92574 14.1936 6.92574C17.6894 6.92574 18.3332 9.22921 18.3332 12.2195L18.3332 18.332ZM1.9415 7.2056L5.39706 7.2056L5.39706 18.3327L1.9415 18.3327L1.9415 7.2056Z" fill="rgb(255,255,255)" fill-rule="evenodd" />
</svg>
