<svg width="16.000000" height="16.000000" viewBox="0 0 16 16" fill="none" xmlns="http://www.w3.org/2000/svg" xmlns:xlink="http://www.w3.org/1999/xlink">
	<desc>
			Created with Pixso.
	</desc>
	<defs/>
	<path id="Vector (Stroke)" d="M7.99 13.27C4.93 11.52 3.22 9.78 2.39 8.28C1.55 6.74 1.62 5.44 2.09 4.52C3.05 2.62 5.8 2.02 7.47 4.13L7.99 4.8L8.52 4.13C10.19 2.02 12.94 2.62 13.9 4.52C14.37 5.44 14.44 6.74 13.6 8.28C12.77 9.78 11.06 11.52 7.99 13.27ZM8 2.73C5.64 0.5 2.17 1.42 0.9 3.91C0.2 5.28 0.19 7.05 1.22 8.92C2.24 10.78 4.28 12.74 7.67 14.61L7.99 14.79L8.32 14.61C11.71 12.74 13.75 10.78 14.77 8.92C15.8 7.05 15.79 5.28 15.09 3.91C13.82 1.42 10.35 0.5 8 2.73Z" fill="#FF3F3A" fill-opacity="1.000000" fill-rule="evenodd"/>
</svg>
