<svg width="16.000000" height="16.000000" viewBox="0 0 16 16" fill="none" xmlns="http://www.w3.org/2000/svg" xmlns:xlink="http://www.w3.org/1999/xlink">
	<desc>
			Created with Pixso.
	</desc>
	<defs/>
	<path id="Rectangle (Stroke)" d="M5.66 1.94C5.11 1.94 4.66 2.39 4.66 2.94L4.66 13.05C4.66 13.6 5.11 14.05 5.66 14.05L10.33 14.05C10.88 14.05 11.33 13.6 11.33 13.05L11.33 2.94C11.33 2.39 10.88 1.94 10.33 1.94L10.27 1.94L10.11 2.33C10.01 2.58 9.76 2.74 9.5 2.74L6.5 2.74C6.23 2.74 5.98 2.58 5.88 2.33L5.72 1.94L5.66 1.94ZM3.33 2.94C3.33 1.65 4.37 0.61 5.66 0.61L10.33 0.61C11.62 0.61 12.66 1.65 12.66 2.94L12.66 13.05C12.66 14.33 11.62 15.38 10.33 15.38L5.66 15.38C4.37 15.38 3.33 14.33 3.33 13.05L3.33 2.94Z" fill="#61636b" fill-opacity="1.000000" fill-rule="evenodd"/>
</svg>
