<svg viewBox="0 0 16 16" xmlns="http://www.w3.org/2000/svg" xmlns:xlink="http://www.w3.org/1999/xlink" width="16.000000" height="16.000000" fill="none" customFrame="#000000">
	<rect id="Right" width="16.000000" height="16.000000" x="0.000000" y="0.000000" />
	<path id="Line (Stroke)" d="M9.86193 4.52729C10.1223 4.26694 10.5444 4.26694 10.8047 4.52729L13.8047 7.52729C14.0651 7.78764 14.0651 8.20975 13.8047 8.4701L10.8047 11.4701C10.5444 11.7305 10.1223 11.7305 9.86193 11.4701C9.60158 11.2098 9.60158 10.7876 9.86193 10.5273L11.7239 8.66537L2.66667 8.66537C2.29848 8.66537 2 8.36689 2 7.9987C2 7.63051 2.29848 7.33203 2.66667 7.33203L11.7239 7.33203L9.86193 5.4701C9.60158 5.20975 9.60158 4.78764 9.86193 4.52729Z" fill="rgb(255,255,255)" fill-rule="evenodd" />
</svg>
