<svg width="24.000000" height="24.000000" viewBox="0 0 24 24" fill="none" xmlns="http://www.w3.org/2000/svg" xmlns:xlink="http://www.w3.org/1999/xlink">
	<desc>
			Created with Pixso.
	</desc>
	<defs/>
	<path id="Vector" d="M10.99 2C8.45 2 6.1 2.78 4.38 4.1C2.65 5.43 1.49 7.32 1.49 9.5C1.49 10.52 1.75 11.49 2.21 12.37C2.21 12.41 2.21 12.47 2.21 12.54C2.19 12.76 2.13 13.06 2.05 13.42C1.89 14.13 1.63 14.94 1.42 15.59C1.02 16.81 2.23 17.96 3.43 17.49C4.12 17.23 5.02 16.89 5.83 16.66C6.23 16.54 6.59 16.45 6.87 16.41C7.05 16.38 7.15 16.38 7.19 16.38C7.2 16.38 7.2 16.38 7.2 16.38C8.37 16.78 9.65 17 10.99 17C13.54 17 15.89 16.21 17.61 14.89C19.34 13.56 20.49 11.67 20.49 9.5C20.49 7.32 19.34 5.43 17.61 4.1C15.89 2.78 13.54 2 10.99 2ZM3.49 9.5C3.49 8.08 4.24 6.72 5.59 5.69C6.94 4.66 8.85 4 10.99 4C13.14 4 15.05 4.66 16.4 5.69C17.75 6.72 18.49 8.08 18.49 9.5C18.49 10.91 17.75 12.27 16.4 13.3C15.05 14.33 13.14 15 10.99 15C9.86 15 8.78 14.81 7.82 14.48C7.39 14.33 6.9 14.38 6.55 14.43C6.16 14.5 5.71 14.61 5.27 14.74C4.72 14.9 4.14 15.09 3.61 15.29C3.75 14.83 3.89 14.33 4 13.87C4.09 13.48 4.17 13.08 4.2 12.72C4.21 12.55 4.22 12.36 4.21 12.17C4.19 12.01 4.16 11.76 4.02 11.52C3.68 10.88 3.49 10.2 3.49 9.5ZM20.94 13.35C21.44 12.49 21.78 11.55 21.92 10.56C22.6 11.56 22.99 12.72 22.99 14C22.99 15.13 22.67 16.19 22.11 17.12C22.1 17.14 22.1 17.18 22.09 17.24C22.08 17.4 22.08 17.61 22.1 17.86C22.13 18.37 22.22 18.96 22.31 19.44C22.5 20.55 21.44 21.51 20.34 21.16C19.82 21 19.15 20.8 18.56 20.67C18.26 20.6 18.01 20.56 17.8 20.53C17.68 20.52 17.61 20.52 17.58 20.52L17.58 20.52L17.57 20.52C16.62 20.83 15.58 21 14.49 21C11.72 21 9.12 19.87 7.55 18.04C8.63 18.34 9.79 18.5 10.99 18.5C11.2 18.5 11.41 18.49 11.61 18.48C12.47 18.81 13.44 19 14.49 19C15.38 19 16.23 18.86 17 18.61C17.35 18.5 17.74 18.52 18.01 18.55C18.32 18.58 18.66 18.64 19 18.72C19.4 18.81 19.83 18.92 20.22 19.04C20.17 18.7 20.13 18.34 20.1 18C20.08 17.69 20.08 17.38 20.1 17.09C20.12 16.83 20.17 16.45 20.37 16.12C20.78 15.47 20.99 14.75 20.99 14C20.99 13.78 20.98 13.56 20.94 13.35Z" fill="#FF3F3A" fill-opacity="1.000000" fill-rule="evenodd"/>
</svg>
