<svg width="24.000000" height="24.000000" viewBox="0 0 24 24" fill="none" xmlns="http://www.w3.org/2000/svg" xmlns:xlink="http://www.w3.org/1999/xlink">
	<desc>
			Created with Pixso.
	</desc>
	<defs/>
	<path id="Rectangle (Stroke)" d="M8.5 2.92C7.67 2.92 7 3.59 7 4.42L7 19.57C7 20.4 7.67 21.07 8.5 21.07L15.5 21.07C16.32 21.07 17 20.4 17 19.57L17 4.42C17 3.59 16.32 2.92 15.5 2.92L15.41 2.92L15.17 3.5C15.01 3.87 14.65 4.12 14.25 4.12L9.75 4.12C9.34 4.12 8.98 3.87 8.82 3.5L8.58 2.92L8.5 2.92ZM5 4.42C5 2.48 6.56 0.92 8.5 0.92L15.5 0.92C17.43 0.92 19 2.48 19 4.42L19 19.57C19 21.51 17.43 23.07 15.5 23.07L8.5 23.07C6.56 23.07 5 21.51 5 19.57L5 4.42Z" fill="#FF3F3A" fill-opacity="1.000000" fill-rule="evenodd"/>
</svg>
