<svg width="24.000000" height="24.000000" viewBox="0 0 24 24" fill="none" xmlns="http://www.w3.org/2000/svg" xmlns:xlink="http://www.w3.org/1999/xlink">
	<desc>
			Created with Pixso.
	</desc>
	<defs>
		<clipPath id="clip2492_22156">
			<rect id="Pin/outline" width="24.000000" height="24.000000" fill="white" fill-opacity="0"/>
		</clipPath>
	</defs>
	<g clip-path="url(#clip2492_22156)">
		<path id="Vector" d="M11.38 22.53C11.38 22.53 11.38 22.53 12 21.75L12.61 22.53C12.25 22.82 11.74 22.82 11.38 22.53ZM11.38 22.53L12 21.75C12.61 22.53 12.61 22.53 12.62 22.53L12.62 22.53L12.62 22.52L12.64 22.51C12.66 22.5 12.68 22.48 12.71 22.45C12.77 22.4 12.86 22.33 12.96 22.24C13.18 22.06 13.48 21.79 13.85 21.46C14.57 20.78 15.54 19.81 16.52 18.64C18.43 16.33 20.5 13.04 20.5 9.51C20.5 4.92 16.66 1.25 12 1.25C7.33 1.25 3.5 4.92 3.5 9.51C3.5 13.04 5.56 16.33 7.47 18.64C8.45 19.81 9.42 20.78 10.14 21.46C10.51 21.79 10.81 22.06 11.03 22.24C11.13 22.33 11.22 22.4 11.28 22.45C11.31 22.48 11.33 22.5 11.35 22.51L11.37 22.52L11.37 22.53L11.38 22.53ZM5.5 9.51C5.5 6.08 8.38 3.25 12 3.25C15.61 3.25 18.5 6.08 18.5 9.51C18.5 12.31 16.81 15.14 14.97 17.36C14.07 18.45 13.17 19.36 12.49 19.99C12.3 20.16 12.14 20.31 12 20.43C11.85 20.31 11.69 20.16 11.5 19.99C10.82 19.36 9.92 18.45 9.02 17.36C7.18 15.14 5.5 12.31 5.5 9.51ZM12 5.75C9.79 5.75 8 7.54 8 9.75C8 11.95 9.79 13.75 12 13.75C14.2 13.75 16 11.95 16 9.75C16 7.54 14.2 5.75 12 5.75ZM10 9.75C10 8.64 10.89 7.75 12 7.75C13.1 7.75 14 8.64 14 9.75C14 10.85 13.1 11.75 12 11.75C10.89 11.75 10 10.85 10 9.75Z" fill="#FF3F3A" fill-opacity="1.000000" fill-rule="evenodd"/>
	</g>
</svg>
