<svg width="20.000000" height="20.000000" viewBox="0 0 20 20" fill="none" xmlns="http://www.w3.org/2000/svg" xmlns:xlink="http://www.w3.org/1999/xlink">
	<desc>
			Created with Pixso.
	</desc>
	<defs>
		<clipPath id="clip2_225">
			<rect id="Profile" width="20.000000" height="20.000000" fill="white" fill-opacity="0"/>
		</clipPath>
	</defs>
	<g clip-path="url(#clip2_225)">
		<path id="Vector" d="M10 1.04C7.46 1.04 5.41 3.09 5.41 5.62C5.41 8.15 7.46 10.2 10 10.2C12.53 10.2 14.58 8.15 14.58 5.62C14.58 3.09 12.53 1.04 10 1.04ZM7.08 5.62C7.08 4.01 8.38 2.7 10 2.7C11.61 2.7 12.91 4.01 12.91 5.62C12.91 7.23 11.61 8.54 10 8.54C8.38 8.54 7.08 7.23 7.08 5.62ZM5.08 11.04C3.99 11.04 2.86 11.58 2.35 12.7C2.06 13.34 1.75 14.21 1.67 15.1C1.6 15.92 1.94 16.78 2.71 17.25C3.84 17.95 6.13 18.95 10 18.95C13.86 18.95 16.15 17.95 17.28 17.25C18.05 16.78 18.39 15.92 18.32 15.1C18.24 14.21 17.93 13.34 17.64 12.7C17.13 11.58 16 11.04 14.91 11.04L5.08 11.04ZM3.87 13.39C4.05 12.99 4.5 12.7 5.08 12.7L14.91 12.7C15.49 12.7 15.94 12.99 16.12 13.39C16.37 13.95 16.6 14.62 16.66 15.25C16.68 15.53 16.57 15.74 16.4 15.84C15.55 16.37 13.56 17.29 10 17.29C6.43 17.29 4.44 16.37 3.59 15.84C3.43 15.74 3.31 15.53 3.33 15.25C3.39 14.62 3.62 13.95 3.87 13.39Z" fill="#424551" fill-opacity="1.000000" fill-rule="evenodd"/>
	</g>
</svg>
