<svg viewBox="0 0 16 16" xmlns="http://www.w3.org/2000/svg" xmlns:xlink="http://www.w3.org/1999/xlink" width="16.000000" height="16.000000" fill="none">
	<rect id="Calendar" width="16.000000" height="16.000000" x="0.000000" y="0.000000" />
	<path id="Vector (Stroke)" d="M5.00016 0.833984C5.36835 0.833984 5.66683 1.13246 5.66683 1.50065L5.66683 1.83399L10.3335 1.834L10.3335 1.50065C10.3335 1.13246 10.632 0.833985 11.0002 0.833984C11.3684 0.833984 11.6668 1.13246 11.6668 1.50065L11.6668 1.834L12.5002 1.83401C13.9729 1.83401 15.1668 3.02792 15.1668 4.50067L15.1668 12.5006C15.1668 13.9734 13.9729 15.1673 12.5002 15.1673L3.50016 15.1673C2.0274 15.1673 0.833496 13.9734 0.833496 12.5007L0.833496 6.00078L0.833496 4.50065C0.833497 3.02789 2.02741 1.83398 3.50017 1.83399L4.3335 1.83399L4.3335 1.50065C4.3335 1.13246 4.63197 0.833984 5.00016 0.833984ZM4.3335 3.16732L3.50017 3.16732C2.76378 3.16732 2.16683 3.76427 2.16683 4.50065L2.16683 5.33398L13.8335 5.33398L13.8335 4.50067C13.8335 3.76429 13.2365 3.16734 12.5002 3.16734L11.6668 3.16734L11.6668 3.50065C11.6668 3.86884 11.3684 4.16732 11.0002 4.16732C10.632 4.16732 10.3335 3.86884 10.3335 3.50065L10.3335 3.16734L5.66683 3.16733L5.66683 3.50065C5.66683 3.86884 5.36835 4.16732 5.00016 4.16732C4.63197 4.16732 4.3335 3.86884 4.3335 3.50065L4.3335 3.16732ZM13.8335 6.66732L2.16683 6.66732L2.16683 12.5007C2.16683 13.237 2.76378 13.834 3.50016 13.834L12.5002 13.834C13.2365 13.834 13.8335 13.237 13.8335 12.5006L13.8335 6.66732Z" fill="rgb(120,122,128)" fill-rule="evenodd" />
</svg>
