<svg viewBox="0 0 16 16" xmlns="http://www.w3.org/2000/svg" xmlns:xlink="http://www.w3.org/1999/xlink" width="16.000000" height="16.000000" fill="none" customFrame="#000000">
	<rect id="Clock" width="16.000000" height="16.000000" x="0.000000" y="0.000000" />
	<path id="Union" d="M0.666504 7.99935C0.666504 3.94926 3.94975 0.666016 7.99984 0.666016C12.0499 0.666016 15.3332 3.94926 15.3332 7.99935C15.3332 12.0494 12.0499 15.3327 7.99984 15.3327C3.94975 15.3327 0.666504 12.0494 0.666504 7.99935ZM7.99984 1.99935C4.68613 1.99935 1.99984 4.68564 1.99984 7.99935C1.99984 11.3131 4.68613 13.9993 7.99984 13.9993C11.3135 13.9993 13.9998 11.3131 13.9998 7.99935C13.9998 4.68564 11.3135 1.99935 7.99984 1.99935ZM8.6665 4.33268C8.6665 3.96449 8.36803 3.66602 7.99984 3.66602C7.63165 3.66602 7.33317 3.96449 7.33317 4.33268L7.33317 7.99935C7.33317 8.17616 7.40341 8.34573 7.52843 8.47075L9.52843 10.4708C9.78878 10.7311 10.2109 10.7311 10.4712 10.4708C10.7316 10.2104 10.7316 9.78829 10.4712 9.52794L8.6665 7.72321L8.6665 4.33268Z" fill="rgb(120,122,128)" fill-rule="evenodd" />
</svg>
