<svg width="14.333496" height="14.333984" viewBox="0 0 14.3335 14.334" fill="none" xmlns="http://www.w3.org/2000/svg" xmlns:xlink="http://www.w3.org/1999/xlink">
	<desc>
			Created with Pixso.
	</desc>
	<defs/>
	<path id="Vector (Stroke)" d="M4.16 0C4.53 0 4.83 0.29 4.83 0.66L4.83 1L9.5 1L9.5 0.66C9.5 0.29 9.79 0 10.16 0C10.53 0 10.83 0.29 10.83 0.66L10.83 1L11.66 1C13.13 1 14.33 2.19 14.33 3.66L14.33 11.66C14.33 13.13 13.13 14.33 11.66 14.33L2.66 14.33C1.19 14.33 0 13.13 0 11.66L0 5.16L0 3.66C0 2.19 1.19 1 2.66 1L3.5 1L3.5 0.66C3.5 0.29 3.79 0 4.16 0ZM3.5 2.33L2.66 2.33C1.93 2.33 1.33 2.92 1.33 3.66L1.33 4.5L13 4.5L13 3.66C13 2.92 12.4 2.33 11.66 2.33L10.83 2.33L10.83 2.66C10.83 3.03 10.53 3.33 10.16 3.33C9.79 3.33 9.5 3.03 9.5 2.66L9.5 2.33L4.83 2.33L4.83 2.66C4.83 3.03 4.53 3.33 4.16 3.33C3.79 3.33 3.5 3.03 3.5 2.66L3.5 2.33ZM13 5.83L1.33 5.83L1.33 11.66C1.33 12.4 1.93 13 2.66 13L11.66 13C12.4 13 13 12.4 13 11.66L13 5.83Z" fill="#787A80" fill-opacity="1.000000" fill-rule="evenodd"/>
</svg>
