<svg width="14.666504" height="14.666016" viewBox="0 0 14.6665 14.666" fill="none" xmlns="http://www.w3.org/2000/svg" xmlns:xlink="http://www.w3.org/1999/xlink">
	<desc>
			Created with Pixso.
	</desc>
	<defs/>
	<path id="Union" d="M0 7.33C0 3.28 3.28 0 7.33 0C11.38 0 14.66 3.28 14.66 7.33C14.66 11.38 11.38 14.66 7.33 14.66C3.28 14.66 0 11.38 0 7.33ZM7.33 1.33C4.01 1.33 1.33 4.01 1.33 7.33C1.33 10.64 4.01 13.33 7.33 13.33C10.64 13.33 13.33 10.64 13.33 7.33C13.33 4.01 10.64 1.33 7.33 1.33ZM7.33 3C7.7 3 8 3.29 8 3.66L8 7.05L9.8 8.86C10.06 9.12 10.06 9.54 9.8 9.8C9.54 10.06 9.12 10.06 8.86 9.8L6.86 7.8C6.73 7.67 6.66 7.5 6.66 7.33L6.66 3.66C6.66 3.29 6.96 3 7.33 3Z" fill="#787A80" fill-opacity="1.000000" fill-rule="evenodd"/>
</svg>
