<svg width="11.579102" height="22.000000" viewBox="0 0 11.5791 22" fill="none" xmlns="http://www.w3.org/2000/svg" xmlns:xlink="http://www.w3.org/1999/xlink">
	<desc>
			Created with Pixso.
	</desc>
	<defs/>
	<path id="Vector" d="M11.14 0L8.36 0C5.24 0 3.22 2.12 3.22 5.41L3.22 7.91L0.43 7.91C0.19 7.91 0 8.11 0 8.35L0 11.97C0 12.22 0.19 12.42 0.43 12.42L3.22 12.42L3.22 21.55C3.22 21.79 3.42 22 3.66 22L7.3 22C7.55 22 7.74 21.79 7.74 21.55L7.74 12.42L11.01 12.42C11.25 12.42 11.44 12.22 11.44 11.97L11.44 8.35C11.44 8.24 11.4 8.12 11.32 8.04C11.23 7.95 11.12 7.91 11.01 7.91L7.74 7.91L7.74 5.79C7.74 4.77 7.98 4.26 9.27 4.26L11.14 4.25C11.38 4.25 11.57 4.05 11.57 3.81L11.57 0.45C11.57 0.2 11.38 0 11.14 0Z" fill="#787A80" fill-opacity="1.000000" fill-rule="nonzero"/>
</svg>
