<svg width="24.000000" height="24.000000" viewBox="0 0 24 24" fill="none" xmlns="http://www.w3.org/2000/svg" xmlns:xlink="http://www.w3.org/1999/xlink">
	<desc>
			Created with Pixso.
	</desc>
	<defs>
		<clipPath id="clip2492_22141">
			<rect id="Instagram" width="24.000000" height="24.000000" fill="white" fill-opacity="0"/>
		</clipPath>
	</defs>
	<g clip-path="url(#clip2492_22141)">
		<path id="Vector" d="M21.98 7.88C21.93 6.81 21.76 6.08 21.51 5.45C21.26 4.78 20.87 4.17 20.35 3.67C19.85 3.17 19.25 2.77 18.58 2.52C17.95 2.28 17.22 2.1 16.16 2.06C15.09 2.01 14.75 2 12.03 2C9.32 2 8.98 2.01 7.91 2.05C6.85 2.1 6.12 2.27 5.48 2.52C4.81 2.77 4.21 3.16 3.71 3.67C3.2 4.17 2.81 4.78 2.56 5.44C2.31 6.08 2.14 6.81 2.09 7.87C2.04 8.94 2.03 9.28 2.03 12C2.03 14.71 2.04 15.05 2.09 16.12C2.14 17.18 2.31 17.91 2.55 18.55C2.81 19.22 3.2 19.82 3.71 20.32C4.21 20.83 4.82 21.22 5.48 21.47C6.12 21.72 6.84 21.89 7.91 21.94C8.97 21.98 9.31 22 12.03 22C14.74 22 15.08 21.98 16.15 21.94C17.21 21.89 17.94 21.72 18.58 21.47C19.92 20.95 20.98 19.89 21.5 18.55C21.75 17.91 21.92 17.18 21.97 16.12C22.01 15.05 22.03 14.71 22.03 12C22.03 9.28 22.02 8.94 21.98 7.88ZM20.17 16.04C20.13 17.02 19.97 17.55 19.83 17.9C19.49 18.77 18.8 19.46 17.93 19.8C17.58 19.93 17.05 20.1 16.08 20.14C15.02 20.19 14.7 20.2 12.04 20.2C9.37 20.2 9.05 20.19 8 20.14C7.02 20.1 6.49 19.93 6.14 19.8C5.71 19.64 5.31 19.38 4.99 19.05C4.66 18.73 4.41 18.33 4.25 17.9C4.11 17.55 3.94 17.02 3.9 16.04C3.85 14.99 3.84 14.67 3.84 12C3.84 9.34 3.85 9.02 3.9 7.97C3.94 6.99 4.11 6.46 4.25 6.11C4.41 5.67 4.66 5.28 5 4.96C5.32 4.63 5.71 4.37 6.14 4.21C6.5 4.08 7.03 3.91 8 3.87C9.06 3.82 9.37 3.81 12.04 3.81C14.71 3.81 15.03 3.82 16.08 3.87C17.06 3.91 17.58 4.08 17.94 4.21C18.37 4.37 18.76 4.63 19.08 4.96C19.42 5.28 19.67 5.67 19.83 6.11C19.97 6.46 20.13 6.99 20.17 7.97C20.22 9.02 20.23 9.34 20.23 12C20.23 14.67 20.22 14.99 20.17 16.04ZM17.37 7.86C18.04 7.86 18.57 7.32 18.57 6.66C18.57 5.99 18.04 5.46 17.37 5.46C16.71 5.46 16.17 5.99 16.17 6.66C16.17 7.32 16.71 7.86 17.37 7.86ZM12.03 6.86C9.2 6.86 6.89 9.16 6.89 12C6.89 14.83 9.2 17.14 12.03 17.14C14.87 17.14 17.17 14.83 17.17 12C17.17 9.16 14.87 6.86 12.03 6.86ZM12.03 15.33C10.19 15.33 8.7 13.84 8.7 12C8.7 10.16 10.19 8.66 12.03 8.66C13.87 8.66 15.36 10.16 15.36 12C15.36 13.84 13.87 15.33 12.03 15.33Z" fill="#787A80" fill-opacity="1.000000" fill-rule="evenodd"/>
	</g>
</svg>
