<svg width="21.000000" height="16.333984" viewBox="0 0 21 16.334" fill="none" xmlns="http://www.w3.org/2000/svg" xmlns:xlink="http://www.w3.org/1999/xlink">
	<desc>
			Created with Pixso.
	</desc>
	<defs/>
	<path id="Vector" d="M21 1.93C20.22 2.25 19.39 2.48 18.52 2.58C19.41 2.07 20.09 1.26 20.41 0.3C19.58 0.77 18.66 1.11 17.68 1.3C16.89 0.5 15.77 0 14.53 0C12.15 0 10.23 1.84 10.23 4.12C10.23 4.44 10.26 4.76 10.34 5.06C6.76 4.89 3.58 3.25 1.46 0.75C1.09 1.36 0.88 2.07 0.88 2.82C0.88 4.25 1.64 5.52 2.79 6.25C2.09 6.23 1.42 6.05 0.84 5.74L0.84 5.79C0.84 7.79 2.33 9.45 4.3 9.83C3.93 9.93 3.55 9.98 3.16 9.98C2.88 9.98 2.61 9.95 2.35 9.9C2.9 11.54 4.49 12.73 6.37 12.77C4.9 13.87 3.04 14.53 1.02 14.53C0.67 14.53 0.33 14.51 0 14.47C1.9 15.65 4.17 16.33 6.6 16.33C14.52 16.33 18.85 10.04 18.85 4.59L18.84 4.06C19.69 3.48 20.42 2.75 21 1.93Z" fill="#787A80" fill-opacity="1.000000" fill-rule="nonzero"/>
</svg>
