<svg width="602.000000" height="551.000977" viewBox="0 0 602 551.001" fill="none" xmlns="http://www.w3.org/2000/svg" xmlns:xlink="http://www.w3.org/1999/xlink">
	<desc>
			Created with Pixso.
	</desc>
	<defs/>
	<rect id="illustration" width="602.000000" height="551.000000" fill="#FFFFFF" fill-opacity="0"/>
	<path id="Vector" d="M378.3 15.91L420.2 56.35L462.32 284.29L67.25 284.29L378.3 15.91Z" fill="#FFCF2D" fill-opacity="1.000000" fill-rule="nonzero"/>
	<path id="Vector" d="M420.56 56.03L378.53 15.47L385.56 8.16C395.91 -2.59 414.57 -1.36 425.33 8.97C436.08 19.32 437.97 37.97 427.61 48.73L420.56 56.03Z" fill="#FFFFFF" fill-opacity="1.000000" fill-rule="nonzero"/>
	<path id="Vector" d="M420.58 56.92L377.64 15.49L385.12 7.72C390.16 2.47 397.33 -0.26 405.34 0.01C413 0.29 420.46 3.38 425.79 8.5C431.13 13.63 434.5 20.97 435.05 28.64C435.62 36.62 433.14 43.9 428.1 49.15L420.58 56.92ZM379.42 15.45L420.54 55.12L427.15 48.28C431.96 43.31 434.29 36.36 433.76 28.74C433.23 21.37 430.01 14.35 424.88 9.43C419.76 4.52 412.62 1.56 405.27 1.31C397.65 1.03 390.81 3.63 386.03 8.61L379.42 15.45Z" fill="#FFCF2D" fill-opacity="1.000000" fill-rule="nonzero"/>
	<path id="Vector" d="M427.59 49.36C427.42 49.36 427.28 49.3 427.15 49.19L385.09 8.63C384.84 8.38 384.84 8 385.07 7.74C385.33 7.49 385.73 7.49 385.96 7.72L428.02 48.28C428.27 48.54 428.27 48.92 428.04 49.17C427.93 49.3 427.76 49.36 427.59 49.36Z" fill="#FFCF2D" fill-opacity="1.000000" fill-rule="nonzero"/>
	<path id="Vector" d="M508.82 283.19C508.74 283.19 508.65 283.17 508.57 283.13C508.25 282.98 508.1 282.6 508.25 282.28L567.23 150.77L451.92 10.45L451.92 10.43C449.74 7.47 446.55 5.56 442.9 5.03C439.26 4.5 435.64 5.45 432.72 7.7L428.02 11.3C427.74 11.51 427.34 11.47 427.13 11.17C426.92 10.9 426.96 10.49 427.25 10.28L431.96 6.68C435.15 4.25 439.11 3.21 443.09 3.78C447.08 4.35 450.57 6.43 452.94 9.67L568.71 150.58L568.54 150.94L509.39 282.81C509.29 283.04 509.06 283.19 508.82 283.19Z" fill="#3FB1B5" fill-opacity="1.000000" fill-rule="nonzero"/>
	<path id="Vector" d="M572.56 151.38C572.56 154.96 569.66 157.86 566.08 157.86C562.5 157.86 559.6 154.96 559.6 151.38C559.6 147.81 562.5 144.9 566.08 144.9C569.66 144.9 572.56 147.81 572.56 151.38Z" fill="#FFFFFF" fill-opacity="1.000000" fill-rule="evenodd"/>
	<path id="Vector" d="M566.08 158.5C562.16 158.5 558.97 155.3 558.97 151.38C558.97 147.47 562.16 144.27 566.08 144.27C570 144.27 573.2 147.47 573.2 151.38C573.2 155.3 570 158.5 566.08 158.5ZM566.08 145.54C562.86 145.54 560.24 148.17 560.24 151.38C560.24 154.6 562.86 157.23 566.08 157.23C569.3 157.23 571.93 154.6 571.93 151.38C571.93 148.17 569.3 145.54 566.08 145.54Z" fill="#FFCF2D" fill-opacity="1.000000" fill-rule="nonzero"/>
	<path id="Vector" d="M492.39 267.82L523.96 267.82C533.05 267.82 540.4 275.19 540.4 284.25L540.4 284.71L475.94 284.71L475.94 284.25C475.96 275.19 483.31 267.82 492.39 267.82Z" fill="#FFFFFF" fill-opacity="1.000000" fill-rule="nonzero"/>
	<path id="Vector" d="M541.03 285.35L475.3 285.35L475.3 284.25C475.32 274.85 482.99 267.18 492.39 267.18L523.96 267.18C533.37 267.18 541.03 274.85 541.03 284.25L541.03 285.35ZM476.57 284.08L539.76 284.08C539.68 275.44 532.62 268.46 523.96 268.46L492.39 268.46C483.75 268.46 476.68 275.44 476.57 284.08Z" fill="#FFCF2D" fill-opacity="1.000000" fill-rule="nonzero"/>
	<path id="Vector" d="M339.44 236.64L139.56 236.64C132.05 236.64 125.97 230.56 125.97 223.04L125.97 83.28C125.97 75.76 132.05 69.69 139.56 69.69L339.44 69.69C346.96 69.69 353.03 75.76 353.03 83.28L353.03 223.02C353.06 230.54 346.96 236.64 339.44 236.64Z" fill="#FFFFFF" fill-opacity="1.000000" fill-rule="nonzero"/>
	<path id="Vector" d="M339.44 237.27L139.56 237.27C131.71 237.27 125.33 230.9 125.33 223.04L125.33 83.28C125.33 75.42 131.71 69.05 139.56 69.05L339.44 69.05C347.3 69.05 353.67 75.42 353.67 83.28L353.67 223.02C353.69 226.81 352.21 230.39 349.52 233.08C346.83 235.79 343.25 237.27 339.44 237.27ZM139.56 70.32C132.43 70.32 126.6 76.14 126.6 83.28L126.6 223.04C126.6 230.18 132.43 236 139.56 236L339.44 236C342.91 236 346.17 234.65 348.63 232.19C351.07 229.73 352.42 226.47 352.4 223.02L352.4 83.28C352.4 76.14 346.58 70.32 339.44 70.32L139.56 70.32Z" fill="#3FB1B5" fill-opacity="1.000000" fill-rule="nonzero"/>
	<path id="Vector" d="M339.57 223.64L141.62 223.64C138.67 223.64 136.3 221.24 136.3 218.32L136.3 84.61C136.3 81.67 138.7 79.3 141.62 79.3L339.57 79.3C342.51 79.3 344.88 81.69 344.88 84.61L344.88 218.3C344.9 221.24 342.51 223.64 339.57 223.64Z" fill="#66B0F0" fill-opacity="1.000000" fill-rule="nonzero"/>
	<path id="Vector" d="M339.57 224.27L141.62 224.27C138.34 224.27 135.67 221.6 135.67 218.32L135.67 84.61C135.67 81.33 138.34 78.66 141.62 78.66L339.57 78.66C342.85 78.66 345.52 81.33 345.52 84.61L345.52 218.3C345.54 219.89 344.92 221.39 343.8 222.52C342.66 223.64 341.18 224.27 339.57 224.27ZM141.62 79.93C139.03 79.93 136.94 82.03 136.94 84.61L136.94 218.32C136.94 220.91 139.03 223 141.62 223L339.57 223C340.82 223 342 222.52 342.89 221.63C343.78 220.74 344.25 219.57 344.25 218.32L344.25 84.61C344.25 82.03 342.15 79.93 339.57 79.93L141.62 79.93Z" fill="#66B0F0" fill-opacity="1.000000" fill-rule="nonzero"/>
	<path id="Vector" d="M148.71 92.42L145.58 92.42C144.2 92.42 143.08 91.3 143.08 89.92L143.08 86.79C143.08 85.42 144.2 84.29 145.58 84.29L148.71 84.29C150.09 84.29 151.21 85.42 151.21 86.79L151.21 89.92C151.19 91.32 150.09 92.42 148.71 92.42ZM145.58 85.56C144.9 85.56 144.35 86.11 144.35 86.79L144.35 89.92C144.35 90.6 144.9 91.15 145.58 91.15L148.71 91.15C149.39 91.15 149.92 90.6 149.94 89.9L149.94 86.79C149.94 86.11 149.39 85.56 148.71 85.56L145.58 85.56Z" fill="#FFFFFF" fill-opacity="1.000000" fill-rule="nonzero"/>
	<path id="Vector" d="M162.96 92.42L159.83 92.42C158.45 92.42 157.33 91.3 157.33 89.92L157.33 86.79C157.33 85.42 158.45 84.29 159.83 84.29L162.96 84.29C164.34 84.29 165.46 85.42 165.46 86.79L165.46 89.92C165.46 91.3 164.34 92.42 162.96 92.42ZM159.83 85.56C159.15 85.56 158.6 86.11 158.6 86.79L158.6 89.92C158.6 90.6 159.15 91.15 159.83 91.15L162.96 91.15C163.64 91.15 164.19 90.6 164.19 89.92L164.19 86.79C164.19 86.11 163.64 85.56 162.96 85.56L159.83 85.56Z" fill="#FFFFFF" fill-opacity="1.000000" fill-rule="nonzero"/>
	<path id="Vector" d="M177.21 92.42L174.08 92.42C172.7 92.42 171.58 91.3 171.58 89.92L171.58 86.79C171.58 85.42 172.7 84.29 174.08 84.29L177.21 84.29C178.59 84.29 179.71 85.42 179.71 86.79L179.71 89.92C179.71 91.3 178.59 92.42 177.21 92.42ZM174.08 85.56C173.4 85.56 172.85 86.11 172.85 86.79L172.85 89.92C172.85 90.6 173.4 91.15 174.08 91.15L177.21 91.15C177.91 91.15 178.44 90.62 178.44 89.92L178.44 86.79C178.44 86.11 177.89 85.56 177.21 85.56L174.08 85.56Z" fill="#FFFFFF" fill-opacity="1.000000" fill-rule="nonzero"/>
	<path id="Vector" d="M281.69 284.29L204.11 284.29L219.33 236.64L266.45 236.64L281.69 284.29Z" fill="#FFFFFF" fill-opacity="1.000000" fill-rule="nonzero"/>
	<path id="Vector" d="M282.56 284.93L203.24 284.93L218.87 236L266.91 236L282.56 284.93ZM204.97 283.66L280.82 283.66L265.98 237.27L219.8 237.27L204.97 283.66Z" fill="#3FB1B5" fill-opacity="1.000000" fill-rule="nonzero"/>
	<path id="Vector" d="M210.2 265.22L219.33 236.64L266.45 236.64L210.2 265.22Z" fill="#3FB1B5" fill-opacity="1.000000" fill-rule="nonzero"/>
	<path id="Vector" d="M328.05 123.78L290.33 123.78C286.46 123.78 283.3 120.62 283.3 116.75L283.3 92.4C283.3 88.53 286.46 85.37 290.33 85.37L328.05 85.37C331.92 85.37 335.08 88.53 335.08 92.4L335.08 116.75C335.08 120.62 331.92 123.78 328.05 123.78ZM290.33 86.64C287.16 86.64 284.57 89.23 284.57 92.4L284.57 116.75C284.57 119.92 287.16 122.51 290.33 122.51L328.05 122.51C331.22 122.51 333.81 119.92 333.81 116.75L333.81 92.4C333.81 89.23 331.22 86.64 328.05 86.64L290.33 86.64Z" fill="#FFFFFF" fill-opacity="1.000000" fill-rule="nonzero"/>
	<path id="Vector" d="M323.49 95.32L294.72 95.32C294.36 95.32 294.08 95.05 294.08 94.69C294.08 94.33 294.36 94.05 294.72 94.05L323.49 94.05C323.85 94.05 324.13 94.33 324.13 94.69C324.13 95.05 323.85 95.32 323.49 95.32Z" fill="#FFFFFF" fill-opacity="1.000000" fill-rule="nonzero"/>
	<path id="Vector" d="M323.49 101.89L294.72 101.89C294.36 101.89 294.08 101.61 294.08 101.25C294.08 100.89 294.36 100.62 294.72 100.62L323.49 100.62C323.85 100.62 324.13 100.89 324.13 101.25C324.13 101.61 323.85 101.89 323.49 101.89Z" fill="#FFFFFF" fill-opacity="1.000000" fill-rule="nonzero"/>
	<path id="Vector" d="M323.49 108.45L294.72 108.45C294.36 108.45 294.08 108.17 294.08 107.81C294.08 107.45 294.36 107.18 294.72 107.18L323.49 107.18C323.85 107.18 324.13 107.45 324.13 107.81C324.13 108.17 323.85 108.45 323.49 108.45Z" fill="#FFFFFF" fill-opacity="1.000000" fill-rule="nonzero"/>
	<path id="Vector" d="M323.49 115.01L294.72 115.01C294.36 115.01 294.08 114.74 294.08 114.38C294.08 114.02 294.36 113.74 294.72 113.74L323.49 113.74C323.85 113.74 324.13 114.02 324.13 114.38C324.13 114.74 323.85 115.01 323.49 115.01Z" fill="#FFFFFF" fill-opacity="1.000000" fill-rule="nonzero"/>
	<path id="Vector" d="M338.47 223.64L188.56 223.64L179.78 236.23C169.85 250.46 148.86 250.67 138.65 236.64L85.12 163.03C87.37 165.82 97.64 162.71 107.42 156.27C117.35 149.73 123.77 141.5 121.76 138.45L158.88 185.74L170.25 165.67C173.36 160.36 178.53 156.55 184.54 155.15L223.23 146.96L256.58 146.96L293.34 155.07C299.74 156.53 305.16 160.7 308.23 166.48L338.47 223.64Z" fill="#FFFFFF" fill-opacity="1.000000" fill-rule="nonzero"/>
	<path id="Vector" d="M159.07 247.67C150.7 247.67 143.08 243.79 138.14 237L84.61 163.39L85.63 162.62C87.43 164.85 96.98 162.39 107.08 155.74C111.78 152.65 115.87 149.08 118.58 145.64C121.04 142.56 122.03 139.99 121.23 138.79L122.26 138.05L158.79 184.6L169.7 165.35C172.89 159.89 178.25 155.96 184.39 154.54L223.16 146.32L256.64 146.32L256.71 146.34L293.47 154.45C300.03 155.96 305.62 160.23 308.78 166.18L339.5 224.27L188.88 224.27L180.28 236.59C175.43 243.54 167.79 247.58 159.3 247.67C159.24 247.67 159.15 247.67 159.07 247.67ZM87.07 164.61L139.18 236.26C143.92 242.78 151.25 246.48 159.32 246.4C167.39 246.31 174.65 242.48 179.27 235.87L188.25 223L337.43 223L307.68 166.77C304.69 161.14 299.42 157.1 293.21 155.68L256.52 147.59L223.29 147.59L184.67 155.77C178.87 157.12 173.8 160.85 170.8 165.99L158.96 186.89L122.67 140.65C122.37 142.24 121.33 144.23 119.55 146.45C116.76 149.96 112.56 153.65 107.76 156.8C101.05 161.21 92.98 164.68 88.17 164.68C87.79 164.68 87.41 164.66 87.07 164.61Z" fill="#3FB1B5" fill-opacity="1.000000" fill-rule="nonzero"/>
	<path id="Vector" d="M297.32 223.4C297.09 223.4 296.88 223.28 296.75 223.07L286.1 202.04C285.95 201.73 286.06 201.35 286.37 201.2C286.69 201.05 287.07 201.15 287.22 201.47L297.87 222.49C298.02 222.81 297.91 223.19 297.6 223.34C297.51 223.38 297.43 223.4 297.32 223.4Z" fill="#3FB1B5" fill-opacity="1.000000" fill-rule="nonzero"/>
	<path id="Vector" d="M187.72 225.37C187.61 225.37 187.53 225.35 187.42 225.31C187.1 225.16 186.98 224.76 187.14 224.46L197.69 203.65C197.84 203.34 198.24 203.21 198.54 203.38C198.85 203.53 198.98 203.93 198.81 204.22L188.27 225.03C188.16 225.25 187.95 225.37 187.72 225.37Z" fill="#3FB1B5" fill-opacity="1.000000" fill-rule="nonzero"/>
	<path id="Vector" d="M168.59 198.91C168.4 198.91 168.21 198.83 168.09 198.66L143.92 167.77C143.71 167.49 143.75 167.09 144.03 166.88C144.31 166.67 144.71 166.71 144.92 166.99L169.08 197.87C169.29 198.15 169.25 198.55 168.98 198.76C168.87 198.87 168.72 198.91 168.59 198.91Z" fill="#3FB1B5" fill-opacity="1.000000" fill-rule="nonzero"/>
	<path id="Vector" d="M252.87 168.85L243.58 157.52C243.35 157.25 243.39 156.85 243.66 156.63C243.94 156.4 244.34 156.44 244.55 156.72L253.04 167.03L272.46 150.56C272.74 150.32 273.14 150.37 273.35 150.62C273.58 150.9 273.54 151.3 273.29 151.51L252.87 168.85Z" fill="#3FB1B5" fill-opacity="1.000000" fill-rule="nonzero"/>
	<path id="Vector" d="M228.73 169.25L206.35 151.53C206.08 151.32 206.03 150.92 206.25 150.64C206.46 150.37 206.86 150.32 207.14 150.54L228.5 167.45L236.74 156.93C236.95 156.65 237.35 156.61 237.63 156.82C237.9 157.03 237.95 157.44 237.73 157.71L228.73 169.25Z" fill="#3FB1B5" fill-opacity="1.000000" fill-rule="nonzero"/>
	<path id="Vector" d="M95.31 174.46C93.29 174.46 92.24 173.85 91.71 173.17C91.5 172.89 91.54 172.49 91.81 172.28C92.09 172.07 92.49 172.11 92.7 172.38C93.59 173.51 96.49 173.44 100.45 172.26C104.67 170.99 109.75 168.49 114.37 165.42C119.09 162.29 123.2 158.67 125.93 155.19C128.4 152.06 129.4 149.48 128.6 148.25C128.4 147.95 128.49 147.57 128.78 147.36C129.08 147.17 129.46 147.25 129.67 147.55C130.82 149.31 129.84 152.29 126.94 155.98C124.13 159.53 119.91 163.26 115.08 166.46C110.3 169.63 105.24 172.13 100.83 173.46C98.44 174.18 96.64 174.46 95.31 174.46Z" fill="#3FB1B5" fill-opacity="1.000000" fill-rule="nonzero"/>
	<path id="Vector" d="M122.47 153.9C120.8 153.9 119.45 152.55 119.45 150.87C119.45 149.2 120.8 147.85 122.47 147.85C124.15 147.85 125.5 149.2 125.5 150.87C125.5 152.55 124.15 153.9 122.47 153.9ZM122.47 149.12C121.5 149.12 120.72 149.9 120.72 150.87C120.72 151.85 121.5 152.63 122.47 152.63C123.45 152.63 124.23 151.85 124.23 150.87C124.23 149.9 123.45 149.12 122.47 149.12Z" fill="#3FB1B5" fill-opacity="1.000000" fill-rule="nonzero"/>
	<path id="Vector" d="M240.63 168.93C238.96 168.93 237.61 167.58 237.61 165.91C237.61 164.23 238.96 162.88 240.63 162.88C242.31 162.88 243.66 164.23 243.66 165.91C243.66 167.58 242.31 168.93 240.63 168.93ZM240.63 164.15C239.66 164.15 238.88 164.93 238.88 165.91C238.88 166.88 239.66 167.66 240.63 167.66C241.61 167.66 242.39 166.88 242.39 165.91C242.39 164.93 241.61 164.15 240.63 164.15Z" fill="#3FB1B5" fill-opacity="1.000000" fill-rule="nonzero"/>
	<path id="Vector" d="M240.63 188.2C238.96 188.2 237.61 186.84 237.61 185.17C237.61 183.5 238.96 182.14 240.63 182.14C242.31 182.14 243.66 183.5 243.66 185.17C243.66 186.84 242.31 188.2 240.63 188.2ZM240.63 183.41C239.66 183.41 238.88 184.2 238.88 185.17C238.88 186.14 239.66 186.93 240.63 186.93C241.61 186.93 242.39 186.14 242.39 185.17C242.39 184.2 241.61 183.41 240.63 183.41Z" fill="#3FB1B5" fill-opacity="1.000000" fill-rule="nonzero"/>
	<path id="Vector" d="M179.01 237.25L188.56 223.64L188.56 237.25L179.01 237.25Z" fill="#3FB1B5" fill-opacity="1.000000" fill-rule="nonzero"/>
	<path id="Vector" d="M107.19 155.64C97.4 162.07 87.13 165.19 84.89 162.39C84.85 162.35 84.82 162.31 84.78 162.24C84.32 161.54 84.36 160.59 84.78 159.43C86.24 155.6 92.28 149.67 99.94 144.63C106.04 140.61 112.06 137.81 116.23 136.94C118.64 136.46 120.44 136.61 121.31 137.54L121.52 137.79C123.51 140.84 117.12 149.1 107.19 155.64Z" fill="#FE5244" fill-opacity="1.000000" fill-rule="nonzero"/>
	<path id="Vector" d="M107.19 155.64C101.62 159.3 95.88 161.9 91.56 162.92L72.23 135.65C69.54 131.84 70.43 126.57 74.26 123.88L91.66 111.65L81.8 94.86C80.36 92.42 81.18 89.27 83.64 87.85C84.44 87.38 85.31 87.17 86.18 87.17C87.85 87.17 89.5 88 90.48 89.52L121.33 137.5L121.54 137.83C123.51 140.84 117.12 149.1 107.19 155.64Z" fill="#E57281" fill-opacity="1.000000" fill-rule="nonzero"/>
	<path id="Vector" d="M97.13 135.97C96.85 135.97 96.58 135.95 96.3 135.89C95.24 135.67 94.33 135.04 93.76 134.15L83.58 118.91C83.38 118.61 83.47 118.23 83.74 118.02C84.04 117.83 84.42 117.91 84.63 118.19L94.82 133.43C95.22 134.04 95.84 134.47 96.56 134.62C97.28 134.76 98.02 134.62 98.63 134.21L101.02 132.65C102.29 131.82 102.65 130.13 101.85 128.86L91.07 112.15C90.88 111.86 90.97 111.48 91.26 111.29C91.56 111.1 91.94 111.18 92.13 111.48L102.91 128.18C104.09 130.04 103.54 132.52 101.7 133.71L99.31 135.27C98.67 135.74 97.91 135.97 97.13 135.97Z" fill="#9A3B82" fill-opacity="1.000000" fill-rule="nonzero"/>
	<path id="Vector" d="M89.23 141.03C87.92 141.03 86.62 140.39 85.84 139.23C85.65 138.93 85.74 138.55 86.03 138.34C86.33 138.15 86.71 138.24 86.92 138.53C87.75 139.78 89.44 140.14 90.71 139.34L92.89 137.96C93.51 137.56 93.95 136.94 94.1 136.2C94.25 135.46 94.12 134.72 93.72 134.11C93.53 133.81 93.61 133.43 93.91 133.22C94.21 133.03 94.59 133.11 94.8 133.41C95.39 134.32 95.6 135.4 95.37 136.48C95.14 137.54 94.5 138.45 93.59 139.04L91.41 140.42C90.73 140.82 89.97 141.03 89.23 141.03Z" fill="#9A3B82" fill-opacity="1.000000" fill-rule="nonzero"/>
	<path id="Vector" d="M81.48 145.77C80.21 145.77 78.96 145.18 78.18 144.06L72.39 135.91C72.18 135.61 72.27 135.23 72.54 135.02C72.82 134.81 73.22 134.89 73.43 135.17L79.21 143.32C80.08 144.52 81.71 144.84 82.94 144.06L82.98 144.04L84.99 142.91C85.63 142.51 86.05 141.9 86.22 141.18C86.39 140.44 86.24 139.7 85.84 139.06L75.87 124.24C75.68 123.95 75.74 123.56 76.04 123.35C76.33 123.16 76.71 123.23 76.93 123.52L86.9 138.34C87.51 139.27 87.7 140.37 87.47 141.43C87.24 142.49 86.6 143.4 85.67 143.97L85.65 143.99L83.64 145.12C82.94 145.58 82.2 145.77 81.48 145.77Z" fill="#9A3B82" fill-opacity="1.000000" fill-rule="nonzero"/>
	<path id="Vector" d="M114.13 126.32L109.07 118.46C107.4 115.86 103.9 115.14 101.34 116.88L88.78 125.39C88.78 125.39 92.43 131.93 101.28 126.74L104.24 131.46C98.19 135.29 96.45 143.36 100.39 149.35L114.13 126.32Z" fill="#E57281" fill-opacity="1.000000" fill-rule="nonzero"/>
	<path id="Vector" d="M100.39 149.99C100.18 149.99 99.99 149.88 99.86 149.69C97.87 146.64 97.17 143 97.95 139.44C98.67 136.1 100.6 133.22 103.37 131.27L101.07 127.59C98.02 129.26 95.24 129.75 92.79 129.09C89.67 128.24 88.28 125.79 88.21 125.7L87.94 125.19L100.3 116.56C101.7 115.63 103.35 115.29 104.98 115.63C106.61 115.96 108.01 116.92 108.92 118.34L113.98 126.19C114.17 126.49 114.09 126.87 113.79 127.06C113.5 127.25 113.12 127.16 112.92 126.87L107.86 119.01C107.14 117.89 106.04 117.13 104.73 116.87C103.44 116.6 102.1 116.87 101.02 117.62L89.65 125.56C90.16 126.21 91.3 127.4 93.12 127.88C95.37 128.5 98 127.93 100.94 126.21L101.47 125.89L105.09 131.67L104.56 132.01C101.79 133.77 99.86 136.52 99.16 139.74C98.46 142.96 99.08 146.26 100.9 149.01C101.09 149.31 101 149.69 100.71 149.9C100.62 149.94 100.52 149.99 100.39 149.99Z" fill="#9A3B82" fill-opacity="1.000000" fill-rule="nonzero"/>
	<path id="Vector" d="M107.19 155.64C101.62 159.3 95.88 161.9 91.56 162.92L86.75 156.14C89.44 152.63 94.25 148.4 99.94 144.65C106.04 140.63 112.06 137.83 116.23 136.97C118.64 136.48 120.44 136.63 121.31 137.56L121.52 137.81C121.54 137.85 121.56 137.88 121.59 137.92C121.61 137.94 121.61 137.96 121.63 138C121.65 138.05 121.67 138.07 121.69 138.11C123.13 141.35 116.8 149.29 107.19 155.64Z" fill="#9A3B82" fill-opacity="1.000000" fill-rule="nonzero"/>
	<path id="Vector" d="M256.56 128.33L256.56 146.94C256.56 152.34 249.06 156.7 239.85 156.7C230.62 156.7 223.14 152.34 223.14 146.94L223.14 128.33L256.56 128.33Z" fill="#E57281" fill-opacity="1.000000" fill-rule="nonzero"/>
	<path id="Vector" d="M228.03 153.84C225.01 152.08 223.12 149.63 223.12 146.94L223.12 128.33L256.56 128.33L256.56 133.49C256.56 138.85 253.3 143.66 248.34 145.67L228.03 153.84Z" fill="#9A3B82" fill-opacity="1.000000" fill-rule="nonzero"/>
	<path id="Vector" d="M265.88 127.23L265.88 127.55C265.88 130.76 263.27 133.37 260.05 133.37L256.22 133.37C254.93 138.58 250.23 142.45 244.59 142.45L235.11 142.45C229.5 142.45 224.77 138.6 223.5 133.37L219.67 133.37C216.45 133.37 213.85 130.76 213.85 127.55L213.85 127.23C213.85 124.01 216.45 121.41 219.67 121.41L223.14 121.41L223.14 116.81C223.14 111.9 226.76 107.84 231.49 107.16C232.52 108.89 235.66 113.04 242.05 112.81C245.06 112.71 247.85 112.13 250.16 111.46C252.94 110.65 255.71 112.35 256.41 114.99C256.52 115.58 256.58 116.18 256.58 116.79L256.58 121.39L260.05 121.39C263.25 121.39 265.88 124.01 265.88 127.23Z" fill="#E57281" fill-opacity="1.000000" fill-rule="nonzero"/>
	<path id="Vector" d="M259.23 121.39L256.56 121.39L256.56 116.28C256.56 115.84 256.49 115.39 256.39 114.99C255.69 112.35 252.92 110.65 250.14 111.46C247.83 112.13 245.06 112.71 242.03 112.81C235.64 113.04 232.5 108.89 231.46 107.16C226.74 107.84 223.12 111.9 223.12 116.81L223.12 121.41L219.8 121.41C219.8 121.41 215.99 107.62 218.84 103.73C221.66 99.9 225.05 101.57 225.05 101.57C225.05 101.57 223.02 90.09 234.37 90.31C245.69 90.52 260.43 103.67 261.51 106.08C263.21 109.78 259.23 121.39 259.23 121.39Z" fill="#9A3B82" fill-opacity="1.000000" fill-rule="nonzero"/>
	<path id="Vector" d="M257.85 128.84C257.55 128.84 257.32 128.6 257.32 128.31C257.32 125.77 259.4 123.69 261.94 123.69C262.23 123.69 262.47 123.92 262.47 124.22C262.47 124.52 262.23 124.75 261.94 124.75C259.97 124.75 258.38 126.34 258.38 128.31C258.38 128.6 258.15 128.84 257.85 128.84Z" fill="#9A3B82" fill-opacity="1.000000" fill-rule="nonzero"/>
	<path id="Vector" d="M221.89 128.84C221.6 128.84 221.36 128.6 221.36 128.31C221.36 126.34 219.78 124.75 217.81 124.75C217.51 124.75 217.28 124.52 217.28 124.22C217.28 123.92 217.51 123.69 217.81 123.69C220.35 123.69 222.42 125.77 222.42 128.31C222.42 128.6 222.19 128.84 221.89 128.84Z" fill="#9A3B82" fill-opacity="1.000000" fill-rule="nonzero"/>
	<path id="Vector" d="M251.22 117.34C251.12 117.34 251.01 117.3 250.9 117.24C250.8 117.15 248.07 115.22 244.57 116.68C244.3 116.79 244 116.66 243.87 116.39C243.77 116.11 243.9 115.82 244.17 115.69C248.24 114.02 251.39 116.26 251.52 116.37C251.75 116.54 251.81 116.88 251.62 117.11C251.54 117.26 251.39 117.34 251.22 117.34Z" fill="#9A3B82" fill-opacity="1.000000" fill-rule="nonzero"/>
	<path id="Vector" d="M228.27 117.34C228.1 117.34 227.95 117.26 227.84 117.13C227.67 116.9 227.72 116.56 227.95 116.39C228.08 116.28 231.25 114.04 235.3 115.71C235.57 115.82 235.7 116.14 235.59 116.41C235.49 116.68 235.17 116.81 234.9 116.71C231.38 115.25 228.61 117.24 228.56 117.26C228.48 117.3 228.37 117.34 228.27 117.34Z" fill="#9A3B82" fill-opacity="1.000000" fill-rule="nonzero"/>
	<path id="Vector" d="M241.18 135.17C240.36 135.17 239.41 135 238.33 134.6C238.05 134.49 237.9 134.19 238.01 133.92C238.11 133.64 238.41 133.49 238.69 133.6C243.13 135.25 244.59 132.33 244.66 132.2C244.78 131.95 245.1 131.82 245.36 131.95C245.61 132.08 245.74 132.39 245.61 132.65C245.59 132.69 244.38 135.17 241.18 135.17Z" fill="#9A3B82" fill-opacity="1.000000" fill-rule="nonzero"/>
	<path id="Vector" d="M239.68 131.19C239.19 131.19 238.66 131.19 238.22 131.14C237.92 131.12 237.71 130.87 237.73 130.57C237.75 130.28 238.01 130.06 238.31 130.09C239.55 130.17 241.48 130.09 241.5 130.09C241.8 130.06 242.03 130.3 242.05 130.59C242.07 130.89 241.84 131.12 241.54 131.14C241.5 131.14 240.63 131.19 239.68 131.19Z" fill="#9A3B82" fill-opacity="1.000000" fill-rule="nonzero"/>
	<path id="Vector" d="M248.87 123.86C248.87 124.84 248.4 125.64 247.81 125.64C247.23 125.64 246.75 124.84 246.75 123.86C246.75 122.88 247.23 122.08 247.81 122.08C248.4 122.08 248.87 122.88 248.87 123.86Z" fill="#9A3B82" fill-opacity="1.000000" fill-rule="evenodd"/>
	<path id="Vector" d="M233.69 123.86C233.69 124.84 233.21 125.64 232.63 125.64C232.04 125.64 231.57 124.84 231.57 123.86C231.57 122.88 232.04 122.08 232.63 122.08C233.21 122.08 233.69 122.88 233.69 123.86Z" fill="#9A3B82" fill-opacity="1.000000" fill-rule="evenodd"/>
	<path id="Vector" d="M235.15 130.38L228.48 130.38C226.91 130.38 225.62 129.09 225.62 127.52L225.62 120.86C225.62 119.29 226.91 118 228.48 118L235.15 118C236.72 118 238.01 119.29 238.01 120.86L238.01 127.52C238.03 128.27 237.73 128.98 237.2 129.51C236.65 130.09 235.93 130.38 235.15 130.38ZM228.48 119.06C227.48 119.06 226.68 119.86 226.68 120.86L226.68 127.52C226.68 128.52 227.48 129.32 228.48 129.32L235.15 129.32C235.64 129.32 236.1 129.13 236.44 128.77C236.78 128.43 236.95 127.99 236.95 127.52L236.95 120.86C236.95 119.86 236.14 119.06 235.15 119.06L228.48 119.06Z" fill="#FFFFFF" fill-opacity="1.000000" fill-rule="nonzero"/>
	<path id="Vector" d="M251.48 130.38L244.81 130.38C243.24 130.38 241.95 129.09 241.95 127.52L241.95 120.86C241.95 119.29 243.24 118 244.81 118L251.48 118C253.04 118 254.33 119.29 254.33 120.86L254.33 127.52C254.33 129.09 253.04 130.38 251.48 130.38ZM244.81 119.06C243.81 119.06 243.01 119.86 243.01 120.86L243.01 127.52C243.01 128.52 243.81 129.32 244.81 129.32L251.48 129.32C252.47 129.32 253.28 128.52 253.28 127.52L253.28 120.86C253.28 119.86 252.47 119.06 251.48 119.06L244.81 119.06Z" fill="#FFFFFF" fill-opacity="1.000000" fill-rule="nonzero"/>
	<path id="Vector" d="M237.5 122.4L242.48 122.4L242.48 123.46L237.5 123.46L237.5 122.4Z" fill="#FFFFFF" fill-opacity="1.000000" fill-rule="evenodd"/>
	<path id="Vector" d="M253.23 216.06L230.09 216.06C227.63 216.06 225.64 214.07 225.64 211.61L225.64 199.31C225.64 196.86 227.63 194.87 230.09 194.87L253.23 194.87C255.69 194.87 257.68 196.86 257.68 199.31L257.68 211.61C257.68 214.07 255.69 216.06 253.23 216.06ZM230.09 196.14C228.33 196.14 226.91 197.56 226.91 199.31L226.91 211.61C226.91 213.37 228.33 214.79 230.09 214.79L253.23 214.79C254.99 214.79 256.41 213.37 256.41 211.61L256.41 199.31C256.41 197.56 254.99 196.14 253.23 196.14L230.09 196.14Z" fill="#66B0F0" fill-opacity="1.000000" fill-rule="nonzero"/>
	<path id="Vector" d="M242.24 210.47L234.41 210.47C233.16 210.47 232.14 209.45 232.14 208.2L232.14 202.72C232.14 201.47 233.16 200.46 234.41 200.46L242.24 200.46C243.49 200.46 244.51 201.47 244.51 202.72L244.51 208.2C244.51 209.45 243.49 210.47 242.24 210.47Z" fill="#66B0F0" fill-opacity="1.000000" fill-rule="nonzero"/>
	<path id="Vector" d="M249.87 210.32L247.45 208.71C246.8 208.27 246.39 207.51 246.39 206.68L246.39 204.27C246.39 203.44 246.8 202.68 247.45 202.23L249.87 200.63C250.44 200.24 251.18 200.67 251.18 201.39L251.18 209.58C251.2 210.28 250.44 210.7 249.87 210.32Z" fill="#66B0F0" fill-opacity="1.000000" fill-rule="nonzero"/>
	<path id="Vector" d="M562.78 285.35L0.63 285.35C0.27 285.35 0 285.07 0 284.71C0 284.35 0.27 284.08 0.63 284.08L562.78 284.08C563.14 284.08 563.41 284.35 563.41 284.71C563.41 285.07 563.14 285.35 562.78 285.35Z" fill="#3FB1B5" fill-opacity="1.000000" fill-rule="nonzero"/>
	<path id="Vector" d="M181.62 288.42L181.62 549.79L166.86 549.79L166.86 500.04C166.86 495.4 163.09 491.63 158.45 491.63L52.81 491.63C48.17 491.63 44.4 495.4 44.4 500.04L44.4 549.79L29.64 549.79L29.64 288.42L181.62 288.42Z" fill="#FFFFFF" fill-opacity="1.000000" fill-rule="nonzero"/>
	<path id="Vector" d="M182.25 550.42L166.22 550.42L166.22 500.04C166.22 495.76 162.73 492.27 158.45 492.27L52.81 492.27C48.53 492.27 45.04 495.76 45.04 500.04L45.04 550.42L29.01 550.42L29.01 287.78L182.25 287.78L182.25 550.42ZM167.49 549.15L180.98 549.15L180.98 289.05L30.28 289.05L30.28 549.15L43.77 549.15L43.77 500.04C43.77 495.06 47.83 491 52.81 491L158.45 491C163.43 491 167.49 495.06 167.49 500.04L167.49 549.15Z" fill="#3FB1B5" fill-opacity="1.000000" fill-rule="nonzero"/>
	<path id="Vector" d="M182.06 288.42L182.06 357.77L29.64 483.25L29.66 288.42L182.06 288.42Z" fill="#D0F0E4" fill-opacity="1.000000" fill-rule="nonzero"/>
	<path id="Vector" d="M158.9 364.31L52.38 364.31C47.64 364.31 43.79 360.46 43.79 355.72L43.79 308.32C43.79 303.58 47.64 299.72 52.38 299.72L158.9 299.72C163.64 299.72 167.49 303.58 167.49 308.32L167.49 355.72C167.49 360.46 163.64 364.31 158.9 364.31ZM52.38 300.99C48.34 300.99 45.06 304.28 45.06 308.32L45.06 355.72C45.06 359.76 48.34 363.04 52.38 363.04L158.9 363.04C162.94 363.04 166.22 359.76 166.22 355.72L166.22 308.32C166.22 304.28 162.94 300.99 158.9 300.99L52.38 300.99Z" fill="#3FB1B5" fill-opacity="1.000000" fill-rule="nonzero"/>
	<path id="Vector" d="M132.72 399.58L80.29 399.58L78.11 384.57L130.56 384.57L132.72 399.58Z" fill="#FFCF2D" fill-opacity="1.000000" fill-rule="nonzero"/>
	<path id="Vector" d="M160.7 375.92C154.15 375.92 148.86 381.21 148.86 387.75L148.86 399.59L104.24 399.59L104.24 387.75C104.24 381.21 109.54 375.92 116.08 375.92L160.7 375.92Z" fill="#FFFFFF" fill-opacity="1.000000" fill-rule="nonzero"/>
	<path id="Vector" d="M149.5 400.22L103.61 400.22L103.61 387.75C103.61 380.87 109.2 375.28 116.08 375.28L160.7 375.28L160.7 376.55C154.51 376.55 149.5 381.57 149.5 387.75L149.5 400.22ZM104.88 398.95L148.22 398.95L148.22 387.75C148.22 382.84 151.08 378.58 155.21 376.55L116.08 376.55C109.9 376.55 104.88 381.57 104.88 387.75L104.88 398.95Z" fill="#3FB1B5" fill-opacity="1.000000" fill-rule="nonzero"/>
	<path id="Vector" d="M171.81 384.58L127.2 384.58C125.82 379.58 121.23 375.92 115.78 375.92L160.4 375.92C165.84 375.92 170.42 379.58 171.81 384.58Z" fill="#FFFFFF" fill-opacity="1.000000" fill-rule="nonzero"/>
	<path id="Vector" d="M172.66 385.21L126.73 385.21L126.6 384.74C125.27 379.92 120.82 376.55 115.81 376.55L115.81 375.28L160.42 375.28C165.99 375.28 170.95 379.03 172.45 384.41L172.66 385.21ZM127.66 383.94L170.95 383.94C169.36 379.56 165.12 376.55 160.4 376.55L121.27 376.55C124.25 378.01 126.63 380.66 127.66 383.94Z" fill="#3FB1B5" fill-opacity="1.000000" fill-rule="nonzero"/>
	<path id="Vector" d="M158.9 463.54L52.38 463.54C47.64 463.54 43.79 459.69 43.79 454.95L43.79 407.54C43.79 402.8 47.64 398.95 52.38 398.95L158.9 398.95C163.64 398.95 167.49 402.8 167.49 407.54L167.49 454.95C167.49 459.69 163.64 463.54 158.9 463.54ZM52.38 400.22C48.34 400.22 45.06 403.5 45.06 407.54L45.06 454.95C45.06 458.99 48.34 462.27 52.38 462.27L158.9 462.27C162.94 462.27 166.22 458.99 166.22 454.95L166.22 407.54C166.22 403.5 162.94 400.22 158.9 400.22L52.38 400.22Z" fill="#3FB1B5" fill-opacity="1.000000" fill-rule="nonzero"/>
	<path id="Vector" d="M127.47 331.71C127.11 331.71 126.84 331.44 126.84 331.08C126.84 327.65 124.06 324.87 120.63 324.87L90.67 324.87C87.24 324.87 84.46 327.65 84.46 331.08C84.46 331.44 84.19 331.71 83.83 331.71C83.47 331.71 83.19 331.44 83.19 331.08C83.19 326.95 86.54 323.6 90.67 323.6L120.63 323.6C124.76 323.6 128.11 326.95 128.11 331.08C128.11 331.44 127.83 331.71 127.47 331.71Z" fill="#3FB1B5" fill-opacity="1.000000" fill-rule="nonzero"/>
	<path id="Vector" d="M127.47 430.94C127.11 430.94 126.84 430.66 126.84 430.3C126.84 426.87 124.06 424.1 120.63 424.1L90.67 424.1C87.24 424.1 84.46 426.87 84.46 430.3C84.46 430.66 84.19 430.94 83.83 430.94C83.47 430.94 83.19 430.66 83.19 430.3C83.19 426.17 86.54 422.83 90.67 422.83L120.63 422.83C124.76 422.83 128.11 426.17 128.11 430.3C128.11 430.66 127.83 430.94 127.47 430.94Z" fill="#3FB1B5" fill-opacity="1.000000" fill-rule="nonzero"/>
	<path id="Vector" d="M524.66 288.42L540.4 288.42L540.4 550.36L524.66 550.36L524.66 288.42Z" fill="#FFFFFF" fill-opacity="1.000000" fill-rule="evenodd"/>
	<path id="Vector" d="M541.03 551L524.03 551L524.03 287.78L541.03 287.78L541.03 551ZM525.3 549.72L539.76 549.72L539.76 289.05L525.3 289.05L525.3 549.72Z" fill="#3FB1B5" fill-opacity="1.000000" fill-rule="nonzero"/>
	<path id="Vector" d="M601.36 551L273.01 551C272.65 551 272.38 550.72 272.38 550.36C272.38 550 272.65 549.73 273.01 549.73L601.36 549.73C601.72 549.73 602 550 602 550.36C602 550.72 601.72 551 601.36 551Z" fill="#3FB1B5" fill-opacity="1.000000" fill-rule="nonzero"/>
	<path id="Vector" d="M74.32 248.79L64.81 248.79C64.81 248.79 51.24 192.24 39.32 190.4C27.4 188.56 26.78 210.32 26.78 210.32C26.78 210.32 26.99 177.23 56.79 181.76C86.6 186.29 74.32 248.79 74.32 248.79Z" fill="#FFFFFF" fill-opacity="1.000000" fill-rule="nonzero"/>
	<path id="Vector" d="M74.85 249.42L64.33 249.42L64.2 248.94C64.16 248.79 60.75 234.65 55.94 220.48C47.98 197.05 42.45 191.52 39.23 191.03C37.03 190.7 35.08 191.2 33.47 192.56C27.86 197.22 27.44 210.22 27.44 210.34L26.17 210.32C26.17 210.15 26.21 206.28 27.46 201.32C28.63 196.73 31.08 190.31 36.23 185.91C41.46 181.44 48.4 179.84 56.92 181.15C62.42 181.97 66.89 184.81 70.21 189.53C75.55 197.13 77.99 209.43 77.41 226.14C76.99 238.52 75 248.81 74.98 248.91L74.85 249.42ZM65.32 248.15L73.81 248.15C74.22 245.93 75.78 236.78 76.14 226.07C76.52 214.79 75.61 199.44 69.18 190.27C66.06 185.83 61.87 183.18 56.73 182.42C48.62 181.19 41.99 182.69 37.05 186.91C35.57 188.18 34.3 189.64 33.24 191.18C35.04 189.91 37.12 189.47 39.45 189.83C44.63 190.63 50.61 200.84 57.17 220.14C61.47 232.83 64.67 245.53 65.32 248.15Z" fill="#3FB1B5" fill-opacity="1.000000" fill-rule="nonzero"/>
	<path id="Vector" d="M70.15 248.58C69.81 248.58 69.51 248.3 69.51 247.94C68.82 205.79 59.88 190.91 52.51 185.87C46.92 182.04 42.03 183.77 41.99 183.79C41.65 183.92 41.29 183.75 41.16 183.41C41.03 183.07 41.2 182.72 41.54 182.59C41.77 182.5 47.09 180.62 53.23 184.81C57.97 188.07 61.85 194.04 64.73 202.59C68.43 213.6 70.47 228.85 70.79 247.92C70.79 248.28 70.51 248.58 70.15 248.58Z" fill="#3FB1B5" fill-opacity="1.000000" fill-rule="nonzero"/>
	<path id="Vector" d="M55.56 247.94L100.22 247.94L100.22 284.29L55.56 284.29L55.56 247.94Z" fill="#FE5244" fill-opacity="1.000000" fill-rule="evenodd"/>
	<path id="Vector" d="M109.62 266.13C106.78 267.35 103.4 267.21 100.24 265.83C97.91 264.81 95.71 263.14 93.93 260.85C91.47 257.68 89.82 253.34 89.82 247.94C89.82 234.86 79.4 226.64 75.13 243.96C74.83 245.17 74.55 246.48 74.32 247.94L74.32 247.9L74.32 247.81C74.32 247.77 74.32 247.71 74.34 247.64L74.34 247.56C74.43 246.48 74.75 243.28 75.72 239.43C76.44 236.57 77.52 233.4 79.13 230.45C79.93 228.99 80.87 227.6 81.97 226.35C84.8 223.09 88.7 220.8 94.02 220.8C103.8 220.8 110.96 232.32 113.69 243.79C116.08 253.76 115.11 263.73 109.62 266.13Z" fill="#FFFFFF" fill-opacity="1.000000" fill-rule="nonzero"/>
	<path id="Vector" d="M105.45 267.59C103.65 267.59 101.77 267.18 99.99 266.4C97.47 265.3 95.2 263.52 93.42 261.24C90.65 257.66 89.19 253.04 89.19 247.94C89.19 241.97 86.56 235.24 82.64 234.77C79.81 234.43 77.31 237.84 75.74 244.11C75.42 245.42 75.17 246.69 74.94 248.05L73.66 247.94L73.66 247.81C73.66 247.77 73.66 247.67 73.69 247.56L73.69 247.5C73.77 246.31 74.11 243.14 75.08 239.26C75.95 235.83 77.12 232.76 78.56 230.14C79.47 228.51 80.42 227.11 81.48 225.92C84.8 222.09 89.02 220.17 94.01 220.17C104.18 220.17 111.53 231.96 114.3 243.64C115.53 248.79 115.87 253.85 115.23 257.89C114.53 262.44 112.67 265.47 109.88 266.7C108.52 267.29 107.02 267.59 105.45 267.59ZM82.26 233.48C82.45 233.48 82.62 233.5 82.79 233.52C87.03 234.03 90.46 240.51 90.46 247.96C90.46 252.79 91.83 257.13 94.44 260.5C96.09 262.61 98.19 264.26 100.5 265.28C103.52 266.59 106.76 266.7 109.37 265.57C114.11 263.5 115.61 254.63 113.07 243.98C111.65 237.99 109.13 232.47 106 228.42C102.46 223.87 98.33 221.48 94.01 221.48C89.42 221.48 85.52 223.28 82.45 226.81C81.46 227.96 80.55 229.25 79.7 230.81C78.64 232.76 77.73 234.94 76.99 237.36C77.35 236.76 77.71 236.23 78.09 235.77C79.59 233.93 81.12 233.48 82.26 233.48Z" fill="#3FB1B5" fill-opacity="1.000000" fill-rule="nonzero"/>
	<path id="Vector" d="M107.36 267.16C107.04 267.16 106.76 266.93 106.72 266.59C103.63 237.57 96.58 228.59 91.22 226.18C86.43 224.02 82.39 226.83 82.35 226.86C82.07 227.07 81.67 226.98 81.46 226.71C81.25 226.43 81.33 226.03 81.61 225.82C81.8 225.69 86.29 222.56 91.73 225.01C95.33 226.64 98.46 230.33 101.02 236C104.24 243.09 106.57 253.34 107.97 266.44C108.01 266.78 107.76 267.1 107.4 267.14C107.4 267.16 107.38 267.16 107.36 267.16Z" fill="#3FB1B5" fill-opacity="1.000000" fill-rule="nonzero"/>
	<path id="Vector" d="M26.15 210.32C26.15 213.81 25.74 227.17 38.49 227.79C51.24 228.4 52.51 209.16 52.51 209.16C52.51 209.16 46.24 192.14 39.32 190.4C27.61 187.46 26.15 210.32 26.15 210.32Z" fill="#3FB1B5" fill-opacity="1.000000" fill-rule="nonzero"/>
	<path id="Vector" d="M89.82 247.94L74.32 247.94C77.9 225.52 89.82 233.95 89.82 247.94Z" fill="#3FB1B5" fill-opacity="1.000000" fill-rule="nonzero"/>
	<g opacity="0.400000">
		<path id="Vector" d="M353.06 83.28L353.06 223.02C353.06 230.54 346.96 236.61 339.46 236.61L179.48 236.61C169.44 250.44 148.75 250.5 138.63 236.61L138.61 236.59C134.59 236.32 131.03 234.27 128.74 231.24L132.43 228.06L226.45 146.94L315.98 69.69L339.46 69.69C346.96 69.69 353.06 75.78 353.06 83.28Z" fill="#FFFFFF" fill-opacity="1.000000" fill-rule="nonzero"/>
	</g>
	<g opacity="0.400000">
		<path id="Vector" d="M109.62 266.76C106.81 268.03 103.4 267.84 100.24 266.47L100.24 284.29L67.27 284.29L93.95 261.28L100.26 255.84L105.07 251.69L114.36 243.79C117.08 255.35 115.57 264.03 109.62 266.76Z" fill="#FFFFFF" fill-opacity="1.000000" fill-rule="nonzero"/>
	</g>
	<path id="Vector" d="M390.39 360.82L390.39 478.66L363.16 478.66L345.81 430.24L320.97 360.82L390.39 360.82Z" fill="#A0505A" fill-opacity="1.000000" fill-rule="nonzero"/>
	<path id="Vector" d="M320.97 360.82L390.39 360.82L390.39 398.65L329.23 383.88L320.97 360.82Z" fill="#73325A" fill-opacity="1.000000" fill-rule="nonzero"/>
	<path id="Vector" d="M391.02 479.29L362.71 479.29L344.65 428.86L346.13 429.67C346.17 429.69 349.69 431.57 356.85 432.5C363.45 433.37 374.63 433.56 390.24 429.6L391.02 429.41L391.02 479.29ZM363.6 478.02L389.75 478.02L389.75 431.04C374.29 434.88 363.2 434.64 356.57 433.77C351.76 433.14 348.59 432.1 346.91 431.42L363.6 478.02Z" fill="#FFFFFF" fill-opacity="1.000000" fill-rule="nonzero"/>
	<path id="Vector" d="M359.98 442.24C357.93 442.24 356.25 440.57 356.25 438.52C356.25 436.46 357.93 434.79 359.98 434.79C362.03 434.79 363.71 436.46 363.71 438.52C363.71 440.57 362.03 442.24 359.98 442.24ZM359.98 436.06C358.62 436.06 357.52 437.16 357.52 438.52C357.52 439.87 358.62 440.97 359.98 440.97C361.34 440.97 362.44 439.87 362.44 438.52C362.44 437.16 361.34 436.06 359.98 436.06Z" fill="#FFFFFF" fill-opacity="1.000000" fill-rule="nonzero"/>
	<path id="Vector" d="M374.72 452.21C372.66 452.21 370.99 450.54 370.99 448.49C370.99 446.43 372.66 444.76 374.72 444.76C376.77 444.76 378.45 446.43 378.45 448.49C378.45 450.54 376.77 452.21 374.72 452.21ZM374.72 446.03C373.36 446.03 372.26 447.13 372.26 448.49C372.26 449.84 373.36 450.94 374.72 450.94C376.07 450.94 377.17 449.84 377.17 448.49C377.17 447.13 376.07 446.03 374.72 446.03Z" fill="#FFFFFF" fill-opacity="1.000000" fill-rule="nonzero"/>
	<path id="Vector" d="M385.69 441.14C383.63 441.14 381.96 439.47 381.96 437.42C381.96 435.36 383.63 433.69 385.69 433.69C387.74 433.69 389.41 435.36 389.41 437.42C389.41 439.47 387.74 441.14 385.69 441.14ZM385.69 434.96C384.33 434.96 383.23 436.06 383.23 437.42C383.23 438.77 384.33 439.87 385.69 439.87C387.04 439.87 388.14 438.77 388.14 437.42C388.14 436.06 387.04 434.96 385.69 434.96Z" fill="#FFFFFF" fill-opacity="1.000000" fill-rule="nonzero"/>
	<path id="Vector" d="M381.35 463.81C379.29 463.81 377.62 462.14 377.62 460.09C377.62 458.04 379.29 456.36 381.35 456.36C383.4 456.36 385.07 458.04 385.07 460.09C385.07 462.14 383.4 463.81 381.35 463.81ZM381.35 457.63C379.99 457.63 378.89 458.73 378.89 460.09C378.89 461.44 379.99 462.54 381.35 462.54C382.7 462.54 383.8 461.44 383.8 460.09C383.8 458.73 382.7 457.63 381.35 457.63Z" fill="#FFFFFF" fill-opacity="1.000000" fill-rule="nonzero"/>
	<path id="Vector" d="M363.07 458.18C361.02 458.18 359.35 456.51 359.35 454.46C359.35 452.4 361.02 450.73 363.07 450.73C365.13 450.73 366.8 452.4 366.8 454.46C366.8 456.51 365.13 458.18 363.07 458.18ZM363.07 452C361.72 452 360.62 453.1 360.62 454.46C360.62 455.81 361.72 456.91 363.07 456.91C364.43 456.91 365.53 455.81 365.53 454.46C365.53 453.1 364.43 452 363.07 452Z" fill="#FFFFFF" fill-opacity="1.000000" fill-rule="nonzero"/>
	<path id="Vector" d="M368.11 475.12C366.06 475.12 364.38 473.45 364.38 471.39C364.38 469.34 366.06 467.67 368.11 467.67C370.16 467.67 371.84 469.34 371.84 471.39C371.84 473.45 370.16 475.12 368.11 475.12ZM368.11 468.94C366.76 468.94 365.65 470.04 365.65 471.39C365.65 472.75 366.76 473.85 368.11 473.85C369.47 473.85 370.57 472.75 370.57 471.39C370.57 470.04 369.47 468.94 368.11 468.94Z" fill="#FFFFFF" fill-opacity="1.000000" fill-rule="nonzero"/>
	<path id="Vector" d="M403.26 500.63L384.59 539.39C381.94 545.64 375.82 549.7 369.02 549.7L345.2 549.7C339.1 549.7 335.39 543.52 337.72 537.89L361.67 480.14C363.01 476.62 365.36 473.7 368.3 471.65C371.27 469.6 374.82 468.43 378.57 468.43C383.78 468.43 388.95 471.97 392.38 475.88L400.68 484.84C404.51 489.2 405.51 495.32 403.26 500.63Z" fill="#66B0F0" fill-opacity="1.000000" fill-rule="nonzero"/>
	<path id="Vector" d="M403.26 500.63L384.59 539.39C381.94 545.64 375.82 549.7 369.02 549.7L343.7 549.7C341.35 549.7 340.01 548.24 339.23 546.23L344.86 546.23C351.66 546.23 357.78 542.17 360.42 535.92L381.96 491.02C383.97 486.83 388.23 484.14 392.89 484.14C398.96 484.14 403.58 488.59 404.43 494.22C404.51 496.38 404.13 498.56 403.26 500.63Z" fill="#FFFFFF" fill-opacity="1.000000" fill-rule="nonzero"/>
	<path id="Vector" d="M369.02 550.34L343.7 550.34C341.34 550.34 339.63 549.03 338.63 546.46C338.55 546.27 338.59 546.04 338.7 545.87C338.83 545.7 339.02 545.6 339.23 545.6L344.86 545.6C351.4 545.6 357.29 541.7 359.83 535.67C359.83 535.67 359.83 535.65 359.85 535.65L381.39 490.74C383.51 486.34 388.02 483.5 392.89 483.5C399.01 483.5 404.13 487.97 405.06 494.13C405.06 494.15 405.06 494.17 405.06 494.2C405.15 496.48 404.74 498.75 403.85 500.89C403.85 500.89 403.85 500.91 403.83 500.91L385.16 539.65C382.4 546.15 376.07 550.34 369.02 550.34ZM340.22 546.87C341.03 548.37 342.15 549.07 343.7 549.07L369.02 549.07C375.56 549.07 381.45 545.17 383.99 539.14C383.99 539.14 383.99 539.12 384.01 539.12L402.69 500.38C403.5 498.43 403.88 496.38 403.79 494.28C402.94 488.78 398.37 484.77 392.89 484.77C388.5 484.77 384.44 487.34 382.53 491.3L361 536.18C358.24 542.68 351.91 546.87 344.86 546.87L340.22 546.87Z" fill="#66B0F0" fill-opacity="1.000000" fill-rule="nonzero"/>
	<path id="Vector" d="M398.96 482.97C396.72 481.75 394.01 480.86 391.64 480.86C387.08 480.86 382.87 483.5 380.9 487.61L358.6 534.1C355.77 540.81 349.2 545.15 341.9 545.15L337.79 545.15C337.58 544.75 337.43 544.33 337.28 543.88L341.9 543.88C348.69 543.88 354.79 539.84 357.44 533.59L357.46 533.57L379.78 487.06C381.96 482.51 386.62 479.59 391.66 479.59C393.27 479.59 395.19 480.12 396.85 480.69L398.96 482.97Z" fill="#FFFFFF" fill-opacity="1.000000" fill-rule="nonzero"/>
	<path id="Vector" d="M320.97 360.82L315.66 430.24L313.29 461.34C313.29 461.34 297.81 478.57 280.19 467.94L272.04 430.26L253.38 344.03C248.34 320.72 264.27 298.05 287.92 294.9L320.97 360.82Z" fill="#A0505A" fill-opacity="1.000000" fill-rule="nonzero"/>
	<path id="Vector" d="M292.11 472.88C288.32 472.88 284.15 471.92 279.87 469.34L279.64 469.19L271.21 429.35L272.23 429.67C292.28 435.68 315.28 429.71 315.51 429.65L316.38 429.41L313.92 462.46L313.77 462.63C313.6 462.8 309.75 467.05 303.63 470.06C300.56 471.54 296.58 472.88 292.11 472.88ZM280.76 468.39C287.79 472.54 295.29 472.71 303.04 468.92C308.29 466.33 311.93 462.69 312.67 461.91L314.96 431.06C313.03 431.51 308.04 432.59 301.58 433.18C294.14 433.88 283.24 434.05 272.86 431.17L280.76 468.39Z" fill="#FFFFFF" fill-opacity="1.000000" fill-rule="nonzero"/>
	<path id="Vector" d="M291.33 450.08C289.27 450.08 287.6 448.4 287.6 446.35C287.6 444.3 289.27 442.62 291.33 442.62C293.38 442.62 295.05 444.3 295.05 446.35C295.05 448.4 293.38 450.08 291.33 450.08ZM291.33 443.89C289.97 443.89 288.87 445 288.87 446.35C288.87 447.71 289.97 448.81 291.33 448.81C292.68 448.81 293.78 447.71 293.78 446.35C293.78 445 292.68 443.89 291.33 443.89Z" fill="#FFFFFF" fill-opacity="1.000000" fill-rule="nonzero"/>
	<path id="Vector" d="M310.98 445.33C308.93 445.33 307.25 443.66 307.25 441.61C307.25 439.56 308.93 437.88 310.98 437.88C313.03 437.88 314.71 439.56 314.71 441.61C314.71 443.66 313.03 445.33 310.98 445.33ZM310.98 439.15C309.62 439.15 308.52 440.25 308.52 441.61C308.52 442.96 309.62 444.06 310.98 444.06C312.33 444.06 313.44 442.96 313.44 441.61C313.44 440.25 312.33 439.15 310.98 439.15Z" fill="#FFFFFF" fill-opacity="1.000000" fill-rule="nonzero"/>
	<path id="Vector" d="M279.47 441.14C277.42 441.14 275.74 439.47 275.74 437.42C275.74 435.36 277.42 433.69 279.47 433.69C281.52 433.69 283.2 435.36 283.2 437.42C283.2 439.47 281.52 441.14 279.47 441.14ZM279.47 434.96C278.11 434.96 277.01 436.06 277.01 437.42C277.01 438.77 278.11 439.87 279.47 439.87C280.82 439.87 281.93 438.77 281.93 437.42C281.93 436.06 280.82 434.96 279.47 434.96Z" fill="#FFFFFF" fill-opacity="1.000000" fill-rule="nonzero"/>
	<path id="Vector" d="M288.24 466.91C286.18 466.91 284.51 465.23 284.51 463.18C284.51 461.13 286.18 459.45 288.24 459.45C290.29 459.45 291.96 461.13 291.96 463.18C291.96 465.23 290.29 466.91 288.24 466.91ZM288.24 460.72C286.88 460.72 285.78 461.83 285.78 463.18C285.78 464.54 286.88 465.64 288.24 465.64C289.59 465.64 290.69 464.54 290.69 463.18C290.69 461.83 289.59 460.72 288.24 460.72Z" fill="#FFFFFF" fill-opacity="1.000000" fill-rule="nonzero"/>
	<path id="Vector" d="M302.66 460.72C300.6 460.72 298.93 459.05 298.93 457C298.93 454.95 300.6 453.27 302.66 453.27C304.71 453.27 306.38 454.95 306.38 457C306.38 459.05 304.71 460.72 302.66 460.72ZM302.66 454.54C301.3 454.54 300.2 455.64 300.2 457C300.2 458.35 301.3 459.45 302.66 459.45C304.01 459.45 305.11 458.35 305.11 457C305.11 455.64 304.01 454.54 302.66 454.54Z" fill="#FFFFFF" fill-opacity="1.000000" fill-rule="nonzero"/>
	<path id="Vector" d="M333.7 468.75L313.29 550.36L306.85 550.36C306.55 550.36 306.28 550.34 305.98 550.32C301.11 549.87 297 545.77 295.97 540.92L280.17 467.9C297.79 478.55 313.29 461.32 313.29 461.32L333.7 468.75Z" fill="#66B0F0" fill-opacity="1.000000" fill-rule="nonzero"/>
	<path id="Vector" d="M334.74 510.62C339.04 487.93 340.22 470.59 332.81 469.19C325.4 467.8 312.21 482.85 307.91 505.54C303.61 528.24 305.85 548.31 313.27 549.7C320.68 551.12 330.44 533.34 334.74 510.62Z" fill="#FFFFFF" fill-opacity="1.000000" fill-rule="nonzero"/>
	<path id="Vector" d="M314.11 550.42C313.79 550.42 313.46 550.4 313.14 550.34C309.29 549.62 306.6 544.41 305.56 535.69C304.56 527.28 305.18 516.53 307.27 505.44C309.26 494.96 313.31 485.2 318.67 477.96C323.58 471.33 328.91 467.82 332.92 468.58C336.77 469.3 338.68 473.66 338.78 481.92C338.87 488.65 337.75 498.07 335.35 510.75C333.66 519.68 331.1 528.09 327.94 535.06C324.83 541.93 321.42 546.76 318.09 549.03C316.74 549.94 315.41 550.42 314.11 550.42ZM331.82 469.74C328.43 469.74 323.88 473.09 319.7 478.72C314.45 485.81 310.49 495.38 308.52 505.67C306.45 516.66 305.83 527.26 306.81 535.54C307.76 543.54 310.15 548.48 313.37 549.09C314.6 549.32 315.96 548.94 317.4 547.97C323.9 543.54 330.78 528.15 334.1 510.52C336.5 497.94 337.6 488.59 337.51 481.94C337.43 474.49 335.8 470.42 332.68 469.83C332.41 469.77 332.11 469.74 331.82 469.74Z" fill="#66B0F0" fill-opacity="1.000000" fill-rule="nonzero"/>
	<path id="Vector" d="M304.94 505.18C302.72 516.95 302.06 528.32 303.12 537.21C303.89 543.61 305.5 548.16 307.7 550.36L306.85 550.36C306.55 550.36 306.28 550.34 305.98 550.32C303.99 547.69 302.57 543.29 301.85 537.36C300.77 528.36 301.43 516.85 303.7 504.95C305.83 493.69 310.15 483.12 315.89 475.18C319.32 470.44 322.92 467.12 326.2 465.62L328.11 466.25C320.55 468.49 309.07 483.4 304.94 505.18Z" fill="#FFFFFF" fill-opacity="1.000000" fill-rule="nonzero"/>
	<path id="Vector" d="M287.92 294.88L384.52 284.93L481.08 312L480.26 324.83C478.94 345.07 461.5 360.82 441.21 360.82L321 360.82L287.92 294.88Z" fill="#FE5244" fill-opacity="1.000000" fill-rule="nonzero"/>
	<path id="Vector" d="M436.95 352.57L316.74 352.57C316.38 352.57 316.1 352.29 316.1 351.93C316.1 351.57 316.38 351.3 316.74 351.3L436.95 351.3C446.14 351.3 455.78 346.45 463.4 337.96C470.62 329.91 474.94 319.86 474.94 311.07C474.94 310.71 475.22 310.44 475.58 310.44C475.94 310.44 476.21 310.71 476.21 311.07C476.21 320.18 471.77 330.55 464.35 338.83C456.48 347.55 446.5 352.57 436.95 352.57Z" fill="#FFFFFF" fill-opacity="1.000000" fill-rule="nonzero"/>
	<path id="Vector" d="M427.49 341.98L311.87 341.98C311.51 341.98 311.23 341.71 311.23 341.35C311.23 340.99 311.51 340.71 311.87 340.71L427.49 340.71C435.51 340.71 443.81 336.94 450.82 330.08C457.41 323.65 462.02 315.35 463.49 307.3C463.55 306.96 463.89 306.73 464.23 306.79C464.57 306.86 464.8 307.2 464.74 307.54C461.75 323.82 445.72 341.98 427.49 341.98Z" fill="#FFFFFF" fill-opacity="1.000000" fill-rule="nonzero"/>
	<path id="Vector" d="M417.3 331.18L305.73 331.18C305.37 331.18 305.09 330.91 305.09 330.55C305.09 330.19 305.37 329.91 305.73 329.91L417.3 329.91C432.55 329.91 445.78 316.2 450.51 303.3C450.63 302.96 450.99 302.79 451.31 302.92C451.65 303.05 451.82 303.41 451.69 303.73C449.07 310.9 444.32 317.66 438.31 322.74C431.77 328.26 424.5 331.18 417.3 331.18Z" fill="#FFFFFF" fill-opacity="1.000000" fill-rule="nonzero"/>
	<path id="Vector" d="M411.8 319.54L300.22 319.54C299.86 319.54 299.59 319.26 299.59 318.9C299.59 318.54 299.86 318.27 300.22 318.27L411.8 318.27C422.3 318.27 433.31 311.43 440.55 300.44C440.74 300.15 441.15 300.06 441.44 300.25C441.74 300.44 441.82 300.85 441.63 301.14C434.14 312.49 422.72 319.54 411.8 319.54Z" fill="#FFFFFF" fill-opacity="1.000000" fill-rule="nonzero"/>
	<path id="Vector" d="M406.5 308.96L294.93 308.96C294.57 308.96 294.29 308.68 294.29 308.32C294.29 307.96 294.57 307.68 294.93 307.68L406.5 307.68C414.59 307.68 422.74 303.96 429.46 297.21C429.71 296.95 430.11 296.95 430.35 297.21C430.6 297.46 430.6 297.86 430.35 298.1C423.4 305.1 414.93 308.96 406.5 308.96Z" fill="#FFFFFF" fill-opacity="1.000000" fill-rule="nonzero"/>
	<path id="Vector" d="M400.79 298.16L289.21 298.16C288.85 298.16 288.58 297.88 288.58 297.52C288.58 297.16 288.85 296.89 289.21 296.89L400.79 296.89C405.55 296.89 410.34 295.53 415.04 292.89C415.33 292.72 415.74 292.82 415.9 293.12C416.07 293.42 415.97 293.82 415.67 293.99C410.78 296.76 405.76 298.16 400.79 298.16Z" fill="#FFFFFF" fill-opacity="1.000000" fill-rule="nonzero"/>
	<path id="Vector" d="M320.76 361.46C320.53 361.46 320.3 361.33 320.19 361.1L287.14 295.15C286.99 294.83 287.12 294.45 287.41 294.31C287.73 294.16 288.11 294.28 288.26 294.58L321.31 360.53C321.46 360.84 321.33 361.22 321.04 361.37C320.95 361.44 320.87 361.46 320.76 361.46Z" fill="#FFFFFF" fill-opacity="1.000000" fill-rule="nonzero"/>
	<path id="Vector" d="M486.38 223.64C477.27 226.22 468.31 225.46 467.36 222.68C466.47 220.04 470.5 215.51 478.65 212.5C479.05 212.35 479.47 212.21 479.9 212.06C482.35 211.23 484.81 210.7 487.12 210.43C493.96 209.56 499.53 210.79 500.23 212.86C501.18 215.64 496.01 220.91 486.38 223.64Z" fill="#FFFFFF" fill-opacity="1.000000" fill-rule="nonzero"/>
	<path id="Vector" d="M475.53 225.86C470.92 225.86 467.42 224.82 466.75 222.9C465.6 219.51 470.62 214.79 478.41 211.91C478.82 211.76 479.24 211.61 479.66 211.46L479.68 211.46C482.08 210.66 484.56 210.11 487.03 209.81C494.04 208.92 499.97 210.15 500.82 212.67C501.11 213.5 500.97 214.51 500.42 215.57C498.64 218.96 493.2 222.39 486.55 224.27C482.71 225.33 478.84 225.86 475.53 225.86ZM491.46 210.79C490.17 210.79 488.75 210.87 487.2 211.06C484.81 211.36 482.42 211.89 480.11 212.67C479.68 212.82 479.26 212.97 478.88 213.12C475.2 214.47 472.06 216.27 470.07 218.2C468.4 219.81 467.62 221.41 467.97 222.49C468.67 224.55 476.83 225.69 486.21 223.04C491.39 221.58 497.45 218.51 499.29 214.98C499.67 214.24 499.8 213.58 499.63 213.07C499.25 211.95 496.24 210.79 491.46 210.79Z" fill="#3FB1B5" fill-opacity="1.000000" fill-rule="nonzero"/>
	<path id="Vector" d="M480.62 285.37L477.12 285.37L467.95 223.49L467.95 223.45L467.72 221.9C468.17 219.09 472.57 215.11 480.34 212.52C484.22 211.23 488.07 210.66 491.35 210.6L494.7 219.76L495.02 220.63L505.6 249.66C511.96 266.99 499.1 285.37 480.62 285.37Z" fill="#A0505A" fill-opacity="1.000000" fill-rule="nonzero"/>
	<path id="Vector" d="M494.91 220.42C492.69 221.82 489.81 223.11 486.38 224.08C478.5 226.3 470.52 225.39 467.95 223.49L467.95 223.45L467.72 221.9C468.17 219.09 472.57 215.11 480.34 212.52C484.22 211.23 488.07 210.66 491.35 210.6L494.91 220.42Z" fill="#73325A" fill-opacity="1.000000" fill-rule="nonzero"/>
	<path id="Vector" d="M367.2 234.46L356.08 262.1C350.6 275.76 337.34 284.71 322.6 284.71L173.17 284.71L173.17 271.04C173.17 267.74 175.2 264.77 178.29 263.61L193.65 257.79C195.04 257.26 196.5 256.98 197.99 256.98L215.41 256.98L314.05 247.03L331.08 208.06L367.2 234.46Z" fill="#A0505A" fill-opacity="1.000000" fill-rule="nonzero"/>
	<path id="Vector" d="M173.8 276.82C173.44 276.82 173.17 276.54 173.17 276.18C173.17 273.41 174.84 270.97 177.45 269.98L189.03 265.6C189.35 265.47 189.73 265.64 189.86 265.96C189.98 266.27 189.81 266.66 189.5 266.78L177.91 271.17C175.82 271.97 174.44 273.94 174.44 276.18C174.44 276.54 174.16 276.82 173.8 276.82Z" fill="#73325A" fill-opacity="1.000000" fill-rule="nonzero"/>
	<path id="Vector" d="M173.8 283.8C173.44 283.8 173.17 283.53 173.17 283.17C173.17 280.39 174.84 277.96 177.45 276.97L189.03 272.58C189.35 272.46 189.73 272.63 189.86 272.94C189.98 273.26 189.81 273.64 189.5 273.77L177.91 278.15C175.82 278.96 174.44 280.92 174.44 283.17C174.44 283.53 174.16 283.8 173.8 283.8Z" fill="#73325A" fill-opacity="1.000000" fill-rule="nonzero"/>
	<path id="Vector" d="M177.68 284.71C177.43 284.71 177.17 284.54 177.09 284.29C176.96 283.95 177.13 283.59 177.47 283.49L189.05 279.32C189.39 279.19 189.75 279.36 189.86 279.7C189.98 280.04 189.81 280.4 189.47 280.5L177.89 284.67C177.83 284.69 177.74 284.71 177.68 284.71Z" fill="#73325A" fill-opacity="1.000000" fill-rule="nonzero"/>
	<path id="Vector" d="M188.06 260.14C188.06 260.14 198.9 232.47 202.37 232.93C205.84 233.4 192.76 258.36 192.76 258.36L188.06 260.14Z" fill="#FE5244" fill-opacity="1.000000" fill-rule="nonzero"/>
	<path id="Vector" d="M331.07 208.08L328.58 213.77L360.57 250.93L367.2 234.46L331.07 208.08Z" fill="#73325A" fill-opacity="1.000000" fill-rule="nonzero"/>
	<path id="Vector" d="M467.95 223.51L481.08 312L384.54 284.93L367.2 234.43L322.44 201.73L338.15 183.01C352.17 166.31 372.85 156.65 394.67 156.65L425.69 156.65C452.67 156.65 477.5 171.39 490.44 195.06L500.5 212.46C500.5 212.46 497.47 208.01 481.15 212.48C466.77 216.44 467.95 223.51 467.95 223.51Z" fill="#3FB1B5" fill-opacity="1.000000" fill-rule="nonzero"/>
	<path id="Vector" d="M367.2 234.67C367.16 234.67 367.09 234.67 367.05 234.65C366.71 234.56 366.5 234.22 366.59 233.88L371.6 212.12C371.69 211.78 372.03 211.57 372.37 211.65C372.71 211.74 372.92 212.08 372.83 212.42L367.81 234.18C367.75 234.48 367.5 234.67 367.2 234.67Z" fill="#FFFFFF" fill-opacity="1.000000" fill-rule="nonzero"/>
	<path id="Vector" d="M478.65 291.98C478.35 291.98 478.08 291.76 478.01 291.45L461.69 189.98C461.62 189.64 461.85 189.3 462.22 189.26C462.55 189.19 462.89 189.43 462.93 189.79L479.26 291.26C479.33 291.6 479.09 291.93 478.73 291.98C478.71 291.98 478.69 291.98 478.65 291.98Z" fill="#FFFFFF" fill-opacity="1.000000" fill-rule="nonzero"/>
	<path id="Vector" d="M480.87 312.64C480.81 312.64 480.77 312.64 480.7 312.62L384.35 285.14C384.01 285.03 383.82 284.69 383.91 284.35C384.01 284.01 384.35 283.82 384.69 283.91L481.04 311.39C481.38 311.49 481.57 311.83 481.49 312.17C481.4 312.45 481.15 312.64 480.87 312.64Z" fill="#FFFFFF" fill-opacity="1.000000" fill-rule="nonzero"/>
	<path id="NECK" d="M389.73 142.51L389.73 156.74L414.85 156.53L414.85 131.42L389.73 142.51Z" fill="#A0505A" fill-opacity="1.000000" fill-rule="nonzero"/>
	<path id="Vector" d="M416.88 127.04L416.88 127.42C416.88 131.23 414 134.32 410.19 134.32L408.7 134.32C407.75 138.09 399.28 142.49 393.27 142.49L386.26 142.49C378.59 142.49 372.73 135.61 373.98 128.03L374.32 125.98L372.24 124.81C371.05 124.14 370.72 122.59 371.54 121.49L376.03 115.56L377.01 109.72C377.79 104.91 380.94 101 385.14 99.07C386.79 117.68 403.22 119.88 407.56 120.14L409.98 120.14C413.79 120.14 416.88 123.23 416.88 127.04Z" fill="#A0505A" fill-opacity="1.000000" fill-rule="nonzero"/>
	<path id="Vector" d="M405.76 129.49C405.4 129.49 405.13 129.22 405.13 128.86C405.13 125.51 407.86 122.78 411.2 122.78C411.56 122.78 411.84 123.06 411.84 123.42C411.84 123.78 411.56 124.05 411.2 124.05C408.56 124.05 406.4 126.21 406.4 128.86C406.4 129.22 406.12 129.49 405.76 129.49Z" fill="#73325A" fill-opacity="1.000000" fill-rule="nonzero"/>
	<path id="Vector" d="M383.89 117.83C383.89 119.21 383.4 120.33 382.81 120.33C382.21 120.33 381.73 119.21 381.73 117.83C381.73 116.45 382.21 115.33 382.81 115.33C383.4 115.33 383.89 116.45 383.89 117.83Z" fill="#73325A" fill-opacity="1.000000" fill-rule="evenodd"/>
	<path id="Vector" d="M387.21 114.67C387.02 114.67 386.83 114.59 386.7 114.42C383.89 110.52 381.26 110.74 381.22 110.74C380.86 110.78 380.56 110.52 380.52 110.16C380.48 109.83 380.73 109.51 381.09 109.47C381.22 109.44 384.48 109.19 387.72 113.66C387.93 113.93 387.87 114.33 387.57 114.55C387.47 114.63 387.34 114.67 387.21 114.67Z" fill="#73325A" fill-opacity="1.000000" fill-rule="nonzero"/>
	<path id="Vector" d="M407.56 120.14L409.98 120.14C413.79 120.14 416.88 123.23 416.88 127.04L416.88 127.42C416.88 131.23 414 134.32 410.19 134.32L408.56 135.46C401.7 139.87 392.21 157.18 394.54 169.44C397.16 183.22 409.17 186.29 420.27 184.18C431.36 182.06 439.45 175.6 436.83 161.8C436.53 160.17 436.04 158.54 435.43 156.93C435.62 156.99 435.79 157.06 435.98 157.12C449.32 160.76 464.99 161.18 469.31 150.77C473.63 140.35 472.66 130.04 459.67 124.67C452.14 121.53 441.89 121.55 433.95 123.71C437.95 109.8 430.83 94.33 417.77 92.78C397.25 90.35 385.48 98.82 385.16 99.05C385.14 101.51 386.81 118.93 407.56 120.14Z" fill="#73325A" fill-opacity="1.000000" fill-rule="nonzero"/>
	<path id="Vector" d="M435.98 157.78C435.68 157.78 435.41 157.56 435.37 157.27C433.12 145.52 423.51 139.04 423.4 138.98C423.23 138.87 423.13 138.66 423.13 138.45C423.13 138.24 423.23 138.05 423.4 137.92C429.97 133.28 432.8 126.59 433.9 123.04C434.01 122.7 434.37 122.51 434.69 122.61C435.03 122.72 435.22 123.08 435.11 123.4C434.01 126.99 431.21 133.6 424.84 138.43C427.23 140.23 434.62 146.53 436.61 157.02C436.68 157.35 436.44 157.69 436.11 157.75C436.06 157.78 436.02 157.78 435.98 157.78Z" fill="#FFFFFF" fill-opacity="1.000000" fill-rule="nonzero"/>
	<path id="Vector" d="M440.24 123.4L434.62 123.4C434.26 123.4 433.99 123.12 433.99 122.76L433.99 117.15C433.99 113.87 436.66 111.2 439.94 111.2L440.24 111.2C443.52 111.2 446.19 113.87 446.19 117.15L446.19 117.45C446.21 119.01 445.59 120.52 444.47 121.64C443.35 122.76 441.85 123.4 440.24 123.4ZM435.26 122.13L440.24 122.13C441.51 122.13 442.67 121.64 443.56 120.73C444.43 119.84 444.92 118.68 444.92 117.45L444.92 117.15C444.92 114.57 442.82 112.47 440.24 112.47L439.94 112.47C437.36 112.47 435.26 114.57 435.26 117.15L435.26 122.13Z" fill="#FE5244" fill-opacity="1.000000" fill-rule="nonzero"/>
	<path id="Vector" d="M443.37 131.99C441.1 131.99 438.92 130.89 437.63 128.86L434.03 123.14C433.84 122.85 433.93 122.44 434.22 122.27L439.94 118.67C441.46 117.72 443.28 117.4 445.04 117.81C446.8 118.21 448.3 119.27 449.28 120.79L449.62 121.32C450.59 122.85 450.89 124.67 450.48 126.42C450.08 128.18 449.02 129.68 447.5 130.66L446.97 131C445.87 131.65 444.62 131.99 443.37 131.99ZM435.45 122.99L438.71 128.18C440.32 130.72 443.73 131.48 446.31 129.87L446.84 129.53C448.09 128.75 448.94 127.55 449.26 126.11C449.57 124.67 449.32 123.21 448.54 121.96L448.2 121.43C447.41 120.18 446.21 119.33 444.77 119.01C443.33 118.7 441.87 118.95 440.62 119.73L435.45 122.99Z" fill="#FE5244" fill-opacity="1.000000" fill-rule="nonzero"/>
	<path id="Vector" d="M408.68 148.93C408.54 148.93 408.39 148.93 408.24 148.91C406.65 148.78 405.21 148.06 404.17 146.85L403.98 146.62C402.94 145.43 402.44 143.91 402.54 142.34C402.65 140.75 403.37 139.29 404.58 138.26L408.56 134.45C408.68 134.32 408.85 134.25 409.02 134.28C409.19 134.28 409.36 134.36 409.47 134.49L413.38 138.91C414.42 140.12 414.95 141.67 414.82 143.25C414.7 144.84 413.98 146.28 412.77 147.32L412.52 147.51C411.48 148.42 410.12 148.93 408.68 148.93ZM408.98 135.8L405.46 139.17L405.44 139.19C404.49 140.01 403.92 141.16 403.83 142.43C403.75 143.68 404.15 144.86 404.96 145.79C404.96 145.79 404.96 145.81 404.98 145.81L405.17 146.05C405.97 146.98 407.1 147.55 408.34 147.66C409.59 147.74 410.8 147.34 411.75 146.53L412.01 146.32C412.94 145.52 413.51 144.39 413.62 143.15C413.7 141.9 413.3 140.69 412.5 139.74L408.98 135.8Z" fill="#FE5244" fill-opacity="1.000000" fill-rule="nonzero"/>
	<path id="Vector" d="M416.79 146.6C413.83 146.6 411.1 144.63 410.25 141.64L408.45 135.14C408.37 134.81 408.56 134.47 408.9 134.36L415.4 132.56C417.13 132.08 418.95 132.31 420.52 133.18C422.09 134.07 423.23 135.5 423.72 137.24L423.89 137.85C424.37 139.59 424.14 141.41 423.27 142.98C422.38 144.54 420.94 145.69 419.21 146.17L418.59 146.34C417.98 146.53 417.39 146.6 416.79 146.6ZM411.48 141.31C412.3 144.21 415.33 145.94 418.23 145.14L418.85 144.97C420.27 144.57 421.43 143.66 422.15 142.39C422.87 141.12 423.04 139.63 422.66 138.22L422.49 137.6C422.09 136.18 421.18 135.02 419.91 134.3C418.64 133.58 417.15 133.41 415.73 133.79L409.85 135.42L411.48 141.31Z" fill="#FE5244" fill-opacity="1.000000" fill-rule="nonzero"/>
	<path id="Vector" d="M316.19 550.34C316.15 550.34 316.1 550.34 316.06 550.32C315.72 550.26 315.49 549.92 315.57 549.56L352.46 376.95C352.53 376.62 352.86 376.38 353.22 376.47C353.56 376.53 353.8 376.87 353.71 377.23L316.8 549.83C316.74 550.13 316.49 550.34 316.19 550.34Z" fill="#FFCF2D" fill-opacity="1.000000" fill-rule="nonzero"/>
	<path id="Vector" d="M484.36 550.34C484.07 550.34 483.81 550.13 483.75 549.83L446.86 377.23C446.8 376.89 447.01 376.55 447.35 376.47C447.69 376.4 448.03 376.61 448.11 376.95L485 549.56C485.06 549.89 484.85 550.23 484.51 550.32C484.45 550.34 484.41 550.34 484.36 550.34Z" fill="#FFCF2D" fill-opacity="1.000000" fill-rule="nonzero"/>
	<path id="Vector" d="M475.68 512.02L324.36 512.02C324 512.02 323.73 511.75 323.73 511.39C323.73 511.03 324 510.75 324.36 510.75L475.68 510.75C476.04 510.75 476.32 511.03 476.32 511.39C476.32 511.75 476.04 512.02 475.68 512.02Z" fill="#FFCF2D" fill-opacity="1.000000" fill-rule="nonzero"/>
	<path id="Vector" d="M476.51 377.1L324.02 377.1C322.1 377.1 320.53 375.54 320.53 373.61L320.53 364.31C320.53 362.39 322.1 360.82 324.02 360.82L476.51 360.82C478.44 360.82 480 362.39 480 364.31L480 373.61C480 375.54 478.44 377.1 476.51 377.1Z" fill="#FFFFFF" fill-opacity="1.000000" fill-rule="nonzero"/>
	<path id="Vector" d="M476.51 377.74L324.02 377.74C321.74 377.74 319.89 375.9 319.89 373.61L319.89 364.31C319.89 362.03 321.74 360.19 324.02 360.19L476.51 360.19C478.8 360.19 480.64 362.03 480.64 364.31L480.64 373.61C480.64 375.9 478.8 377.74 476.51 377.74ZM324.02 361.46C322.46 361.46 321.16 362.75 321.16 364.31L321.16 373.61C321.16 375.18 322.46 376.47 324.02 376.47L476.51 376.47C478.08 376.47 479.37 375.18 479.37 373.61L479.37 364.31C479.37 362.75 478.08 361.46 476.51 361.46L324.02 361.46Z" fill="#66B0F0" fill-opacity="1.000000" fill-rule="nonzero"/>
</svg>
