<svg width="1920.000000" height="3226.000000" viewBox="0 0 1920 3226" fill="none" xmlns="http://www.w3.org/2000/svg" xmlns:xlink="http://www.w3.org/1999/xlink">
	<desc>
			Created with Pixso.
	</desc>
	<defs>
		<clipPath id="clip2355_2270">
			<rect id="circles" width="242.000000" height="242.000000" transform="translate(1778.000000 1845.000000)" fill="white" fill-opacity="0"/>
		</clipPath>
		<clipPath id="clip2492_20164">
			<rect id="Background" width="1920.000000" height="3226.000000" fill="white" fill-opacity="0"/>
		</clipPath>
	</defs>
	<rect id="Background" width="1920.000000" height="3226.000000" fill="#FFFFFF" fill-opacity="0"/>
	<g clip-path="url(#clip2492_20164)">
		<g opacity="0.200000">
			<path id="Vector" d="M177.47 2778.5L187 2778.5L187 2753L161.54 2753L161.54 2762.59L177.47 2762.59L177.47 2778.5Z" fill="#FFCF2D" fill-opacity="1.000000" fill-rule="nonzero"/>
			<path id="Vector" d="M160.16 2795.71L169.76 2795.71L169.76 2770.29L144.23 2770.29L144.23 2779.8L160.16 2779.8L160.16 2795.71Z" fill="#FFCF2D" fill-opacity="1.000000" fill-rule="nonzero"/>
			<path id="Vector" d="M142.92 2813L152.52 2813L152.52 2787.5L127 2787.5L127 2797.09L142.92 2797.09L142.92 2813Z" fill="#FFCF2D" fill-opacity="1.000000" fill-rule="nonzero"/>
		</g>
		<g opacity="0.120000">
			<g clip-path="url(#clip2355_2270)">
				<path id="Vector" d="M1899.08 1845C1832.15 1845 1778 1899.15 1778 1966.08C1778 2032.85 1832.15 2087.17 1899.08 2087.17C1965.85 2087.17 2020.17 2033.02 2020.17 1966.08C2020 1899.15 1965.85 1845 1899.08 1845ZM1899.08 2079.36C1836.47 2079.36 1785.81 2028.7 1785.81 1966.08C1785.81 1903.46 1836.47 1852.81 1899.08 1852.81C1961.7 1852.81 2012.36 1903.46 2012.36 1966.08C2012.36 2028.54 1961.53 2079.36 1899.08 2079.36Z" fill="#FFCF2D" fill-opacity="1.000000" fill-rule="nonzero"/>
				<path id="Vector" d="M1899.08 1871.08C1846.76 1871.08 1804.24 1913.6 1804.24 1965.92C1804.24 2018.24 1846.76 2060.76 1899.08 2060.76C1951.4 2060.76 1993.92 2018.4 1993.92 1966.08C1993.92 1913.6 1951.4 1871.08 1899.08 1871.08ZM1899.08 2046.31C1854.74 2046.31 1818.69 2010.26 1818.69 1965.92C1818.69 1921.57 1854.74 1885.53 1899.08 1885.53C1943.43 1885.53 1979.47 1921.57 1979.47 1965.92C1979.47 2010.26 1943.43 2046.31 1899.08 2046.31Z" fill="#FFCF2D" fill-opacity="1.000000" fill-rule="nonzero"/>
			</g>
		</g>
		<g opacity="0.800000"/>
		<path id="Vector" d="M147.88 1515.71C147.88 1516.98 147.04 1517.93 145.94 1517.93C144.83 1517.93 144 1516.98 144 1515.71C144 1514.43 144.83 1513.48 145.94 1513.48C147.04 1513.48 147.88 1514.54 147.88 1515.71Z" fill="#FFCF2D" fill-opacity="1.000000" fill-rule="nonzero"/>
		<path id="Vector" d="M164.41 1515.71C164.41 1516.98 163.58 1517.93 162.47 1517.93C161.37 1517.93 160.53 1516.98 160.53 1515.71C160.53 1514.43 161.37 1513.48 162.47 1513.48C163.49 1513.48 164.41 1514.54 164.41 1515.71Z" fill="#FFCF2D" fill-opacity="1.000000" fill-rule="nonzero"/>
		<path id="Vector" d="M180.86 1515.71C180.86 1516.98 180.03 1517.93 178.92 1517.93C177.81 1517.93 176.98 1516.98 176.98 1515.71C176.98 1514.43 177.81 1513.48 178.92 1513.48C180.03 1513.48 180.86 1514.54 180.86 1515.71Z" fill="#FFCF2D" fill-opacity="1.000000" fill-rule="nonzero"/>
		<path id="Vector" d="M197.4 1515.71C197.4 1516.98 196.57 1517.93 195.46 1517.93C194.35 1517.93 193.52 1516.98 193.52 1515.71C193.52 1514.43 194.35 1513.48 195.46 1513.48C196.57 1513.48 197.4 1514.54 197.4 1515.71Z" fill="#FFCF2D" fill-opacity="1.000000" fill-rule="nonzero"/>
		<path id="Vector" d="M213.94 1515.71C213.94 1516.98 213.1 1517.93 212 1517.93C210.89 1517.93 210.06 1516.98 210.06 1515.71C210.06 1514.43 210.89 1513.48 212 1513.48C213.01 1513.48 213.94 1514.54 213.94 1515.71Z" fill="#FFCF2D" fill-opacity="1.000000" fill-rule="nonzero"/>
		<path id="Vector" d="M230.47 1515.71C230.47 1516.98 229.64 1517.93 228.53 1517.93C227.42 1517.93 226.59 1516.98 226.59 1515.71C226.59 1514.43 227.42 1513.48 228.53 1513.48C229.64 1513.48 230.47 1514.54 230.47 1515.71Z" fill="#FFCF2D" fill-opacity="1.000000" fill-rule="nonzero"/>
		<path id="Vector" d="M246.92 1515.71C246.92 1516.98 246.09 1517.93 244.98 1517.93C243.87 1517.93 243.04 1516.98 243.04 1515.71C243.04 1514.43 243.87 1513.48 244.98 1513.48C246.09 1513.48 246.92 1514.54 246.92 1515.71Z" fill="#FFCF2D" fill-opacity="1.000000" fill-rule="nonzero"/>
		<path id="Vector" d="M263.46 1515.71C263.46 1516.98 262.63 1517.93 261.52 1517.93C260.41 1517.93 259.58 1516.98 259.58 1515.71C259.58 1514.43 260.41 1513.48 261.52 1513.48C262.63 1513.48 263.46 1514.54 263.46 1515.71Z" fill="#FFCF2D" fill-opacity="1.000000" fill-rule="nonzero"/>
		<path id="Vector" d="M280 1515.71C280 1516.98 279.16 1517.93 278.06 1517.93C276.95 1517.93 276.12 1516.98 276.12 1515.71C276.12 1514.43 276.95 1513.48 278.06 1513.48C279.07 1513.48 280 1514.54 280 1515.71Z" fill="#FFCF2D" fill-opacity="1.000000" fill-rule="nonzero"/>
		<path id="Vector" d="M147.88 1531.5C147.88 1532.77 147.04 1533.72 145.94 1533.72C144.83 1533.72 144 1532.77 144 1531.5C144 1530.22 144.83 1529.27 145.94 1529.27C147.04 1529.27 147.88 1530.22 147.88 1531.5Z" fill="#FFCF2D" fill-opacity="1.000000" fill-rule="nonzero"/>
		<path id="Vector" d="M164.41 1531.5C164.41 1532.77 163.58 1533.72 162.47 1533.72C161.37 1533.72 160.53 1532.77 160.53 1531.5C160.53 1530.22 161.37 1529.27 162.47 1529.27C163.49 1529.27 164.41 1530.22 164.41 1531.5Z" fill="#FFCF2D" fill-opacity="1.000000" fill-rule="nonzero"/>
		<path id="Vector" d="M180.86 1531.5C180.86 1532.77 180.03 1533.72 178.92 1533.72C177.81 1533.72 176.98 1532.77 176.98 1531.5C176.98 1530.22 177.81 1529.27 178.92 1529.27C180.03 1529.27 180.86 1530.22 180.86 1531.5Z" fill="#FFCF2D" fill-opacity="1.000000" fill-rule="nonzero"/>
		<path id="Vector" d="M197.4 1531.5C197.4 1532.77 196.57 1533.72 195.46 1533.72C194.35 1533.72 193.52 1532.77 193.52 1531.5C193.52 1530.22 194.35 1529.27 195.46 1529.27C196.57 1529.27 197.4 1530.22 197.4 1531.5Z" fill="#FFCF2D" fill-opacity="1.000000" fill-rule="nonzero"/>
		<path id="Vector" d="M213.94 1531.5C213.94 1532.77 213.1 1533.72 212 1533.72C210.89 1533.72 210.06 1532.77 210.06 1531.5C210.06 1530.22 210.89 1529.27 212 1529.27C213.01 1529.27 213.94 1530.22 213.94 1531.5Z" fill="#FFCF2D" fill-opacity="1.000000" fill-rule="nonzero"/>
		<path id="Vector" d="M230.47 1531.5C230.47 1532.77 229.64 1533.72 228.53 1533.72C227.42 1533.72 226.59 1532.77 226.59 1531.5C226.59 1530.22 227.42 1529.27 228.53 1529.27C229.64 1529.27 230.47 1530.22 230.47 1531.5Z" fill="#FFCF2D" fill-opacity="1.000000" fill-rule="nonzero"/>
		<path id="Vector" d="M246.92 1531.5C246.92 1532.77 246.09 1533.72 244.98 1533.72C243.87 1533.72 243.04 1532.77 243.04 1531.5C243.04 1530.22 243.87 1529.27 244.98 1529.27C246.09 1529.27 246.92 1530.22 246.92 1531.5Z" fill="#FFCF2D" fill-opacity="1.000000" fill-rule="nonzero"/>
		<path id="Vector" d="M263.46 1531.5C263.46 1532.77 262.63 1533.72 261.52 1533.72C260.41 1533.72 259.58 1532.77 259.58 1531.5C259.58 1530.22 260.41 1529.27 261.52 1529.27C262.63 1529.27 263.46 1530.22 263.46 1531.5Z" fill="#FFCF2D" fill-opacity="1.000000" fill-rule="nonzero"/>
		<path id="Vector" d="M280 1531.5C280 1532.77 279.16 1533.72 278.06 1533.72C276.95 1533.72 276.12 1532.77 276.12 1531.5C276.12 1530.22 276.95 1529.27 278.06 1529.27C279.07 1529.27 280 1530.22 280 1531.5Z" fill="#FFCF2D" fill-opacity="1.000000" fill-rule="nonzero"/>
		<path id="Vector" d="M147.88 1484.23C147.88 1485.5 147.04 1486.45 145.94 1486.45C144.83 1486.45 144 1485.5 144 1484.23C144 1482.95 144.83 1482 145.94 1482C147.04 1482 147.88 1482.95 147.88 1484.23Z" fill="#FFCF2D" fill-opacity="1.000000" fill-rule="nonzero"/>
		<path id="Vector" d="M164.41 1484.23C164.41 1485.5 163.58 1486.45 162.47 1486.45C161.37 1486.45 160.53 1485.5 160.53 1484.23C160.53 1482.95 161.37 1482 162.47 1482C163.49 1482 164.41 1482.95 164.41 1484.23Z" fill="#FFCF2D" fill-opacity="1.000000" fill-rule="nonzero"/>
		<path id="Vector" d="M180.86 1484.23C180.86 1485.5 180.03 1486.45 178.92 1486.45C177.81 1486.45 176.98 1485.5 176.98 1484.23C176.98 1482.95 177.9 1482 178.92 1482C180.03 1482 180.86 1482.95 180.86 1484.23Z" fill="#FFCF2D" fill-opacity="1.000000" fill-rule="nonzero"/>
		<path id="Vector" d="M197.4 1484.23C197.4 1485.5 196.57 1486.45 195.46 1486.45C194.35 1486.45 193.52 1485.5 193.52 1484.23C193.52 1482.95 194.44 1482 195.46 1482C196.47 1482 197.4 1482.95 197.4 1484.23Z" fill="#FFCF2D" fill-opacity="1.000000" fill-rule="nonzero"/>
		<path id="Vector" d="M213.94 1484.23C213.94 1485.5 213.1 1486.45 212 1486.45C210.89 1486.45 210.06 1485.5 210.06 1484.23C210.06 1482.95 210.89 1482 212 1482C213.01 1482 213.94 1482.95 213.94 1484.23Z" fill="#FFCF2D" fill-opacity="1.000000" fill-rule="nonzero"/>
		<path id="Vector" d="M230.47 1484.23C230.47 1485.5 229.64 1486.45 228.53 1486.45C227.42 1486.45 226.59 1485.5 226.59 1484.23C226.59 1482.95 227.42 1482 228.53 1482C229.64 1482 230.47 1482.95 230.47 1484.23Z" fill="#FFCF2D" fill-opacity="1.000000" fill-rule="nonzero"/>
		<path id="Vector" d="M246.92 1484.23C246.92 1485.5 246.09 1486.45 244.98 1486.45C243.87 1486.45 243.04 1485.5 243.04 1484.23C243.04 1482.95 243.87 1482 244.98 1482C246.09 1482 246.92 1482.95 246.92 1484.23Z" fill="#FFCF2D" fill-opacity="1.000000" fill-rule="nonzero"/>
		<path id="Vector" d="M263.46 1484.23C263.46 1485.5 262.63 1486.45 261.52 1486.45C260.41 1486.45 259.58 1485.5 259.58 1484.23C259.58 1482.95 260.41 1482 261.52 1482C262.63 1482 263.46 1482.95 263.46 1484.23Z" fill="#FFCF2D" fill-opacity="1.000000" fill-rule="nonzero"/>
		<path id="Vector" d="M280 1484.23C280 1485.5 279.16 1486.45 278.06 1486.45C276.95 1486.45 276.12 1485.5 276.12 1484.23C276.12 1482.95 276.95 1482 278.06 1482C279.07 1482 280 1482.95 280 1484.23Z" fill="#FFCF2D" fill-opacity="1.000000" fill-rule="nonzero"/>
		<path id="Vector" d="M147.88 1500.02C147.88 1501.29 147.04 1502.24 145.94 1502.24C144.83 1502.24 144 1501.19 144 1500.02C144 1498.75 144.83 1497.79 145.94 1497.79C147.04 1497.79 147.88 1498.75 147.88 1500.02Z" fill="#FFCF2D" fill-opacity="1.000000" fill-rule="nonzero"/>
		<path id="Vector" d="M164.41 1500.02C164.41 1501.29 163.58 1502.24 162.47 1502.24C161.37 1502.24 160.53 1501.29 160.53 1500.02C160.53 1498.75 161.37 1497.79 162.47 1497.79C163.49 1497.79 164.41 1498.75 164.41 1500.02Z" fill="#FFCF2D" fill-opacity="1.000000" fill-rule="nonzero"/>
		<path id="Vector" d="M180.86 1500.02C180.86 1501.29 180.03 1502.24 178.92 1502.24C177.81 1502.24 176.98 1501.29 176.98 1500.02C176.98 1498.75 177.81 1497.79 178.92 1497.79C180.03 1497.79 180.86 1498.75 180.86 1500.02Z" fill="#FFCF2D" fill-opacity="1.000000" fill-rule="nonzero"/>
		<path id="Vector" d="M197.4 1500.02C197.4 1501.29 196.57 1502.24 195.46 1502.24C194.35 1502.24 193.52 1501.29 193.52 1500.02C193.52 1498.75 194.35 1497.79 195.46 1497.79C196.57 1497.79 197.4 1498.75 197.4 1500.02Z" fill="#FFCF2D" fill-opacity="1.000000" fill-rule="nonzero"/>
		<path id="Vector" d="M213.94 1500.02C213.94 1501.29 213.1 1502.24 212 1502.24C210.89 1502.24 210.06 1501.29 210.06 1500.02C210.06 1498.75 210.89 1497.79 212 1497.79C213.01 1497.79 213.94 1498.75 213.94 1500.02Z" fill="#FFCF2D" fill-opacity="1.000000" fill-rule="nonzero"/>
		<path id="Vector" d="M230.47 1500.02C230.47 1501.29 229.64 1502.24 228.53 1502.24C227.42 1502.24 226.59 1501.29 226.59 1500.02C226.59 1498.75 227.42 1497.79 228.53 1497.79C229.64 1497.79 230.47 1498.75 230.47 1500.02Z" fill="#FFCF2D" fill-opacity="1.000000" fill-rule="nonzero"/>
		<path id="Vector" d="M246.92 1500.02C246.92 1501.29 246.09 1502.24 244.98 1502.24C243.87 1502.24 243.04 1501.29 243.04 1500.02C243.04 1498.75 243.87 1497.79 244.98 1497.79C246.09 1497.79 246.92 1498.75 246.92 1500.02Z" fill="#FFCF2D" fill-opacity="1.000000" fill-rule="nonzero"/>
		<path id="Vector" d="M263.46 1500.02C263.46 1501.29 262.63 1502.24 261.52 1502.24C260.41 1502.24 259.58 1501.29 259.58 1500.02C259.58 1498.75 260.41 1497.79 261.52 1497.79C262.63 1497.79 263.46 1498.75 263.46 1500.02Z" fill="#FFCF2D" fill-opacity="1.000000" fill-rule="nonzero"/>
		<path id="Vector" d="M280 1500.02C280 1501.29 279.16 1502.24 278.06 1502.24C276.95 1502.24 276.12 1501.29 276.12 1500.02C276.12 1498.75 276.95 1497.79 278.06 1497.79C279.07 1497.79 280 1498.75 280 1500.02Z" fill="#FFCF2D" fill-opacity="1.000000" fill-rule="nonzero"/>
		<path id="Vector" d="M147.88 1547.19C147.88 1548.46 147.04 1549.41 145.94 1549.41C144.83 1549.41 144 1548.46 144 1547.19C144 1545.91 144.83 1544.96 145.94 1544.96C147.04 1544.96 147.88 1546.02 147.88 1547.19Z" fill="#FFCF2D" fill-opacity="1.000000" fill-rule="nonzero"/>
		<path id="Vector" d="M164.41 1547.19C164.41 1548.46 163.58 1549.41 162.47 1549.41C161.37 1549.41 160.53 1548.46 160.53 1547.19C160.53 1545.91 161.37 1544.96 162.47 1544.96C163.49 1544.96 164.41 1546.02 164.41 1547.19Z" fill="#FFCF2D" fill-opacity="1.000000" fill-rule="nonzero"/>
		<path id="Vector" d="M180.86 1547.19C180.86 1548.46 180.03 1549.41 178.92 1549.41C177.81 1549.41 176.98 1548.46 176.98 1547.19C176.98 1545.91 177.81 1544.96 178.92 1544.96C180.03 1544.96 180.86 1546.02 180.86 1547.19Z" fill="#FFCF2D" fill-opacity="1.000000" fill-rule="nonzero"/>
		<path id="Vector" d="M197.4 1547.19C197.4 1548.46 196.57 1549.41 195.46 1549.41C194.35 1549.41 193.52 1548.46 193.52 1547.19C193.52 1545.91 194.35 1544.96 195.46 1544.96C196.57 1544.96 197.4 1546.02 197.4 1547.19Z" fill="#FFCF2D" fill-opacity="1.000000" fill-rule="nonzero"/>
		<path id="Vector" d="M213.94 1547.19C213.94 1548.46 213.1 1549.41 212 1549.41C210.89 1549.41 210.06 1548.46 210.06 1547.19C210.06 1545.91 210.89 1544.96 212 1544.96C213.01 1544.96 213.94 1546.02 213.94 1547.19Z" fill="#FFCF2D" fill-opacity="1.000000" fill-rule="nonzero"/>
		<path id="Vector" d="M230.47 1547.19C230.47 1548.46 229.64 1549.41 228.53 1549.41C227.42 1549.41 226.59 1548.46 226.59 1547.19C226.59 1545.91 227.42 1544.96 228.53 1544.96C229.64 1544.96 230.47 1546.02 230.47 1547.19Z" fill="#FFCF2D" fill-opacity="1.000000" fill-rule="nonzero"/>
		<path id="Vector" d="M246.92 1547.19C246.92 1548.46 246.09 1549.41 244.98 1549.41C243.87 1549.41 243.04 1548.46 243.04 1547.19C243.04 1545.91 243.87 1544.96 244.98 1544.96C246.09 1544.96 246.92 1546.02 246.92 1547.19Z" fill="#FFCF2D" fill-opacity="1.000000" fill-rule="nonzero"/>
		<path id="Vector" d="M263.46 1547.19C263.46 1548.46 262.63 1549.41 261.52 1549.41C260.41 1549.41 259.58 1548.46 259.58 1547.19C259.58 1545.91 260.41 1544.96 261.52 1544.96C262.63 1544.96 263.46 1546.02 263.46 1547.19Z" fill="#FFCF2D" fill-opacity="1.000000" fill-rule="nonzero"/>
		<path id="Vector" d="M280 1547.19C280 1548.46 279.16 1549.41 278.06 1549.41C276.95 1549.41 276.12 1548.46 276.12 1547.19C276.12 1545.91 276.95 1544.96 278.06 1544.96C279.07 1544.96 280 1546.02 280 1547.19Z" fill="#FFCF2D" fill-opacity="1.000000" fill-rule="nonzero"/>
		<path id="Vector" d="M147.88 1562.98C147.88 1564.25 147.04 1565.2 145.94 1565.2C144.83 1565.2 144 1564.25 144 1562.98C144 1561.71 144.83 1560.75 145.94 1560.75C147.04 1560.75 147.88 1561.71 147.88 1562.98Z" fill="#FFCF2D" fill-opacity="1.000000" fill-rule="nonzero"/>
		<path id="Vector" d="M164.41 1562.98C164.41 1564.25 163.58 1565.2 162.47 1565.2C161.37 1565.2 160.53 1564.25 160.53 1562.98C160.53 1561.71 161.37 1560.75 162.47 1560.75C163.49 1560.75 164.41 1561.71 164.41 1562.98Z" fill="#FFCF2D" fill-opacity="1.000000" fill-rule="nonzero"/>
		<path id="Vector" d="M180.86 1562.98C180.86 1564.25 180.03 1565.2 178.92 1565.2C177.81 1565.2 176.98 1564.25 176.98 1562.98C176.98 1561.71 177.81 1560.75 178.92 1560.75C180.03 1560.75 180.86 1561.71 180.86 1562.98Z" fill="#FFCF2D" fill-opacity="1.000000" fill-rule="nonzero"/>
		<path id="Vector" d="M197.4 1562.98C197.4 1564.21 196.53 1565.2 195.46 1565.2C194.39 1565.2 193.52 1564.21 193.52 1562.98C193.52 1561.75 194.39 1560.75 195.46 1560.75C196.53 1560.75 197.4 1561.75 197.4 1562.98Z" fill="#FFCF2D" fill-opacity="1.000000" fill-rule="evenodd"/>
		<path id="Vector" d="M213.94 1562.98C213.94 1564.25 213.1 1565.2 212 1565.2C210.89 1565.2 210.06 1564.25 210.06 1562.98C210.06 1561.7 210.89 1560.75 212 1560.75C213.01 1560.75 213.94 1561.7 213.94 1562.98Z" fill="#FFCF2D" fill-opacity="1.000000" fill-rule="nonzero"/>
		<path id="Vector" d="M230.47 1562.98C230.47 1564.25 229.64 1565.2 228.53 1565.2C227.42 1565.2 226.59 1564.25 226.59 1562.98C226.59 1561.71 227.42 1560.75 228.53 1560.75C229.64 1560.75 230.47 1561.71 230.47 1562.98Z" fill="#FFCF2D" fill-opacity="1.000000" fill-rule="nonzero"/>
		<path id="Vector" d="M246.92 1562.98C246.92 1564.25 246.09 1565.2 244.98 1565.2C243.87 1565.2 243.04 1564.25 243.04 1562.98C243.04 1561.71 243.87 1560.75 244.98 1560.75C246.09 1560.75 246.92 1561.71 246.92 1562.98Z" fill="#FFCF2D" fill-opacity="1.000000" fill-rule="nonzero"/>
		<path id="Vector" d="M263.46 1562.98C263.46 1564.21 262.59 1565.2 261.52 1565.2C260.45 1565.2 259.58 1564.21 259.58 1562.98C259.58 1561.75 260.45 1560.75 261.52 1560.75C262.59 1560.75 263.46 1561.75 263.46 1562.98Z" fill="#FFCF2D" fill-opacity="1.000000" fill-rule="evenodd"/>
		<path id="Vector" d="M280 1562.98C280 1564.25 279.16 1565.2 278.06 1565.2C276.95 1565.2 276.12 1564.25 276.12 1562.98C276.12 1561.71 276.95 1560.75 278.06 1560.75C279.07 1560.75 280 1561.71 280 1562.98Z" fill="#FFCF2D" fill-opacity="1.000000" fill-rule="nonzero"/>
		<path id="Vector" d="M147.88 1578.77C147.88 1580.04 147.04 1580.99 145.94 1580.99C144.83 1580.99 144 1580.04 144 1578.77C144 1577.5 144.83 1576.54 145.94 1576.54C147.04 1576.54 147.88 1577.5 147.88 1578.77Z" fill="#FFCF2D" fill-opacity="1.000000" fill-rule="nonzero"/>
		<path id="Vector" d="M164.41 1578.77C164.41 1580.04 163.58 1580.99 162.47 1580.99C161.37 1580.99 160.53 1580.04 160.53 1578.77C160.53 1577.5 161.37 1576.54 162.47 1576.54C163.49 1576.54 164.41 1577.5 164.41 1578.77Z" fill="#FFCF2D" fill-opacity="1.000000" fill-rule="nonzero"/>
		<path id="Vector" d="M180.86 1578.77C180.86 1580.04 180.03 1580.99 178.92 1580.99C177.81 1580.99 176.98 1580.04 176.98 1578.77C176.98 1577.5 177.81 1576.54 178.92 1576.54C180.03 1576.54 180.86 1577.5 180.86 1578.77Z" fill="#FFCF2D" fill-opacity="1.000000" fill-rule="nonzero"/>
		<path id="Vector" d="M197.4 1578.77C197.4 1580.04 196.57 1580.99 195.46 1580.99C194.35 1580.99 193.52 1580.04 193.52 1578.77C193.52 1577.5 194.35 1576.54 195.46 1576.54C196.57 1576.54 197.4 1577.5 197.4 1578.77Z" fill="#FFCF2D" fill-opacity="1.000000" fill-rule="nonzero"/>
		<path id="Vector" d="M213.94 1578.77C213.94 1580.04 213.1 1580.99 212 1580.99C210.89 1580.99 210.06 1580.04 210.06 1578.77C210.06 1577.5 210.89 1576.54 212 1576.54C213.01 1576.54 213.94 1577.5 213.94 1578.77Z" fill="#FFCF2D" fill-opacity="1.000000" fill-rule="nonzero"/>
		<path id="Vector" d="M230.47 1578.77C230.47 1580.04 229.64 1580.99 228.53 1580.99C227.42 1580.99 226.59 1580.04 226.59 1578.77C226.59 1577.5 227.42 1576.54 228.53 1576.54C229.64 1576.54 230.47 1577.5 230.47 1578.77Z" fill="#FFCF2D" fill-opacity="1.000000" fill-rule="nonzero"/>
		<path id="Vector" d="M246.92 1578.77C246.92 1580.04 246.09 1580.99 244.98 1580.99C243.87 1580.99 243.04 1580.04 243.04 1578.77C243.04 1577.5 243.87 1576.54 244.98 1576.54C246.09 1576.54 246.92 1577.5 246.92 1578.77Z" fill="#FFCF2D" fill-opacity="1.000000" fill-rule="nonzero"/>
		<path id="Vector" d="M263.46 1578.77C263.46 1580.04 262.63 1580.99 261.52 1580.99C260.41 1580.99 259.58 1580.04 259.58 1578.77C259.58 1577.5 260.41 1576.54 261.52 1576.54C262.63 1576.54 263.46 1577.5 263.46 1578.77Z" fill="#FFCF2D" fill-opacity="1.000000" fill-rule="nonzero"/>
		<path id="Vector" d="M280 1578.77C280 1580.04 279.16 1580.99 278.06 1580.99C276.95 1580.99 276.12 1580.04 276.12 1578.77C276.12 1577.5 276.95 1576.54 278.06 1576.54C279.07 1576.54 280 1577.5 280 1578.77Z" fill="#FFCF2D" fill-opacity="1.000000" fill-rule="nonzero"/>
		<path id="Vector" d="M147.88 1594.46C147.88 1595.73 147.04 1596.68 145.94 1596.68C144.83 1596.68 144 1595.73 144 1594.46C144 1593.18 144.83 1592.23 145.94 1592.23C147.04 1592.23 147.88 1593.29 147.88 1594.46Z" fill="#FFCF2D" fill-opacity="1.000000" fill-rule="nonzero"/>
		<path id="Vector" d="M164.41 1594.46C164.41 1595.73 163.58 1596.68 162.47 1596.68C161.37 1596.68 160.53 1595.73 160.53 1594.46C160.53 1593.18 161.37 1592.23 162.47 1592.23C163.49 1592.23 164.41 1593.29 164.41 1594.46Z" fill="#FFCF2D" fill-opacity="1.000000" fill-rule="nonzero"/>
		<path id="Vector" d="M180.86 1594.46C180.86 1595.73 180.03 1596.68 178.92 1596.68C177.81 1596.68 176.98 1595.73 176.98 1594.46C176.98 1593.18 177.81 1592.23 178.92 1592.23C180.03 1592.23 180.86 1593.29 180.86 1594.46Z" fill="#FFCF2D" fill-opacity="1.000000" fill-rule="nonzero"/>
		<path id="Vector" d="M197.4 1594.46C197.4 1595.73 196.57 1596.68 195.46 1596.68C194.35 1596.68 193.52 1595.73 193.52 1594.46C193.52 1593.18 194.35 1592.23 195.46 1592.23C196.57 1592.23 197.4 1593.29 197.4 1594.46Z" fill="#FFCF2D" fill-opacity="1.000000" fill-rule="nonzero"/>
		<path id="Vector" d="M213.94 1594.46C213.94 1595.73 213.1 1596.68 212 1596.68C210.89 1596.68 210.06 1595.73 210.06 1594.46C210.06 1593.18 210.89 1592.23 212 1592.23C213.01 1592.23 213.94 1593.29 213.94 1594.46Z" fill="#FFCF2D" fill-opacity="1.000000" fill-rule="nonzero"/>
		<path id="Vector" d="M230.47 1594.46C230.47 1595.73 229.64 1596.68 228.53 1596.68C227.42 1596.68 226.59 1595.73 226.59 1594.46C226.59 1593.18 227.42 1592.23 228.53 1592.23C229.64 1592.23 230.47 1593.29 230.47 1594.46Z" fill="#FFCF2D" fill-opacity="1.000000" fill-rule="nonzero"/>
		<path id="Vector" d="M246.92 1594.46C246.92 1595.73 246.09 1596.68 244.98 1596.68C243.87 1596.68 243.04 1595.73 243.04 1594.46C243.04 1593.18 243.87 1592.23 244.98 1592.23C246.09 1592.23 246.92 1593.29 246.92 1594.46Z" fill="#FFCF2D" fill-opacity="1.000000" fill-rule="nonzero"/>
		<path id="Vector" d="M263.46 1594.46C263.46 1595.73 262.63 1596.68 261.52 1596.68C260.41 1596.68 259.58 1595.73 259.58 1594.46C259.58 1593.18 260.41 1592.23 261.52 1592.23C262.63 1592.23 263.46 1593.29 263.46 1594.46Z" fill="#FFCF2D" fill-opacity="1.000000" fill-rule="nonzero"/>
		<path id="Vector" d="M280 1594.46C280 1595.73 279.16 1596.68 278.06 1596.68C276.95 1596.68 276.12 1595.73 276.12 1594.46C276.12 1593.18 276.95 1592.23 278.06 1592.23C279.07 1592.23 280 1593.29 280 1594.46Z" fill="#FFCF2D" fill-opacity="1.000000" fill-rule="nonzero"/>
		<g opacity="0.200000">
			<path id="Vector" d="M1760.02 154.89C1769.31 149.54 1772.51 137.61 1767.15 128.34C1761.79 119.06 1749.87 115.87 1740.59 121.23L1760.02 154.89Z" fill="#FFCF2D" fill-opacity="1.000000" fill-rule="nonzero"/>
			<path id="Vector" d="M1733.74 170.07C1743.03 164.71 1746.23 152.79 1740.87 143.51C1735.52 134.23 1723.59 131.04 1714.31 136.4L1733.74 170.07Z" fill="#FFCF2D" fill-opacity="1.000000" fill-rule="nonzero"/>
			<path id="Vector" d="M1707.46 185.24C1716.75 179.88 1719.95 167.96 1714.59 158.68C1709.24 149.41 1697.31 146.22 1688.03 151.58L1707.46 185.24Z" fill="#FFCF2D" fill-opacity="1.000000" fill-rule="nonzero"/>
		</g>
	</g>
</svg>
