<svg width="24.000000" height="24.000000" viewBox="0 0 24 24" fill="none" xmlns="http://www.w3.org/2000/svg" xmlns:xlink="http://www.w3.org/1999/xlink">
	<desc>
			Created with Pixso.
	</desc>
	<defs/>
	<path id="Vector" d="M17.56 1L14.78 1C11.66 1 9.64 3.12 9.64 6.41L9.64 8.91L6.85 8.91C6.61 8.91 6.41 9.11 6.41 9.35L6.41 12.97C6.41 13.22 6.61 13.42 6.85 13.42L9.64 13.42L9.64 22.55C9.64 22.79 9.84 23 10.08 23L13.72 23C13.97 23 14.16 22.79 14.16 22.55L14.16 13.42L17.43 13.42C17.67 13.42 17.86 13.22 17.86 12.97L17.86 9.35C17.86 9.24 17.82 9.12 17.74 9.04C17.65 8.95 17.54 8.91 17.43 8.91L14.16 8.91L14.16 6.79C14.16 5.77 14.4 5.26 15.69 5.26L17.56 5.25C17.8 5.25 17.99 5.05 17.99 4.81L17.99 1.45C17.99 1.2 17.8 1 17.56 1Z" fill="#787A80" fill-opacity="1.000000" fill-rule="nonzero"/>
</svg>
