<svg width="24.000000" height="24.000000" viewBox="0 0 24 24" fill="none" xmlns="http://www.w3.org/2000/svg" xmlns:xlink="http://www.w3.org/1999/xlink">
	<desc>
			Created with Pixso.
	</desc>
	<defs/>
	<path id="Vector" d="M22.5 5.77C21.72 6.09 20.89 6.32 20.02 6.42C20.91 5.91 21.59 5.1 21.91 4.14C21.08 4.61 20.16 4.95 19.18 5.14C18.39 4.33 17.27 3.83 16.03 3.83C13.65 3.83 11.73 5.68 11.73 7.96C11.73 8.28 11.76 8.6 11.84 8.9C8.26 8.73 5.08 7.08 2.96 4.59C2.59 5.2 2.38 5.91 2.38 6.66C2.38 8.09 3.14 9.36 4.29 10.09C3.59 10.07 2.92 9.89 2.34 9.58L2.34 9.63C2.34 11.63 3.83 13.29 5.8 13.67C5.43 13.77 5.05 13.82 4.66 13.82C4.38 13.82 4.11 13.79 3.85 13.74C4.4 15.38 5.99 16.57 7.87 16.61C6.4 17.71 4.54 18.37 2.52 18.37C2.17 18.37 1.83 18.35 1.5 18.31C3.4 19.49 5.67 20.17 8.1 20.17C16.02 20.17 20.35 13.88 20.35 8.43L20.34 7.9C21.19 7.32 21.92 6.59 22.5 5.77Z" fill="#787A80" fill-opacity="1.000000" fill-rule="nonzero"/>
</svg>
