<svg viewBox="0 0 24 24" xmlns="http://www.w3.org/2000/svg" xmlns:xlink="http://www.w3.org/1999/xlink" width="24.000000" height="24.000000" fill="none" customFrame="#000000">
	<rect id="YouTube" width="24.000000" height="24.000000" x="0.000000" y="0.000000" />
	<path id="Subtract" d="M23.5055 6.22899C23.2288 5.20086 22.4182 4.39044 21.3903 4.11358C19.5122 3.59961 11.9998 3.59961 11.9998 3.59961C11.9998 3.59961 4.48753 3.59961 2.60943 4.09399C1.60125 4.37066 0.770871 5.20104 0.4942 6.22899C0 8.10691 0 12.0015 0 12.0015C0 12.0015 0 15.9158 0.4942 17.7741C0.771054 18.802 1.58148 19.6127 2.60961 19.8895C4.50731 20.4035 12 20.4035 12 20.4035C12 20.4035 19.5122 20.4035 21.3903 19.9091C22.4184 19.6324 23.2288 18.8218 23.5057 17.7939C23.9999 15.9158 23.9999 12.0213 23.9999 12.0213C23.9999 12.0213 24.0197 8.10691 23.5055 6.22899ZM15.8549 12.0016L9.60788 15.5996L9.60788 8.40355L15.8549 12.0016Z" fill="rgb(120,122,128)" fill-rule="evenodd" />
</svg>
