<svg viewBox="0 0 60.001 60" xmlns="http://www.w3.org/2000/svg" xmlns:xlink="http://www.w3.org/1999/xlink" width="60.000977" height="60.000000" fill="none" customFrame="#000000">
	<g id="shapes" opacity="0.200000003">
		<path id="Vector" d="M25.4958 15.9269L25.4958 25.454L0 25.454L0 0L9.58816 0L9.58816 15.9269L25.4958 15.9269Z" fill="rgb(255,207,45)" fill-rule="nonzero" transform="matrix(-3.81151e-08,1,1,9.84645e-08,34.5469,0)" />
		<path id="Vector" d="M25.4231 15.9269L25.4231 25.5267L0 25.5267L0 0L9.51552 0L9.51552 15.9269L25.4231 15.9269Z" fill="rgb(255,207,45)" fill-rule="nonzero" transform="matrix(-3.81155e-08,1,1,9.84634e-08,17.2344,17.2871)" />
		<path id="Vector" d="M25.4958 15.9269L25.4958 25.5267L0 25.5267L0 0L9.58816 0L9.58816 15.9269L25.4958 15.9269Z" fill="rgb(255,207,45)" fill-rule="nonzero" transform="matrix(-3.81155e-08,1,1,9.84634e-08,0,34.5039)" />
	</g>
</svg>
