<svg width="465.000000" height="400.000000" viewBox="0 0 465 400" fill="none" xmlns="http://www.w3.org/2000/svg" xmlns:xlink="http://www.w3.org/1999/xlink">
	<desc>
			Created with Pixso.
	</desc>
	<defs/>
	<rect id="illustration" width="465.000000" height="400.000000" fill="#FFFFFF" fill-opacity="0"/>
	<path id="Vector" d="M260.83 382.82C260.56 382.82 260.35 382.6 260.35 382.33C260.35 376.14 265.38 371.11 271.56 371.11L276.65 371.11C286.63 371.11 294.76 362.97 294.76 352.99L294.76 274.64C294.76 264.66 286.63 256.52 276.65 256.52L263.69 256.52C263.41 256.52 263.2 256.31 263.2 256.04C263.2 255.76 263.41 255.55 263.69 255.55L276.65 255.55C287.17 255.55 295.74 264.12 295.74 274.64L295.74 352.99C295.74 363.51 287.17 372.08 276.65 372.08L271.56 372.08C265.91 372.08 261.32 376.68 261.32 382.33C261.32 382.6 261.11 382.82 260.83 382.82Z" fill="#66B0F0" fill-opacity="1.000000" fill-rule="nonzero"/>
	<path id="Vector" d="M270.57 388.45C270.57 393.56 266.43 397.71 261.32 397.71C256.21 397.71 252.07 393.56 252.07 388.45C252.07 383.34 256.21 379.2 261.32 379.2C266.43 379.2 270.57 383.34 270.57 388.45Z" fill="#FFFFFF" fill-opacity="1.000000" fill-rule="evenodd"/>
	<path id="Vector" d="M261.32 398.19C255.95 398.19 251.58 393.83 251.58 388.45C251.58 383.08 255.95 378.71 261.32 378.71C266.69 378.71 271.05 383.08 271.05 388.45C271.05 393.83 266.69 398.19 261.32 398.19ZM261.32 379.68C256.48 379.68 252.56 383.61 252.56 388.45C252.56 393.29 256.48 397.22 261.32 397.22C266.15 397.22 270.08 393.29 270.08 388.45C270.08 383.61 266.15 379.68 261.32 379.68Z" fill="#66B0F0" fill-opacity="1.000000" fill-rule="nonzero"/>
	<path id="Vector" d="M259.5 256.04L338.83 256.04C342.4 256.04 345.29 253.15 345.29 249.57L345.29 244.13C345.29 240.56 342.4 237.67 338.83 237.67L259.5 237.67C255.4 237.67 252.07 241 252.07 245.11L252.07 248.58C252.07 252.71 255.4 256.04 259.5 256.04Z" fill="#D0F0E4" fill-opacity="1.000000" fill-rule="nonzero"/>
	<path id="Vector" d="M338.83 256.52L259.5 256.52C255.14 256.52 251.58 252.97 251.58 248.58L251.58 245.11C251.58 240.74 255.14 237.18 259.5 237.18L338.83 237.18C342.66 237.18 345.78 240.3 345.78 244.13L345.78 249.57C345.78 253.4 342.66 256.52 338.83 256.52ZM259.5 238.16C255.67 238.16 252.56 241.28 252.56 245.11L252.56 248.58C252.56 252.43 255.67 255.55 259.5 255.55L338.83 255.55C342.13 255.55 344.8 252.87 344.8 249.57L344.8 244.13C344.8 240.84 342.13 238.16 338.83 238.16L259.5 238.16Z" fill="#66B0F0" fill-opacity="1.000000" fill-rule="nonzero"/>
	<path id="Vector" d="M336.58 382.82C336.3 382.82 336.09 382.6 336.09 382.33C336.09 376.68 331.5 372.08 325.85 372.08L320.76 372.08C310.24 372.08 301.67 363.51 301.67 352.99L301.67 274.64C301.67 264.12 310.24 255.55 320.76 255.55L333.72 255.55C334 255.55 334.21 255.76 334.21 256.04C334.21 256.31 334 256.52 333.72 256.52L320.76 256.52C310.78 256.52 302.65 264.66 302.65 274.64L302.65 352.99C302.65 362.97 310.78 371.11 320.76 371.11L325.85 371.11C332.03 371.11 337.06 376.14 337.06 382.33C337.06 382.6 336.85 382.82 336.58 382.82Z" fill="#66B0F0" fill-opacity="1.000000" fill-rule="nonzero"/>
	<path id="Vector" d="M345.36 388.45C345.36 393.56 341.22 397.71 336.11 397.71C331 397.71 326.86 393.56 326.86 388.45C326.86 383.34 331 379.2 336.11 379.2C341.22 379.2 345.36 383.34 345.36 388.45Z" fill="#FFFFFF" fill-opacity="1.000000" fill-rule="evenodd"/>
	<path id="Vector" d="M336.11 398.19C330.74 398.19 326.37 393.83 326.37 388.45C326.37 383.08 330.74 378.71 336.11 378.71C341.48 378.71 345.84 383.08 345.84 388.45C345.84 393.83 341.48 398.19 336.11 398.19ZM336.11 379.68C331.27 379.68 327.34 383.61 327.34 388.45C327.34 393.29 331.27 397.22 336.11 397.22C340.94 397.22 344.87 393.29 344.87 388.45C344.87 383.61 340.94 379.68 336.11 379.68Z" fill="#66B0F0" fill-opacity="1.000000" fill-rule="nonzero"/>
	<path id="Vector" d="M189.34 362.7L195.18 374.67C197.14 378.69 198.17 383.09 198.17 387.54L198.17 396.62C198.17 398.19 196.85 399.48 195.23 399.48L128.51 399.48C126.74 399.48 125.31 398.08 125.31 396.36L125.31 393.55C125.31 392.41 125.94 391.37 126.97 390.82C133.89 387.1 156.27 375.48 160.6 363.06L189.34 362.7Z" fill="#FFFFFF" fill-opacity="1.000000" fill-rule="nonzero"/>
	<path id="Vector" d="M195.23 399.96L128.51 399.96C126.48 399.96 124.82 398.34 124.82 396.36L124.82 393.55C124.82 392.23 125.55 391.03 126.74 390.4L127.47 390.01C131.3 387.96 138.44 384.13 145.17 379.33C153.35 373.46 158.39 367.94 160.15 362.91L160.26 362.59L189.65 362.23L195.62 374.47C197.6 378.55 198.65 383.08 198.65 387.56L198.65 396.64C198.65 398.47 197.11 399.96 195.23 399.96ZM160.94 363.54C156.43 375.61 135.76 386.68 127.92 390.85L127.19 391.24C126.33 391.72 125.8 392.59 125.8 393.55L125.8 396.36C125.8 397.8 127.01 398.99 128.51 398.99L195.23 398.99C196.58 398.99 197.68 397.93 197.68 396.62L197.68 387.54C197.68 383.19 196.66 378.82 194.74 374.88L189.03 363.19L160.94 363.54Z" fill="#FFCF2D" fill-opacity="1.000000" fill-rule="nonzero"/>
	<path id="Vector" d="M197.76 382.7L192.54 382.7C187.7 382.7 183.21 385.16 180.67 389.17L178.45 392.71C177.12 394.82 174.77 396.1 172.24 396.1L125.34 396.1L197.76 382.7Z" fill="#FFFFFF" fill-opacity="1.000000" fill-rule="nonzero"/>
	<path id="Vector" d="M172.24 396.59L125.34 396.59L125.34 395.61L172.24 395.61C174.59 395.61 176.81 394.39 178.05 392.45L180.27 388.91C182.88 384.78 187.57 382.22 192.54 382.22L197.76 382.22L197.76 383.19L192.54 383.19C187.9 383.19 183.51 385.58 181.08 389.43L178.86 392.97C177.43 395.24 174.96 396.59 172.24 396.59Z" fill="#FFCF2D" fill-opacity="1.000000" fill-rule="nonzero"/>
	<path id="Vector" d="M193.72 371.68C188.71 371.84 182.05 371.32 174.02 369.86C168.75 368.9 163.73 367.44 159.37 365.8C159.87 364.89 160.28 363.98 160.6 363.07L189.34 362.7L193.72 371.68Z" fill="#FFCF2D" fill-opacity="1.000000" fill-rule="nonzero"/>
	<path id="Vector" d="M146.7 379.24C146.68 379.24 146.66 379.24 146.65 379.24C146.47 379.23 146.31 379.1 146.24 378.92L142.96 369.55C142.4 367.91 142.67 366.09 143.69 364.7C144.72 363.3 146.37 362.49 148.09 362.54C150.01 362.59 151.69 363.62 152.59 365.33C153.5 367.02 153.41 369 152.39 370.62L147.1 379.02C147.02 379.16 146.86 379.24 146.7 379.24ZM147.93 363.51C146.55 363.51 145.3 364.14 144.47 365.28C143.63 366.43 143.4 367.88 143.87 369.24L146.81 377.65L151.56 370.12C152.39 368.8 152.46 367.18 151.73 365.8C151 364.42 149.62 363.58 148.06 363.53C148.03 363.51 147.98 363.51 147.93 363.51Z" fill="#FE5244" fill-opacity="1.000000" fill-rule="nonzero"/>
	<path id="Vector" d="M138.34 380.95C137.3 380.95 136.28 380.56 135.52 379.83C134.54 378.9 134.09 377.56 134.28 376.22C134.51 374.75 135.47 373.56 136.86 373.03C138.26 372.49 139.78 372.73 140.94 373.69L146.71 378.45C146.86 378.56 146.92 378.76 146.87 378.94C146.83 379.12 146.68 379.26 146.5 379.29L139.18 380.87C138.91 380.92 138.63 380.95 138.34 380.95ZM138.34 373.71C137.97 373.71 137.58 373.77 137.2 373.92C136.15 374.33 135.42 375.23 135.24 376.35C135.08 377.38 135.42 378.39 136.18 379.1C136.94 379.81 137.97 380.11 138.97 379.89L145.3 378.53L140.3 374.41C139.75 373.95 139.05 373.71 138.34 373.71Z" fill="#FE5244" fill-opacity="1.000000" fill-rule="nonzero"/>
	<path id="Vector" d="M159.01 379.05L145.88 379.05C145.61 379.05 145.4 378.84 145.4 378.56C145.4 378.29 145.61 378.08 145.88 378.08L159.01 378.08C159.29 378.08 159.5 378.29 159.5 378.56C159.5 378.84 159.29 379.05 159.01 379.05Z" fill="#FE5244" fill-opacity="1.000000" fill-rule="nonzero"/>
	<path id="Vector" d="M155.17 382.72L142.06 382.72C141.78 382.72 141.57 382.51 141.57 382.23C141.57 381.96 141.78 381.75 142.06 381.75L155.17 381.75C155.44 381.75 155.65 381.96 155.65 382.23C155.65 382.51 155.44 382.72 155.17 382.72Z" fill="#FE5244" fill-opacity="1.000000" fill-rule="nonzero"/>
	<path id="Vector" d="M164.56 375.2L151.77 375.2C151.5 375.2 151.29 374.99 151.29 374.72C151.29 374.44 151.5 374.23 151.77 374.23L164.56 374.23C164.84 374.23 165.05 374.44 165.05 374.72C165.05 374.99 164.84 375.2 164.56 375.2Z" fill="#FE5244" fill-opacity="1.000000" fill-rule="nonzero"/>
	<path id="Vector" d="M267.34 195.34L237.24 206.74L208.29 357.6C207.12 360.36 191.77 364.32 177.45 364.32C162.36 364.32 150.14 360.12 150.14 357.15L167.92 218.58C170.24 200.29 185.79 186.57 204.22 186.57L266.77 186.57L267.06 195.32L267.34 195.34Z" fill="#FFFFFF" fill-opacity="1.000000" fill-rule="nonzero"/>
	<path id="Vector" d="M177.45 364.81C170.48 364.81 163.59 363.92 157.99 362.31C155.47 361.58 149.65 359.63 149.65 357.15L149.65 357.08L167.43 218.51C168.57 209.55 172.93 201.32 179.7 195.36C186.48 189.38 195.18 186.09 204.22 186.09L267.24 186.09L267.53 194.87L269.64 195L237.66 207.11L208.76 357.76L208.75 357.81C207.82 359.99 200.86 361.81 197.92 362.49C191.48 363.97 184.03 364.81 177.45 364.81ZM150.62 357.18C150.67 358.17 153.06 359.89 158.27 361.38C163.77 362.97 170.58 363.84 177.45 363.84C183.95 363.84 191.33 362.99 197.7 361.53C204.04 360.07 207.33 358.44 207.82 357.45L236.8 206.38L266.56 195.11L266.28 187.06L204.2 187.06C195.41 187.06 186.94 190.26 180.33 196.09C173.75 201.9 169.49 209.92 168.39 218.64L150.62 357.18Z" fill="#3FB1B5" fill-opacity="1.000000" fill-rule="nonzero"/>
	<path id="Vector" d="M176.62 364.78C176.6 364.78 176.57 364.78 176.55 364.78C176.29 364.75 176.1 364.5 176.13 364.23L193.69 227.43C194.87 218.11 199.63 210.13 207.43 204.37C215.64 198.3 226.82 195.08 239.74 195.08C240.01 195.08 240.22 195.29 240.22 195.57C240.22 195.84 240.01 196.06 239.74 196.06C227.03 196.06 216.05 199.21 208.02 205.15C200.42 210.77 195.81 218.51 194.66 227.56L177.1 364.36C177.07 364.6 176.86 364.78 176.62 364.78Z" fill="#3FB1B5" fill-opacity="1.000000" fill-rule="nonzero"/>
	<path id="Vector" d="M253.37 193.72L220.96 292.88L208.34 252.48C200.55 226.65 214.59 193.72 253.37 193.72Z" fill="#3FB1B5" fill-opacity="1.000000" fill-rule="nonzero"/>
	<path id="Vector" d="M288.9 362.1L300.57 391.18C302.19 395.2 299 399.51 294.39 399.51L250.45 399.51C248.27 399.51 246.5 397.87 246.5 395.82L246.5 392.9C246.5 391.57 246.93 390.28 247.74 389.18L255.44 380.75C259.94 375.85 262.41 369.6 262.41 363.15L262.41 363.07L288.9 362.1Z" fill="#FFFFFF" fill-opacity="1.000000" fill-rule="nonzero"/>
	<path id="Vector" d="M294.39 400L250.45 400C248 400 246.02 398.13 246.02 395.82L246.02 392.9C246.02 391.45 246.47 390.07 247.35 388.89L247.38 388.86L255.09 380.43C259.5 375.62 261.92 369.49 261.92 363.15L261.92 362.6L289.23 361.59L301.02 391C301.82 392.96 301.59 395.12 300.39 396.89C299.08 398.84 296.84 400 294.39 400ZM248.11 389.49C247.38 390.5 246.99 391.68 246.99 392.9L246.99 395.82C246.99 397.59 248.55 399.02 250.45 399.02L294.39 399.02C296.51 399.02 298.44 398.03 299.58 396.36C300.6 394.85 300.8 393.03 300.12 391.37L288.58 362.62L262.89 363.56C262.79 369.99 260.28 376.21 255.8 381.1L248.11 389.49Z" fill="#FFCF2D" fill-opacity="1.000000" fill-rule="nonzero"/>
	<path id="Vector" d="M249.36 387.46C251.79 386.32 254.47 385.72 257.2 385.72L271.3 385.72C273.8 385.72 276.26 386.23 278.53 387.2L283.69 389.39L249.36 387.46Z" fill="#FFFFFF" fill-opacity="1.000000" fill-rule="nonzero"/>
	<path id="Vector" d="M283.5 389.85L278.34 387.65C276.12 386.7 273.75 386.21 271.3 386.21L257.2 386.21C254.57 386.21 251.94 386.79 249.57 387.9L249.16 387.02C251.66 385.85 254.44 385.24 257.21 385.24L271.31 385.24C273.89 385.24 276.39 385.74 278.75 386.75L283.91 388.94L283.5 389.85Z" fill="#FFCF2D" fill-opacity="1.000000" fill-rule="nonzero"/>
	<path id="Vector" d="M289.45 363.43C288.54 367.02 276.49 369.87 261.76 369.87L261.51 369.87C262.11 367.68 262.42 365.43 262.42 363.14L262.42 363.06L288.92 362.1L289.45 363.43Z" fill="#FFCF2D" fill-opacity="1.000000" fill-rule="nonzero"/>
	<path id="Vector" d="M266.51 377.12C266.33 377.12 266.17 377.02 266.09 376.86C266.01 376.7 266.01 376.5 266.1 376.35L271.2 368.64C271.2 368.63 271.22 368.63 271.22 368.61C272.27 367.25 273.93 366.5 275.63 366.58C277.35 366.68 278.89 367.62 279.78 369.08C280.77 370.7 280.81 372.67 279.88 374.32C278.96 375.98 277.29 376.99 275.37 377.02L266.51 377.12ZM272 369.19L267.42 376.13L275.39 376.06C276.93 376.05 278.31 375.22 279.05 373.87C279.8 372.52 279.77 370.93 278.97 369.6C278.24 368.38 277.01 367.64 275.6 367.57C274.17 367.49 272.87 368.09 272 369.19Z" fill="#FE5244" fill-opacity="1.000000" fill-rule="nonzero"/>
	<path id="Vector" d="M259.1 377.17C257.78 377.17 256.53 376.52 255.77 375.43C255.01 374.32 254.83 372.93 255.3 371.68C255.8 370.3 256.99 369.32 258.43 369.1C259.89 368.85 261.32 369.4 262.24 370.56L266.88 376.32C267 376.47 267.03 376.66 266.95 376.84C266.87 377 266.71 377.12 266.51 377.12L259.11 377.17L259.1 377.17ZM259.1 370.02C258.93 370.02 258.76 370.04 258.58 370.07C257.47 370.25 256.58 370.98 256.19 372.04C255.83 373.01 255.96 374.03 256.55 374.89C257.13 375.74 258.06 376.21 259.06 376.21L259.08 376.21L265.47 376.16L261.46 371.17C260.9 370.43 260.02 370.02 259.1 370.02Z" fill="#FE5244" fill-opacity="1.000000" fill-rule="nonzero"/>
	<path id="Vector" d="M280.81 380.43L261.58 380.43C261.3 380.43 261.09 380.22 261.09 379.94C261.09 379.67 261.3 379.46 261.58 379.46L280.81 379.46C281.08 379.46 281.29 379.67 281.29 379.94C281.29 380.22 281.08 380.43 280.81 380.43Z" fill="#FE5244" fill-opacity="1.000000" fill-rule="nonzero"/>
	<path id="Vector" d="M299.09 354.37C299.09 357.89 286.37 364.5 273.1 364.5C261.17 364.5 251.29 362.13 249.42 359.13L216.62 254.1C207.51 223.95 230.07 193.56 261.53 193.56L266.92 193.56L266.15 166.47L333.53 166.47L340.16 194.03C345.52 216.27 328.67 238.22 305.81 238.22L275.56 238.22L299.09 354.37Z" fill="#FFFFFF" fill-opacity="1.000000" fill-rule="nonzero"/>
	<path id="Vector" d="M273.1 364.99C261.16 364.99 251.03 362.63 249.02 359.39L248.99 359.34L248.97 359.27L216.16 254.25C213.92 246.85 213.5 239.31 214.89 231.83C216.21 224.8 219.18 218.02 223.48 212.23C227.78 206.43 233.39 201.64 239.74 198.35C246.47 194.84 253.81 193.07 261.53 193.07L266.41 193.07L265.65 165.98L333.9 165.98L334 166.36L340.63 193.91C343.24 204.79 340.75 216.12 333.77 225.01C326.9 233.71 316.73 238.71 305.81 238.71L276.16 238.71L299.58 354.32L299.58 354.37C299.58 356.76 295.28 359.47 291.27 361.21C285.71 363.61 279.09 364.99 273.1 364.99ZM249.86 358.92C250.74 360.23 253.55 361.53 257.59 362.46C261.92 363.45 267.42 364 273.08 364C278.94 364 285.41 362.65 290.87 360.3C296.11 358.02 298.54 355.67 298.59 354.4L274.95 237.72L305.79 237.72C316.41 237.72 326.32 232.87 332.99 224.39C339.79 215.75 342.22 204.73 339.67 194.12L333.14 166.94L266.64 166.94L267.4 194.03L261.51 194.03C253.95 194.03 246.76 195.76 240.18 199.19C233.96 202.42 228.46 207.11 224.24 212.8C220.02 218.48 217.12 225.1 215.84 232C214.47 239.33 214.88 246.72 217.07 253.96L249.86 358.92Z" fill="#3FB1B5" fill-opacity="1.000000" fill-rule="nonzero"/>
	<path id="Vector" d="M278.18 364.48C277.97 364.48 277.77 364.35 277.71 364.14L246.7 264.87C243.88 256.7 242.51 249.31 242.66 242.96C242.8 236.71 244.41 231.4 247.43 227.17C250.25 223.2 254.33 220.17 259.53 218.14C264.69 216.14 270.99 215.12 278.27 215.12L305.39 215.12C313.7 215.12 320.45 208.36 320.45 200.05L320.45 166.54C320.45 166.26 320.66 166.05 320.93 166.05C321.21 166.05 321.42 166.26 321.42 166.54L321.42 200.05C321.42 208.9 314.23 216.09 305.39 216.09L278.27 216.09C271.12 216.09 264.94 217.08 259.89 219.03C254.86 220.98 250.93 223.9 248.22 227.7C245.32 231.78 243.78 236.91 243.63 242.96C243.49 249.2 244.83 256.47 247.62 264.54L278.63 363.84C278.71 364.1 278.57 364.37 278.31 364.45C278.27 364.48 278.23 364.48 278.18 364.48Z" fill="#3FB1B5" fill-opacity="1.000000" fill-rule="nonzero"/>
	<path id="Vector" d="M433.49 207.47L6.25 207.47C4.56 207.47 3.93 204.87 5.35 203.82L80.89 160.53L362.25 160.53L434.26 204.4C435.45 205.33 434.9 207.47 433.49 207.47Z" fill="#FFFFFF" fill-opacity="1.000000" fill-rule="nonzero"/>
	<path id="Vector" d="M433.49 207.96L6.25 207.96C5.3 207.96 4.51 207.26 4.23 206.17C3.97 205.08 4.32 203.99 5.13 203.39C5.14 203.38 5.16 203.38 5.17 203.36L80.71 160.07C80.77 160.04 80.84 160.02 80.89 160.02L362.25 160.02C362.32 160.02 362.39 160.04 362.44 160.07L434.45 203.95C434.47 203.95 434.48 203.96 434.5 203.98C435.19 204.51 435.49 205.47 435.25 206.41C435.01 207.36 434.32 207.96 433.49 207.96ZM5.56 204.24C4.98 204.68 4.91 205.39 5.03 205.89C5.16 206.41 5.54 206.97 6.25 206.97L433.49 206.97C434.04 206.97 434.34 206.53 434.45 206.12C434.55 205.72 434.51 205.16 434.06 204.79L362.15 160.98L80.99 160.98L5.56 204.24Z" fill="#66B0F0" fill-opacity="1.000000" fill-rule="nonzero"/>
	<path id="Vector" d="M422.09 202.65L17.11 202.65C15.23 202.65 14.52 199.74 16.12 198.56L81.31 161.01L361.6 161.01L423.12 198.59C424.67 199.79 423.95 202.65 422.09 202.65Z" fill="#D0F0E4" fill-opacity="1.000000" fill-rule="nonzero"/>
	<path id="Vector" d="M0.4 398.19C0.37 398.19 0.36 398.19 0.33 398.19C0.11 398.14 -0.04 397.9 0 397.62L28.05 207.39C28.1 207.13 28.3 206.95 28.54 207C28.76 207.05 28.91 207.29 28.87 207.57L0.82 397.79C0.77 398.03 0.59 398.19 0.4 398.19Z" fill="#66B0F0" fill-opacity="1.000000" fill-rule="nonzero"/>
	<path id="Vector" d="M71.14 398.19C70.94 398.19 70.76 398.03 70.72 397.79L42.67 207.55C42.63 207.29 42.78 207.03 43 206.98C43.22 206.93 43.44 207.11 43.48 207.37L71.54 397.61C71.58 397.87 71.42 398.13 71.2 398.18C71.18 398.19 71.16 398.19 71.14 398.19Z" fill="#66B0F0" fill-opacity="1.000000" fill-rule="nonzero"/>
	<path id="Vector" d="M367.46 398.19C367.43 398.19 367.42 398.19 367.39 398.19C367.17 398.14 367.02 397.9 367.06 397.62L395.11 207.39C395.15 207.13 395.36 206.95 395.6 207C395.82 207.05 395.97 207.29 395.93 207.56L367.87 397.8C367.83 398.03 367.65 398.19 367.46 398.19Z" fill="#66B0F0" fill-opacity="1.000000" fill-rule="nonzero"/>
	<path id="Vector" d="M438.19 398.19C438 398.19 437.82 398.03 437.78 397.79L409.72 207.55C409.68 207.29 409.83 207.03 410.05 206.98C410.28 206.93 410.5 207.11 410.54 207.37L438.59 397.61C438.63 397.87 438.48 398.13 438.26 398.18C438.23 398.19 438.22 398.19 438.19 398.19Z" fill="#66B0F0" fill-opacity="1.000000" fill-rule="nonzero"/>
	<path id="Vector" d="M375.19 333.96L407.35 333.96C408.36 330.35 411.65 327.71 415.58 327.71L383.42 327.71C379.49 327.71 376.2 330.35 375.19 333.96Z" fill="#3FB1B5" fill-opacity="1.000000" fill-rule="nonzero"/>
	<path id="Vector" d="M383.69 328.23C388.4 328.23 392.23 332.06 392.23 336.77L392.23 345.31L424.39 345.31L424.39 336.77C424.39 332.04 420.56 328.23 415.85 328.23L383.69 328.23Z" fill="#FFFFFF" fill-opacity="1.000000" fill-rule="nonzero"/>
	<path id="Vector" d="M424.88 345.8L391.74 345.8L391.74 336.77C391.74 332.33 388.14 328.71 383.69 328.71L383.69 327.74L415.85 327.74C420.84 327.74 424.88 331.78 424.88 336.77L424.88 345.8ZM392.72 344.82L423.9 344.82L423.9 336.77C423.9 332.33 420.28 328.71 415.85 328.71L387.77 328.71C390.7 330.21 392.72 333.26 392.72 336.77L392.72 344.82Z" fill="#3FB1B5" fill-opacity="1.000000" fill-rule="nonzero"/>
	<path id="Vector" d="M440.84 333.29L411.49 333.29L413.27 341.44L442.63 341.44L440.84 333.29Z" fill="#FFFFFF" fill-opacity="1.000000" fill-rule="nonzero"/>
	<path id="Vector" d="M443.23 341.93L412.88 341.93L410.89 332.81L441.23 332.81L443.23 341.93ZM413.66 340.96L442.03 340.96L440.45 333.78L412.09 333.78L413.66 340.96Z" fill="#FFCF2D" fill-opacity="1.000000" fill-rule="nonzero"/>
	<path id="Vector" d="M455.92 397.69L387.46 397.69C392.96 397.69 397.05 392.59 395.85 387.22L386.45 344.98C386 342.91 384.15 341.43 382.02 341.43L450.48 341.43C452.61 341.43 454.44 342.91 454.91 344.98L464.31 387.22C465.51 392.59 461.42 397.69 455.92 397.69Z" fill="#FFFFFF" fill-opacity="1.000000" fill-rule="nonzero"/>
	<path id="Vector" d="M455.92 398.18L387.46 398.18L387.46 397.2C389.94 397.2 392.25 396.1 393.79 394.17C395.33 392.23 395.91 389.75 395.38 387.33L385.98 345.1C385.58 343.26 383.92 341.92 382.02 341.92L382.02 340.94L450.48 340.94C452.85 340.94 454.86 342.56 455.38 344.87L464.78 387.1C465.38 389.81 464.73 392.59 463.01 394.77C461.27 396.94 458.69 398.18 455.92 398.18ZM391.56 397.2L455.92 397.2C458.4 397.2 460.7 396.1 462.25 394.17C463.79 392.23 464.37 389.75 463.83 387.33L454.44 345.1C454.02 343.23 452.4 341.92 450.48 341.92L384.99 341.92C385.95 342.61 386.66 343.67 386.94 344.89L396.33 387.12C396.93 389.83 396.29 392.61 394.57 394.78C393.72 395.81 392.7 396.62 391.56 397.2Z" fill="#FFCF2D" fill-opacity="1.000000" fill-rule="nonzero"/>
	<path id="Vector" d="M427.31 375.31L424.44 375.31C419.04 375.31 413.73 373.45 409.51 370.07C405.29 366.69 402.32 361.92 401.14 356.63L397.94 342.27L399.53 341.92L402.73 356.27C403.83 361.19 406.59 365.64 410.53 368.8C414.46 371.95 419.41 373.69 424.45 373.69L427.33 373.69C431.37 373.69 435.15 371.87 437.68 368.71C440.21 365.54 441.17 361.47 440.28 357.5L436.88 342.26L438.47 341.9L441.87 357.15C442.85 361.58 441.78 366.16 438.94 369.71C436.09 373.29 431.85 375.31 427.31 375.31Z" fill="#D0F0E4" fill-opacity="1.000000" fill-rule="nonzero"/>
	<path id="Vector" d="M430.72 375.15L427.85 375.15C422.44 375.15 417.14 373.29 412.92 369.91C408.7 366.53 405.73 361.76 404.55 356.46L401.35 342.11C401.25 341.67 401.53 341.23 401.97 341.14C402.4 341.04 402.84 341.31 402.94 341.75L406.14 356.11C407.24 361.03 410 365.48 413.94 368.64C417.87 371.79 422.82 373.53 427.86 373.53L430.73 373.53C434.77 373.53 438.56 371.71 441.09 368.54C443.62 365.38 444.58 361.3 443.68 357.34L440.29 342.09C440.19 341.66 440.47 341.22 440.91 341.12C441.35 341.02 441.78 341.3 441.88 341.74L445.27 356.98C446.26 361.42 445.19 366 442.35 369.55C439.5 373.12 435.26 375.15 430.72 375.15Z" fill="#FFCF2D" fill-opacity="1.000000" fill-rule="nonzero"/>
	<path id="Vector" d="M387.46 397.69L376.16 397.69C370.66 397.69 366.58 392.59 367.78 387.22L377.17 344.98C377.62 342.91 379.47 341.43 381.6 341.43L382.06 341.43C384.18 341.43 386.01 342.91 386.48 344.98L395.88 387.22C397.05 392.59 392.96 397.69 387.46 397.69Z" fill="#FFCF2D" fill-opacity="1.000000" fill-rule="nonzero"/>
	<path id="Vector" d="M387.46 398.18L376.16 398.18C373.39 398.18 370.81 396.94 369.07 394.77C367.34 392.61 366.69 389.81 367.31 387.1L376.7 344.87C377.2 342.6 379.26 340.94 381.6 340.94L382.06 340.94C384.42 340.94 386.44 342.56 386.96 344.87L396.35 387.1C396.93 389.81 396.29 392.61 394.53 394.77C392.81 396.94 390.22 398.18 387.46 398.18ZM381.6 341.92C379.72 341.92 378.05 343.25 377.64 345.08L368.25 387.31C367.71 389.73 368.28 392.22 369.84 394.15C371.38 396.08 373.7 397.19 376.16 397.19L387.46 397.19C389.92 397.19 392.23 396.08 393.79 394.15C395.34 392.22 395.93 389.72 395.41 387.3L386.01 345.06C385.59 343.2 383.97 341.88 382.06 341.88L381.6 341.88L381.6 341.92Z" fill="#FFCF2D" fill-opacity="1.000000" fill-rule="nonzero"/>
	<path id="Vector" d="M381.54 341.44L382.51 341.44L382.51 387.92L381.54 387.92L381.54 341.44Z" fill="#FFFFFF" fill-opacity="1.000000" fill-rule="evenodd"/>
	<path id="Vector" d="M392.68 396.72C392.57 396.72 392.47 396.68 392.38 396.62L381.99 388.42L371.56 396.57C371.35 396.73 371.04 396.7 370.88 396.49C370.71 396.28 370.75 395.97 370.96 395.81L382.01 387.2L392.98 395.89C393.19 396.05 393.22 396.36 393.06 396.57C392.98 396.65 392.83 396.72 392.68 396.72Z" fill="#FFFFFF" fill-opacity="1.000000" fill-rule="nonzero"/>
	<path id="Vector" d="M71.96 326.39C71.96 326.39 51.59 300.22 54.82 292.13C57.58 285.23 63.86 291.66 63.86 291.66L71.96 326.39Z" fill="#3FB1B5" fill-opacity="1.000000" fill-rule="nonzero"/>
	<path id="Vector" d="M86.93 353.96C86.93 353.96 108.14 330.58 107.65 322.17C107.17 313.76 99.49 317.71 99.49 317.71L86.93 353.96Z" fill="#3FB1B5" fill-opacity="1.000000" fill-rule="nonzero"/>
	<path id="Vector" d="M109.07 374.54C109.07 381.58 106.08 388.01 101.18 392.92C97.24 396.85 91.88 399.02 86.32 399.02L69.04 399.02C63.47 399.02 58.12 396.85 54.17 392.92C49.27 388.03 46.29 381.58 46.29 374.54C46.29 364.5 52.32 355.72 61.38 350.85L93.99 350.85C103.03 355.7 109.07 364.5 109.07 374.54Z" fill="#FFCF2D" fill-opacity="1.000000" fill-rule="nonzero"/>
	<path id="Vector" d="M94.38 351.9C94.38 354.35 86.9 356.33 77.68 356.33C68.46 356.33 60.99 354.35 60.99 351.9C60.99 349.45 68.46 347.47 77.68 347.47C86.9 347.47 94.38 349.45 94.38 351.9Z" fill="#3FB1B5" fill-opacity="1.000000" fill-rule="evenodd"/>
	<path id="Vector" d="M86.93 353.96C84.29 354.43 81.11 354.71 77.68 354.71C74.44 354.71 71.4 354.47 68.86 354.04C62.82 347.63 48.12 330.61 53.55 322.2C60.34 311.7 71.97 326.41 71.97 326.41C71.97 326.41 58.24 284.22 65.51 274.85C72.78 265.49 78.48 282.13 78.48 282.13C78.48 282.13 82.14 261.93 91.99 263.86C101.39 265.71 86.83 312.56 85.47 316.88C86.17 314.8 90.39 303.34 98.61 304.39C106.4 305.38 91.22 343.56 86.93 353.96Z" fill="#FFFFFF" fill-opacity="1.000000" fill-rule="nonzero"/>
	<path id="Vector" d="M77.68 355.2C74.5 355.2 71.44 354.97 68.77 354.53L68.61 354.5L68.5 354.39C62.02 347.5 47.57 330.56 53.15 321.94C54.79 319.41 56.85 318.06 59.27 317.95C63.83 317.72 68.48 321.91 70.82 324.38C69.68 320.68 67.36 312.74 65.53 304.26C62.15 288.56 62.01 278.57 65.12 274.56C66.91 272.26 68.79 271.25 70.72 271.57C74.44 272.19 77.18 277.68 78.33 280.44C79.19 276.77 81.69 267.94 86.61 264.58C88.31 263.41 90.14 263.02 92.09 263.39C93.05 263.59 93.81 264.15 94.38 265.13C96.52 268.73 95.89 278.09 92.51 292.89C91 299.54 89.22 306 87.87 310.61C90.13 306.97 93.68 303.29 98.68 303.92C99.49 304.02 100.12 304.46 100.58 305.22C102.23 308.06 100.98 315.95 96.86 328.7C93.67 338.62 89.54 348.91 87.39 354.17L87.29 354.42L87.03 354.47C84.24 354.94 81.01 355.2 77.68 355.2ZM69.1 353.59C71.66 354 74.63 354.22 77.68 354.22C80.86 354.22 83.93 353.98 86.59 353.52C88.78 348.22 92.79 338.1 95.94 328.37C100.95 312.85 100.77 307.47 99.73 305.69C99.46 305.2 99.07 304.93 98.57 304.86C90.78 303.87 86.69 314.81 85.94 317.02L85.02 316.71C85.67 314.68 88.99 303.94 91.57 292.65C94.85 278.28 95.53 268.93 93.55 265.6C93.13 264.89 92.6 264.46 91.91 264.33C90.24 264.01 88.65 264.35 87.18 265.35C81.37 269.32 79 282.08 78.98 282.21L78.64 284.04L78.04 282.27C78.01 282.18 74.89 273.23 70.59 272.52C69.05 272.26 67.48 273.15 65.92 275.15C58.89 284.21 72.31 325.82 72.46 326.25L73.3 328.83L71.61 326.7C71.55 326.62 65.16 318.61 59.35 318.91C57.25 319 55.45 320.21 53.99 322.46C51.75 325.92 52.89 331.34 57.35 338.62C61.05 344.69 66.24 350.55 69.1 353.59Z" fill="#3FB1B5" fill-opacity="1.000000" fill-rule="nonzero"/>
	<path id="Vector" d="M77.68 355.2C77.41 355.2 77.2 354.97 77.2 354.71C77.41 327.64 81.29 304.34 84.52 289.57C88 273.54 91.49 263.78 91.52 263.68C91.62 263.42 91.9 263.29 92.14 263.39C92.4 263.49 92.53 263.76 92.43 264.01C92.4 264.1 88.93 273.82 85.46 289.78C82.24 304.5 78.38 327.74 78.17 354.71C78.17 354.99 77.94 355.2 77.68 355.2Z" fill="#3FB1B5" fill-opacity="1.000000" fill-rule="nonzero"/>
	<path id="Vector" d="M80.61 314.98C80.59 314.98 80.56 314.98 80.52 314.98C80.26 314.94 80.07 314.68 80.12 314.43C81.73 303.81 78.01 282.42 77.98 282.21C77.93 281.95 78.11 281.69 78.37 281.64C78.63 281.59 78.89 281.77 78.93 282.03C78.97 282.24 82.71 303.79 81.08 314.57C81.04 314.8 80.85 314.98 80.61 314.98Z" fill="#3FB1B5" fill-opacity="1.000000" fill-rule="nonzero"/>
	<path id="Vector" d="M80.99 355.1C80.98 355.1 80.98 355.1 80.96 355.1C80.69 355.08 80.49 354.86 80.51 354.58C81.43 339.09 86.19 326.18 90.02 318.09C94.17 309.33 98.18 304.13 98.21 304.08C98.37 303.87 98.68 303.84 98.89 304C99.1 304.16 99.14 304.47 98.97 304.68C98.94 304.73 94.98 309.86 90.88 318.55C87.08 326.55 82.37 339.33 81.46 354.66C81.46 354.9 81.25 355.1 80.99 355.1Z" fill="#3FB1B5" fill-opacity="1.000000" fill-rule="nonzero"/>
	<path id="Vector" d="M74.34 355.12C74.08 355.12 73.85 354.9 73.85 354.63C73.69 343.21 68.53 334.59 64.22 329.36C59.54 323.7 54.87 320.69 54.84 320.68C54.61 320.53 54.54 320.24 54.69 320.01C54.84 319.78 55.13 319.72 55.36 319.86C55.55 319.99 60.21 322.97 64.98 328.76C69.38 334.1 74.66 342.94 74.83 354.63C74.83 354.89 74.62 355.12 74.34 355.12Z" fill="#3FB1B5" fill-opacity="1.000000" fill-rule="nonzero"/>
	<path id="Vector" d="M61.73 315.09C59.64 315.09 57.94 313.39 57.94 311.29C57.94 309.2 59.64 307.49 61.73 307.49C63.83 307.49 65.53 309.2 65.53 311.29C65.53 313.39 63.83 315.09 61.73 315.09ZM61.73 308.47C60.18 308.47 58.91 309.73 58.91 311.29C58.91 312.85 60.18 314.12 61.73 314.12C63.29 314.12 64.56 312.85 64.56 311.29C64.56 309.73 63.29 308.47 61.73 308.47Z" fill="#FFCF2D" fill-opacity="1.000000" fill-rule="nonzero"/>
	<path id="Vector" d="M54.07 310.09C52.97 310.09 52.06 309.18 52.06 308.08C52.06 306.97 52.97 306.06 54.07 306.06C55.18 306.06 56.09 306.97 56.09 308.08C56.09 309.18 55.18 310.09 54.07 310.09ZM54.07 307.04C53.51 307.04 53.04 307.51 53.04 308.08C53.04 308.64 53.51 309.12 54.07 309.12C54.64 309.12 55.11 308.64 55.11 308.08C55.11 307.51 54.64 307.04 54.07 307.04Z" fill="#FFCF2D" fill-opacity="1.000000" fill-rule="nonzero"/>
	<path id="Vector" d="M56.27 348.47C55.16 348.47 54.25 347.56 54.25 346.46C54.25 345.36 55.16 344.45 56.27 344.45C57.37 344.45 58.28 345.36 58.28 346.46C58.28 347.56 57.37 348.47 56.27 348.47ZM56.27 345.42C55.7 345.42 55.23 345.89 55.23 346.46C55.23 347.03 55.7 347.5 56.27 347.5C56.83 347.5 57.3 347.03 57.3 346.46C57.3 345.89 56.83 345.42 56.27 345.42Z" fill="#FFCF2D" fill-opacity="1.000000" fill-rule="nonzero"/>
	<path id="Vector" d="M96.86 301.32C94.77 301.32 93.07 299.62 93.07 297.52C93.07 295.43 94.77 293.72 96.86 293.72C98.96 293.72 100.66 295.43 100.66 297.52C100.66 299.62 98.96 301.32 96.86 301.32ZM96.86 294.7C95.31 294.7 94.04 295.96 94.04 297.52C94.04 299.08 95.31 300.35 96.86 300.35C98.42 300.35 99.69 299.08 99.69 297.52C99.69 295.96 98.42 294.7 96.86 294.7Z" fill="#FFCF2D" fill-opacity="1.000000" fill-rule="nonzero"/>
	<path id="Vector" d="M97.84 289.08C96.73 289.08 95.83 288.17 95.83 287.07C95.83 285.96 96.73 285.05 97.84 285.05C98.94 285.05 99.85 285.96 99.85 287.07C99.85 288.17 98.94 289.08 97.84 289.08ZM97.84 286.03C97.27 286.03 96.8 286.5 96.8 287.07C96.8 287.63 97.27 288.1 97.84 288.1C98.41 288.1 98.88 287.63 98.88 287.07C98.88 286.5 98.41 286.03 97.84 286.03Z" fill="#FFCF2D" fill-opacity="1.000000" fill-rule="nonzero"/>
	<path id="Vector" d="M103.37 301.32C102.27 301.32 101.36 300.41 101.36 299.31C101.36 298.2 102.27 297.29 103.37 297.29C104.47 297.29 105.38 298.2 105.38 299.31C105.38 300.41 104.47 301.32 103.37 301.32ZM103.37 298.27C102.8 298.27 102.33 298.74 102.33 299.31C102.33 299.88 102.8 300.35 103.37 300.35C103.94 300.35 104.41 299.88 104.41 299.31C104.41 298.74 103.94 298.27 103.37 298.27Z" fill="#FFCF2D" fill-opacity="1.000000" fill-rule="nonzero"/>
	<path id="Vector" d="M299.92 64.61L332.58 73.84C346.88 77.75 357.25 90.16 358.55 104.93L363.53 160.06L190.67 160.06L206.64 98.11C209.25 87.79 217.07 79.6 227.26 76.53L265.41 64.61L299.92 64.61Z" fill="#FE5244" fill-opacity="1.000000" fill-rule="nonzero"/>
	<path id="Vector" d="M201.96 153.72C201.96 154.59 201.26 155.3 200.39 155.3C199.52 155.3 198.82 154.59 198.82 153.72C198.82 152.85 199.52 152.15 200.39 152.15C201.26 152.15 201.96 152.85 201.96 153.72Z" fill="#FFFFFF" fill-opacity="1.000000" fill-rule="evenodd"/>
	<path id="Vector" d="M218.35 153.72C218.35 154.59 217.65 155.3 216.78 155.3C215.91 155.3 215.2 154.59 215.2 153.72C215.2 152.85 215.91 152.15 216.78 152.15C217.65 152.15 218.35 152.85 218.35 153.72Z" fill="#FFFFFF" fill-opacity="1.000000" fill-rule="evenodd"/>
	<path id="Vector" d="M234.74 153.72C234.74 154.59 234.04 155.3 233.17 155.3C232.3 155.3 231.59 154.59 231.59 153.72C231.59 152.85 232.3 152.15 233.17 152.15C234.04 152.15 234.74 152.85 234.74 153.72Z" fill="#FFFFFF" fill-opacity="1.000000" fill-rule="evenodd"/>
	<path id="Vector" d="M251.13 153.72C251.13 154.59 250.42 155.3 249.56 155.3C248.69 155.3 247.98 154.59 247.98 153.72C247.98 152.85 248.69 152.15 249.56 152.15C250.42 152.15 251.13 152.85 251.13 153.72Z" fill="#FFFFFF" fill-opacity="1.000000" fill-rule="evenodd"/>
	<path id="Vector" d="M267.52 153.72C267.52 154.59 266.81 155.3 265.94 155.3C265.07 155.3 264.37 154.59 264.37 153.72C264.37 152.85 265.07 152.15 265.94 152.15C266.81 152.15 267.52 152.85 267.52 153.72Z" fill="#FFFFFF" fill-opacity="1.000000" fill-rule="evenodd"/>
	<path id="Vector" d="M283.91 153.72C283.91 154.59 283.2 155.3 282.33 155.3C281.46 155.3 280.76 154.59 280.76 153.72C280.76 152.85 281.46 152.15 282.33 152.15C283.2 152.15 283.91 152.85 283.91 153.72Z" fill="#FFFFFF" fill-opacity="1.000000" fill-rule="evenodd"/>
	<path id="Vector" d="M300.29 153.72C300.29 154.59 299.59 155.3 298.72 155.3C297.85 155.3 297.15 154.59 297.15 153.72C297.15 152.85 297.85 152.15 298.72 152.15C299.59 152.15 300.29 152.85 300.29 153.72Z" fill="#FFFFFF" fill-opacity="1.000000" fill-rule="evenodd"/>
	<path id="Vector" d="M316.68 153.72C316.68 154.59 315.98 155.3 315.11 155.3C314.24 155.3 313.54 154.59 313.54 153.72C313.54 152.85 314.24 152.15 315.11 152.15C315.98 152.15 316.68 152.85 316.68 153.72Z" fill="#FFFFFF" fill-opacity="1.000000" fill-rule="evenodd"/>
	<path id="Vector" d="M333.07 153.72C333.07 154.59 332.37 155.3 331.5 155.3C330.63 155.3 329.92 154.59 329.92 153.72C329.92 152.85 330.63 152.15 331.5 152.15C332.37 152.15 333.07 152.85 333.07 153.72Z" fill="#FFFFFF" fill-opacity="1.000000" fill-rule="evenodd"/>
	<path id="Vector" d="M349.46 153.72C349.46 154.59 348.76 155.3 347.89 155.3C347.02 155.3 346.31 154.59 346.31 153.72C346.31 152.85 347.02 152.15 347.89 152.15C348.76 152.15 349.46 152.85 349.46 153.72Z" fill="#FFFFFF" fill-opacity="1.000000" fill-rule="evenodd"/>
	<path id="Vector" d="M210.4 142.68C210.4 143.55 209.7 144.26 208.83 144.26C207.96 144.26 207.25 143.55 207.25 142.68C207.25 141.81 207.96 141.11 208.83 141.11C209.7 141.11 210.4 141.81 210.4 142.68Z" fill="#FFFFFF" fill-opacity="1.000000" fill-rule="evenodd"/>
	<path id="Vector" d="M226.79 142.68C226.79 143.55 226.09 144.26 225.22 144.26C224.35 144.26 223.64 143.55 223.64 142.68C223.64 141.81 224.35 141.11 225.22 141.11C226.09 141.11 226.79 141.81 226.79 142.68Z" fill="#FFFFFF" fill-opacity="1.000000" fill-rule="evenodd"/>
	<path id="Vector" d="M243.18 142.68C243.18 143.55 242.47 144.26 241.6 144.26C240.74 144.26 240.03 143.55 240.03 142.68C240.03 141.81 240.74 141.11 241.6 141.11C242.47 141.11 243.18 141.81 243.18 142.68Z" fill="#FFFFFF" fill-opacity="1.000000" fill-rule="evenodd"/>
	<path id="Vector" d="M259.57 142.68C259.57 143.55 258.86 144.26 257.99 144.26C257.12 144.26 256.42 143.55 256.42 142.68C256.42 141.81 257.12 141.11 257.99 141.11C258.86 141.11 259.57 141.81 259.57 142.68Z" fill="#FFFFFF" fill-opacity="1.000000" fill-rule="evenodd"/>
	<path id="Vector" d="M275.95 142.68C275.95 143.55 275.25 144.26 274.38 144.26C273.51 144.26 272.81 143.55 272.81 142.68C272.81 141.81 273.51 141.11 274.38 141.11C275.25 141.11 275.95 141.81 275.95 142.68Z" fill="#FFFFFF" fill-opacity="1.000000" fill-rule="evenodd"/>
	<path id="Vector" d="M292.34 142.68C292.34 143.55 291.64 144.26 290.77 144.26C289.9 144.26 289.2 143.55 289.2 142.68C289.2 141.81 289.9 141.11 290.77 141.11C291.64 141.11 292.34 141.81 292.34 142.68Z" fill="#FFFFFF" fill-opacity="1.000000" fill-rule="evenodd"/>
	<path id="Vector" d="M308.73 142.68C308.73 143.55 308.03 144.26 307.16 144.26C306.29 144.26 305.58 143.55 305.58 142.68C305.58 141.81 306.29 141.11 307.16 141.11C308.03 141.11 308.73 141.81 308.73 142.68Z" fill="#FFFFFF" fill-opacity="1.000000" fill-rule="evenodd"/>
	<path id="Vector" d="M325.12 142.68C325.12 143.55 324.42 144.26 323.55 144.26C322.68 144.26 321.97 143.55 321.97 142.68C321.97 141.81 322.68 141.11 323.55 141.11C324.42 141.11 325.12 141.81 325.12 142.68Z" fill="#FFFFFF" fill-opacity="1.000000" fill-rule="evenodd"/>
	<path id="Vector" d="M341.51 142.68C341.51 143.55 340.81 144.26 339.94 144.26C339.07 144.26 338.36 143.55 338.36 142.68C338.36 141.81 339.07 141.11 339.94 141.11C340.81 141.11 341.51 141.81 341.51 142.68Z" fill="#FFFFFF" fill-opacity="1.000000" fill-rule="evenodd"/>
	<path id="Vector" d="M357.9 142.68C357.9 143.55 357.19 144.26 356.32 144.26C355.45 144.26 354.75 143.55 354.75 142.68C354.75 141.81 355.45 141.11 356.32 141.11C357.19 141.11 357.9 141.81 357.9 142.68Z" fill="#FFFFFF" fill-opacity="1.000000" fill-rule="evenodd"/>
	<path id="Vector" d="M201.96 131.32C201.96 132.19 201.26 132.89 200.39 132.89C199.52 132.89 198.82 132.19 198.82 131.32C198.82 130.45 199.52 129.74 200.39 129.74C201.26 129.74 201.96 130.45 201.96 131.32Z" fill="#FFFFFF" fill-opacity="1.000000" fill-rule="evenodd"/>
	<path id="Vector" d="M218.35 131.32C218.35 132.19 217.65 132.89 216.78 132.89C215.91 132.89 215.2 132.19 215.2 131.32C215.2 130.45 215.91 129.74 216.78 129.74C217.65 129.74 218.35 130.45 218.35 131.32Z" fill="#FFFFFF" fill-opacity="1.000000" fill-rule="evenodd"/>
	<path id="Vector" d="M234.74 131.32C234.74 132.19 234.04 132.89 233.17 132.89C232.3 132.89 231.59 132.19 231.59 131.32C231.59 130.45 232.3 129.74 233.17 129.74C234.04 129.74 234.74 130.45 234.74 131.32Z" fill="#FFFFFF" fill-opacity="1.000000" fill-rule="evenodd"/>
	<path id="Vector" d="M251.13 131.32C251.13 132.19 250.42 132.89 249.56 132.89C248.69 132.89 247.98 132.19 247.98 131.32C247.98 130.45 248.69 129.74 249.56 129.74C250.42 129.74 251.13 130.45 251.13 131.32Z" fill="#FFFFFF" fill-opacity="1.000000" fill-rule="evenodd"/>
	<path id="Vector" d="M267.52 131.32C267.52 132.19 266.81 132.89 265.94 132.89C265.07 132.89 264.37 132.19 264.37 131.32C264.37 130.45 265.07 129.74 265.94 129.74C266.81 129.74 267.52 130.45 267.52 131.32Z" fill="#FFFFFF" fill-opacity="1.000000" fill-rule="evenodd"/>
	<path id="Vector" d="M283.91 131.32C283.91 132.19 283.2 132.89 282.33 132.89C281.46 132.89 280.76 132.19 280.76 131.32C280.76 130.45 281.46 129.74 282.33 129.74C283.2 129.74 283.91 130.45 283.91 131.32Z" fill="#FFFFFF" fill-opacity="1.000000" fill-rule="evenodd"/>
	<path id="Vector" d="M300.29 131.32C300.29 132.19 299.59 132.89 298.72 132.89C297.85 132.89 297.15 132.19 297.15 131.32C297.15 130.45 297.85 129.74 298.72 129.74C299.59 129.74 300.29 130.45 300.29 131.32Z" fill="#FFFFFF" fill-opacity="1.000000" fill-rule="evenodd"/>
	<path id="Vector" d="M316.68 131.32C316.68 132.19 315.98 132.89 315.11 132.89C314.24 132.89 313.54 132.19 313.54 131.32C313.54 130.45 314.24 129.74 315.11 129.74C315.98 129.74 316.68 130.45 316.68 131.32Z" fill="#FFFFFF" fill-opacity="1.000000" fill-rule="evenodd"/>
	<path id="Vector" d="M333.07 131.32C333.07 132.19 332.37 132.89 331.5 132.89C330.63 132.89 329.92 132.19 329.92 131.32C329.92 130.45 330.63 129.74 331.5 129.74C332.37 129.74 333.07 130.45 333.07 131.32Z" fill="#FFFFFF" fill-opacity="1.000000" fill-rule="evenodd"/>
	<path id="Vector" d="M349.46 131.32C349.46 132.19 348.76 132.89 347.89 132.89C347.02 132.89 346.31 132.19 346.31 131.32C346.31 130.45 347.02 129.74 347.89 129.74C348.76 129.74 349.46 130.45 349.46 131.32Z" fill="#FFFFFF" fill-opacity="1.000000" fill-rule="evenodd"/>
	<path id="Vector" d="M210.4 120.76C210.4 121.63 209.7 122.34 208.83 122.34C207.96 122.34 207.25 121.63 207.25 120.76C207.25 119.89 207.96 119.19 208.83 119.19C209.7 119.19 210.4 119.89 210.4 120.76Z" fill="#FFFFFF" fill-opacity="1.000000" fill-rule="evenodd"/>
	<path id="Vector" d="M226.79 120.76C226.79 121.63 226.09 122.34 225.22 122.34C224.35 122.34 223.64 121.63 223.64 120.76C223.64 119.89 224.35 119.19 225.22 119.19C226.09 119.19 226.79 119.89 226.79 120.76Z" fill="#FFFFFF" fill-opacity="1.000000" fill-rule="evenodd"/>
	<path id="Vector" d="M243.18 120.76C243.18 121.63 242.47 122.34 241.6 122.34C240.74 122.34 240.03 121.63 240.03 120.76C240.03 119.89 240.74 119.19 241.6 119.19C242.47 119.19 243.18 119.89 243.18 120.76Z" fill="#FFFFFF" fill-opacity="1.000000" fill-rule="evenodd"/>
	<path id="Vector" d="M259.57 120.76C259.57 121.63 258.86 122.34 257.99 122.34C257.12 122.34 256.42 121.63 256.42 120.76C256.42 119.89 257.12 119.19 257.99 119.19C258.86 119.19 259.57 119.89 259.57 120.76Z" fill="#FFFFFF" fill-opacity="1.000000" fill-rule="evenodd"/>
	<path id="Vector" d="M275.95 120.76C275.95 121.63 275.25 122.34 274.38 122.34C273.51 122.34 272.81 121.63 272.81 120.76C272.81 119.89 273.51 119.19 274.38 119.19C275.25 119.19 275.95 119.89 275.95 120.76Z" fill="#FFFFFF" fill-opacity="1.000000" fill-rule="evenodd"/>
	<path id="Vector" d="M292.34 120.76C292.34 121.63 291.64 122.34 290.77 122.34C289.9 122.34 289.2 121.63 289.2 120.76C289.2 119.89 289.9 119.19 290.77 119.19C291.64 119.19 292.34 119.89 292.34 120.76Z" fill="#FFFFFF" fill-opacity="1.000000" fill-rule="evenodd"/>
	<path id="Vector" d="M308.73 120.76C308.73 121.63 308.03 122.34 307.16 122.34C306.29 122.34 305.58 121.63 305.58 120.76C305.58 119.89 306.29 119.19 307.16 119.19C308.03 119.19 308.73 119.89 308.73 120.76Z" fill="#FFFFFF" fill-opacity="1.000000" fill-rule="evenodd"/>
	<path id="Vector" d="M325.61 120.76C325.61 121.63 324.9 122.34 324.03 122.34C323.16 122.34 322.46 121.63 322.46 120.76C322.46 119.89 323.16 119.19 324.03 119.19C324.9 119.19 325.61 119.89 325.61 120.76Z" fill="#FFFFFF" fill-opacity="1.000000" fill-rule="evenodd"/>
	<path id="Vector" d="M341.51 120.76C341.51 121.63 340.81 122.34 339.94 122.34C339.07 122.34 338.36 121.63 338.36 120.76C338.36 119.89 339.07 119.19 339.94 119.19C340.81 119.19 341.51 119.89 341.51 120.76Z" fill="#FFFFFF" fill-opacity="1.000000" fill-rule="evenodd"/>
	<path id="Vector" d="M357.9 120.76C357.9 121.63 357.19 122.34 356.32 122.34C355.45 122.34 354.75 121.63 354.75 120.76C354.75 119.89 355.45 119.19 356.32 119.19C357.19 119.19 357.9 119.89 357.9 120.76Z" fill="#FFFFFF" fill-opacity="1.000000" fill-rule="evenodd"/>
	<path id="Vector" d="M218.35 109.88C218.35 110.75 217.65 111.46 216.78 111.46C215.91 111.46 215.2 110.75 215.2 109.88C215.2 109.01 215.91 108.31 216.78 108.31C217.65 108.31 218.35 109.01 218.35 109.88Z" fill="#FFFFFF" fill-opacity="1.000000" fill-rule="evenodd"/>
	<path id="Vector" d="M251.13 109.88C251.13 110.75 250.42 111.46 249.56 111.46C248.69 111.46 247.98 110.75 247.98 109.88C247.98 109.01 248.69 108.31 249.56 108.31C250.42 108.31 251.13 109.01 251.13 109.88Z" fill="#FFFFFF" fill-opacity="1.000000" fill-rule="evenodd"/>
	<path id="Vector" d="M267.52 109.88C267.52 110.75 266.81 111.46 265.94 111.46C265.07 111.46 264.37 110.75 264.37 109.88C264.37 109.01 265.07 108.31 265.94 108.31C266.81 108.31 267.52 109.01 267.52 109.88Z" fill="#FFFFFF" fill-opacity="1.000000" fill-rule="evenodd"/>
	<path id="Vector" d="M283.91 109.88C283.91 110.75 283.2 111.46 282.33 111.46C281.46 111.46 280.76 110.75 280.76 109.88C280.76 109.01 281.46 108.31 282.33 108.31C283.2 108.31 283.91 109.01 283.91 109.88Z" fill="#FFFFFF" fill-opacity="1.000000" fill-rule="evenodd"/>
	<path id="Vector" d="M300.29 109.88C300.29 110.75 299.59 111.46 298.72 111.46C297.85 111.46 297.15 110.75 297.15 109.88C297.15 109.01 297.85 108.31 298.72 108.31C299.59 108.31 300.29 109.01 300.29 109.88Z" fill="#FFFFFF" fill-opacity="1.000000" fill-rule="evenodd"/>
	<path id="Vector" d="M316.68 109.88C316.68 110.75 315.98 111.46 315.11 111.46C314.24 111.46 313.54 110.75 313.54 109.88C313.54 109.01 314.24 108.31 315.11 108.31C315.98 108.31 316.68 109.01 316.68 109.88Z" fill="#FFFFFF" fill-opacity="1.000000" fill-rule="evenodd"/>
	<path id="Vector" d="M333.07 109.88C333.07 110.75 332.37 111.46 331.5 111.46C330.63 111.46 329.92 110.75 329.92 109.88C329.92 109.01 330.63 108.31 331.5 108.31C332.37 108.31 333.07 109.01 333.07 109.88Z" fill="#FFFFFF" fill-opacity="1.000000" fill-rule="evenodd"/>
	<path id="Vector" d="M349.46 109.88C349.46 110.75 348.76 111.46 347.89 111.46C347.02 111.46 346.31 110.75 346.31 109.88C346.31 109.01 347.02 108.31 347.89 108.31C348.76 108.31 349.46 109.01 349.46 109.88Z" fill="#FFFFFF" fill-opacity="1.000000" fill-rule="evenodd"/>
	<path id="Vector" d="M210.4 99.17C210.4 100.04 209.7 100.74 208.83 100.74C207.96 100.74 207.25 100.04 207.25 99.17C207.25 98.3 207.96 97.59 208.83 97.59C209.7 97.59 210.4 98.3 210.4 99.17Z" fill="#FFFFFF" fill-opacity="1.000000" fill-rule="evenodd"/>
	<path id="Vector" d="M226.79 99.17C226.79 100.04 226.09 100.74 225.22 100.74C224.35 100.74 223.64 100.04 223.64 99.17C223.64 98.3 224.35 97.59 225.22 97.59C226.09 97.59 226.79 98.3 226.79 99.17Z" fill="#FFFFFF" fill-opacity="1.000000" fill-rule="evenodd"/>
	<path id="Vector" d="M243.18 99.17C243.18 100.04 242.47 100.74 241.6 100.74C240.74 100.74 240.03 100.04 240.03 99.17C240.03 98.3 240.74 97.59 241.6 97.59C242.47 97.59 243.18 98.3 243.18 99.17Z" fill="#FFFFFF" fill-opacity="1.000000" fill-rule="evenodd"/>
	<path id="Vector" d="M259.57 99.17C259.57 100.04 258.86 100.74 257.99 100.74C257.12 100.74 256.42 100.04 256.42 99.17C256.42 98.3 257.12 97.59 257.99 97.59C258.86 97.59 259.57 98.3 259.57 99.17Z" fill="#FFFFFF" fill-opacity="1.000000" fill-rule="evenodd"/>
	<path id="Vector" d="M275.95 99.17C275.95 100.04 275.25 100.74 274.38 100.74C273.51 100.74 272.81 100.04 272.81 99.17C272.81 98.3 273.51 97.59 274.38 97.59C275.25 97.59 275.95 98.3 275.95 99.17Z" fill="#FFFFFF" fill-opacity="1.000000" fill-rule="evenodd"/>
	<path id="Vector" d="M292.34 99.17C292.34 100.04 291.64 100.74 290.77 100.74C289.9 100.74 289.2 100.04 289.2 99.17C289.2 98.3 289.9 97.59 290.77 97.59C291.64 97.59 292.34 98.3 292.34 99.17Z" fill="#FFFFFF" fill-opacity="1.000000" fill-rule="evenodd"/>
	<path id="Vector" d="M308.73 99.17C308.73 100.04 308.03 100.74 307.16 100.74C306.29 100.74 305.58 100.04 305.58 99.17C305.58 98.3 306.29 97.59 307.16 97.59C308.03 97.59 308.73 98.3 308.73 99.17Z" fill="#FFFFFF" fill-opacity="1.000000" fill-rule="evenodd"/>
	<path id="Vector" d="M325.12 99.17C325.12 100.04 324.42 100.74 323.55 100.74C322.68 100.74 321.97 100.04 321.97 99.17C321.97 98.3 322.68 97.59 323.55 97.59C324.42 97.59 325.12 98.3 325.12 99.17Z" fill="#FFFFFF" fill-opacity="1.000000" fill-rule="evenodd"/>
	<path id="Vector" d="M341.51 99.17C341.51 100.04 340.81 100.74 339.94 100.74C339.07 100.74 338.36 100.04 338.36 99.17C338.36 98.3 339.07 97.59 339.94 97.59C340.81 97.59 341.51 98.3 341.51 99.17Z" fill="#FFFFFF" fill-opacity="1.000000" fill-rule="evenodd"/>
	<path id="Vector" d="M357.09 99.17C357.09 100.04 356.38 100.74 355.51 100.74C354.64 100.74 353.94 100.04 353.94 99.17C353.94 98.3 354.64 97.59 355.51 97.59C356.38 97.59 357.09 98.3 357.09 99.17Z" fill="#FFFFFF" fill-opacity="1.000000" fill-rule="evenodd"/>
	<path id="Vector" d="M218.35 88.61C218.35 89.48 217.65 90.19 216.78 90.19C215.91 90.19 215.2 89.48 215.2 88.61C215.2 87.74 215.91 87.04 216.78 87.04C217.65 87.04 218.35 87.74 218.35 88.61Z" fill="#FFFFFF" fill-opacity="1.000000" fill-rule="evenodd"/>
	<path id="Vector" d="M234.74 88.61C234.74 89.48 234.04 90.19 233.17 90.19C232.3 90.19 231.59 89.48 231.59 88.61C231.59 87.74 232.3 87.04 233.17 87.04C234.04 87.04 234.74 87.74 234.74 88.61Z" fill="#FFFFFF" fill-opacity="1.000000" fill-rule="evenodd"/>
	<path id="Vector" d="M251.13 88.61C251.13 89.48 250.42 90.19 249.56 90.19C248.69 90.19 247.98 89.48 247.98 88.61C247.98 87.74 248.69 87.04 249.56 87.04C250.42 87.04 251.13 87.74 251.13 88.61Z" fill="#FFFFFF" fill-opacity="1.000000" fill-rule="evenodd"/>
	<path id="Vector" d="M267.52 88.61C267.52 89.48 266.81 90.19 265.94 90.19C265.07 90.19 264.37 89.48 264.37 88.61C264.37 87.74 265.07 87.04 265.94 87.04C266.81 87.04 267.52 87.74 267.52 88.61Z" fill="#FFFFFF" fill-opacity="1.000000" fill-rule="evenodd"/>
	<path id="Vector" d="M283.91 88.61C283.91 89.48 283.2 90.19 282.33 90.19C281.46 90.19 280.76 89.48 280.76 88.61C280.76 87.74 281.46 87.04 282.33 87.04C283.2 87.04 283.91 87.74 283.91 88.61Z" fill="#FFFFFF" fill-opacity="1.000000" fill-rule="evenodd"/>
	<path id="Vector" d="M300.29 88.61C300.29 89.48 299.59 90.19 298.72 90.19C297.85 90.19 297.15 89.48 297.15 88.61C297.15 87.74 297.85 87.04 298.72 87.04C299.59 87.04 300.29 87.74 300.29 88.61Z" fill="#FFFFFF" fill-opacity="1.000000" fill-rule="evenodd"/>
	<path id="Vector" d="M316.68 88.61C316.68 89.48 315.98 90.19 315.11 90.19C314.24 90.19 313.54 89.48 313.54 88.61C313.54 87.74 314.24 87.04 315.11 87.04C315.98 87.04 316.68 87.74 316.68 88.61Z" fill="#FFFFFF" fill-opacity="1.000000" fill-rule="evenodd"/>
	<path id="Vector" d="M333.07 88.61C333.07 89.48 332.37 90.19 331.5 90.19C330.63 90.19 329.92 89.48 329.92 88.61C329.92 87.74 330.63 87.04 331.5 87.04C332.37 87.04 333.07 87.74 333.07 88.61Z" fill="#FFFFFF" fill-opacity="1.000000" fill-rule="evenodd"/>
	<path id="Vector" d="M349.46 88.61C349.46 89.48 348.76 90.19 347.89 90.19C347.02 90.19 346.31 89.48 346.31 88.61C346.31 87.74 347.02 87.04 347.89 87.04C348.76 87.04 349.46 87.74 349.46 88.61Z" fill="#FFFFFF" fill-opacity="1.000000" fill-rule="evenodd"/>
	<path id="Vector" d="M267.52 68.8C267.52 69.67 266.81 70.38 265.94 70.38C265.07 70.38 264.37 69.67 264.37 68.8C264.37 67.93 265.07 67.23 265.94 67.23C266.81 67.23 267.52 67.93 267.52 68.8Z" fill="#FFFFFF" fill-opacity="1.000000" fill-rule="evenodd"/>
	<path id="Vector" d="M283.91 68.8C283.91 69.67 283.2 70.38 282.33 70.38C281.46 70.38 280.76 69.67 280.76 68.8C280.76 67.93 281.46 67.23 282.33 67.23C283.2 67.23 283.91 67.93 283.91 68.8Z" fill="#FFFFFF" fill-opacity="1.000000" fill-rule="evenodd"/>
	<path id="Vector" d="M300.29 68.8C300.29 69.67 299.59 70.38 298.72 70.38C297.85 70.38 297.15 69.67 297.15 68.8C297.15 67.93 297.85 67.23 298.72 67.23C299.59 67.23 300.29 67.93 300.29 68.8Z" fill="#FFFFFF" fill-opacity="1.000000" fill-rule="evenodd"/>
	<path id="Vector" d="M316.6 69.32C316.39 69.94 315.81 70.38 315.11 70.38C314.25 70.38 313.54 69.68 313.54 68.8C313.54 68.69 313.55 68.58 313.57 68.46L316.6 69.32Z" fill="#FFFFFF" fill-opacity="1.000000" fill-rule="nonzero"/>
	<path id="Vector" d="M226.79 78.71C226.79 79.58 226.09 80.28 225.22 80.28C224.35 80.28 223.64 79.58 223.64 78.71C223.64 77.84 224.35 77.13 225.22 77.13C226.09 77.13 226.79 77.84 226.79 78.71Z" fill="#FFFFFF" fill-opacity="1.000000" fill-rule="evenodd"/>
	<path id="Vector" d="M243.18 78.71C243.18 79.58 242.47 80.28 241.6 80.28C240.74 80.28 240.03 79.58 240.03 78.71C240.03 77.84 240.74 77.13 241.6 77.13C242.47 77.13 243.18 77.84 243.18 78.71Z" fill="#FFFFFF" fill-opacity="1.000000" fill-rule="evenodd"/>
	<path id="Vector" d="M258.01 76.61C258.01 77.48 257.3 78.19 256.43 78.19C255.57 78.19 254.86 77.48 254.86 76.61C254.86 75.74 255.57 75.04 256.43 75.04C257.3 75.04 258.01 75.74 258.01 76.61Z" fill="#FFFFFF" fill-opacity="1.000000" fill-rule="evenodd"/>
	<path id="Vector" d="M275.96 78.71C275.96 79.58 275.25 80.28 274.38 80.28C273.51 80.28 272.81 79.58 272.81 78.71C272.81 77.84 273.51 77.13 274.38 77.13C275.25 77.13 275.96 77.84 275.96 78.71Z" fill="#FFFFFF" fill-opacity="1.000000" fill-rule="evenodd"/>
	<path id="Vector" d="M292.34 78.71C292.34 79.58 291.64 80.28 290.77 80.28C289.9 80.28 289.2 79.58 289.2 78.71C289.2 77.84 289.9 77.13 290.77 77.13C291.64 77.13 292.34 77.84 292.34 78.71Z" fill="#FFFFFF" fill-opacity="1.000000" fill-rule="evenodd"/>
	<path id="Vector" d="M308.73 78.71C308.73 79.58 308.03 80.28 307.16 80.28C306.29 80.28 305.58 79.58 305.58 78.71C305.58 77.84 306.29 77.13 307.16 77.13C308.03 77.13 308.73 77.84 308.73 78.71Z" fill="#FFFFFF" fill-opacity="1.000000" fill-rule="evenodd"/>
	<path id="Vector" d="M325.12 78.71C325.12 79.58 324.42 80.28 323.55 80.28C322.68 80.28 321.97 79.58 321.97 78.71C321.97 77.84 322.68 77.13 323.55 77.13C324.42 77.13 325.12 77.84 325.12 78.71Z" fill="#FFFFFF" fill-opacity="1.000000" fill-rule="evenodd"/>
	<path id="Vector" d="M341.51 78.71C341.51 79.58 340.81 80.28 339.94 80.28C339.07 80.28 338.36 79.58 338.36 78.71C338.36 77.84 339.07 77.13 339.94 77.13C340.81 77.13 341.51 77.84 341.51 78.71Z" fill="#FFFFFF" fill-opacity="1.000000" fill-rule="evenodd"/>
	<path id="Vector" d="M325.9 161.01C325.64 161.01 325.43 160.82 325.41 160.56L321.84 111.96C321.83 111.68 322.02 111.46 322.3 111.44C322.57 111.43 322.8 111.62 322.82 111.9L326.39 160.49C326.4 160.77 326.21 161 325.93 161.01C325.92 161.01 325.92 161.01 325.9 161.01Z" fill="#FFFFFF" fill-opacity="1.000000" fill-rule="nonzero"/>
	<path id="Vector" d="M241.44 161.02C241.17 161.02 240.95 160.8 240.95 160.53L240.95 146.08L237.82 144.24C231.92 140.78 229 133.96 230.52 127.29L235.7 104.69C235.76 104.43 236.02 104.27 236.28 104.31C236.54 104.38 236.7 104.64 236.66 104.9L231.48 127.5C230.04 133.75 232.79 140.13 238.33 143.38L241.94 145.51L241.94 160.51C241.93 160.8 241.72 161.02 241.44 161.02Z" fill="#FFFFFF" fill-opacity="1.000000" fill-rule="nonzero"/>
	<path id="Vector" d="M275.21 96.7L264.11 64.55C264.03 64.29 264.16 64.01 264.42 63.93C264.68 63.85 264.95 63.98 265.03 64.24L275.55 94.73L300.07 64.09C300.23 63.88 300.54 63.85 300.75 64.01C300.96 64.17 300.99 64.48 300.83 64.69L275.21 96.7Z" fill="#FFFFFF" fill-opacity="1.000000" fill-rule="nonzero"/>
	<path id="Vector" d="M304.07 86.01L293.06 73.24C292.88 73.02 292.91 72.73 293.11 72.55C293.32 72.37 293.61 72.41 293.79 72.6L303.99 84.44L314.62 69.29C314.78 69.06 315.08 69.01 315.3 69.18C315.53 69.34 315.58 69.63 315.42 69.86L304.07 86.01Z" fill="#FFFFFF" fill-opacity="1.000000" fill-rule="nonzero"/>
	<path id="Vector" d="M255.07 84.2L247.58 70C247.45 69.76 247.54 69.47 247.77 69.34C248.01 69.21 248.31 69.31 248.44 69.53L255.38 82.65L267.29 72.54C267.5 72.36 267.81 72.39 267.97 72.59C268.15 72.8 268.12 73.11 267.92 73.27L255.07 84.2Z" fill="#FFFFFF" fill-opacity="1.000000" fill-rule="nonzero"/>
	<path id="Vector" d="M233.78 115.66C233.56 115.66 233.36 115.5 233.31 115.27L231.09 104.9C231.04 104.64 231.2 104.38 231.46 104.31C231.72 104.25 231.98 104.43 232.05 104.69L234.27 115.06C234.32 115.32 234.16 115.58 233.9 115.65C233.85 115.66 233.82 115.66 233.78 115.66Z" fill="#FFFFFF" fill-opacity="1.000000" fill-rule="nonzero"/>
	<path id="Vector" d="M277.11 202.65L232.63 202.65L212.96 171.91L257.44 171.91L277.11 202.65Z" fill="#FFCF2D" fill-opacity="1.000000" fill-rule="nonzero"/>
	<path id="Vector" d="M250.28 195.97L205.79 195.97L186.14 165.25L230.62 165.25L250.28 195.97Z" fill="#FFFFFF" fill-opacity="1.000000" fill-rule="nonzero"/>
	<path id="Vector" d="M250.28 196.46L205.79 196.46C205.63 196.46 205.47 196.38 205.39 196.23L185.74 165.51C185.64 165.37 185.64 165.17 185.72 165.01C185.8 164.85 185.96 164.75 186.14 164.75L230.62 164.75C230.78 164.75 230.94 164.83 231.02 164.98L250.69 195.7C250.79 195.84 250.79 196.04 250.71 196.2C250.63 196.36 250.46 196.46 250.28 196.46ZM206.05 195.49L249.39 195.49L230.36 165.74L187.03 165.74L206.05 195.49Z" fill="#3FB1B5" fill-opacity="1.000000" fill-rule="nonzero"/>
	<path id="Vector" d="M222.08 171.55C221.6 171.55 221.01 171.42 220.4 171.16L217.88 170.06C216.81 169.59 216.06 169.68 215.9 169.91L215.11 170.92C214.6 171.54 213.47 171.57 212.17 171L209.98 170.04C208.91 169.57 208.16 169.67 208 169.9L207.33 170.76C206.83 171.37 205.7 171.41 204.38 170.85L202.73 170.14C201.66 169.67 200.91 169.77 200.75 169.98L200.15 170.74C199.64 171.36 198.51 171.39 197.21 170.84L195.55 170.12C195.34 170.04 195.25 169.8 195.34 169.59C195.42 169.38 195.67 169.28 195.88 169.38L197.53 170.09C198.51 170.51 199.32 170.5 199.53 170.24L200.13 169.47C200.62 168.84 201.78 168.81 203.08 169.39L204.74 170.11C205.71 170.53 206.52 170.51 206.73 170.25L207.4 169.41C207.89 168.78 209.05 168.74 210.35 169.31L212.54 170.27C213.52 170.69 214.33 170.68 214.54 170.42L215.33 169.41C215.82 168.78 216.99 168.74 218.29 169.33L220.8 170.43C221.78 170.85 222.59 170.84 222.8 170.58L223.66 169.49C223.79 169.31 224.05 169.28 224.23 169.43C224.4 169.56 224.44 169.81 224.29 169.99L223.43 171.1C223.06 171.39 222.62 171.55 222.08 171.55Z" fill="#3FB1B5" fill-opacity="1.000000" fill-rule="nonzero"/>
	<path id="Vector" d="M227.16 178.05C226.68 178.05 226.09 177.92 225.47 177.66L222.96 176.55C221.89 176.08 221.14 176.18 220.98 176.41L220.18 177.41C219.68 178.03 218.55 178.06 217.25 177.5L215.06 176.54C213.99 176.07 213.24 176.16 213.08 176.39L212.41 177.25C211.91 177.87 210.77 177.9 209.46 177.35L207.8 176.64C206.73 176.16 205.99 176.26 205.82 176.47L205.22 177.24C204.72 177.85 203.59 177.89 202.29 177.33C202.08 177.25 201.98 177.01 202.08 176.8C202.16 176.59 202.4 176.49 202.61 176.59C203.59 177.01 204.4 176.99 204.61 176.73L205.21 175.97C205.69 175.34 206.86 175.3 208.16 175.89L209.82 176.6C210.79 177.02 211.6 177.01 211.81 176.75L212.48 175.9C212.96 175.27 214.13 175.24 215.43 175.81L217.62 176.77C218.59 177.19 219.41 177.17 219.62 176.91L220.41 175.9C220.9 175.27 222.07 175.24 223.37 175.82L225.88 176.93C226.85 177.35 227.66 177.33 227.88 177.07L228.74 175.99C228.87 175.81 229.13 175.77 229.3 175.92C229.48 176.05 229.52 176.31 229.37 176.49L228.51 177.59C228.14 177.89 227.7 178.05 227.16 178.05Z" fill="#3FB1B5" fill-opacity="1.000000" fill-rule="nonzero"/>
	<path id="Vector" d="M232.24 184.53C231.75 184.53 231.17 184.4 230.55 184.14L228.04 183.03C226.97 182.56 226.22 182.66 226.06 182.89L225.26 183.89C224.76 184.51 223.63 184.54 222.33 183.97L220.14 183.02C219.07 182.55 218.32 182.64 218.16 182.87L217.49 183.73C216.99 184.35 215.85 184.38 214.54 183.83L212.88 183.11C211.81 182.64 211.07 182.74 210.9 182.95L210.3 183.71C209.8 184.33 208.66 184.36 207.37 183.81L205.71 183.1C205.5 183.02 205.4 182.77 205.5 182.56C205.58 182.35 205.83 182.25 206.04 182.35L207.69 183.06C208.66 183.49 209.48 183.47 209.69 183.21L210.29 182.45C210.77 181.81 211.94 181.78 213.24 182.37L214.9 183.08C215.87 183.5 216.68 183.49 216.89 183.23L217.56 182.38C218.04 181.75 219.21 181.72 220.51 182.29L222.7 183.24C223.67 183.67 224.49 183.65 224.7 183.39L225.49 182.38C225.98 181.75 227.15 181.72 228.44 182.3L230.96 183.41C231.93 183.83 232.74 183.81 232.96 183.55L233.82 182.45C233.95 182.27 234.2 182.24 234.38 182.38C234.56 182.51 234.59 182.77 234.45 182.95L233.59 184.06C233.22 184.36 232.78 184.53 232.24 184.53Z" fill="#3FB1B5" fill-opacity="1.000000" fill-rule="nonzero"/>
	<path id="Vector" d="M237.32 191.02C236.83 191.02 236.25 190.89 235.63 190.63L233.12 189.53C232.05 189.06 231.3 189.15 231.14 189.38L230.34 190.39C229.84 191.01 228.7 191.04 227.41 190.47L225.22 189.51C224.14 189.04 223.4 189.14 223.24 189.36L222.57 190.23C222.07 190.84 220.93 190.88 219.62 190.32L217.96 189.61C216.89 189.14 216.14 189.23 215.98 189.45L215.38 190.21C214.88 190.83 213.74 190.86 212.45 190.31L210.79 189.59C210.58 189.51 210.48 189.27 210.58 189.06C210.66 188.85 210.9 188.75 211.11 188.85L212.77 189.56C213.79 190 214.55 189.97 214.77 189.71L215.37 188.94C215.85 188.31 217.02 188.28 218.32 188.86L219.97 189.58C220.95 190 221.76 189.98 221.97 189.72L222.64 188.88C223.12 188.24 224.29 188.21 225.59 188.78L227.78 189.74C228.75 190.16 229.56 190.14 229.77 189.88L230.57 188.88C231.06 188.24 232.22 188.21 233.52 188.8L236.04 189.9C237.04 190.34 237.82 190.31 238.03 190.05L238.89 188.96C239.02 188.78 239.28 188.75 239.46 188.89C239.64 189.02 239.67 189.28 239.53 189.46L238.67 190.57C238.29 190.86 237.86 191.02 237.32 191.02Z" fill="#3FB1B5" fill-opacity="1.000000" fill-rule="nonzero"/>
	<path id="Vector" d="M259.01 178.31L344.33 178.31C355.63 178.31 364.47 168.58 363.4 157.35C362.33 146.06 351.76 138.15 340.65 140.33L242.46 154.02C238.75 154.53 235.49 156.79 233.72 160.1L225.02 176.28C224.71 176.68 224.5 177.15 224.37 177.64L221.11 190.26L222.94 190.26C225.78 190.26 228.41 188.68 229.74 186.17L231.38 183.1L250.25 185.14C253.79 185.58 257.15 183.16 258.41 179.85L259.01 178.31Z" fill="#A0505A" fill-opacity="1.000000" fill-rule="nonzero"/>
	<path id="Vector" d="M231.56 183.03C231.49 183.03 231.41 183.01 231.35 182.98C231.1 182.87 231.01 182.58 231.12 182.33L236.82 170.53C236.93 170.28 237.22 170.19 237.47 170.3C237.71 170.41 237.81 170.71 237.69 170.95L232 182.75C231.92 182.93 231.74 183.03 231.56 183.03Z" fill="#73325A" fill-opacity="1.000000" fill-rule="nonzero"/>
	<path id="Vector" d="M239.15 183.78C239.09 183.78 239.01 183.76 238.94 183.73C238.7 183.62 238.6 183.32 238.71 183.08L244.41 171.28C244.52 171.03 244.82 170.93 245.06 171.05C245.3 171.16 245.4 171.45 245.29 171.7L239.59 183.5C239.51 183.68 239.33 183.78 239.15 183.78Z" fill="#73325A" fill-opacity="1.000000" fill-rule="nonzero"/>
	<path id="Vector" d="M246.58 184.7C246.52 184.7 246.44 184.69 246.37 184.66C246.13 184.54 246.03 184.25 246.15 184.01L251.83 172.2C251.94 171.96 252.23 171.86 252.47 171.97C252.72 172.09 252.82 172.38 252.7 172.62L247.02 184.43C246.94 184.61 246.76 184.7 246.58 184.7Z" fill="#73325A" fill-opacity="1.000000" fill-rule="nonzero"/>
	<path id="Vector" d="M259.01 178.79C258.97 178.79 258.92 178.78 258.85 178.76C258.59 178.68 258.46 178.4 258.54 178.14L261.14 170.4C261.22 170.14 261.5 170.01 261.76 170.09C262.02 170.17 262.15 170.45 262.06 170.71L259.47 178.45C259.4 178.66 259.23 178.79 259.01 178.79Z" fill="#73325A" fill-opacity="1.000000" fill-rule="nonzero"/>
	<path id="Vector" d="M280.01 9.02C280.01 9.02 291.17 2 302.08 10.85C312.37 19.21 307.56 35.69 303.8 32.93C300.57 30.58 325.74 22.54 333.62 41.2C342.56 62.34 322.43 74.34 299.47 63.88L266.15 63.88L230.73 74.94C230.73 74.94 212.74 65.78 222.52 47.92C231.56 31.44 253.16 37.32 250.72 41.39C247.3 47.11 232.66 29.02 242.95 11.94C253.82 -6.12 278.52 0.61 280.01 9.02Z" fill="#FFFFFF" fill-opacity="1.000000" fill-rule="nonzero"/>
	<path id="Vector" d="M230.68 75.46L230.5 75.36C230.18 75.2 222.34 71.12 219.84 63.05C218.37 58.26 219.11 53.08 222.08 47.66C227.58 37.64 237.14 36.47 240.99 36.44C241.25 36.44 241.51 36.44 241.77 36.44C240.01 33.15 238.97 29.26 238.86 25.45C238.7 20.59 239.93 15.95 242.53 11.66C245.45 6.81 249.52 3.38 254.6 1.51C258.8 -0.03 263.67 -0.42 268.28 0.44C274.41 1.58 279.23 4.73 280.34 8.25C281.37 7.7 283.74 6.6 286.89 6.11C290.79 5.51 296.63 5.77 302.4 10.45C305.99 13.37 308.23 17.69 308.68 22.61C308.93 25.22 308.65 27.58 308.12 29.41C309.56 29.05 311.18 28.81 312.85 28.71C317.56 28.45 329.06 29.1 334.08 40.97C335.96 45.42 336.64 49.61 336.11 53.43C335.62 56.98 334.03 60.15 331.51 62.6C328.2 65.83 323.5 67.73 317.88 68.1C312.07 68.49 305.68 67.2 299.37 64.34L266.24 64.34L230.68 75.46ZM241.21 37.43C241.15 37.43 241.08 37.43 241 37.43C237.32 37.46 228.18 38.58 222.94 48.15C220.1 53.31 219.39 58.23 220.79 62.78C222.94 69.81 229.63 73.77 230.78 74.42L266.07 63.4L299.58 63.4L299.68 63.44C305.88 66.27 312.16 67.55 317.82 67.18C323.19 66.82 327.68 65 330.83 61.95C333.22 59.63 334.68 56.72 335.15 53.34C335.65 49.71 334.99 45.7 333.18 41.41C330.93 36.08 327.08 32.51 321.73 30.79C316.11 28.99 310.79 29.85 308.76 30.32C308.41 30.4 308.07 30.48 307.76 30.58C307.45 31.39 307.08 32.06 306.7 32.56C305.75 33.81 304.56 34.12 303.54 33.37C303.13 33.08 302.97 32.64 303.1 32.2C303.36 31.33 304.89 30.43 307.01 29.78C307.61 28 307.99 25.53 307.73 22.75C307.29 18.09 305.18 14 301.8 11.26C297.39 7.69 292.42 6.29 287.07 7.12C283.06 7.73 280.34 9.44 280.3 9.45L279.69 9.84L279.56 9.13C278.96 5.75 274.25 2.59 268.13 1.45C263.69 0.62 259.01 1 254.97 2.49C250.11 4.28 246.21 7.56 243.4 12.23C240.92 16.37 239.72 20.82 239.88 25.5C240 29.26 241.05 33.13 242.84 36.34C242.89 36.43 242.92 36.51 242.97 36.57C246.86 36.86 250.22 38.16 251.18 39.82C251.53 40.44 251.53 41.1 251.19 41.69C250.67 42.56 249.9 43.02 248.92 43C246.91 42.97 244.39 40.84 242.4 37.51C241.98 37.45 241.6 37.43 241.21 37.43ZM243.55 37.56C245.27 40.19 247.36 41.96 248.89 41.98C249.49 41.98 249.96 41.72 250.3 41.13C250.46 40.86 250.46 40.57 250.28 40.26C249.64 39.14 247.02 37.95 243.55 37.56ZM303.99 32.46C303.99 32.46 304.01 32.5 304.07 32.54C304.64 32.97 305.26 32.76 305.89 31.93C306.1 31.67 306.3 31.33 306.49 30.94C304.76 31.57 303.99 32.24 303.99 32.46Z" fill="#FFCF2D" fill-opacity="1.000000" fill-rule="nonzero"/>
	<path id="Vector" d="M287.2 33.06C287.13 33.06 287.05 33.05 286.99 33.02C286.87 32.97 284.36 31.75 282.02 29.28C279.59 26.7 278.32 23.73 278.24 20.56C277.56 21.78 276.54 23.32 275.13 24.88C272.32 27.95 267.34 31.6 259.52 31.6C259.47 31.6 259.4 31.6 259.35 31.6C256.55 31.59 254.57 30.42 253.76 28.32C252.8 25.81 253.81 22.32 256.11 20.22C256.3 20.04 256.61 20.06 256.79 20.25C256.97 20.45 256.95 20.76 256.76 20.93C254.73 22.79 253.84 25.81 254.67 27.97C255.33 29.69 256.95 30.61 259.35 30.63C259.4 30.63 259.47 30.63 259.52 30.63C265.5 30.63 270.52 28.47 274.41 24.23C277.33 21.03 278.49 17.8 278.5 17.77C278.58 17.53 278.84 17.4 279.09 17.46C279.33 17.53 279.49 17.77 279.44 18.03C278.7 21.94 279.8 25.5 282.72 28.62C284.93 30.97 287.39 32.15 287.41 32.17C287.65 32.29 287.75 32.58 287.64 32.82C287.56 32.97 287.38 33.06 287.2 33.06Z" fill="#FFCF2D" fill-opacity="1.000000" fill-rule="nonzero"/>
	<path id="Vector" d="M299.74 64.56L291.22 41.93L267.01 41.93L265.12 64.56L275.55 94.57L299.74 64.56Z" fill="#A0505A" fill-opacity="1.000000" fill-rule="nonzero"/>
	<path id="Vector" d="M280.19 59.77L267.42 71.06L265.12 64.56L267.01 41.93L288.46 41.93L288.46 42.35C288.45 49.12 285.41 55.52 280.19 59.77Z" fill="#73325A" fill-opacity="1.000000" fill-rule="nonzero"/>
	<path id="Vector" d="M296.76 37.53L296.76 38.44C296.76 40.91 294.74 42.92 292.28 42.92L287.41 42.92C286.5 49.82 280.6 55.16 273.46 55.16C269.56 55.16 266.04 53.59 263.49 51.04C260.94 48.49 259.37 44.97 259.37 41.07L259.37 31.59C274.35 31.7 278.65 19.38 278.65 19.38C277.66 28.63 286.1 32.61 287.38 33.15L287.38 33.05L292.28 33.05C294.74 33.05 296.76 35.06 296.76 37.53Z" fill="#A0505A" fill-opacity="1.000000" fill-rule="nonzero"/>
	<path id="Vector" d="M281.75 31.94C281.62 31.94 281.49 31.9 281.39 31.8C279.22 29.48 275.92 29.38 275.89 29.38C275.61 29.38 275.4 29.15 275.42 28.87C275.42 28.6 275.65 28.39 275.92 28.4C276.07 28.4 279.64 28.5 282.1 31.12C282.28 31.31 282.28 31.62 282.09 31.8C281.99 31.9 281.86 31.94 281.75 31.94Z" fill="#73325A" fill-opacity="1.000000" fill-rule="nonzero"/>
	<path id="Vector" d="M276.16 38.41C276.16 39.37 275.72 40.14 275.18 40.14C274.63 40.14 274.19 39.37 274.19 38.41C274.19 37.45 274.63 36.67 275.18 36.67C275.72 36.67 276.16 37.45 276.16 38.41Z" fill="#73325A" fill-opacity="1.000000" fill-rule="evenodd"/>
	<path id="Vector" d="M262.65 38.41C262.65 39.37 262.21 40.14 261.66 40.14C261.11 40.14 260.67 39.37 260.67 38.41C260.67 37.45 261.11 36.67 261.66 36.67C262.21 36.67 262.65 37.45 262.65 38.41Z" fill="#73325A" fill-opacity="1.000000" fill-rule="evenodd"/>
	<path id="Vector" d="M269.4 47.6C269.35 47.6 269.3 47.6 269.27 47.6C268.21 47.56 267.47 47.22 267.44 47.21C267.19 47.09 267.09 46.8 267.21 46.56C267.32 46.31 267.61 46.22 267.86 46.33C267.95 46.38 270.26 47.42 272.38 45.36C272.58 45.16 272.89 45.18 273.07 45.37C273.26 45.57 273.24 45.88 273.05 46.05C271.75 47.32 270.37 47.6 269.4 47.6Z" fill="#73325A" fill-opacity="1.000000" fill-rule="nonzero"/>
	<path id="Vector" d="M288.66 39.79C288.38 39.79 288.17 39.57 288.17 39.3C288.17 36.91 290.1 34.98 292.49 34.98C292.76 34.98 292.98 35.19 292.98 35.47C292.98 35.74 292.76 35.95 292.49 35.95C290.64 35.95 289.15 37.45 289.15 39.3C289.15 39.57 288.94 39.79 288.66 39.79Z" fill="#73325A" fill-opacity="1.000000" fill-rule="nonzero"/>
	<path id="Vector" d="M255.07 32.1C254.96 32.1 254.83 32.06 254.73 31.97C254.54 31.8 254.52 31.49 254.71 31.29C257.18 28.68 260.75 28.58 260.9 28.58C261.17 28.58 261.38 28.79 261.4 29.05C261.4 29.33 261.19 29.54 260.93 29.56C260.9 29.56 257.6 29.65 255.43 31.97C255.33 32.06 255.2 32.1 255.07 32.1Z" fill="#73325A" fill-opacity="1.000000" fill-rule="nonzero"/>
	<path id="Vector" d="M261.12 45.19C257.78 45.19 255.07 42.04 255.07 38.16C255.07 34.28 257.78 31.13 261.12 31.13C264.47 31.13 267.18 34.28 267.18 38.16C267.18 42.04 264.47 45.19 261.12 45.19ZM261.12 32.11C258.32 32.11 256.04 34.82 256.04 38.16C256.04 41.51 258.32 44.22 261.12 44.22C263.93 44.22 266.2 41.51 266.2 38.16C266.2 34.82 263.93 32.11 261.12 32.11Z" fill="#FE5244" fill-opacity="1.000000" fill-rule="nonzero"/>
	<path id="Vector" d="M276.07 45.19C272.73 45.19 270.02 42.04 270.02 38.16C270.02 34.28 272.73 31.13 276.07 31.13C279.41 31.13 282.12 34.28 282.12 38.16C282.12 42.04 279.41 45.19 276.07 45.19ZM276.07 32.11C273.26 32.11 270.99 34.82 270.99 38.16C270.99 41.51 273.26 44.22 276.07 44.22C278.88 44.22 281.15 41.51 281.15 38.16C281.15 34.82 278.88 32.11 276.07 32.11Z" fill="#FE5244" fill-opacity="1.000000" fill-rule="nonzero"/>
	<path id="Vector" d="M270.24 38.55C270.18 38.5 268.51 37.35 267 38.54L266.4 37.77C268.07 36.47 270.02 37.19 270.81 37.76L270.24 38.55Z" fill="#FE5244" fill-opacity="1.000000" fill-rule="nonzero"/>
	<path id="Vector" d="M170.7 181.59L77.42 181.59C74.92 181.59 72.68 180.07 71.75 177.75L46.22 114.66C45.01 111.64 47.23 108.34 50.47 108.34L143.75 108.34C146.25 108.34 148.49 109.86 149.42 112.18L174.95 175.27C176.18 178.28 173.96 181.59 170.7 181.59Z" fill="#FFFFFF" fill-opacity="1.000000" fill-rule="nonzero"/>
	<path id="Vector (Stroke)" d="M46.75 114.45C46.75 114.45 46.75 114.45 46.75 114.45L72.27 177.54C73.12 179.64 75.15 181.02 77.42 181.02L170.7 181.02C173.56 181.02 175.5 178.12 174.42 175.48L148.89 112.39L148.89 112.39C148.05 110.29 146.02 108.91 143.75 108.91L50.47 108.91C47.63 108.91 45.68 111.8 46.75 114.45ZM45.69 114.88C44.33 111.49 46.82 107.77 50.47 107.77L143.75 107.77C146.49 107.77 148.93 109.43 149.95 111.96L175.48 175.05C176.86 178.44 174.37 182.16 170.7 182.16L77.42 182.16C74.68 182.16 72.23 180.5 71.22 177.96L45.69 114.88Z" fill="#FFCF2D" fill-opacity="1.000000" fill-rule="evenodd"/>
	<path id="Vector" d="M166.37 182.04L77.38 182.04C75.01 182.04 72.87 180.6 71.97 178.4L47.62 118.21C46.47 115.33 48.57 112.19 51.69 112.19L140.67 112.19C143.05 112.19 145.19 113.64 146.08 115.84L170.43 176.02C171.59 178.91 169.46 182.04 166.37 182.04Z" fill="#FFCF2D" fill-opacity="1.000000" fill-rule="nonzero"/>
	<path id="Vector" d="M111.73 154.67C109.11 154.67 106.65 153.65 104.79 151.79C103.27 150.27 102.43 148.26 102.43 146.13C102.43 143.99 103.27 141.97 104.79 140.47C106.02 139.24 107.67 138.56 109.42 138.56C111.16 138.56 112.81 139.24 114.05 140.47C116.16 142.58 116.16 146 114.05 148.1C112.3 149.85 109.47 149.85 107.73 148.1C107.43 147.8 107.43 147.33 107.73 147.02C108.03 146.72 108.51 146.72 108.81 147.02C109.97 148.18 111.83 148.18 112.99 147.02C114.5 145.5 114.5 143.06 112.99 141.54C112.04 140.59 110.77 140.06 109.42 140.06C108.07 140.06 106.8 140.59 105.85 141.54C104.62 142.77 103.95 144.39 103.95 146.13C103.95 147.86 104.64 149.49 105.85 150.72C107.43 152.3 109.49 153.15 111.71 153.15C113.93 153.15 116.02 152.3 117.58 150.72C117.88 150.42 118.36 150.42 118.66 150.72C118.96 151.03 118.96 151.5 118.66 151.81C116.82 153.65 114.35 154.67 111.73 154.67Z" fill="#FFFFFF" fill-opacity="1.000000" fill-rule="nonzero"/>
	<path id="Vector" d="M204.08 188.27L77.53 188.27C76.07 188.27 74.9 187.09 74.9 185.63L74.9 184.36C74.9 182.9 76.07 181.72 77.53 181.72L204.08 181.72C205.54 181.72 206.72 182.9 206.72 184.36L206.72 185.63C206.7 187.09 205.52 188.27 204.08 188.27Z" fill="#FFFFFF" fill-opacity="1.000000" fill-rule="nonzero"/>
	<path id="Vector (Stroke)" d="M77.53 182.29C76.39 182.29 75.46 183.21 75.46 184.36L75.46 185.63C75.46 186.77 76.39 187.7 77.53 187.7L204.08 187.7C205.2 187.7 206.13 186.78 206.15 185.62L206.15 184.36C206.15 183.21 205.23 182.29 204.08 182.29L77.53 182.29ZM74.33 184.36C74.33 182.58 75.76 181.15 77.53 181.15L204.08 181.15C205.85 181.15 207.29 182.58 207.29 184.36L207.29 185.63L207.29 185.64C207.26 187.4 205.84 188.84 204.08 188.84L77.53 188.84C75.76 188.84 74.33 187.4 74.33 185.63L74.33 184.36Z" fill="#FFCF2D" fill-opacity="1.000000" fill-rule="evenodd"/>
	<path id="Vector" d="M59.03 165.88L55.24 192.77C55.01 194.36 53.66 195.54 52.05 195.54L44.63 195.54C43.02 195.54 41.67 194.35 41.44 192.77L37.65 165.88C37.65 168.29 42.43 170.24 48.33 170.24C54.25 170.24 59.03 168.28 59.03 165.88Z" fill="#FFFFFF" fill-opacity="1.000000" fill-rule="nonzero"/>
	<path id="Vector" d="M52.05 195.93L44.63 195.93C42.84 195.93 41.3 194.6 41.05 192.82L37.33 166.46C37.28 166.28 37.25 166.08 37.25 165.88C37.25 165.67 37.41 165.5 37.62 165.49C37.83 165.47 38.02 165.62 38.04 165.83L38.11 166.29C38.65 168.08 42.62 169.85 48.33 169.85C54.07 169.85 58.05 168.08 58.57 166.29L58.64 165.83C58.67 165.62 58.85 165.47 59.06 165.49C59.27 165.5 59.43 165.67 59.43 165.88C59.43 166.08 59.4 166.28 59.35 166.46L55.64 192.82C55.38 194.63 53.87 195.93 52.05 195.93ZM38.35 167.98L41.84 192.72C42.04 194.1 43.24 195.14 44.63 195.14L52.05 195.14C53.47 195.14 54.65 194.13 54.84 192.72L58.34 167.98C56.56 169.57 52.79 170.64 48.33 170.64C43.88 170.64 40.11 169.56 38.35 167.98Z" fill="#66B0F0" fill-opacity="1.000000" fill-rule="nonzero"/>
	<path id="Vector" d="M56.65 168.76L53.26 192.56C53.01 194.34 51.47 195.67 49.68 195.67L47.14 195.67C45.34 195.67 43.8 194.34 43.55 192.56L40.16 168.82C40.43 168.94 40.72 169.05 41.01 169.15L44.33 192.45C44.51 193.73 45.54 194.72 46.81 194.86C46.91 194.88 47.02 194.89 47.14 194.89L49.68 194.89C49.84 194.89 50 194.88 50.14 194.85C51.34 194.65 52.3 193.69 52.47 192.45L55.79 169.1C56.11 168.99 56.39 168.88 56.65 168.76Z" fill="#66B0F0" fill-opacity="1.000000" fill-rule="nonzero"/>
	<path id="Vector" d="M53.16 169.81L50.14 194.85L50.1 195.2C50.08 195.39 49.9 195.54 49.71 195.54C49.69 195.54 49.68 195.54 49.65 195.54C49.43 195.51 49.28 195.31 49.31 195.1L49.34 194.89L52.34 169.96C52.63 169.9 52.89 169.85 53.16 169.81Z" fill="#66B0F0" fill-opacity="1.000000" fill-rule="nonzero"/>
	<path id="Vector" d="M47.3 195.54C47.28 195.54 47.27 195.54 47.24 195.54C47.04 195.54 46.87 195.39 46.85 195.19L46.81 194.86L43.79 169.86C44.05 169.92 44.33 169.96 44.61 170L47.61 194.89L47.64 195.1C47.66 195.31 47.51 195.51 47.3 195.54Z" fill="#66B0F0" fill-opacity="1.000000" fill-rule="nonzero"/>
	<path id="Vector" d="M59.42 165.88C59.42 166.99 58.38 167.99 56.66 168.77C56.4 168.89 56.11 169.01 55.82 169.11C55.03 169.39 54.15 169.64 53.17 169.83C52.91 169.88 52.63 169.92 52.35 169.97C51.21 170.14 49.96 170.25 48.65 170.26C48.55 170.26 48.45 170.26 48.35 170.26C48.2 170.26 48.06 170.26 47.91 170.26C46.75 170.25 45.65 170.15 44.62 170.01C44.34 169.97 44.08 169.93 43.8 169.88C42.79 169.69 41.85 169.46 41.02 169.17C40.73 169.06 40.44 168.95 40.18 168.84C38.37 168.06 37.28 167.03 37.28 165.9C37.28 165.8 37.29 165.71 37.31 165.62C37.68 163.34 42.47 161.54 48.35 161.54C54.23 161.54 59.04 163.35 59.39 165.62C59.4 165.7 59.42 165.79 59.42 165.88Z" fill="#66B0F0" fill-opacity="1.000000" fill-rule="nonzero"/>
	<path id="Vector" d="M48.81 194.8C48.81 194.83 48.81 194.87 48.8 194.89C48.76 195.06 48.6 195.2 48.41 195.2C48.23 195.2 48.07 195.06 48.03 194.89C48.02 194.87 48.02 194.84 48.02 194.81L47.89 170.39C47.89 170.34 47.9 170.3 47.91 170.25C48.06 170.25 48.2 170.25 48.35 170.25C48.45 170.25 48.56 170.25 48.65 170.25C48.66 170.29 48.68 170.33 48.68 170.38L48.81 194.8Z" fill="#66B0F0" fill-opacity="1.000000" fill-rule="nonzero"/>
	<path id="Vector" d="M48.41 169.44C46.07 169.38 43.92 169.02 42.18 168.45L35.96 142.36L41.96 142.36L48.41 169.44Z" fill="#FFCF2D" fill-opacity="1.000000" fill-rule="nonzero"/>
	<path id="Vector" d="M42.73 145.65L40.28 145.65C40.1 145.65 39.95 145.51 39.95 145.32C39.95 145.14 40.1 144.99 40.28 144.99L42.58 144.99L42.73 145.65Z" fill="#FFFFFF" fill-opacity="1.000000" fill-rule="nonzero"/>
	<path id="Vector" d="M43.39 148.42L40.94 148.42C40.76 148.42 40.61 148.28 40.61 148.09C40.61 147.91 40.76 147.76 40.94 147.76L43.24 147.76L43.39 148.42Z" fill="#FFFFFF" fill-opacity="1.000000" fill-rule="nonzero"/>
	<path id="Vector" d="M44.05 151.19L41.6 151.19C41.42 151.19 41.27 151.05 41.27 150.86C41.27 150.68 41.42 150.53 41.6 150.53L43.89 150.53L44.05 151.19Z" fill="#FFFFFF" fill-opacity="1.000000" fill-rule="nonzero"/>
	<path id="Vector" d="M44.72 153.96L42.27 153.96C42.09 153.96 41.94 153.82 41.94 153.63C41.94 153.45 42.09 153.3 42.27 153.3L44.57 153.3L44.72 153.96Z" fill="#FFFFFF" fill-opacity="1.000000" fill-rule="nonzero"/>
	<path id="Vector" d="M45.38 156.73L42.93 156.73C42.75 156.73 42.6 156.59 42.6 156.4C42.6 156.22 42.75 156.07 42.93 156.07L45.22 156.07L45.38 156.73Z" fill="#FFFFFF" fill-opacity="1.000000" fill-rule="nonzero"/>
	<path id="Vector" d="M46.04 159.5L43.71 159.5C43.53 159.5 43.38 159.35 43.38 159.17C43.38 158.99 43.53 158.84 43.71 158.84L45.88 158.84L46.04 159.5Z" fill="#FFFFFF" fill-opacity="1.000000" fill-rule="nonzero"/>
	<path id="Vector" d="M46.7 162.27L44.24 162.27C44.05 162.27 43.91 162.12 43.91 161.94C43.91 161.75 44.05 161.61 44.24 161.61L46.54 161.61L46.7 162.27Z" fill="#FFFFFF" fill-opacity="1.000000" fill-rule="nonzero"/>
	<path id="Vector" d="M47.36 165.04L44.9 165.04C44.71 165.04 44.57 164.89 44.57 164.71C44.57 164.52 44.71 164.38 44.9 164.38L47.2 164.38L47.36 165.04Z" fill="#FFFFFF" fill-opacity="1.000000" fill-rule="nonzero"/>
	<path id="Vector" d="M48.02 167.79C47.99 167.81 47.97 167.81 47.93 167.81L45.42 167.81C45.24 167.81 45.09 167.66 45.09 167.48C45.09 167.29 45.24 167.15 45.42 167.15L47.86 167.15L48.02 167.79Z" fill="#FFFFFF" fill-opacity="1.000000" fill-rule="nonzero"/>
	<path id="Vector" d="M93.41 198.72L92.86 200.73C92.85 200.79 92.81 200.81 92.77 200.8L64.31 192.29C64.27 192.28 64.25 192.23 64.27 192.19L64.81 190.18C64.81 190.16 64.83 190.14 64.85 190.13C64.86 190.12 64.89 190.12 64.9 190.12L93.36 198.62C93.37 198.62 93.39 198.65 93.4 198.66C93.41 198.68 93.41 198.7 93.41 198.72Z" fill="#FE5244" fill-opacity="1.000000" fill-rule="nonzero"/>
	<path id="Vector" d="M65.23 190.24L64.65 192.39C64.61 192.53 64.49 192.62 64.37 192.6L63.73 192.4C63.62 192.37 63.56 192.22 63.6 192.07L64.17 189.92C64.21 189.78 64.33 189.68 64.45 189.71L65.1 189.91C65.2 189.93 65.27 190.08 65.23 190.24Z" fill="#FFCF2D" fill-opacity="1.000000" fill-rule="nonzero"/>
	<path id="Vector" d="M62.61 190.08L62.34 191.08C62.26 191.36 62.43 191.65 62.72 191.74L63.63 192L64.17 189.99L63.27 189.72C62.98 189.64 62.68 189.8 62.61 190.08Z" fill="#FE5244" fill-opacity="1.000000" fill-rule="nonzero"/>
	<path id="Vector" d="M93.33 198.7L94.19 199.57L94.85 200.24L93.95 200.46L92.79 200.72L93.33 198.7Z" fill="#FFFFFF" fill-opacity="1.000000" fill-rule="nonzero"/>
	<path id="Vector" d="M94.92 200.26C94.9 200.31 94.88 200.34 94.85 200.34L92.8 200.81C92.77 200.81 92.74 200.81 92.73 200.79C92.72 200.76 92.72 200.73 92.72 200.71L93.26 198.7C93.27 198.68 93.28 198.65 93.31 198.64C93.34 198.62 93.36 198.62 93.37 198.65L94.89 200.19C94.92 200.19 94.93 200.22 94.92 200.26ZM92.9 200.6L94.68 200.19L93.37 198.86L92.9 200.6Z" fill="#FE5244" fill-opacity="1.000000" fill-rule="nonzero"/>
	<path id="Vector" d="M94.19 199.57L94.85 200.25L93.95 200.46L94.19 199.57Z" fill="#F0E1D4" fill-opacity="1.000000" fill-rule="nonzero"/>
	<path id="Vector" d="M94.92 200.26C94.9 200.31 94.88 200.34 94.85 200.34L93.96 200.55C93.93 200.55 93.9 200.55 93.89 200.52C93.88 200.5 93.88 200.47 93.88 200.44L94.11 199.57C94.13 199.55 94.14 199.52 94.17 199.51C94.19 199.49 94.22 199.49 94.23 199.52L94.89 200.19C94.92 200.19 94.93 200.22 94.92 200.26Z" fill="#FE5244" fill-opacity="1.000000" fill-rule="nonzero"/>
	<path id="Vector" d="M53.24 151.92C53.24 152 53.24 152.09 53.22 152.17L51.08 169.31C50.22 169.4 49.34 169.46 48.41 169.46L49.47 151.8C49.53 150.81 50.35 150.03 51.35 150.03C52.41 150.03 53.24 150.89 53.24 151.92Z" fill="#FE5244" fill-opacity="1.000000" fill-rule="nonzero"/>
</svg>
