<svg width="130.000000" height="22.000000" viewBox="0 0 130 22" fill="none" xmlns="http://www.w3.org/2000/svg" xmlns:xlink="http://www.w3.org/1999/xlink">
	<desc>
			Created with Pixso.
	</desc>
	<defs>
		<clipPath id="clip3_456">
			<rect id="logo" width="130.000000" height="21.999998" fill="white" fill-opacity="0"/>
		</clipPath>
	</defs>
	<g clip-path="url(#clip3_456)">
		<path id="Vector" d="M0 11.1C0 5 3.29 1.3 8.7 1.3C12.79 1.3 16.1 3.8 16.7 7.5C16.79 7.9 16.5 8.2 16.1 8.2L13.5 8.2C13.2 8.2 13 8 12.89 7.7C12.39 5.8 10.79 4.6 8.7 4.6C5.79 4.6 4 7.1 4 11.1C4 15.1 5.79 17.6 8.79 17.6C10.89 17.6 12.39 16.5 13 14.7C13.1 14.4 13.29 14.2 13.6 14.2L16.2 14.2C16.6 14.2 16.89 14.6 16.79 14.9C16.2 18.5 13 20.9 8.79 20.9C3.29 20.9 0 17.1 0 11.1ZM79 19.7L79 5.5C79 5.2 78.8 5 78.5 5L74.1 5C73.7 5 73.3 4.7 73.3 4.2L73.3 2.5C73.3 2.1 73.6 1.7 74.1 1.7L87.7 1.7C88.1 1.7 88.5 2 88.5 2.5L88.5 4.2C88.5 4.6 88.2 5 87.7 5L83.3 5C83 5 82.8 5.2 82.8 5.5L82.8 19.8C82.8 20.2 82.5 20.5 82.1 20.5L79.6 20.5C79.3 20.4 79 20.1 79 19.7ZM21.39 20.4L24.29 20.4C24.59 20.4 24.89 20.2 24.79 20L24.79 14.1C24.79 13.8 24.99 13.6 25.29 13.6L27.59 13.6C27.89 13.6 28.19 13.7 28.29 14L31.19 20C31.29 20.2 31.49 20.3 31.69 20.3L34.99 20.3C35.29 20.3 35.59 19.9 35.39 19.6L32.29 13.7C32.09 13.4 32.19 12.9 32.59 12.7C34.29 11.7 35.29 9.8 35.29 7.7C35.29 4.1 32.79 1.8 28.69 1.8L21.69 1.8C21.29 1.8 20.89 2.2 20.89 2.6L20.89 19.9C20.89 20.2 21.09 20.4 21.39 20.4ZM51.5 20.4L40.5 20.4C40.09 20.4 39.79 20.1 39.79 19.7L39.79 2.5C39.79 2.1 40.09 1.8 40.5 1.8L51.5 1.8C51.89 1.8 52.19 2.1 52.19 2.5L52.19 4.4C52.19 4.8 51.89 5.1 51.5 5.1L44.19 5.1C43.89 5.1 43.69 5.3 43.69 5.6L43.69 9C43.69 9.3 43.89 9.5 44.19 9.5L51 9.5C51.39 9.5 51.69 9.8 51.69 10.2L51.69 11.9C51.69 12.3 51.39 12.6 51 12.6L44.19 12.6C43.89 12.6 43.69 12.8 43.69 13.1L43.69 16.9C43.69 17.2 43.89 17.4 44.19 17.4L51.5 17.4C51.89 17.4 52.19 17.7 52.19 18.1L52.19 20C52.19 20.1 51.89 20.4 51.5 20.4ZM61.29 15.9L67 15.9C67.19 15.9 67.5 16.1 67.5 16.3L68.6 20C68.69 20.2 68.89 20.4 69.19 20.4L72.1 20.4C72.5 20.4 72.79 20 72.69 19.6L66.69 2.2C66.6 2 66.39 1.8 66.1 1.8L62.39 1.8C62.1 1.8 61.89 2 61.79 2.2L55.79 19.6C55.69 20 56 20.4 56.39 20.4L59 20.4C59.29 20.4 59.5 20.3 59.6 20L60.69 16.3C60.79 16.1 61 15.9 61.29 15.9ZM92.79 20.4L103.8 20.4C104.2 20.4 104.5 20.1 104.5 20L104.5 18.1C104.5 17.7 104.2 17.4 103.8 17.4L96.5 17.4C96.19 17.4 96 17.2 96 16.9L96 13.1C96 12.8 96.19 12.6 96.5 12.6L103.3 12.6C103.7 12.6 104 12.3 104 11.9L104 10.2C104 9.8 103.7 9.5 103.3 9.5L96.5 9.5C96.19 9.5 96 9.3 96 9L96 5.6C96 5.3 96.19 5.1 96.5 5.1L103.8 5.1C104.2 5.1 104.5 4.8 104.5 4.4L104.5 2.5C104.5 2.1 104.2 1.8 103.8 1.8L92.79 1.8C92.39 1.8 92.1 2.1 92.1 2.5L92.1 19.7C92.1 20.1 92.39 20.4 92.79 20.4ZM25.39 10.7C25.09 10.7 24.89 10.5 24.89 10.2L24.99 10.2L24.99 5.4C24.99 5.1 25.19 4.9 25.49 4.9L28.39 4.9C30.29 4.9 31.49 6 31.49 7.8C31.49 9.6 30.39 10.7 28.39 10.7L25.39 10.7ZM66.19 13L62.1 13C61.89 13 61.79 12.8 61.89 12.6L64.1 5.6L64.29 5.6L66.5 12.6C66.5 12.8 66.39 13 66.19 13Z" fill="#FFFFFF" fill-opacity="1.000000" fill-rule="evenodd"/>
		<path id="Vector" d="M111.5 1.59L117.7 9.69C118.4 10.5 118.4 11.69 117.7 12.3L111.5 20.4C111.1 20.8 110.6 21 110.1 21C109.6 21 109.1 20.8 108.7 20.4C108 19.59 108 18.4 108.7 17.59L113.6 11L108.7 4.4C108 3.59 108 2.4 108.7 1.59C109.1 1.19 109.6 1 110.1 1C110.6 1 111.1 1.19 111.5 1.59ZM126.54 1.59L120.34 9.69C119.64 10.5 119.64 11.69 120.34 12.3L126.54 20.4C126.94 20.8 127.44 21 127.94 21C128.44 21 128.94 20.8 129.34 20.4C130.04 19.59 130.04 18.4 129.34 17.59L124.44 11L129.34 4.4C130.04 3.59 130.04 2.4 129.34 1.59C128.94 1.19 128.44 1 127.94 1C127.44 1 126.94 1.19 126.54 1.59Z" fill="#FF3F3A" fill-opacity="1.000000" fill-rule="evenodd"/>
	</g>
</svg>
