<svg viewBox="0 0 90 89.998" xmlns="http://www.w3.org/2000/svg" xmlns:xlink="http://www.w3.org/1999/xlink" width="90.000000" height="89.998047" fill="none" customFrame="#000000">
	<g id="shapes" opacity="0.600000024">
		<path id="Vector" d="M29.7173 18.5416L29.7173 29.7173L0 29.7173L0 0L11.0911 0L11.0911 18.5416L29.7173 18.5416Z" fill="rgb(255,255,255)" fill-rule="nonzero" transform="matrix(-5.24442e-08,1,1,3.64327e-08,60.2827,0)" />
		<path id="Vector" d="M29.7173 18.5416L29.7173 29.6326L0 29.6326L0 0L11.1757 0L11.1757 18.5416L29.7173 18.5416Z" fill="rgb(255,255,255)" fill-rule="nonzero" transform="matrix(-5.2444e-08,1,1,3.64328e-08,40.2183,20.0625)" />
		<path id="Vector" d="M29.6326 18.5416L29.6326 29.7173L0 29.7173L0 0L11.0911 0L11.0911 18.5416L29.6326 18.5416Z" fill="rgb(255,255,255)" fill-rule="nonzero" transform="matrix(-5.24441e-08,1,1,3.64328e-08,20.0645,40.2168)" />
		<path id="Vector" d="M29.7173 18.5416L29.7173 29.7173L0 29.7173L0 0L11.1757 0L11.1757 18.5416L29.7173 18.5416Z" fill="rgb(255,255,255)" fill-rule="nonzero" transform="matrix(-5.24442e-08,1,1,3.64327e-08,0,60.2812)" />
	</g>
</svg>
